solid OpenSCAD_Model
  facet normal -0 0 -1
    outer loop
      vertex -31.8795 64.1884 0
      vertex -25.8372 66.8786 0
      vertex -22.122 58.09 0
    endloop
  endfacet
  facet normal -0 -0 -1
    outer loop
      vertex -22.122 58.09 0
      vertex -25.8372 66.8786 0
      vertex 46.6987 25 0
    endloop
  endfacet
  facet normal 0 0 -1
    outer loop
      vertex 46.6987 25 0
      vertex 57.3045 43.3697 0
      vertex 58.2492 42.3205 0
    endloop
  endfacet
  facet normal 0 0 -1
    outer loop
      vertex 46.6987 25 0
      vertex 58.2492 42.3205 0
      vertex 65.7753 29.285 0
    endloop
  endfacet
  facet normal -0 0 -1
    outer loop
      vertex 59.707 19.707 0
      vertex 65.7753 29.285 0
      vertex 70.4266 14.9696 0
    endloop
  endfacet
  facet normal -0 0 -1
    outer loop
      vertex 59.7 13 0
      vertex 70.4266 14.9696 0
      vertex 72 0 0
    endloop
  endfacet
  facet normal 0 0 -1
    outer loop
      vertex 33.942 20.464 0
      vertex 40 10.3 0
      vertex 40 9.7 0
    endloop
  endfacet
  facet normal 0 0 -1
    outer loop
      vertex -18.489 -53.09 0
      vertex -18.055 -51.045 0
      vertex -4 -45 0
    endloop
  endfacet
  facet normal 0 0 -1
    outer loop
      vertex 33.942 20.464 0
      vertex 40.15 -13.04 0
      vertex 40.04 -13.15 0
    endloop
  endfacet
  facet normal 0 0 -1
    outer loop
      vertex 65.7753 -29.285 0
      vertex 58.2492 -42.3205 0
      vertex 46.6987 -25 0
    endloop
  endfacet
  facet normal 0 0 -1
    outer loop
      vertex 60 -6.7 0
      vertex 70.4266 -14.9696 0
      vertex 59.96 -6.85 0
    endloop
  endfacet
  facet normal 0 0 -1
    outer loop
      vertex -18.055 51.045 0
      vertex -9.878 43.09 0
      vertex -11.431 41.691 0
    endloop
  endfacet
  facet normal 0 0 -1
    outer loop
      vertex -22.122 -58.09 0
      vertex -25.8372 -66.8786 0
      vertex -31.8795 -64.1884 0
    endloop
  endfacet
  facet normal 0 0 -1
    outer loop
      vertex -8.067 44.135 0
      vertex -18.055 51.045 0
      vertex -18.489 53.09 0
    endloop
  endfacet
  facet normal 0 -0 -1
    outer loop
      vertex 37.692 20.843 0
      vertex 32.584 24.045 0
      vertex 37.771 20.946 0
    endloop
  endfacet
  facet normal 0 0 -1
    outer loop
      vertex 40 10.3 0
      vertex 33.942 20.464 0
      vertex 33.48 22.337 0
    endloop
  endfacet
  facet normal 0 0 -1
    outer loop
      vertex -13.945 -36.045 0
      vertex -18.055 -51.045 0
      vertex -13.945 36.045 0
    endloop
  endfacet
  facet normal 0 0 -1
    outer loop
      vertex -13.511 -38.09 0
      vertex -18.055 -51.045 0
      vertex -13.945 -36.045 0
    endloop
  endfacet
  facet normal 0 0 -1
    outer loop
      vertex -12.66 -40 0
      vertex -18.055 -51.045 0
      vertex -13.511 -38.09 0
    endloop
  endfacet
  facet normal 0 0 -1
    outer loop
      vertex -18.055 51.045 0
      vertex -13.945 36.045 0
      vertex -18.055 -51.045 0
    endloop
  endfacet
  facet normal 0 0 -1
    outer loop
      vertex -11.431 -41.691 0
      vertex -18.055 -51.045 0
      vertex -12.66 -40 0
    endloop
  endfacet
  facet normal 0 0 -1
    outer loop
      vertex -18.055 51.045 0
      vertex -13.511 38.09 0
      vertex -13.945 36.045 0
    endloop
  endfacet
  facet normal 0 0 -1
    outer loop
      vertex -9.878 -43.09 0
      vertex -18.055 -51.045 0
      vertex -11.431 -41.691 0
    endloop
  endfacet
  facet normal 0 0 -1
    outer loop
      vertex -18.055 51.045 0
      vertex -12.66 40 0
      vertex -13.511 38.09 0
    endloop
  endfacet
  facet normal 0 0 -1
    outer loop
      vertex -8.067 -44.135 0
      vertex -18.055 -51.045 0
      vertex -9.878 -43.09 0
    endloop
  endfacet
  facet normal 0 0 -1
    outer loop
      vertex -6.079 -44.781 0
      vertex -18.055 -51.045 0
      vertex -8.067 -44.135 0
    endloop
  endfacet
  facet normal 0 0 -1
    outer loop
      vertex -4 -45 0
      vertex -18.055 -51.045 0
      vertex -6.079 -44.781 0
    endloop
  endfacet
  facet normal 0 0 -1
    outer loop
      vertex -18.055 51.045 0
      vertex -11.431 41.691 0
      vertex -12.66 40 0
    endloop
  endfacet
  facet normal -0 0 -1
    outer loop
      vertex 59.924 -19.383 0
      vertex 70.4266 -14.9696 0
      vertex 59.707 -19.707 0
    endloop
  endfacet
  facet normal 0 0 -1
    outer loop
      vertex 41.75 -13 0
      vertex 40.04 -6.85 0
      vertex 40.15 -6.96 0
    endloop
  endfacet
  facet normal 0 0 -1
    outer loop
      vertex 46.6987 25 0
      vertex 31.305 25.488 0
      vertex 29.718 26.584 0
    endloop
  endfacet
  facet normal 0 0 -1
    outer loop
      vertex 46.6987 25 0
      vertex 29.718 26.584 0
      vertex -22.122 58.09 0
    endloop
  endfacet
  facet normal -0 -0 -1
    outer loop
      vertex -1.921 44.781 0
      vertex -22.122 58.09 0
      vertex 0.067 44.135 0
    endloop
  endfacet
  facet normal 0 0 -1
    outer loop
      vertex -22.122 58.09 0
      vertex 1.878 43.09 0
      vertex 0.067 44.135 0
    endloop
  endfacet
  facet normal -0 -0 -1
    outer loop
      vertex -4 45 0
      vertex -22.122 58.09 0
      vertex -1.921 44.781 0
    endloop
  endfacet
  facet normal -0 -0 -1
    outer loop
      vertex 37.625 -20 0
      vertex 33.942 20.464 0
      vertex 40 -20 0
    endloop
  endfacet
  facet normal 0 -0 -1
    outer loop
      vertex 40 -6.7 0
      vertex 33.942 20.464 0
      vertex 40 9.7 0
    endloop
  endfacet
  facet normal 0 0 -1
    outer loop
      vertex 40 10.3 0
      vertex 33.48 22.337 0
      vertex 37.625 20 0
    endloop
  endfacet
  facet normal 0 0 -1
    outer loop
      vertex -20.569 56.691 0
      vertex -6.079 44.781 0
      vertex -19.34 55 0
    endloop
  endfacet
  facet normal 0 0 -1
    outer loop
      vertex 33.942 20.464 0
      vertex 40.3 -13 0
      vertex 40.15 -13.04 0
    endloop
  endfacet
  facet normal 0 0 -1
    outer loop
      vertex 40.04 -6.85 0
      vertex 41.75 -13 0
      vertex 40.3 -13 0
    endloop
  endfacet
  facet normal 0 0 -1
    outer loop
      vertex 40 -6.7 0
      vertex 40.04 -6.85 0
      vertex 40.3 -13 0
    endloop
  endfacet
  facet normal 0 0 -1
    outer loop
      vertex 33.942 20.464 0
      vertex 40 -6.7 0
      vertex 40.3 -13 0
    endloop
  endfacet
  facet normal 0 0 -1
    outer loop
      vertex -25.8372 -66.8786 0
      vertex -19.34 -55 0
      vertex -4 -45 0
    endloop
  endfacet
  facet normal 0 0 -1
    outer loop
      vertex -19.34 -55 0
      vertex -18.489 -53.09 0
      vertex -4 -45 0
    endloop
  endfacet
  facet normal 0 0 -1
    outer loop
      vertex -25.8372 -66.8786 0
      vertex -22.122 -58.09 0
      vertex -20.569 -56.691 0
    endloop
  endfacet
  facet normal 0 0 -1
    outer loop
      vertex 46.6987 -25 0
      vertex 42.229 -20.946 0
      vertex 42.308 -20.843 0
    endloop
  endfacet
  facet normal 0 0 -1
    outer loop
      vertex 46.6987 -25 0
      vertex 42.308 -20.843 0
      vertex 42.358 -20.722 0
    endloop
  endfacet
  facet normal 0 0 -1
    outer loop
      vertex 59.85 -6.96 0
      vertex 70.4266 -14.9696 0
      vertex 59.7 -7 0
    endloop
  endfacet
  facet normal 0 0 -1
    outer loop
      vertex 46.6987 -25 0
      vertex 42.358 -20.722 0
      vertex 42.375 -20.593 0
    endloop
  endfacet
  facet normal 0 0 -1
    outer loop
      vertex 46.6987 -25 0
      vertex 42.375 -20.593 0
      vertex 42.375 -20.5 0
    endloop
  endfacet
  facet normal 0 0 -1
    outer loop
      vertex 59.96 -6.85 0
      vertex 70.4266 -14.9696 0
      vertex 59.85 -6.96 0
    endloop
  endfacet
  facet normal 0 0 -1
    outer loop
      vertex 46.6987 -25 0
      vertex 42.375 -20.5 0
      vertex 42.442 -20.25 0
    endloop
  endfacet
  facet normal 0 0 -1
    outer loop
      vertex 65.7753 -29.285 0
      vertex 46.6987 -25 0
      vertex 42.625 -20.067 0
    endloop
  endfacet
  facet normal 0 0 -1
    outer loop
      vertex 65.7753 -29.285 0
      vertex 42.625 -20.067 0
      vertex 42.875 -20 0
    endloop
  endfacet
  facet normal 0 0 -1
    outer loop
      vertex 65.7753 -29.285 0
      vertex 42.875 -20 0
      vertex 46.7 -20 0
    endloop
  endfacet
  facet normal 0 0 -1
    outer loop
      vertex 65.7753 -29.285 0
      vertex 46.7 -20 0
      vertex 46.85 -19.96 0
    endloop
  endfacet
  facet normal 0 0 -1
    outer loop
      vertex 65.7753 -29.285 0
      vertex 46.85 -19.96 0
      vertex 46.96 -19.85 0
    endloop
  endfacet
  facet normal 0 0 -1
    outer loop
      vertex 65.7753 -29.285 0
      vertex 46.96 -19.85 0
      vertex 47 -19.7 0
    endloop
  endfacet
  facet normal 0 0 -1
    outer loop
      vertex 65.7753 -29.285 0
      vertex 47 -19.7 0
      vertex 47 -18.25 0
    endloop
  endfacet
  facet normal 0 0 -1
    outer loop
      vertex 53 -19.7 0
      vertex 47 -18.25 0
      vertex 53 -18.25 0
    endloop
  endfacet
  facet normal 0 0 -1
    outer loop
      vertex 53.04 -19.85 0
      vertex 47 -18.25 0
      vertex 53 -19.7 0
    endloop
  endfacet
  facet normal 0 0 -1
    outer loop
      vertex 53.15 -19.96 0
      vertex 47 -18.25 0
      vertex 53.04 -19.85 0
    endloop
  endfacet
  facet normal 0 0 -1
    outer loop
      vertex 65.7753 -29.285 0
      vertex 47 -18.25 0
      vertex 53.15 -19.96 0
    endloop
  endfacet
  facet normal 0 0 -1
    outer loop
      vertex 59 -20 0
      vertex 65.7753 -29.285 0
      vertex 53.3 -20 0
    endloop
  endfacet
  facet normal 0 0 -1
    outer loop
      vertex 59.383 -19.924 0
      vertex 65.7753 -29.285 0
      vertex 59 -20 0
    endloop
  endfacet
  facet normal 0 0 -1
    outer loop
      vertex 70.4266 -14.9696 0
      vertex 65.7753 -29.285 0
      vertex 59.383 -19.924 0
    endloop
  endfacet
  facet normal 0 0 -1
    outer loop
      vertex 70.4266 -14.9696 0
      vertex 59.383 -19.924 0
      vertex 59.707 -19.707 0
    endloop
  endfacet
  facet normal 0 0 -1
    outer loop
      vertex 58.25 -7 0
      vertex 59.7 -13 0
      vertex 58.25 -13 0
    endloop
  endfacet
  facet normal 0 0 -1
    outer loop
      vertex 58.25 -7 0
      vertex 59.85 -13.04 0
      vertex 59.7 -13 0
    endloop
  endfacet
  facet normal 0 0 -1
    outer loop
      vertex 70.4266 -14.9696 0
      vertex 59.924 -19.383 0
      vertex 60 -19 0
    endloop
  endfacet
  facet normal 0 0 -1
    outer loop
      vertex 70.4266 -14.9696 0
      vertex 60 -19 0
      vertex 60 -13.3 0
    endloop
  endfacet
  facet normal 0 0 -1
    outer loop
      vertex 70.4266 -14.9696 0
      vertex 60 -13.3 0
      vertex 59.96 -13.15 0
    endloop
  endfacet
  facet normal 0 0 -1
    outer loop
      vertex 70.4266 -14.9696 0
      vertex 59.96 -13.15 0
      vertex 59.85 -13.04 0
    endloop
  endfacet
  facet normal 0 0 -1
    outer loop
      vertex 70.4266 -14.9696 0
      vertex 59.85 -13.04 0
      vertex 58.25 -7 0
    endloop
  endfacet
  facet normal 0 0 -1
    outer loop
      vertex 70.4266 -14.9696 0
      vertex 58.25 -7 0
      vertex 59.7 -7 0
    endloop
  endfacet
  facet normal 0 0 -1
    outer loop
      vertex 40 10.3 0
      vertex 40.3 10 0
      vertex 40 9.7 0
    endloop
  endfacet
  facet normal 0 0 -1
    outer loop
      vertex 58.25 13 0
      vertex 72 0 0
      vertex 59.85 6.96 0
    endloop
  endfacet
  facet normal 0 0 -1
    outer loop
      vertex 59.96 6.85 0
      vertex 72 0 0
      vertex 60 6.7 0
    endloop
  endfacet
  facet normal 0 0 -1
    outer loop
      vertex 58.25 13 0
      vertex 59.85 6.96 0
      vertex 59.7 7 0
    endloop
  endfacet
  facet normal 0 0 -1
    outer loop
      vertex 59.85 6.96 0
      vertex 72 0 0
      vertex 59.96 6.85 0
    endloop
  endfacet
  facet normal 0 0 -1
    outer loop
      vertex 41.75 -13 0
      vertex 40.3 -7 0
      vertex 41.75 -7 0
    endloop
  endfacet
  facet normal 0 0 -1
    outer loop
      vertex 58.25 13 0
      vertex 59.7 7 0
      vertex 58.25 7 0
    endloop
  endfacet
  facet normal 0 0 -1
    outer loop
      vertex 40.354 22.821 0
      vertex 46.7 20 0
      vertex 42.229 20.946 0
    endloop
  endfacet
  facet normal -0 0 -1
    outer loop
      vertex 59.85 13.04 0
      vertex 70.4266 14.9696 0
      vertex 59.7 13 0
    endloop
  endfacet
  facet normal 0 0 -1
    outer loop
      vertex 59.707 19.707 0
      vertex 70.4266 14.9696 0
      vertex 59.924 19.383 0
    endloop
  endfacet
  facet normal -0 0 -1
    outer loop
      vertex 59.96 13.15 0
      vertex 70.4266 14.9696 0
      vertex 59.85 13.04 0
    endloop
  endfacet
  facet normal 0 0 -1
    outer loop
      vertex 42.875 20 0
      vertex 42.375 20.5 0
      vertex 42.375 20.593 0
    endloop
  endfacet
  facet normal -0 0 -1
    outer loop
      vertex 60 13.3 0
      vertex 70.4266 14.9696 0
      vertex 59.96 13.15 0
    endloop
  endfacet
  facet normal 0 0 -1
    outer loop
      vertex 42.875 20 0
      vertex 42.375 20.593 0
      vertex 42.358 20.722 0
    endloop
  endfacet
  facet normal 0 0 -1
    outer loop
      vertex 60 19 0
      vertex 70.4266 14.9696 0
      vertex 60 13.3 0
    endloop
  endfacet
  facet normal 0 0 -1
    outer loop
      vertex 42.875 20 0
      vertex 42.358 20.722 0
      vertex 42.308 20.843 0
    endloop
  endfacet
  facet normal 0 0 -1
    outer loop
      vertex 59.924 19.383 0
      vertex 70.4266 14.9696 0
      vertex 60 19 0
    endloop
  endfacet
  facet normal -0 0 -1
    outer loop
      vertex 59.383 19.924 0
      vertex 65.7753 29.285 0
      vertex 59.707 19.707 0
    endloop
  endfacet
  facet normal -0 -0 -1
    outer loop
      vertex 53.3 20 0
      vertex 46.6987 25 0
      vertex 59 20 0
    endloop
  endfacet
  facet normal -0 0 -1
    outer loop
      vertex 46.6987 25 0
      vertex 65.7753 29.285 0
      vertex 59.383 19.924 0
    endloop
  endfacet
  facet normal 0 0 -1
    outer loop
      vertex 46.6987 25 0
      vertex 59.383 19.924 0
      vertex 59 20 0
    endloop
  endfacet
  facet normal 0 0 -1
    outer loop
      vertex 53 18.25 0
      vertex 46.6987 25 0
      vertex 53 19.7 0
    endloop
  endfacet
  facet normal 0 0 -1
    outer loop
      vertex 46.6987 25 0
      vertex 53.3 20 0
      vertex 53.15 19.96 0
    endloop
  endfacet
  facet normal 0 0 -1
    outer loop
      vertex 46.6987 25 0
      vertex 53.15 19.96 0
      vertex 53.04 19.85 0
    endloop
  endfacet
  facet normal 0 0 -1
    outer loop
      vertex 46.6987 25 0
      vertex 53.04 19.85 0
      vertex 53 19.7 0
    endloop
  endfacet
  facet normal 0 0 -1
    outer loop
      vertex 53 18.25 0
      vertex 47 18.25 0
      vertex 47 19.7 0
    endloop
  endfacet
  facet normal 0 0 -1
    outer loop
      vertex 53 18.25 0
      vertex 47 19.7 0
      vertex 46.96 19.85 0
    endloop
  endfacet
  facet normal 0 0 -1
    outer loop
      vertex 53 18.25 0
      vertex 46.96 19.85 0
      vertex 46.85 19.96 0
    endloop
  endfacet
  facet normal 0 0 -1
    outer loop
      vertex 59.7 13 0
      vertex 72 0 0
      vertex 58.25 13 0
    endloop
  endfacet
  facet normal 0 0 -1
    outer loop
      vertex 40.354 22.821 0
      vertex 53 18.25 0
      vertex 46.85 19.96 0
    endloop
  endfacet
  facet normal 0 0 -1
    outer loop
      vertex 42.875 20 0
      vertex 42.442 20.25 0
      vertex 42.375 20.5 0
    endloop
  endfacet
  facet normal 0 0 -1
    outer loop
      vertex 40.354 22.821 0
      vertex 46.85 19.96 0
      vertex 46.7 20 0
    endloop
  endfacet
  facet normal 0 0 -1
    outer loop
      vertex 42.442 20.25 0
      vertex 42.875 20 0
      vertex 42.625 20.067 0
    endloop
  endfacet
  facet normal 0 0 -1
    outer loop
      vertex 46.6987 25 0
      vertex 53 18.25 0
      vertex 40.354 22.821 0
    endloop
  endfacet
  facet normal 0 0 -1
    outer loop
      vertex 46.6987 25 0
      vertex 40.354 22.821 0
      vertex 40.129 22.951 0
    endloop
  endfacet
  facet normal 0 0 -1
    outer loop
      vertex 46.6987 25 0
      vertex 40.129 22.951 0
      vertex 31.305 25.488 0
    endloop
  endfacet
  facet normal -0 -0 -1
    outer loop
      vertex 39.871 22.951 0
      vertex 31.305 25.488 0
      vertex 40.129 22.951 0
    endloop
  endfacet
  facet normal 0 -0 -1
    outer loop
      vertex 37.771 20.946 0
      vertex 31.305 25.488 0
      vertex 39.646 22.821 0
    endloop
  endfacet
  facet normal 0 0 -1
    outer loop
      vertex 39.871 22.951 0
      vertex 39.646 22.821 0
      vertex 31.305 25.488 0
    endloop
  endfacet
  facet normal -0 -0 -1
    outer loop
      vertex 42.308 20.843 0
      vertex 42.229 20.946 0
      vertex 46.7 20 0
    endloop
  endfacet
  facet normal 0 0 -1
    outer loop
      vertex 32.584 24.045 0
      vertex 37.692 20.843 0
      vertex 33.48 22.337 0
    endloop
  endfacet
  facet normal -0 -0 -1
    outer loop
      vertex 42.875 20 0
      vertex 42.308 20.843 0
      vertex 46.7 20 0
    endloop
  endfacet
  facet normal 0 0 -1
    outer loop
      vertex 37.692 20.843 0
      vertex 37.642 20.722 0
      vertex 33.48 22.337 0
    endloop
  endfacet
  facet normal 0 0 -1
    outer loop
      vertex 37.642 20.722 0
      vertex 37.625 20.593 0
      vertex 33.48 22.337 0
    endloop
  endfacet
  facet normal 0 0 -1
    outer loop
      vertex 37.625 20.593 0
      vertex 37.625 20 0
      vertex 33.48 22.337 0
    endloop
  endfacet
  facet normal -0 -0 -1
    outer loop
      vertex 1.878 43.09 0
      vertex -22.122 58.09 0
      vertex 29.718 26.584 0
    endloop
  endfacet
  facet normal 0 0 -1
    outer loop
      vertex 40 10.3 0
      vertex 37.625 20 0
      vertex 40 20 0
    endloop
  endfacet
  facet normal 0 0 -1
    outer loop
      vertex 31.305 25.488 0
      vertex 37.771 20.946 0
      vertex 32.584 24.045 0
    endloop
  endfacet
  facet normal 0 0 -1
    outer loop
      vertex 41.75 -13 0
      vertex 40.15 -6.96 0
      vertex 40.3 -7 0
    endloop
  endfacet
  facet normal 0 0 -1
    outer loop
      vertex -25.8372 -66.8786 0
      vertex -20.569 -56.691 0
      vertex -19.34 -55 0
    endloop
  endfacet
  facet normal 0 0 -1
    outer loop
      vertex 60 6.7 0
      vertex 72 0 0
      vertex 70.4266 -14.9696 0
    endloop
  endfacet
  facet normal 0 0 -1
    outer loop
      vertex 46.6987 -25 0
      vertex 58.2492 -42.3205 0
      vertex 57.3045 -43.3697 0
    endloop
  endfacet
  facet normal 0 0 -1
    outer loop
      vertex 33.942 20.464 0
      vertex 40.04 -13.15 0
      vertex 40 -13.3 0
    endloop
  endfacet
  facet normal 0 0 -1
    outer loop
      vertex 42.625 -20.067 0
      vertex 46.6987 -25 0
      vertex 42.442 -20.25 0
    endloop
  endfacet
  facet normal 0 0 -1
    outer loop
      vertex -25.8372 -66.8786 0
      vertex -4 -45 0
      vertex -1.921 -44.781 0
    endloop
  endfacet
  facet normal 0 0 -1
    outer loop
      vertex -25.8372 -66.8786 0
      vertex -1.921 -44.781 0
      vertex 0.067 -44.135 0
    endloop
  endfacet
  facet normal 0 0 -1
    outer loop
      vertex -25.8372 -66.8786 0
      vertex 0.067 -44.135 0
      vertex 1.878 -43.09 0
    endloop
  endfacet
  facet normal 0 0 -1
    outer loop
      vertex -25.8372 -66.8786 0
      vertex 1.878 -43.09 0
      vertex 29.718 -26.584 0
    endloop
  endfacet
  facet normal 0 0 -1
    outer loop
      vertex -25.8372 -66.8786 0
      vertex 29.718 -26.584 0
      vertex 31.305 -25.488 0
    endloop
  endfacet
  facet normal 0 0 -1
    outer loop
      vertex 33.48 -22.337 0
      vertex 33.942 -20.464 0
      vertex 37.771 -20.946 0
    endloop
  endfacet
  facet normal 0 0 -1
    outer loop
      vertex 32.584 -24.045 0
      vertex 33.48 -22.337 0
      vertex 37.771 -20.946 0
    endloop
  endfacet
  facet normal 0 0 -1
    outer loop
      vertex 31.305 -25.488 0
      vertex 32.584 -24.045 0
      vertex 37.771 -20.946 0
    endloop
  endfacet
  facet normal 0 0 -1
    outer loop
      vertex -25.8372 -66.8786 0
      vertex 31.305 -25.488 0
      vertex 37.771 -20.946 0
    endloop
  endfacet
  facet normal 0 0 -1
    outer loop
      vertex -25.8372 -66.8786 0
      vertex 37.771 -20.946 0
      vertex 39.646 -22.821 0
    endloop
  endfacet
  facet normal 0 0 -1
    outer loop
      vertex -25.8372 -66.8786 0
      vertex 39.646 -22.821 0
      vertex 39.871 -22.951 0
    endloop
  endfacet
  facet normal 0 0 -1
    outer loop
      vertex -25.8372 -66.8786 0
      vertex 39.871 -22.951 0
      vertex 40.129 -22.951 0
    endloop
  endfacet
  facet normal 0 0 -1
    outer loop
      vertex 60 6.7 0
      vertex 70.4266 -14.9696 0
      vertex 60 -6.7 0
    endloop
  endfacet
  facet normal 0 0 -1
    outer loop
      vertex -25.8372 -66.8786 0
      vertex 40.129 -22.951 0
      vertex 40.354 -22.821 0
    endloop
  endfacet
  facet normal -0 0 -1
    outer loop
      vertex 40.354 -22.821 0
      vertex 42.229 -20.946 0
      vertex 46.6987 -25 0
    endloop
  endfacet
  facet normal 0 0 -1
    outer loop
      vertex -25.8372 -66.8786 0
      vertex 40.354 -22.821 0
      vertex 46.6987 -25 0
    endloop
  endfacet
  facet normal 0 0 -1
    outer loop
      vertex 33.942 20.464 0
      vertex 40 -13.3 0
      vertex 40 -20 0
    endloop
  endfacet
  facet normal 0 0 -1
    outer loop
      vertex 53.3 -20 0
      vertex 65.7753 -29.285 0
      vertex 53.15 -19.96 0
    endloop
  endfacet
  facet normal 0 0 -1
    outer loop
      vertex 33.942 20.464 0
      vertex 37.625 -20 0
      vertex 37.625 -20.593 0
    endloop
  endfacet
  facet normal 0 0 -1
    outer loop
      vertex 37.692 -20.843 0
      vertex 37.771 -20.946 0
      vertex 33.942 -20.464 0
    endloop
  endfacet
  facet normal 0 0 -1
    outer loop
      vertex 37.642 -20.722 0
      vertex 37.692 -20.843 0
      vertex 33.942 -20.464 0
    endloop
  endfacet
  facet normal 0 0 -1
    outer loop
      vertex 37.625 -20.593 0
      vertex 37.642 -20.722 0
      vertex 33.942 -20.464 0
    endloop
  endfacet
  facet normal 0 0 -1
    outer loop
      vertex 33.942 20.464 0
      vertex 37.625 -20.593 0
      vertex 33.942 -20.464 0
    endloop
  endfacet
  facet normal 0 -0 -1
    outer loop
      vertex -9.878 43.09 0
      vertex -18.055 51.045 0
      vertex -8.067 44.135 0
    endloop
  endfacet
  facet normal 0 0 -1
    outer loop
      vertex -8.067 44.135 0
      vertex -18.489 53.09 0
      vertex -19.34 55 0
    endloop
  endfacet
  facet normal 0 -0 -1
    outer loop
      vertex -8.067 44.135 0
      vertex -19.34 55 0
      vertex -6.079 44.781 0
    endloop
  endfacet
  facet normal 0 0 -1
    outer loop
      vertex -6.079 44.781 0
      vertex -20.569 56.691 0
      vertex -22.122 58.09 0
    endloop
  endfacet
  facet normal 0 -0 -1
    outer loop
      vertex -6.079 44.781 0
      vertex -22.122 58.09 0
      vertex -4 45 0
    endloop
  endfacet
  facet normal -0.406737 0.913545 0
    outer loop
      vertex -31.8795 64.1884 0
      vertex -31.8795 64.1884 40
      vertex -25.8372 66.8786 0
    endloop
  endfacet
  facet normal -0.406737 0.913545 0
    outer loop
      vertex -25.8372 66.8786 0
      vertex -31.8795 64.1884 40
      vertex -25.8372 66.8786 40
    endloop
  endfacet
  facet normal -0.529999 -0.847998 -0
    outer loop
      vertex -22.122 58.09 0
      vertex -22.122 58.09 40
      vertex -31.8795 64.1884 40
    endloop
  endfacet
  facet normal -0.529999 -0.847998 -0
    outer loop
      vertex -31.8795 64.1884 0
      vertex -22.122 58.09 0
      vertex -31.8795 64.1884 40
    endloop
  endfacet
  facet normal -0.669308 -0.742985 -0
    outer loop
      vertex -20.569 56.691 0
      vertex -20.569 56.691 40
      vertex -22.122 58.09 40
    endloop
  endfacet
  facet normal -0.669308 -0.742985 -0
    outer loop
      vertex -22.122 58.09 0
      vertex -20.569 56.691 0
      vertex -22.122 58.09 40
    endloop
  endfacet
  facet normal -0.808922 -0.587916 0
    outer loop
      vertex -19.34 55 40
      vertex -20.569 56.691 40
      vertex -19.34 55 0
    endloop
  endfacet
  facet normal -0.808922 -0.587916 0
    outer loop
      vertex -19.34 55 0
      vertex -20.569 56.691 40
      vertex -20.569 56.691 0
    endloop
  endfacet
  facet normal -0.913436 -0.406981 0
    outer loop
      vertex -18.489 53.09 40
      vertex -19.34 55 40
      vertex -18.489 53.09 0
    endloop
  endfacet
  facet normal -0.913436 -0.406981 0
    outer loop
      vertex -18.489 53.09 0
      vertex -19.34 55 40
      vertex -19.34 55 0
    endloop
  endfacet
  facet normal -0.978214 -0.207601 0
    outer loop
      vertex -18.055 51.045 40
      vertex -18.489 53.09 40
      vertex -18.055 51.045 0
    endloop
  endfacet
  facet normal -0.978214 -0.207601 0
    outer loop
      vertex -18.055 51.045 0
      vertex -18.489 53.09 40
      vertex -18.489 53.09 0
    endloop
  endfacet
  facet normal -1 -1.73999e-16 0
    outer loop
      vertex -18.055 -51.045 40
      vertex -18.055 51.045 40
      vertex -18.055 -51.045 0
    endloop
  endfacet
  facet normal -1 -1.73999e-16 0
    outer loop
      vertex -18.055 -51.045 0
      vertex -18.055 51.045 40
      vertex -18.055 51.045 0
    endloop
  endfacet
  facet normal -0.978214 0.207601 0
    outer loop
      vertex -18.055 -51.045 40
      vertex -18.055 -51.045 0
      vertex -18.489 -53.09 40
    endloop
  endfacet
  facet normal -0.978214 0.207601 0
    outer loop
      vertex -18.489 -53.09 40
      vertex -18.055 -51.045 0
      vertex -18.489 -53.09 0
    endloop
  endfacet
  facet normal -0.913436 0.406981 0
    outer loop
      vertex -18.489 -53.09 40
      vertex -18.489 -53.09 0
      vertex -19.34 -55 40
    endloop
  endfacet
  facet normal -0.913436 0.406981 0
    outer loop
      vertex -19.34 -55 40
      vertex -18.489 -53.09 0
      vertex -19.34 -55 0
    endloop
  endfacet
  facet normal -0.808922 0.587916 0
    outer loop
      vertex -19.34 -55 40
      vertex -19.34 -55 0
      vertex -20.569 -56.691 40
    endloop
  endfacet
  facet normal -0.808922 0.587916 0
    outer loop
      vertex -20.569 -56.691 40
      vertex -19.34 -55 0
      vertex -20.569 -56.691 0
    endloop
  endfacet
  facet normal -0.669308 0.742985 0
    outer loop
      vertex -20.569 -56.691 40
      vertex -20.569 -56.691 0
      vertex -22.122 -58.09 40
    endloop
  endfacet
  facet normal -0.669308 0.742985 0
    outer loop
      vertex -22.122 -58.09 40
      vertex -20.569 -56.691 0
      vertex -22.122 -58.09 0
    endloop
  endfacet
  facet normal -0.529999 0.847998 0
    outer loop
      vertex -22.122 -58.09 40
      vertex -22.122 -58.09 0
      vertex -31.8795 -64.1884 40
    endloop
  endfacet
  facet normal -0.529999 0.847998 0
    outer loop
      vertex -31.8795 -64.1884 40
      vertex -22.122 -58.09 0
      vertex -31.8795 -64.1884 0
    endloop
  endfacet
  facet normal -0.406737 -0.913545 0
    outer loop
      vertex -31.8795 -64.1884 40
      vertex -31.8795 -64.1884 0
      vertex -25.8372 -66.8786 0
    endloop
  endfacet
  facet normal -0.406737 -0.913545 0
    outer loop
      vertex -25.8372 -66.8786 40
      vertex -31.8795 -64.1884 40
      vertex -25.8372 -66.8786 0
    endloop
  endfacet
  facet normal 0.5 -0.866025 0
    outer loop
      vertex 46.6987 -25 0
      vertex 46.6987 -25 40
      vertex -25.8372 -66.8786 40
    endloop
  endfacet
  facet normal 0.5 -0.866025 0
    outer loop
      vertex -25.8372 -66.8786 0
      vertex 46.6987 -25 0
      vertex -25.8372 -66.8786 40
    endloop
  endfacet
  facet normal -0.866025 -0.5 0
    outer loop
      vertex 57.3045 -43.3697 40
      vertex 46.6987 -25 40
      vertex 57.3045 -43.3697 0
    endloop
  endfacet
  facet normal -0.866025 -0.5 0
    outer loop
      vertex 57.3045 -43.3697 0
      vertex 46.6987 -25 40
      vertex 46.6987 -25 0
    endloop
  endfacet
  facet normal 0.743145 -0.669131 0
    outer loop
      vertex 57.3045 -43.3697 40
      vertex 57.3045 -43.3697 0
      vertex 58.2492 -42.3205 0
    endloop
  endfacet
  facet normal 0.743145 -0.669131 0
    outer loop
      vertex 58.2492 -42.3205 40
      vertex 57.3045 -43.3697 40
      vertex 58.2492 -42.3205 0
    endloop
  endfacet
  facet normal 0.866025 -0.5 0
    outer loop
      vertex 58.2492 -42.3205 40
      vertex 58.2492 -42.3205 0
      vertex 65.7753 -29.285 0
    endloop
  endfacet
  facet normal 0.866025 -0.5 0
    outer loop
      vertex 65.7753 -29.285 40
      vertex 58.2492 -42.3205 40
      vertex 65.7753 -29.285 0
    endloop
  endfacet
  facet normal 0.951057 -0.309017 0
    outer loop
      vertex 65.7753 -29.285 40
      vertex 65.7753 -29.285 0
      vertex 70.4266 -14.9696 0
    endloop
  endfacet
  facet normal 0.951057 -0.309017 0
    outer loop
      vertex 70.4266 -14.9696 40
      vertex 65.7753 -29.285 40
      vertex 70.4266 -14.9696 0
    endloop
  endfacet
  facet normal 0.994522 -0.104528 0
    outer loop
      vertex 70.4266 -14.9696 40
      vertex 70.4266 -14.9696 0
      vertex 72 0 0
    endloop
  endfacet
  facet normal 0.994522 -0.104528 0
    outer loop
      vertex 72 0 40
      vertex 70.4266 -14.9696 40
      vertex 72 0 0
    endloop
  endfacet
  facet normal 0.994522 0.104528 0
    outer loop
      vertex 72 0 0
      vertex 70.4266 14.9696 0
      vertex 70.4266 14.9696 40
    endloop
  endfacet
  facet normal 0.994522 0.104528 -0
    outer loop
      vertex 72 0 40
      vertex 72 0 0
      vertex 70.4266 14.9696 40
    endloop
  endfacet
  facet normal 0.951057 0.309017 0
    outer loop
      vertex 70.4266 14.9696 0
      vertex 65.7753 29.285 0
      vertex 65.7753 29.285 40
    endloop
  endfacet
  facet normal 0.951057 0.309017 -0
    outer loop
      vertex 70.4266 14.9696 40
      vertex 70.4266 14.9696 0
      vertex 65.7753 29.285 40
    endloop
  endfacet
  facet normal 0.866025 0.5 0
    outer loop
      vertex 65.7753 29.285 0
      vertex 58.2492 42.3205 0
      vertex 58.2492 42.3205 40
    endloop
  endfacet
  facet normal 0.866025 0.5 -0
    outer loop
      vertex 65.7753 29.285 40
      vertex 65.7753 29.285 0
      vertex 58.2492 42.3205 40
    endloop
  endfacet
  facet normal 0.743145 0.669131 0
    outer loop
      vertex 58.2492 42.3205 0
      vertex 57.3045 43.3697 0
      vertex 57.3045 43.3697 40
    endloop
  endfacet
  facet normal 0.743145 0.669131 -0
    outer loop
      vertex 58.2492 42.3205 40
      vertex 58.2492 42.3205 0
      vertex 57.3045 43.3697 40
    endloop
  endfacet
  facet normal -0.866025 0.5 0
    outer loop
      vertex 57.3045 43.3697 40
      vertex 57.3045 43.3697 0
      vertex 46.6987 25 40
    endloop
  endfacet
  facet normal -0.866025 0.5 0
    outer loop
      vertex 46.6987 25 40
      vertex 57.3045 43.3697 0
      vertex 46.6987 25 0
    endloop
  endfacet
  facet normal 0.5 0.866025 -0
    outer loop
      vertex 46.6987 25 40
      vertex 46.6987 25 0
      vertex -25.8372 66.8786 40
    endloop
  endfacet
  facet normal 0.5 0.866025 -0
    outer loop
      vertex -25.8372 66.8786 40
      vertex 46.6987 25 0
      vertex -25.8372 66.8786 0
    endloop
  endfacet
  facet normal 0.978214 -0.207601 0
    outer loop
      vertex -13.511 38.09 0
      vertex -13.511 38.09 40
      vertex -13.945 36.045 40
    endloop
  endfacet
  facet normal 0.978214 -0.207601 0
    outer loop
      vertex -13.945 36.045 0
      vertex -13.511 38.09 0
      vertex -13.945 36.045 40
    endloop
  endfacet
  facet normal 1 1.72486e-16 0
    outer loop
      vertex -13.945 36.045 40
      vertex -13.945 -36.045 40
      vertex -13.945 -36.045 0
    endloop
  endfacet
  facet normal 1 1.72486e-16 0
    outer loop
      vertex -13.945 36.045 0
      vertex -13.945 36.045 40
      vertex -13.945 -36.045 0
    endloop
  endfacet
  facet normal 0.913436 -0.406981 0
    outer loop
      vertex -12.66 40 0
      vertex -12.66 40 40
      vertex -13.511 38.09 40
    endloop
  endfacet
  facet normal 0.913436 -0.406981 0
    outer loop
      vertex -13.511 38.09 0
      vertex -12.66 40 0
      vertex -13.511 38.09 40
    endloop
  endfacet
  facet normal 0.808922 -0.587916 0
    outer loop
      vertex -11.431 41.691 0
      vertex -11.431 41.691 40
      vertex -12.66 40 40
    endloop
  endfacet
  facet normal 0.808922 -0.587916 0
    outer loop
      vertex -12.66 40 0
      vertex -11.431 41.691 0
      vertex -12.66 40 40
    endloop
  endfacet
  facet normal 0.669308 -0.742985 0
    outer loop
      vertex -9.878 43.09 0
      vertex -9.878 43.09 40
      vertex -11.431 41.691 40
    endloop
  endfacet
  facet normal 0.669308 -0.742985 0
    outer loop
      vertex -11.431 41.691 0
      vertex -9.878 43.09 0
      vertex -11.431 41.691 40
    endloop
  endfacet
  facet normal 0.499791 -0.866146 0
    outer loop
      vertex -8.067 44.135 0
      vertex -8.067 44.135 40
      vertex -9.878 43.09 40
    endloop
  endfacet
  facet normal 0.499791 -0.866146 0
    outer loop
      vertex -9.878 43.09 0
      vertex -8.067 44.135 0
      vertex -9.878 43.09 40
    endloop
  endfacet
  facet normal 0.309043 -0.951048 0
    outer loop
      vertex -6.079 44.781 0
      vertex -6.079 44.781 40
      vertex -8.067 44.135 40
    endloop
  endfacet
  facet normal 0.309043 -0.951048 0
    outer loop
      vertex -8.067 44.135 0
      vertex -6.079 44.781 0
      vertex -8.067 44.135 40
    endloop
  endfacet
  facet normal 0.104759 -0.994498 0
    outer loop
      vertex -4 45 0
      vertex -4 45 40
      vertex -6.079 44.781 40
    endloop
  endfacet
  facet normal 0.104759 -0.994498 0
    outer loop
      vertex -6.079 44.781 0
      vertex -4 45 0
      vertex -6.079 44.781 40
    endloop
  endfacet
  facet normal -0.104759 -0.994498 -0
    outer loop
      vertex -1.921 44.781 0
      vertex -1.921 44.781 40
      vertex -4 45 40
    endloop
  endfacet
  facet normal -0.104759 -0.994498 -0
    outer loop
      vertex -4 45 0
      vertex -1.921 44.781 0
      vertex -4 45 40
    endloop
  endfacet
  facet normal -0.309043 -0.951048 -0
    outer loop
      vertex 0.067 44.135 0
      vertex 0.067 44.135 40
      vertex -1.921 44.781 40
    endloop
  endfacet
  facet normal -0.309043 -0.951048 -0
    outer loop
      vertex -1.921 44.781 0
      vertex 0.067 44.135 0
      vertex -1.921 44.781 40
    endloop
  endfacet
  facet normal -0.499791 -0.866146 -0
    outer loop
      vertex 1.878 43.09 0
      vertex 1.878 43.09 40
      vertex 0.067 44.135 40
    endloop
  endfacet
  facet normal -0.499791 -0.866146 -0
    outer loop
      vertex 0.067 44.135 0
      vertex 1.878 43.09 0
      vertex 0.067 44.135 40
    endloop
  endfacet
  facet normal -0.50999 -0.86018 -0
    outer loop
      vertex 29.718 26.584 0
      vertex 29.718 26.584 40
      vertex 1.878 43.09 40
    endloop
  endfacet
  facet normal -0.50999 -0.86018 -0
    outer loop
      vertex 1.878 43.09 0
      vertex 29.718 26.584 0
      vertex 1.878 43.09 40
    endloop
  endfacet
  facet normal -0.568266 -0.822845 -0
    outer loop
      vertex 31.305 25.488 0
      vertex 31.305 25.488 40
      vertex 29.718 26.584 40
    endloop
  endfacet
  facet normal -0.568266 -0.822845 -0
    outer loop
      vertex 29.718 26.584 0
      vertex 31.305 25.488 0
      vertex 29.718 26.584 40
    endloop
  endfacet
  facet normal -0.748353 -0.663301 0
    outer loop
      vertex 32.584 24.045 40
      vertex 31.305 25.488 40
      vertex 32.584 24.045 0
    endloop
  endfacet
  facet normal -0.748353 -0.663301 0
    outer loop
      vertex 32.584 24.045 0
      vertex 31.305 25.488 40
      vertex 31.305 25.488 0
    endloop
  endfacet
  facet normal -0.885547 -0.464549 0
    outer loop
      vertex 33.48 22.337 40
      vertex 32.584 24.045 40
      vertex 33.48 22.337 0
    endloop
  endfacet
  facet normal -0.885547 -0.464549 0
    outer loop
      vertex 33.48 22.337 0
      vertex 32.584 24.045 40
      vertex 32.584 24.045 0
    endloop
  endfacet
  facet normal -0.9709 -0.239485 0
    outer loop
      vertex 33.942 20.464 40
      vertex 33.48 22.337 40
      vertex 33.942 20.464 0
    endloop
  endfacet
  facet normal -0.9709 -0.239485 0
    outer loop
      vertex 33.942 20.464 0
      vertex 33.48 22.337 40
      vertex 33.48 22.337 0
    endloop
  endfacet
  facet normal -1 -1.73608e-16 0
    outer loop
      vertex 33.942 -20.464 40
      vertex 33.942 20.464 40
      vertex 33.942 -20.464 0
    endloop
  endfacet
  facet normal -1 -1.73608e-16 0
    outer loop
      vertex 33.942 -20.464 0
      vertex 33.942 20.464 40
      vertex 33.942 20.464 0
    endloop
  endfacet
  facet normal -0.9709 0.239485 0
    outer loop
      vertex 33.942 -20.464 40
      vertex 33.942 -20.464 0
      vertex 33.48 -22.337 40
    endloop
  endfacet
  facet normal -0.9709 0.239485 0
    outer loop
      vertex 33.48 -22.337 40
      vertex 33.942 -20.464 0
      vertex 33.48 -22.337 0
    endloop
  endfacet
  facet normal -0.885547 0.464549 0
    outer loop
      vertex 33.48 -22.337 40
      vertex 33.48 -22.337 0
      vertex 32.584 -24.045 40
    endloop
  endfacet
  facet normal -0.885547 0.464549 0
    outer loop
      vertex 32.584 -24.045 40
      vertex 33.48 -22.337 0
      vertex 32.584 -24.045 0
    endloop
  endfacet
  facet normal -0.748353 0.663301 0
    outer loop
      vertex 32.584 -24.045 40
      vertex 32.584 -24.045 0
      vertex 31.305 -25.488 40
    endloop
  endfacet
  facet normal -0.748353 0.663301 0
    outer loop
      vertex 31.305 -25.488 40
      vertex 32.584 -24.045 0
      vertex 31.305 -25.488 0
    endloop
  endfacet
  facet normal -0.568266 0.822845 0
    outer loop
      vertex 31.305 -25.488 40
      vertex 31.305 -25.488 0
      vertex 29.718 -26.584 40
    endloop
  endfacet
  facet normal -0.568266 0.822845 0
    outer loop
      vertex 29.718 -26.584 40
      vertex 31.305 -25.488 0
      vertex 29.718 -26.584 0
    endloop
  endfacet
  facet normal -0.50999 0.86018 0
    outer loop
      vertex 29.718 -26.584 40
      vertex 29.718 -26.584 0
      vertex 1.878 -43.09 40
    endloop
  endfacet
  facet normal -0.50999 0.86018 0
    outer loop
      vertex 1.878 -43.09 40
      vertex 29.718 -26.584 0
      vertex 1.878 -43.09 0
    endloop
  endfacet
  facet normal -0.499791 0.866146 0
    outer loop
      vertex 1.878 -43.09 40
      vertex 1.878 -43.09 0
      vertex 0.067 -44.135 40
    endloop
  endfacet
  facet normal -0.499791 0.866146 0
    outer loop
      vertex 0.067 -44.135 40
      vertex 1.878 -43.09 0
      vertex 0.067 -44.135 0
    endloop
  endfacet
  facet normal -0.309043 0.951048 0
    outer loop
      vertex 0.067 -44.135 40
      vertex 0.067 -44.135 0
      vertex -1.921 -44.781 40
    endloop
  endfacet
  facet normal -0.309043 0.951048 0
    outer loop
      vertex -1.921 -44.781 40
      vertex 0.067 -44.135 0
      vertex -1.921 -44.781 0
    endloop
  endfacet
  facet normal -0.104759 0.994498 0
    outer loop
      vertex -1.921 -44.781 40
      vertex -1.921 -44.781 0
      vertex -4 -45 40
    endloop
  endfacet
  facet normal -0.104759 0.994498 0
    outer loop
      vertex -4 -45 40
      vertex -1.921 -44.781 0
      vertex -4 -45 0
    endloop
  endfacet
  facet normal 0.104759 0.994498 -0
    outer loop
      vertex -4 -45 40
      vertex -4 -45 0
      vertex -6.079 -44.781 40
    endloop
  endfacet
  facet normal 0.104759 0.994498 -0
    outer loop
      vertex -6.079 -44.781 40
      vertex -4 -45 0
      vertex -6.079 -44.781 0
    endloop
  endfacet
  facet normal 0.309043 0.951048 -0
    outer loop
      vertex -6.079 -44.781 40
      vertex -6.079 -44.781 0
      vertex -8.067 -44.135 40
    endloop
  endfacet
  facet normal 0.309043 0.951048 -0
    outer loop
      vertex -8.067 -44.135 40
      vertex -6.079 -44.781 0
      vertex -8.067 -44.135 0
    endloop
  endfacet
  facet normal 0.499791 0.866146 -0
    outer loop
      vertex -8.067 -44.135 40
      vertex -8.067 -44.135 0
      vertex -9.878 -43.09 40
    endloop
  endfacet
  facet normal 0.499791 0.866146 -0
    outer loop
      vertex -9.878 -43.09 40
      vertex -8.067 -44.135 0
      vertex -9.878 -43.09 0
    endloop
  endfacet
  facet normal 0.669308 0.742985 -0
    outer loop
      vertex -9.878 -43.09 40
      vertex -9.878 -43.09 0
      vertex -11.431 -41.691 40
    endloop
  endfacet
  facet normal 0.669308 0.742985 -0
    outer loop
      vertex -11.431 -41.691 40
      vertex -9.878 -43.09 0
      vertex -11.431 -41.691 0
    endloop
  endfacet
  facet normal 0.808922 0.587916 0
    outer loop
      vertex -12.66 -40 40
      vertex -11.431 -41.691 40
      vertex -11.431 -41.691 0
    endloop
  endfacet
  facet normal 0.808922 0.587916 0
    outer loop
      vertex -12.66 -40 0
      vertex -12.66 -40 40
      vertex -11.431 -41.691 0
    endloop
  endfacet
  facet normal 0.913436 0.406981 0
    outer loop
      vertex -13.511 -38.09 40
      vertex -12.66 -40 40
      vertex -12.66 -40 0
    endloop
  endfacet
  facet normal 0.913436 0.406981 0
    outer loop
      vertex -13.511 -38.09 0
      vertex -13.511 -38.09 40
      vertex -12.66 -40 0
    endloop
  endfacet
  facet normal 0.978214 0.207601 0
    outer loop
      vertex -13.945 -36.045 40
      vertex -13.511 -38.09 40
      vertex -13.511 -38.09 0
    endloop
  endfacet
  facet normal 0.978214 0.207601 0
    outer loop
      vertex -13.945 -36.045 0
      vertex -13.945 -36.045 40
      vertex -13.511 -38.09 0
    endloop
  endfacet
  facet normal 0 -1 0
    outer loop
      vertex 40 -20 0
      vertex 40 -20 40
      vertex 37.625 -20 40
    endloop
  endfacet
  facet normal -0 -1 -0
    outer loop
      vertex 37.625 -20 0
      vertex 40 -20 0
      vertex 37.625 -20 40
    endloop
  endfacet
  facet normal 1 0 0
    outer loop
      vertex 37.625 -20 0
      vertex 37.625 -20 40
      vertex 37.625 -20.593 40
    endloop
  endfacet
  facet normal 1 0 0
    outer loop
      vertex 37.625 -20.593 0
      vertex 37.625 -20 0
      vertex 37.625 -20.593 40
    endloop
  endfacet
  facet normal 1 0 0
    outer loop
      vertex 40 -13.3 0
      vertex 40 -13.3 40
      vertex 40 -20 40
    endloop
  endfacet
  facet normal 1 0 0
    outer loop
      vertex 40 -20 0
      vertex 40 -13.3 0
      vertex 40 -20 40
    endloop
  endfacet
  facet normal 0.966235 -0.257663 0
    outer loop
      vertex 40.04 -13.15 0
      vertex 40.04 -13.15 40
      vertex 40 -13.3 40
    endloop
  endfacet
  facet normal 0.966235 -0.257663 0
    outer loop
      vertex 40 -13.3 0
      vertex 40.04 -13.15 0
      vertex 40 -13.3 40
    endloop
  endfacet
  facet normal 0.707107 -0.707107 0
    outer loop
      vertex 40.15 -13.04 0
      vertex 40.15 -13.04 40
      vertex 40.04 -13.15 40
    endloop
  endfacet
  facet normal 0.707107 -0.707107 0
    outer loop
      vertex 40.04 -13.15 0
      vertex 40.15 -13.04 0
      vertex 40.04 -13.15 40
    endloop
  endfacet
  facet normal 0.257663 -0.966235 0
    outer loop
      vertex 40.3 -13 0
      vertex 40.3 -13 40
      vertex 40.15 -13.04 40
    endloop
  endfacet
  facet normal 0.257663 -0.966235 0
    outer loop
      vertex 40.15 -13.04 0
      vertex 40.3 -13 0
      vertex 40.15 -13.04 40
    endloop
  endfacet
  facet normal 0 -1 0
    outer loop
      vertex 41.75 -13 0
      vertex 41.75 -13 40
      vertex 40.3 -13 40
    endloop
  endfacet
  facet normal -0 -1 -0
    outer loop
      vertex 40.3 -13 0
      vertex 41.75 -13 0
      vertex 40.3 -13 40
    endloop
  endfacet
  facet normal 1 0 0
    outer loop
      vertex 41.75 -7 0
      vertex 41.75 -7 40
      vertex 41.75 -13 40
    endloop
  endfacet
  facet normal 1 0 0
    outer loop
      vertex 41.75 -13 0
      vertex 41.75 -7 0
      vertex 41.75 -13 40
    endloop
  endfacet
  facet normal 0 1 0
    outer loop
      vertex 41.75 -7 40
      vertex 41.75 -7 0
      vertex 40.3 -7 40
    endloop
  endfacet
  facet normal 0 1 -0
    outer loop
      vertex 40.3 -7 40
      vertex 41.75 -7 0
      vertex 40.3 -7 0
    endloop
  endfacet
  facet normal 0.257663 0.966235 -0
    outer loop
      vertex 40.3 -7 40
      vertex 40.3 -7 0
      vertex 40.15 -6.96 40
    endloop
  endfacet
  facet normal 0.257663 0.966235 -0
    outer loop
      vertex 40.15 -6.96 40
      vertex 40.3 -7 0
      vertex 40.15 -6.96 0
    endloop
  endfacet
  facet normal 0.707107 0.707107 -0
    outer loop
      vertex 40.15 -6.96 40
      vertex 40.15 -6.96 0
      vertex 40.04 -6.85 40
    endloop
  endfacet
  facet normal 0.707107 0.707107 -0
    outer loop
      vertex 40.04 -6.85 40
      vertex 40.15 -6.96 0
      vertex 40.04 -6.85 0
    endloop
  endfacet
  facet normal 0.966235 0.257663 0
    outer loop
      vertex 40 -6.7 40
      vertex 40.04 -6.85 40
      vertex 40.04 -6.85 0
    endloop
  endfacet
  facet normal 0.966235 0.257663 0
    outer loop
      vertex 40 -6.7 0
      vertex 40 -6.7 40
      vertex 40.04 -6.85 0
    endloop
  endfacet
  facet normal 1 -4.33258e-16 0
    outer loop
      vertex 40 9.7 0
      vertex 40 9.7 40
      vertex 40 -6.7 40
    endloop
  endfacet
  facet normal 1 -4.33258e-16 0
    outer loop
      vertex 40 -6.7 0
      vertex 40 9.7 0
      vertex 40 -6.7 40
    endloop
  endfacet
  facet normal 0.707107 -0.707107 0
    outer loop
      vertex 40.3 10 0
      vertex 40.3 10 40
      vertex 40 9.7 40
    endloop
  endfacet
  facet normal 0.707107 -0.707107 0
    outer loop
      vertex 40 9.7 0
      vertex 40.3 10 0
      vertex 40 9.7 40
    endloop
  endfacet
  facet normal 0.707107 0.707107 -0
    outer loop
      vertex 40.3 10 40
      vertex 40.3 10 0
      vertex 40 10.3 40
    endloop
  endfacet
  facet normal 0.707107 0.707107 -0
    outer loop
      vertex 40 10.3 40
      vertex 40.3 10 0
      vertex 40 10.3 0
    endloop
  endfacet
  facet normal 1 0 0
    outer loop
      vertex 40 20 0
      vertex 40 20 40
      vertex 40 10.3 40
    endloop
  endfacet
  facet normal 1 0 0
    outer loop
      vertex 40 10.3 0
      vertex 40 20 0
      vertex 40 10.3 40
    endloop
  endfacet
  facet normal 0 1 0
    outer loop
      vertex 40 20 40
      vertex 40 20 0
      vertex 37.625 20 40
    endloop
  endfacet
  facet normal 0 1 -0
    outer loop
      vertex 37.625 20 40
      vertex 40 20 0
      vertex 37.625 20 0
    endloop
  endfacet
  facet normal 1 0 0
    outer loop
      vertex 37.625 20.593 0
      vertex 37.625 20.593 40
      vertex 37.625 20 40
    endloop
  endfacet
  facet normal 1 0 0
    outer loop
      vertex 37.625 20 0
      vertex 37.625 20.593 0
      vertex 37.625 20 40
    endloop
  endfacet
  facet normal 0.991428 -0.130653 0
    outer loop
      vertex 37.642 20.722 0
      vertex 37.642 20.722 40
      vertex 37.625 20.593 40
    endloop
  endfacet
  facet normal 0.991428 -0.130653 0
    outer loop
      vertex 37.625 20.593 0
      vertex 37.642 20.722 0
      vertex 37.625 20.593 40
    endloop
  endfacet
  facet normal 0.924203 -0.381902 0
    outer loop
      vertex 37.692 20.843 0
      vertex 37.692 20.843 40
      vertex 37.642 20.722 40
    endloop
  endfacet
  facet normal 0.924203 -0.381902 0
    outer loop
      vertex 37.642 20.722 0
      vertex 37.692 20.843 0
      vertex 37.642 20.722 40
    endloop
  endfacet
  facet normal 0.793482 -0.608593 0
    outer loop
      vertex 37.771 20.946 0
      vertex 37.771 20.946 40
      vertex 37.692 20.843 40
    endloop
  endfacet
  facet normal 0.793482 -0.608593 0
    outer loop
      vertex 37.692 20.843 0
      vertex 37.771 20.946 0
      vertex 37.692 20.843 40
    endloop
  endfacet
  facet normal 0.707107 -0.707107 0
    outer loop
      vertex 39.646 22.821 0
      vertex 39.646 22.821 40
      vertex 37.771 20.946 40
    endloop
  endfacet
  facet normal 0.707107 -0.707107 0
    outer loop
      vertex 37.771 20.946 0
      vertex 39.646 22.821 0
      vertex 37.771 20.946 40
    endloop
  endfacet
  facet normal 0.500278 -0.865865 0
    outer loop
      vertex 39.871 22.951 0
      vertex 39.871 22.951 40
      vertex 39.646 22.821 40
    endloop
  endfacet
  facet normal 0.500278 -0.865865 0
    outer loop
      vertex 39.646 22.821 0
      vertex 39.871 22.951 0
      vertex 39.646 22.821 40
    endloop
  endfacet
  facet normal 0 -1 0
    outer loop
      vertex 40.129 22.951 0
      vertex 40.129 22.951 40
      vertex 39.871 22.951 40
    endloop
  endfacet
  facet normal -0 -1 -0
    outer loop
      vertex 39.871 22.951 0
      vertex 40.129 22.951 0
      vertex 39.871 22.951 40
    endloop
  endfacet
  facet normal -0.500278 -0.865865 -0
    outer loop
      vertex 40.354 22.821 0
      vertex 40.354 22.821 40
      vertex 40.129 22.951 40
    endloop
  endfacet
  facet normal -0.500278 -0.865865 -0
    outer loop
      vertex 40.129 22.951 0
      vertex 40.354 22.821 0
      vertex 40.129 22.951 40
    endloop
  endfacet
  facet normal -0.707107 -0.707107 0
    outer loop
      vertex 42.229 20.946 40
      vertex 40.354 22.821 40
      vertex 42.229 20.946 0
    endloop
  endfacet
  facet normal -0.707107 -0.707107 0
    outer loop
      vertex 42.229 20.946 0
      vertex 40.354 22.821 40
      vertex 40.354 22.821 0
    endloop
  endfacet
  facet normal -0.793482 -0.608593 0
    outer loop
      vertex 42.308 20.843 40
      vertex 42.229 20.946 40
      vertex 42.308 20.843 0
    endloop
  endfacet
  facet normal -0.793482 -0.608593 0
    outer loop
      vertex 42.308 20.843 0
      vertex 42.229 20.946 40
      vertex 42.229 20.946 0
    endloop
  endfacet
  facet normal -0.924203 -0.381902 0
    outer loop
      vertex 42.358 20.722 40
      vertex 42.308 20.843 40
      vertex 42.358 20.722 0
    endloop
  endfacet
  facet normal -0.924203 -0.381902 0
    outer loop
      vertex 42.358 20.722 0
      vertex 42.308 20.843 40
      vertex 42.308 20.843 0
    endloop
  endfacet
  facet normal -0.991428 -0.130653 0
    outer loop
      vertex 42.375 20.593 40
      vertex 42.358 20.722 40
      vertex 42.375 20.593 0
    endloop
  endfacet
  facet normal -0.991428 -0.130653 0
    outer loop
      vertex 42.375 20.593 0
      vertex 42.358 20.722 40
      vertex 42.358 20.722 0
    endloop
  endfacet
  facet normal -1 0 0
    outer loop
      vertex 42.375 20.593 40
      vertex 42.375 20.593 0
      vertex 42.375 20.5 40
    endloop
  endfacet
  facet normal -1 0 0
    outer loop
      vertex 42.375 20.5 40
      vertex 42.375 20.593 0
      vertex 42.375 20.5 0
    endloop
  endfacet
  facet normal -0.965914 -0.258865 0
    outer loop
      vertex 42.442 20.25 40
      vertex 42.375 20.5 40
      vertex 42.442 20.25 0
    endloop
  endfacet
  facet normal -0.965914 -0.258865 0
    outer loop
      vertex 42.442 20.25 0
      vertex 42.375 20.5 40
      vertex 42.375 20.5 0
    endloop
  endfacet
  facet normal -0.707107 -0.707107 0
    outer loop
      vertex 42.625 20.067 40
      vertex 42.442 20.25 40
      vertex 42.625 20.067 0
    endloop
  endfacet
  facet normal -0.707107 -0.707107 0
    outer loop
      vertex 42.625 20.067 0
      vertex 42.442 20.25 40
      vertex 42.442 20.25 0
    endloop
  endfacet
  facet normal -0.258865 -0.965914 -0
    outer loop
      vertex 42.875 20 0
      vertex 42.875 20 40
      vertex 42.625 20.067 40
    endloop
  endfacet
  facet normal -0.258865 -0.965914 -0
    outer loop
      vertex 42.625 20.067 0
      vertex 42.875 20 0
      vertex 42.625 20.067 40
    endloop
  endfacet
  facet normal 0 -1 0
    outer loop
      vertex 46.7 20 0
      vertex 46.7 20 40
      vertex 42.875 20 40
    endloop
  endfacet
  facet normal -0 -1 -0
    outer loop
      vertex 42.875 20 0
      vertex 46.7 20 0
      vertex 42.875 20 40
    endloop
  endfacet
  facet normal -0.257663 -0.966235 -0
    outer loop
      vertex 46.85 19.96 0
      vertex 46.85 19.96 40
      vertex 46.7 20 40
    endloop
  endfacet
  facet normal -0.257663 -0.966235 -0
    outer loop
      vertex 46.7 20 0
      vertex 46.85 19.96 0
      vertex 46.7 20 40
    endloop
  endfacet
  facet normal -0.707107 -0.707107 0
    outer loop
      vertex 46.96 19.85 40
      vertex 46.85 19.96 40
      vertex 46.96 19.85 0
    endloop
  endfacet
  facet normal -0.707107 -0.707107 0
    outer loop
      vertex 46.96 19.85 0
      vertex 46.85 19.96 40
      vertex 46.85 19.96 0
    endloop
  endfacet
  facet normal -0.966235 -0.257663 0
    outer loop
      vertex 47 19.7 40
      vertex 46.96 19.85 40
      vertex 47 19.7 0
    endloop
  endfacet
  facet normal -0.966235 -0.257663 0
    outer loop
      vertex 47 19.7 0
      vertex 46.96 19.85 40
      vertex 46.96 19.85 0
    endloop
  endfacet
  facet normal -1 0 0
    outer loop
      vertex 47 19.7 40
      vertex 47 19.7 0
      vertex 47 18.25 40
    endloop
  endfacet
  facet normal -1 0 0
    outer loop
      vertex 47 18.25 40
      vertex 47 19.7 0
      vertex 47 18.25 0
    endloop
  endfacet
  facet normal 0 -1 0
    outer loop
      vertex 53 18.25 0
      vertex 53 18.25 40
      vertex 47 18.25 40
    endloop
  endfacet
  facet normal -0 -1 -0
    outer loop
      vertex 47 18.25 0
      vertex 53 18.25 0
      vertex 47 18.25 40
    endloop
  endfacet
  facet normal 1 0 0
    outer loop
      vertex 53 19.7 0
      vertex 53 19.7 40
      vertex 53 18.25 40
    endloop
  endfacet
  facet normal 1 0 0
    outer loop
      vertex 53 18.25 0
      vertex 53 19.7 0
      vertex 53 18.25 40
    endloop
  endfacet
  facet normal 0.966235 -0.257663 0
    outer loop
      vertex 53.04 19.85 0
      vertex 53.04 19.85 40
      vertex 53 19.7 40
    endloop
  endfacet
  facet normal 0.966235 -0.257663 0
    outer loop
      vertex 53 19.7 0
      vertex 53.04 19.85 0
      vertex 53 19.7 40
    endloop
  endfacet
  facet normal 0.707107 -0.707107 0
    outer loop
      vertex 53.15 19.96 0
      vertex 53.15 19.96 40
      vertex 53.04 19.85 40
    endloop
  endfacet
  facet normal 0.707107 -0.707107 0
    outer loop
      vertex 53.04 19.85 0
      vertex 53.15 19.96 0
      vertex 53.04 19.85 40
    endloop
  endfacet
  facet normal 0.257663 -0.966235 0
    outer loop
      vertex 53.3 20 0
      vertex 53.3 20 40
      vertex 53.15 19.96 40
    endloop
  endfacet
  facet normal 0.257663 -0.966235 0
    outer loop
      vertex 53.15 19.96 0
      vertex 53.3 20 0
      vertex 53.15 19.96 40
    endloop
  endfacet
  facet normal 0 -1 0
    outer loop
      vertex 59 20 0
      vertex 59 20 40
      vertex 53.3 20 40
    endloop
  endfacet
  facet normal -0 -1 -0
    outer loop
      vertex 53.3 20 0
      vertex 59 20 0
      vertex 53.3 20 40
    endloop
  endfacet
  facet normal -0.194638 -0.980875 -0
    outer loop
      vertex 59.383 19.924 0
      vertex 59.383 19.924 40
      vertex 59 20 40
    endloop
  endfacet
  facet normal -0.194638 -0.980875 -0
    outer loop
      vertex 59 20 0
      vertex 59.383 19.924 0
      vertex 59 20 40
    endloop
  endfacet
  facet normal -0.556474 -0.830865 -0
    outer loop
      vertex 59.707 19.707 0
      vertex 59.707 19.707 40
      vertex 59.383 19.924 40
    endloop
  endfacet
  facet normal -0.556474 -0.830865 -0
    outer loop
      vertex 59.383 19.924 0
      vertex 59.707 19.707 0
      vertex 59.383 19.924 40
    endloop
  endfacet
  facet normal -0.830865 -0.556474 0
    outer loop
      vertex 59.924 19.383 40
      vertex 59.707 19.707 40
      vertex 59.924 19.383 0
    endloop
  endfacet
  facet normal -0.830865 -0.556474 0
    outer loop
      vertex 59.924 19.383 0
      vertex 59.707 19.707 40
      vertex 59.707 19.707 0
    endloop
  endfacet
  facet normal -0.980875 -0.194638 0
    outer loop
      vertex 60 19 40
      vertex 59.924 19.383 40
      vertex 60 19 0
    endloop
  endfacet
  facet normal -0.980875 -0.194638 0
    outer loop
      vertex 60 19 0
      vertex 59.924 19.383 40
      vertex 59.924 19.383 0
    endloop
  endfacet
  facet normal -1 0 0
    outer loop
      vertex 60 19 40
      vertex 60 19 0
      vertex 60 13.3 40
    endloop
  endfacet
  facet normal -1 0 0
    outer loop
      vertex 60 13.3 40
      vertex 60 19 0
      vertex 60 13.3 0
    endloop
  endfacet
  facet normal -0.966235 0.257663 0
    outer loop
      vertex 60 13.3 40
      vertex 60 13.3 0
      vertex 59.96 13.15 40
    endloop
  endfacet
  facet normal -0.966235 0.257663 0
    outer loop
      vertex 59.96 13.15 40
      vertex 60 13.3 0
      vertex 59.96 13.15 0
    endloop
  endfacet
  facet normal -0.707107 0.707107 0
    outer loop
      vertex 59.96 13.15 40
      vertex 59.96 13.15 0
      vertex 59.85 13.04 40
    endloop
  endfacet
  facet normal -0.707107 0.707107 0
    outer loop
      vertex 59.85 13.04 40
      vertex 59.96 13.15 0
      vertex 59.85 13.04 0
    endloop
  endfacet
  facet normal -0.257663 0.966235 0
    outer loop
      vertex 59.85 13.04 40
      vertex 59.85 13.04 0
      vertex 59.7 13 40
    endloop
  endfacet
  facet normal -0.257663 0.966235 0
    outer loop
      vertex 59.7 13 40
      vertex 59.85 13.04 0
      vertex 59.7 13 0
    endloop
  endfacet
  facet normal 0 1 0
    outer loop
      vertex 59.7 13 40
      vertex 59.7 13 0
      vertex 58.25 13 40
    endloop
  endfacet
  facet normal 0 1 -0
    outer loop
      vertex 58.25 13 40
      vertex 59.7 13 0
      vertex 58.25 13 0
    endloop
  endfacet
  facet normal -1 0 0
    outer loop
      vertex 58.25 13 40
      vertex 58.25 13 0
      vertex 58.25 7 40
    endloop
  endfacet
  facet normal -1 0 0
    outer loop
      vertex 58.25 7 40
      vertex 58.25 13 0
      vertex 58.25 7 0
    endloop
  endfacet
  facet normal 0 -1 0
    outer loop
      vertex 59.7 7 0
      vertex 59.7 7 40
      vertex 58.25 7 40
    endloop
  endfacet
  facet normal -0 -1 -0
    outer loop
      vertex 58.25 7 0
      vertex 59.7 7 0
      vertex 58.25 7 40
    endloop
  endfacet
  facet normal -0.257663 -0.966235 -0
    outer loop
      vertex 59.85 6.96 0
      vertex 59.85 6.96 40
      vertex 59.7 7 40
    endloop
  endfacet
  facet normal -0.257663 -0.966235 -0
    outer loop
      vertex 59.7 7 0
      vertex 59.85 6.96 0
      vertex 59.7 7 40
    endloop
  endfacet
  facet normal -0.707107 -0.707107 0
    outer loop
      vertex 59.96 6.85 40
      vertex 59.85 6.96 40
      vertex 59.96 6.85 0
    endloop
  endfacet
  facet normal -0.707107 -0.707107 0
    outer loop
      vertex 59.96 6.85 0
      vertex 59.85 6.96 40
      vertex 59.85 6.96 0
    endloop
  endfacet
  facet normal -0.966235 -0.257663 0
    outer loop
      vertex 60 6.7 40
      vertex 59.96 6.85 40
      vertex 60 6.7 0
    endloop
  endfacet
  facet normal -0.966235 -0.257663 0
    outer loop
      vertex 60 6.7 0
      vertex 59.96 6.85 40
      vertex 59.96 6.85 0
    endloop
  endfacet
  facet normal -1 5.30256e-16 0
    outer loop
      vertex 60 6.7 40
      vertex 60 6.7 0
      vertex 60 -6.7 40
    endloop
  endfacet
  facet normal -1 5.30256e-16 0
    outer loop
      vertex 60 -6.7 40
      vertex 60 6.7 0
      vertex 60 -6.7 0
    endloop
  endfacet
  facet normal -0.966235 0.257663 0
    outer loop
      vertex 60 -6.7 40
      vertex 60 -6.7 0
      vertex 59.96 -6.85 40
    endloop
  endfacet
  facet normal -0.966235 0.257663 0
    outer loop
      vertex 59.96 -6.85 40
      vertex 60 -6.7 0
      vertex 59.96 -6.85 0
    endloop
  endfacet
  facet normal -0.707107 0.707107 0
    outer loop
      vertex 59.96 -6.85 40
      vertex 59.96 -6.85 0
      vertex 59.85 -6.96 40
    endloop
  endfacet
  facet normal -0.707107 0.707107 0
    outer loop
      vertex 59.85 -6.96 40
      vertex 59.96 -6.85 0
      vertex 59.85 -6.96 0
    endloop
  endfacet
  facet normal -0.257663 0.966235 0
    outer loop
      vertex 59.85 -6.96 40
      vertex 59.85 -6.96 0
      vertex 59.7 -7 40
    endloop
  endfacet
  facet normal -0.257663 0.966235 0
    outer loop
      vertex 59.7 -7 40
      vertex 59.85 -6.96 0
      vertex 59.7 -7 0
    endloop
  endfacet
  facet normal 0 1 0
    outer loop
      vertex 59.7 -7 40
      vertex 59.7 -7 0
      vertex 58.25 -7 40
    endloop
  endfacet
  facet normal 0 1 -0
    outer loop
      vertex 58.25 -7 40
      vertex 59.7 -7 0
      vertex 58.25 -7 0
    endloop
  endfacet
  facet normal -1 0 0
    outer loop
      vertex 58.25 -7 40
      vertex 58.25 -7 0
      vertex 58.25 -13 40
    endloop
  endfacet
  facet normal -1 0 0
    outer loop
      vertex 58.25 -13 40
      vertex 58.25 -7 0
      vertex 58.25 -13 0
    endloop
  endfacet
  facet normal 0 -1 0
    outer loop
      vertex 59.7 -13 0
      vertex 59.7 -13 40
      vertex 58.25 -13 40
    endloop
  endfacet
  facet normal -0 -1 -0
    outer loop
      vertex 58.25 -13 0
      vertex 59.7 -13 0
      vertex 58.25 -13 40
    endloop
  endfacet
  facet normal -0.257663 -0.966235 -0
    outer loop
      vertex 59.85 -13.04 0
      vertex 59.85 -13.04 40
      vertex 59.7 -13 40
    endloop
  endfacet
  facet normal -0.257663 -0.966235 -0
    outer loop
      vertex 59.7 -13 0
      vertex 59.85 -13.04 0
      vertex 59.7 -13 40
    endloop
  endfacet
  facet normal -0.707107 -0.707107 -0
    outer loop
      vertex 59.96 -13.15 0
      vertex 59.96 -13.15 40
      vertex 59.85 -13.04 40
    endloop
  endfacet
  facet normal -0.707107 -0.707107 -0
    outer loop
      vertex 59.85 -13.04 0
      vertex 59.96 -13.15 0
      vertex 59.85 -13.04 40
    endloop
  endfacet
  facet normal -0.966235 -0.257663 0
    outer loop
      vertex 60 -13.3 40
      vertex 59.96 -13.15 40
      vertex 60 -13.3 0
    endloop
  endfacet
  facet normal -0.966235 -0.257663 0
    outer loop
      vertex 60 -13.3 0
      vertex 59.96 -13.15 40
      vertex 59.96 -13.15 0
    endloop
  endfacet
  facet normal -1 0 0
    outer loop
      vertex 60 -13.3 40
      vertex 60 -13.3 0
      vertex 60 -19 40
    endloop
  endfacet
  facet normal -1 0 0
    outer loop
      vertex 60 -19 40
      vertex 60 -13.3 0
      vertex 60 -19 0
    endloop
  endfacet
  facet normal -0.980875 0.194638 0
    outer loop
      vertex 60 -19 40
      vertex 60 -19 0
      vertex 59.924 -19.383 40
    endloop
  endfacet
  facet normal -0.980875 0.194638 0
    outer loop
      vertex 59.924 -19.383 40
      vertex 60 -19 0
      vertex 59.924 -19.383 0
    endloop
  endfacet
  facet normal -0.830865 0.556474 0
    outer loop
      vertex 59.924 -19.383 40
      vertex 59.924 -19.383 0
      vertex 59.707 -19.707 40
    endloop
  endfacet
  facet normal -0.830865 0.556474 0
    outer loop
      vertex 59.707 -19.707 40
      vertex 59.924 -19.383 0
      vertex 59.707 -19.707 0
    endloop
  endfacet
  facet normal -0.556474 0.830865 0
    outer loop
      vertex 59.707 -19.707 40
      vertex 59.707 -19.707 0
      vertex 59.383 -19.924 40
    endloop
  endfacet
  facet normal -0.556474 0.830865 0
    outer loop
      vertex 59.383 -19.924 40
      vertex 59.707 -19.707 0
      vertex 59.383 -19.924 0
    endloop
  endfacet
  facet normal -0.194638 0.980875 0
    outer loop
      vertex 59.383 -19.924 40
      vertex 59.383 -19.924 0
      vertex 59 -20 40
    endloop
  endfacet
  facet normal -0.194638 0.980875 0
    outer loop
      vertex 59 -20 40
      vertex 59.383 -19.924 0
      vertex 59 -20 0
    endloop
  endfacet
  facet normal 0 1 0
    outer loop
      vertex 59 -20 40
      vertex 59 -20 0
      vertex 53.3 -20 40
    endloop
  endfacet
  facet normal 0 1 -0
    outer loop
      vertex 53.3 -20 40
      vertex 59 -20 0
      vertex 53.3 -20 0
    endloop
  endfacet
  facet normal 0.257663 0.966235 -0
    outer loop
      vertex 53.3 -20 40
      vertex 53.3 -20 0
      vertex 53.15 -19.96 40
    endloop
  endfacet
  facet normal 0.257663 0.966235 -0
    outer loop
      vertex 53.15 -19.96 40
      vertex 53.3 -20 0
      vertex 53.15 -19.96 0
    endloop
  endfacet
  facet normal 0.707107 0.707107 0
    outer loop
      vertex 53.04 -19.85 40
      vertex 53.15 -19.96 40
      vertex 53.15 -19.96 0
    endloop
  endfacet
  facet normal 0.707107 0.707107 0
    outer loop
      vertex 53.04 -19.85 0
      vertex 53.04 -19.85 40
      vertex 53.15 -19.96 0
    endloop
  endfacet
  facet normal 0.966235 0.257663 0
    outer loop
      vertex 53 -19.7 40
      vertex 53.04 -19.85 40
      vertex 53.04 -19.85 0
    endloop
  endfacet
  facet normal 0.966235 0.257663 0
    outer loop
      vertex 53 -19.7 0
      vertex 53 -19.7 40
      vertex 53.04 -19.85 0
    endloop
  endfacet
  facet normal 1 0 0
    outer loop
      vertex 53 -18.25 0
      vertex 53 -18.25 40
      vertex 53 -19.7 40
    endloop
  endfacet
  facet normal 1 0 0
    outer loop
      vertex 53 -19.7 0
      vertex 53 -18.25 0
      vertex 53 -19.7 40
    endloop
  endfacet
  facet normal 0 1 0
    outer loop
      vertex 53 -18.25 40
      vertex 53 -18.25 0
      vertex 47 -18.25 40
    endloop
  endfacet
  facet normal 0 1 -0
    outer loop
      vertex 47 -18.25 40
      vertex 53 -18.25 0
      vertex 47 -18.25 0
    endloop
  endfacet
  facet normal -1 0 0
    outer loop
      vertex 47 -18.25 40
      vertex 47 -18.25 0
      vertex 47 -19.7 40
    endloop
  endfacet
  facet normal -1 0 0
    outer loop
      vertex 47 -19.7 40
      vertex 47 -18.25 0
      vertex 47 -19.7 0
    endloop
  endfacet
  facet normal -0.966235 0.257663 0
    outer loop
      vertex 47 -19.7 40
      vertex 47 -19.7 0
      vertex 46.96 -19.85 40
    endloop
  endfacet
  facet normal -0.966235 0.257663 0
    outer loop
      vertex 46.96 -19.85 40
      vertex 47 -19.7 0
      vertex 46.96 -19.85 0
    endloop
  endfacet
  facet normal -0.707107 0.707107 0
    outer loop
      vertex 46.96 -19.85 40
      vertex 46.96 -19.85 0
      vertex 46.85 -19.96 40
    endloop
  endfacet
  facet normal -0.707107 0.707107 0
    outer loop
      vertex 46.85 -19.96 40
      vertex 46.96 -19.85 0
      vertex 46.85 -19.96 0
    endloop
  endfacet
  facet normal -0.257663 0.966235 0
    outer loop
      vertex 46.85 -19.96 40
      vertex 46.85 -19.96 0
      vertex 46.7 -20 40
    endloop
  endfacet
  facet normal -0.257663 0.966235 0
    outer loop
      vertex 46.7 -20 40
      vertex 46.85 -19.96 0
      vertex 46.7 -20 0
    endloop
  endfacet
  facet normal 0 1 0
    outer loop
      vertex 46.7 -20 40
      vertex 46.7 -20 0
      vertex 42.875 -20 40
    endloop
  endfacet
  facet normal 0 1 -0
    outer loop
      vertex 42.875 -20 40
      vertex 46.7 -20 0
      vertex 42.875 -20 0
    endloop
  endfacet
  facet normal -0.258865 0.965914 0
    outer loop
      vertex 42.875 -20 40
      vertex 42.875 -20 0
      vertex 42.625 -20.067 40
    endloop
  endfacet
  facet normal -0.258865 0.965914 0
    outer loop
      vertex 42.625 -20.067 40
      vertex 42.875 -20 0
      vertex 42.625 -20.067 0
    endloop
  endfacet
  facet normal -0.707107 0.707107 0
    outer loop
      vertex 42.625 -20.067 40
      vertex 42.625 -20.067 0
      vertex 42.442 -20.25 40
    endloop
  endfacet
  facet normal -0.707107 0.707107 0
    outer loop
      vertex 42.442 -20.25 40
      vertex 42.625 -20.067 0
      vertex 42.442 -20.25 0
    endloop
  endfacet
  facet normal -0.965914 0.258865 0
    outer loop
      vertex 42.442 -20.25 40
      vertex 42.442 -20.25 0
      vertex 42.375 -20.5 40
    endloop
  endfacet
  facet normal -0.965914 0.258865 0
    outer loop
      vertex 42.375 -20.5 40
      vertex 42.442 -20.25 0
      vertex 42.375 -20.5 0
    endloop
  endfacet
  facet normal -1 0 0
    outer loop
      vertex 42.375 -20.5 40
      vertex 42.375 -20.5 0
      vertex 42.375 -20.593 40
    endloop
  endfacet
  facet normal -1 0 0
    outer loop
      vertex 42.375 -20.593 40
      vertex 42.375 -20.5 0
      vertex 42.375 -20.593 0
    endloop
  endfacet
  facet normal -0.991428 0.130653 0
    outer loop
      vertex 42.375 -20.593 40
      vertex 42.375 -20.593 0
      vertex 42.358 -20.722 40
    endloop
  endfacet
  facet normal -0.991428 0.130653 0
    outer loop
      vertex 42.358 -20.722 40
      vertex 42.375 -20.593 0
      vertex 42.358 -20.722 0
    endloop
  endfacet
  facet normal -0.924203 0.381902 0
    outer loop
      vertex 42.358 -20.722 40
      vertex 42.358 -20.722 0
      vertex 42.308 -20.843 40
    endloop
  endfacet
  facet normal -0.924203 0.381902 0
    outer loop
      vertex 42.308 -20.843 40
      vertex 42.358 -20.722 0
      vertex 42.308 -20.843 0
    endloop
  endfacet
  facet normal -0.793482 0.608593 0
    outer loop
      vertex 42.308 -20.843 40
      vertex 42.308 -20.843 0
      vertex 42.229 -20.946 40
    endloop
  endfacet
  facet normal -0.793482 0.608593 0
    outer loop
      vertex 42.229 -20.946 40
      vertex 42.308 -20.843 0
      vertex 42.229 -20.946 0
    endloop
  endfacet
  facet normal -0.707107 0.707107 0
    outer loop
      vertex 42.229 -20.946 40
      vertex 42.229 -20.946 0
      vertex 40.354 -22.821 40
    endloop
  endfacet
  facet normal -0.707107 0.707107 0
    outer loop
      vertex 40.354 -22.821 40
      vertex 42.229 -20.946 0
      vertex 40.354 -22.821 0
    endloop
  endfacet
  facet normal -0.500278 0.865865 0
    outer loop
      vertex 40.354 -22.821 40
      vertex 40.354 -22.821 0
      vertex 40.129 -22.951 40
    endloop
  endfacet
  facet normal -0.500278 0.865865 0
    outer loop
      vertex 40.129 -22.951 40
      vertex 40.354 -22.821 0
      vertex 40.129 -22.951 0
    endloop
  endfacet
  facet normal 0 1 0
    outer loop
      vertex 40.129 -22.951 40
      vertex 40.129 -22.951 0
      vertex 39.871 -22.951 40
    endloop
  endfacet
  facet normal 0 1 -0
    outer loop
      vertex 39.871 -22.951 40
      vertex 40.129 -22.951 0
      vertex 39.871 -22.951 0
    endloop
  endfacet
  facet normal 0.500278 0.865865 -0
    outer loop
      vertex 39.871 -22.951 40
      vertex 39.871 -22.951 0
      vertex 39.646 -22.821 40
    endloop
  endfacet
  facet normal 0.500278 0.865865 -0
    outer loop
      vertex 39.646 -22.821 40
      vertex 39.871 -22.951 0
      vertex 39.646 -22.821 0
    endloop
  endfacet
  facet normal 0.707107 0.707107 0
    outer loop
      vertex 37.771 -20.946 40
      vertex 39.646 -22.821 40
      vertex 39.646 -22.821 0
    endloop
  endfacet
  facet normal 0.707107 0.707107 0
    outer loop
      vertex 37.771 -20.946 0
      vertex 37.771 -20.946 40
      vertex 39.646 -22.821 0
    endloop
  endfacet
  facet normal 0.793482 0.608593 0
    outer loop
      vertex 37.692 -20.843 40
      vertex 37.771 -20.946 40
      vertex 37.771 -20.946 0
    endloop
  endfacet
  facet normal 0.793482 0.608593 0
    outer loop
      vertex 37.692 -20.843 0
      vertex 37.692 -20.843 40
      vertex 37.771 -20.946 0
    endloop
  endfacet
  facet normal 0.924203 0.381902 0
    outer loop
      vertex 37.642 -20.722 40
      vertex 37.692 -20.843 40
      vertex 37.692 -20.843 0
    endloop
  endfacet
  facet normal 0.924203 0.381902 0
    outer loop
      vertex 37.642 -20.722 0
      vertex 37.642 -20.722 40
      vertex 37.692 -20.843 0
    endloop
  endfacet
  facet normal 0.991428 0.130653 0
    outer loop
      vertex 37.625 -20.593 40
      vertex 37.642 -20.722 40
      vertex 37.642 -20.722 0
    endloop
  endfacet
  facet normal 0.991428 0.130653 0
    outer loop
      vertex 37.625 -20.593 0
      vertex 37.625 -20.593 40
      vertex 37.642 -20.722 0
    endloop
  endfacet
  facet normal 0 -0 1
    outer loop
      vertex -25.8372 66.8786 40
      vertex -31.8795 64.1884 40
      vertex -22.122 58.09 40
    endloop
  endfacet
  facet normal 0 0 1
    outer loop
      vertex -20.569 56.691 40
      vertex -25.8372 66.8786 40
      vertex -22.122 58.09 40
    endloop
  endfacet
  facet normal 0 0 1
    outer loop
      vertex -20.569 56.691 40
      vertex -19.34 55 40
      vertex -25.8372 66.8786 40
    endloop
  endfacet
  facet normal 0 0 1
    outer loop
      vertex -9.878 43.09 40
      vertex -8.067 44.135 40
      vertex -19.34 55 40
    endloop
  endfacet
  facet normal 0 0 1
    outer loop
      vertex -19.34 -55 40
      vertex 46.6987 -25 40
      vertex -18.489 -53.09 40
    endloop
  endfacet
  facet normal 0 -0 1
    outer loop
      vertex -20.569 -56.691 40
      vertex -25.8372 -66.8786 40
      vertex -19.34 -55 40
    endloop
  endfacet
  facet normal 0 -0 1
    outer loop
      vertex -22.122 -58.09 40
      vertex -25.8372 -66.8786 40
      vertex -20.569 -56.691 40
    endloop
  endfacet
  facet normal 0 0 1
    outer loop
      vertex -31.8795 -64.1884 40
      vertex -25.8372 -66.8786 40
      vertex -22.122 -58.09 40
    endloop
  endfacet
  facet normal 0 0 1
    outer loop
      vertex -25.8372 -66.8786 40
      vertex 46.6987 -25 40
      vertex -19.34 -55 40
    endloop
  endfacet
  facet normal 0 0 1
    outer loop
      vertex 57.3045 -43.3697 40
      vertex 58.2492 -42.3205 40
      vertex 46.6987 -25 40
    endloop
  endfacet
  facet normal 0 0 1
    outer loop
      vertex 58.2492 -42.3205 40
      vertex 65.7753 -29.285 40
      vertex 46.6987 -25 40
    endloop
  endfacet
  facet normal 0 0 1
    outer loop
      vertex 42.308 20.843 40
      vertex 46.7 20 40
      vertex 42.229 20.946 40
    endloop
  endfacet
  facet normal 0 0 1
    outer loop
      vertex -11.431 41.691 40
      vertex -9.878 43.09 40
      vertex -18.489 53.09 40
    endloop
  endfacet
  facet normal 0 0 1
    outer loop
      vertex 1.878 43.09 40
      vertex 29.718 26.584 40
      vertex -25.8372 66.8786 40
    endloop
  endfacet
  facet normal 0 0 1
    outer loop
      vertex 39.871 22.951 40
      vertex 46.6987 25 40
      vertex -25.8372 66.8786 40
    endloop
  endfacet
  facet normal 0 0 1
    outer loop
      vertex 59.707 19.707 40
      vertex 59.924 19.383 40
      vertex 70.4266 14.9696 40
    endloop
  endfacet
  facet normal 0 0 1
    outer loop
      vertex -18.055 -51.045 40
      vertex -13.945 -36.045 40
      vertex -18.055 51.045 40
    endloop
  endfacet
  facet normal 0 0 1
    outer loop
      vertex 40 -6.7 40
      vertex 40 9.7 40
      vertex 33.942 20.464 40
    endloop
  endfacet
  facet normal 0 0 1
    outer loop
      vertex -13.945 -36.045 40
      vertex -13.945 36.045 40
      vertex -18.055 51.045 40
    endloop
  endfacet
  facet normal 0 0 1
    outer loop
      vertex 40 10.3 40
      vertex 37.625 20 40
      vertex 32.584 24.045 40
    endloop
  endfacet
  facet normal 0 0 1
    outer loop
      vertex -13.945 36.045 40
      vertex -13.511 38.09 40
      vertex -18.055 51.045 40
    endloop
  endfacet
  facet normal 0 0 1
    outer loop
      vertex -13.511 38.09 40
      vertex -12.66 40 40
      vertex -18.055 51.045 40
    endloop
  endfacet
  facet normal 0 0 1
    outer loop
      vertex -12.66 40 40
      vertex -11.431 41.691 40
      vertex -18.055 51.045 40
    endloop
  endfacet
  facet normal 0 0 1
    outer loop
      vertex 37.771 20.946 40
      vertex 39.646 22.821 40
      vertex -25.8372 66.8786 40
    endloop
  endfacet
  facet normal 0 0 1
    outer loop
      vertex -18.489 53.09 40
      vertex -9.878 43.09 40
      vertex -19.34 55 40
    endloop
  endfacet
  facet normal 0 0 1
    outer loop
      vertex -19.34 55 40
      vertex -8.067 44.135 40
      vertex -25.8372 66.8786 40
    endloop
  endfacet
  facet normal 0 0 1
    outer loop
      vertex -4 45 40
      vertex -1.921 44.781 40
      vertex -25.8372 66.8786 40
    endloop
  endfacet
  facet normal 0 0 1
    outer loop
      vertex -1.921 44.781 40
      vertex 0.067 44.135 40
      vertex -25.8372 66.8786 40
    endloop
  endfacet
  facet normal 0 0 1
    outer loop
      vertex 0.067 44.135 40
      vertex 1.878 43.09 40
      vertex -25.8372 66.8786 40
    endloop
  endfacet
  facet normal 0 0 1
    outer loop
      vertex 32.584 -24.045 40
      vertex 46.6987 -25 40
      vertex 33.48 -22.337 40
    endloop
  endfacet
  facet normal 0 0 1
    outer loop
      vertex 31.305 -25.488 40
      vertex 46.6987 -25 40
      vertex 32.584 -24.045 40
    endloop
  endfacet
  facet normal 0 0 1
    outer loop
      vertex 29.718 -26.584 40
      vertex 46.6987 -25 40
      vertex 31.305 -25.488 40
    endloop
  endfacet
  facet normal 0 0 1
    outer loop
      vertex 32.584 24.045 40
      vertex 37.625 20 40
      vertex 31.305 25.488 40
    endloop
  endfacet
  facet normal 0 0 1
    outer loop
      vertex 0.067 -44.135 40
      vertex 46.6987 -25 40
      vertex 1.878 -43.09 40
    endloop
  endfacet
  facet normal 0 0 1
    outer loop
      vertex -1.921 -44.781 40
      vertex -4 -45 40
      vertex -18.055 -51.045 40
    endloop
  endfacet
  facet normal 0 0 1
    outer loop
      vertex -18.489 -53.09 40
      vertex 46.6987 -25 40
      vertex 0.067 -44.135 40
    endloop
  endfacet
  facet normal 0 0 1
    outer loop
      vertex -18.489 -53.09 40
      vertex -1.921 -44.781 40
      vertex -18.055 -51.045 40
    endloop
  endfacet
  facet normal 0 0 1
    outer loop
      vertex 0.067 -44.135 40
      vertex -1.921 -44.781 40
      vertex -18.489 -53.09 40
    endloop
  endfacet
  facet normal 0 0 1
    outer loop
      vertex -18.055 -51.045 40
      vertex -4 -45 40
      vertex -6.079 -44.781 40
    endloop
  endfacet
  facet normal 0 0 1
    outer loop
      vertex -18.055 -51.045 40
      vertex -6.079 -44.781 40
      vertex -8.067 -44.135 40
    endloop
  endfacet
  facet normal 0 0 1
    outer loop
      vertex -18.055 -51.045 40
      vertex -8.067 -44.135 40
      vertex -9.878 -43.09 40
    endloop
  endfacet
  facet normal 0 0 1
    outer loop
      vertex -18.055 -51.045 40
      vertex -9.878 -43.09 40
      vertex -11.431 -41.691 40
    endloop
  endfacet
  facet normal 0 0 1
    outer loop
      vertex -18.055 -51.045 40
      vertex -11.431 -41.691 40
      vertex -12.66 -40 40
    endloop
  endfacet
  facet normal 0 0 1
    outer loop
      vertex -18.055 -51.045 40
      vertex -13.511 -38.09 40
      vertex -13.945 -36.045 40
    endloop
  endfacet
  facet normal 0 0 1
    outer loop
      vertex -18.055 -51.045 40
      vertex -12.66 -40 40
      vertex -13.511 -38.09 40
    endloop
  endfacet
  facet normal 0 0 1
    outer loop
      vertex 39.646 -22.821 40
      vertex 37.771 -20.946 40
      vertex 33.942 -20.464 40
    endloop
  endfacet
  facet normal 0 0 1
    outer loop
      vertex 46.96 -19.85 40
      vertex 46.85 -19.96 40
      vertex 46.6987 -25 40
    endloop
  endfacet
  facet normal 0 0 1
    outer loop
      vertex 41.75 -13 40
      vertex 41.75 -7 40
      vertex 40.3 -7 40
    endloop
  endfacet
  facet normal 0 0 1
    outer loop
      vertex 41.75 -13 40
      vertex 40.3 -7 40
      vertex 40.15 -6.96 40
    endloop
  endfacet
  facet normal 0 0 1
    outer loop
      vertex 41.75 -13 40
      vertex 40.15 -6.96 40
      vertex 40.04 -6.85 40
    endloop
  endfacet
  facet normal 0 0 1
    outer loop
      vertex 37.625 20 40
      vertex 37.625 20.593 40
      vertex 31.305 25.488 40
    endloop
  endfacet
  facet normal 0 0 1
    outer loop
      vertex 37.625 20.593 40
      vertex 37.642 20.722 40
      vertex 31.305 25.488 40
    endloop
  endfacet
  facet normal 0 0 1
    outer loop
      vertex 37.642 20.722 40
      vertex 37.692 20.843 40
      vertex 31.305 25.488 40
    endloop
  endfacet
  facet normal 0 0 1
    outer loop
      vertex 37.692 20.843 40
      vertex 37.771 20.946 40
      vertex 31.305 25.488 40
    endloop
  endfacet
  facet normal 0 0 1
    outer loop
      vertex 39.646 22.821 40
      vertex 39.871 22.951 40
      vertex -25.8372 66.8786 40
    endloop
  endfacet
  facet normal 0 0 1
    outer loop
      vertex 42.625 20.067 40
      vertex 42.875 20 40
      vertex 42.442 20.25 40
    endloop
  endfacet
  facet normal 0 0 1
    outer loop
      vertex 40.354 22.821 40
      vertex 46.6987 25 40
      vertex 40.129 22.951 40
    endloop
  endfacet
  facet normal 0 0 1
    outer loop
      vertex 46.7 20 40
      vertex 46.6987 25 40
      vertex 40.354 22.821 40
    endloop
  endfacet
  facet normal 0 0 1
    outer loop
      vertex 39.871 22.951 40
      vertex 40.129 22.951 40
      vertex 46.6987 25 40
    endloop
  endfacet
  facet normal 0 0 1
    outer loop
      vertex 47 19.7 40
      vertex 53 18.25 40
      vertex 46.96 19.85 40
    endloop
  endfacet
  facet normal 0 0 1
    outer loop
      vertex 47 18.25 40
      vertex 53 18.25 40
      vertex 47 19.7 40
    endloop
  endfacet
  facet normal 0 0 1
    outer loop
      vertex 42.875 20 40
      vertex 42.375 20.593 40
      vertex 42.375 20.5 40
    endloop
  endfacet
  facet normal 0 0 1
    outer loop
      vertex 58.25 13 40
      vertex 59.7 7 40
      vertex 59.85 6.96 40
    endloop
  endfacet
  facet normal 0 0 1
    outer loop
      vertex 42.875 20 40
      vertex 42.358 20.722 40
      vertex 42.375 20.593 40
    endloop
  endfacet
  facet normal 0 -0 1
    outer loop
      vertex 58.25 13 40
      vertex 58.25 7 40
      vertex 59.7 7 40
    endloop
  endfacet
  facet normal 0 0 1
    outer loop
      vertex 42.875 20 40
      vertex 42.308 20.843 40
      vertex 42.358 20.722 40
    endloop
  endfacet
  facet normal -0 -0 1
    outer loop
      vertex 53.04 -19.85 40
      vertex 47 -18.25 40
      vertex 53.15 -19.96 40
    endloop
  endfacet
  facet normal 0 0 1
    outer loop
      vertex 42.229 20.946 40
      vertex 46.7 20 40
      vertex 40.354 22.821 40
    endloop
  endfacet
  facet normal 0 0 1
    outer loop
      vertex 42.875 20 40
      vertex 42.375 20.5 40
      vertex 42.442 20.25 40
    endloop
  endfacet
  facet normal 0 0 1
    outer loop
      vertex 42.875 20 40
      vertex 46.7 20 40
      vertex 42.308 20.843 40
    endloop
  endfacet
  facet normal 0 0 1
    outer loop
      vertex 53 -18.25 40
      vertex 47 -18.25 40
      vertex 53 -19.7 40
    endloop
  endfacet
  facet normal -0 -0 1
    outer loop
      vertex 53 -19.7 40
      vertex 47 -18.25 40
      vertex 53.04 -19.85 40
    endloop
  endfacet
  facet normal 0 0 1
    outer loop
      vertex 46.85 19.96 40
      vertex 46.6987 25 40
      vertex 46.7 20 40
    endloop
  endfacet
  facet normal 0 0 1
    outer loop
      vertex 53 18.25 40
      vertex 46.6987 25 40
      vertex 46.85 19.96 40
    endloop
  endfacet
  facet normal 0 0 1
    outer loop
      vertex 53.3 20 40
      vertex 59 20 40
      vertex 46.6987 25 40
    endloop
  endfacet
  facet normal 0 -0 1
    outer loop
      vertex 60 6.7 40
      vertex 60 -6.7 40
      vertex 70.4266 -14.9696 40
    endloop
  endfacet
  facet normal 0 0 1
    outer loop
      vertex 46.96 19.85 40
      vertex 53 18.25 40
      vertex 46.85 19.96 40
    endloop
  endfacet
  facet normal 0 -0 1
    outer loop
      vertex 60 19 40
      vertex 60 13.3 40
      vertex 70.4266 14.9696 40
    endloop
  endfacet
  facet normal 0 0 1
    outer loop
      vertex 53 19.7 40
      vertex 53.04 19.85 40
      vertex 46.6987 25 40
    endloop
  endfacet
  facet normal 0 0 1
    outer loop
      vertex 53.04 19.85 40
      vertex 53.15 19.96 40
      vertex 46.6987 25 40
    endloop
  endfacet
  facet normal 0 -0 1
    outer loop
      vertex 59.7 13 40
      vertex 58.25 13 40
      vertex 72 0 40
    endloop
  endfacet
  facet normal 0 0 1
    outer loop
      vertex 53.15 19.96 40
      vertex 53.3 20 40
      vertex 46.6987 25 40
    endloop
  endfacet
  facet normal 0 0 1
    outer loop
      vertex -11.431 41.691 40
      vertex -18.489 53.09 40
      vertex -18.055 51.045 40
    endloop
  endfacet
  facet normal 0 0 1
    outer loop
      vertex 59.707 19.707 40
      vertex 70.4266 14.9696 40
      vertex 59.383 19.924 40
    endloop
  endfacet
  facet normal 0 0 1
    outer loop
      vertex 60 19 40
      vertex 70.4266 14.9696 40
      vertex 59.924 19.383 40
    endloop
  endfacet
  facet normal 0 0 1
    outer loop
      vertex 58.25 13 40
      vertex 59.85 6.96 40
      vertex 72 0 40
    endloop
  endfacet
  facet normal 0 0 1
    outer loop
      vertex 72 0 40
      vertex 70.4266 14.9696 40
      vertex 60 13.3 40
    endloop
  endfacet
  facet normal 0 0 1
    outer loop
      vertex 72 0 40
      vertex 60 13.3 40
      vertex 59.96 13.15 40
    endloop
  endfacet
  facet normal 0 0 1
    outer loop
      vertex 72 0 40
      vertex 59.96 13.15 40
      vertex 59.85 13.04 40
    endloop
  endfacet
  facet normal 0 0 1
    outer loop
      vertex 72 0 40
      vertex 59.85 13.04 40
      vertex 59.7 13 40
    endloop
  endfacet
  facet normal 0 0 1
    outer loop
      vertex 53 18.25 40
      vertex 53 19.7 40
      vertex 46.6987 25 40
    endloop
  endfacet
  facet normal 0 0 1
    outer loop
      vertex 59.85 6.96 40
      vertex 59.96 6.85 40
      vertex 72 0 40
    endloop
  endfacet
  facet normal 0 0 1
    outer loop
      vertex 60 6.7 40
      vertex 72 0 40
      vertex 59.96 6.85 40
    endloop
  endfacet
  facet normal -0 -0 1
    outer loop
      vertex 53.15 -19.96 40
      vertex 47 -18.25 40
      vertex 65.7753 -29.285 40
    endloop
  endfacet
  facet normal 0 0 1
    outer loop
      vertex 65.7753 -29.285 40
      vertex 70.4266 -14.9696 40
      vertex 60 -6.7 40
    endloop
  endfacet
  facet normal 0 0 1
    outer loop
      vertex 65.7753 -29.285 40
      vertex 60 -6.7 40
      vertex 59.96 -6.85 40
    endloop
  endfacet
  facet normal 0 0 1
    outer loop
      vertex 65.7753 -29.285 40
      vertex 59.96 -6.85 40
      vertex 59.85 -6.96 40
    endloop
  endfacet
  facet normal 0 0 1
    outer loop
      vertex 65.7753 -29.285 40
      vertex 59.85 -6.96 40
      vertex 59.7 -7 40
    endloop
  endfacet
  facet normal 0 0 1
    outer loop
      vertex 65.7753 -29.285 40
      vertex 59.7 -7 40
      vertex 58.25 -7 40
    endloop
  endfacet
  facet normal -0 0 1
    outer loop
      vertex 59.7 -13 40
      vertex 58.25 -7 40
      vertex 58.25 -13 40
    endloop
  endfacet
  facet normal 0 0 1
    outer loop
      vertex 59.85 -13.04 40
      vertex 58.25 -7 40
      vertex 59.7 -13 40
    endloop
  endfacet
  facet normal 0 -0 1
    outer loop
      vertex 59 -20 40
      vertex 53.3 -20 40
      vertex 65.7753 -29.285 40
    endloop
  endfacet
  facet normal 0 0 1
    outer loop
      vertex 59.96 -13.15 40
      vertex 58.25 -7 40
      vertex 59.85 -13.04 40
    endloop
  endfacet
  facet normal 0 0 1
    outer loop
      vertex 65.7753 -29.285 40
      vertex 58.25 -7 40
      vertex 59.96 -13.15 40
    endloop
  endfacet
  facet normal 0 0 1
    outer loop
      vertex 65.7753 -29.285 40
      vertex 59.96 -13.15 40
      vertex 60 -13.3 40
    endloop
  endfacet
  facet normal 0 0 1
    outer loop
      vertex 65.7753 -29.285 40
      vertex 60 -19 40
      vertex 59.924 -19.383 40
    endloop
  endfacet
  facet normal 0 0 1
    outer loop
      vertex 65.7753 -29.285 40
      vertex 59.924 -19.383 40
      vertex 59.707 -19.707 40
    endloop
  endfacet
  facet normal 0 0 1
    outer loop
      vertex 65.7753 -29.285 40
      vertex 59.707 -19.707 40
      vertex 59.383 -19.924 40
    endloop
  endfacet
  facet normal 0 0 1
    outer loop
      vertex 65.7753 -29.285 40
      vertex 59.383 -19.924 40
      vertex 59 -20 40
    endloop
  endfacet
  facet normal 0 0 1
    outer loop
      vertex 53.15 -19.96 40
      vertex 65.7753 -29.285 40
      vertex 53.3 -20 40
    endloop
  endfacet
  facet normal 0 -0 1
    outer loop
      vertex 42.229 -20.946 40
      vertex 40.354 -22.821 40
      vertex 46.6987 -25 40
    endloop
  endfacet
  facet normal 0 0 1
    outer loop
      vertex 47 -19.7 40
      vertex 65.7753 -29.285 40
      vertex 47 -18.25 40
    endloop
  endfacet
  facet normal 0 0 1
    outer loop
      vertex 46.6987 -25 40
      vertex 65.7753 -29.285 40
      vertex 47 -19.7 40
    endloop
  endfacet
  facet normal 0 0 1
    outer loop
      vertex 46.7 -20 40
      vertex 42.875 -20 40
      vertex 46.6987 -25 40
    endloop
  endfacet
  facet normal 0 0 1
    outer loop
      vertex 46.6987 -25 40
      vertex 47 -19.7 40
      vertex 46.96 -19.85 40
    endloop
  endfacet
  facet normal 0 0 1
    outer loop
      vertex 46.6987 -25 40
      vertex 46.85 -19.96 40
      vertex 46.7 -20 40
    endloop
  endfacet
  facet normal 0 0 1
    outer loop
      vertex -6.079 44.781 40
      vertex -4 45 40
      vertex -25.8372 66.8786 40
    endloop
  endfacet
  facet normal 0 0 1
    outer loop
      vertex -8.067 44.135 40
      vertex -6.079 44.781 40
      vertex -25.8372 66.8786 40
    endloop
  endfacet
  facet normal 0 0 1
    outer loop
      vertex 37.771 20.946 40
      vertex -25.8372 66.8786 40
      vertex 31.305 25.488 40
    endloop
  endfacet
  facet normal 0 0 1
    outer loop
      vertex 31.305 25.488 40
      vertex -25.8372 66.8786 40
      vertex 29.718 26.584 40
    endloop
  endfacet
  facet normal 0 0 1
    outer loop
      vertex 42.375 -20.593 40
      vertex 46.6987 -25 40
      vertex 42.375 -20.5 40
    endloop
  endfacet
  facet normal 0 0 1
    outer loop
      vertex 40 10.3 40
      vertex 40 20 40
      vertex 37.625 20 40
    endloop
  endfacet
  facet normal 0 -0 1
    outer loop
      vertex 29.718 -26.584 40
      vertex 1.878 -43.09 40
      vertex 46.6987 -25 40
    endloop
  endfacet
  facet normal 0 0 1
    outer loop
      vertex 42.308 -20.843 40
      vertex 46.6987 -25 40
      vertex 42.358 -20.722 40
    endloop
  endfacet
  facet normal 0 0 1
    outer loop
      vertex 42.229 -20.946 40
      vertex 46.6987 -25 40
      vertex 42.308 -20.843 40
    endloop
  endfacet
  facet normal 0 0 1
    outer loop
      vertex 40.129 -22.951 40
      vertex 46.6987 -25 40
      vertex 40.354 -22.821 40
    endloop
  endfacet
  facet normal 0 0 1
    outer loop
      vertex 39.871 -22.951 40
      vertex 46.6987 -25 40
      vertex 40.129 -22.951 40
    endloop
  endfacet
  facet normal 0 0 1
    outer loop
      vertex 39.646 -22.821 40
      vertex 33.942 -20.464 40
      vertex 33.48 -22.337 40
    endloop
  endfacet
  facet normal 0 0 1
    outer loop
      vertex 33.48 -22.337 40
      vertex 46.6987 -25 40
      vertex 39.871 -22.951 40
    endloop
  endfacet
  facet normal 0 0 1
    outer loop
      vertex 39.871 -22.951 40
      vertex 39.646 -22.821 40
      vertex 33.48 -22.337 40
    endloop
  endfacet
  facet normal 0 0 1
    outer loop
      vertex 33.942 -20.464 40
      vertex 37.771 -20.946 40
      vertex 37.692 -20.843 40
    endloop
  endfacet
  facet normal 0 0 1
    outer loop
      vertex 33.942 -20.464 40
      vertex 37.642 -20.722 40
      vertex 37.625 -20.593 40
    endloop
  endfacet
  facet normal 0 0 1
    outer loop
      vertex 33.942 -20.464 40
      vertex 37.692 -20.843 40
      vertex 37.642 -20.722 40
    endloop
  endfacet
  facet normal 0 0 1
    outer loop
      vertex 57.3045 43.3697 40
      vertex 65.7753 29.285 40
      vertex 58.2492 42.3205 40
    endloop
  endfacet
  facet normal 0 0 1
    outer loop
      vertex 57.3045 43.3697 40
      vertex 70.4266 14.9696 40
      vertex 65.7753 29.285 40
    endloop
  endfacet
  facet normal 0 0 1
    outer loop
      vertex 57.3045 43.3697 40
      vertex 59.383 19.924 40
      vertex 70.4266 14.9696 40
    endloop
  endfacet
  facet normal 0 0 1
    outer loop
      vertex 57.3045 43.3697 40
      vertex 59 20 40
      vertex 59.383 19.924 40
    endloop
  endfacet
  facet normal 0 -0 1
    outer loop
      vertex 57.3045 43.3697 40
      vertex 46.6987 25 40
      vertex 59 20 40
    endloop
  endfacet
  facet normal 0 0 1
    outer loop
      vertex 60 6.7 40
      vertex 70.4266 -14.9696 40
      vertex 72 0 40
    endloop
  endfacet
  facet normal 0 -0 1
    outer loop
      vertex 40 10.3 40
      vertex 40 9.7 40
      vertex 40.3 10 40
    endloop
  endfacet
  facet normal 0 0 1
    outer loop
      vertex 33.942 20.464 40
      vertex 40 9.7 40
      vertex 40 10.3 40
    endloop
  endfacet
  facet normal 0 -0 1
    outer loop
      vertex 60 -13.3 40
      vertex 60 -19 40
      vertex 65.7753 -29.285 40
    endloop
  endfacet
  facet normal 0 0 1
    outer loop
      vertex 40 10.3 40
      vertex 33.48 22.337 40
      vertex 33.942 20.464 40
    endloop
  endfacet
  facet normal 0 0 1
    outer loop
      vertex 40 10.3 40
      vertex 32.584 24.045 40
      vertex 33.48 22.337 40
    endloop
  endfacet
  facet normal 0 0 1
    outer loop
      vertex 40.04 -6.85 40
      vertex 40.3 -13 40
      vertex 41.75 -13 40
    endloop
  endfacet
  facet normal 0 0 1
    outer loop
      vertex 40 -6.7 40
      vertex 40.3 -13 40
      vertex 40.04 -6.85 40
    endloop
  endfacet
  facet normal 0 0 1
    outer loop
      vertex 33.942 20.464 40
      vertex 40.3 -13 40
      vertex 40 -6.7 40
    endloop
  endfacet
  facet normal 0 0 1
    outer loop
      vertex 33.942 20.464 40
      vertex 40.15 -13.04 40
      vertex 40.3 -13 40
    endloop
  endfacet
  facet normal 0 0 1
    outer loop
      vertex 33.942 20.464 40
      vertex 40.04 -13.15 40
      vertex 40.15 -13.04 40
    endloop
  endfacet
  facet normal 0 0 1
    outer loop
      vertex 33.942 20.464 40
      vertex 40 -13.3 40
      vertex 40.04 -13.15 40
    endloop
  endfacet
  facet normal 0 -0 1
    outer loop
      vertex 42.875 -20 40
      vertex 42.625 -20.067 40
      vertex 46.6987 -25 40
    endloop
  endfacet
  facet normal 0 -0 1
    outer loop
      vertex 42.625 -20.067 40
      vertex 42.442 -20.25 40
      vertex 46.6987 -25 40
    endloop
  endfacet
  facet normal 0 -0 1
    outer loop
      vertex 42.442 -20.25 40
      vertex 42.375 -20.5 40
      vertex 46.6987 -25 40
    endloop
  endfacet
  facet normal 0 -0 1
    outer loop
      vertex 42.375 -20.593 40
      vertex 42.358 -20.722 40
      vertex 46.6987 -25 40
    endloop
  endfacet
  facet normal 0 0 1
    outer loop
      vertex 33.942 20.464 40
      vertex 40 -20 40
      vertex 40 -13.3 40
    endloop
  endfacet
  facet normal 0 0 1
    outer loop
      vertex 33.942 20.464 40
      vertex 37.625 -20 40
      vertex 40 -20 40
    endloop
  endfacet
  facet normal 0 0 1
    outer loop
      vertex 33.942 20.464 40
      vertex 37.625 -20.593 40
      vertex 37.625 -20 40
    endloop
  endfacet
  facet normal 0 0 1
    outer loop
      vertex 33.942 20.464 40
      vertex 33.942 -20.464 40
      vertex 37.625 -20.593 40
    endloop
  endfacet
endsolid OpenSCAD_Model
