solid OpenSCAD_Model
  facet normal -1 -0 0
    outer loop
      vertex -10 -1 19
      vertex -10 1 19
      vertex -10 -1 -19
    endloop
  endfacet
  facet normal -1 0 0
    outer loop
      vertex -10 -1 -19
      vertex -10 1 19
      vertex -10 1 -19
    endloop
  endfacet
  facet normal 0 -1.77636e-15 1
    outer loop
      vertex -10 1 19
      vertex -10 -1 19
      vertex 10 -1 19
    endloop
  endfacet
  facet normal 0 -0 1
    outer loop
      vertex 10 1 19
      vertex 2.9 1 19
      vertex 10 -4.21885e-15 19
    endloop
  endfacet
  facet normal -1.77636e-16 -3.55271e-15 1
    outer loop
      vertex 10 -4.21885e-15 19
      vertex -10 1 19
      vertex 10 -1 19
    endloop
  endfacet
  facet normal 4.1519e-31 -1.86985e-15 1
    outer loop
      vertex 10 -1.9 19
      vertex 12 -1.9 19
      vertex 10 -4.21885e-15 19
    endloop
  endfacet
  facet normal 6.12537e-16 -1.22507e-15 1
    outer loop
      vertex 12 -1.9 19
      vertex 12 1 19
      vertex 10 -4.21885e-15 19
    endloop
  endfacet
  facet normal 0 0 1
    outer loop
      vertex 12 1 19
      vertex 10 1 19
      vertex 10 -4.21885e-15 19
    endloop
  endfacet
  facet normal 0 -0 1
    outer loop
      vertex 2.9 1 19
      vertex -2.9 1 19
      vertex 10 -4.21885e-15 19
    endloop
  endfacet
  facet normal 0 -0 1
    outer loop
      vertex -2.9 1 19
      vertex -10 1 19
      vertex 10 -4.21885e-15 19
    endloop
  endfacet
  facet normal 0 -0 1
    outer loop
      vertex -2.9 3.5 19
      vertex -2.9 1 19
      vertex 2.9 3.5 19
    endloop
  endfacet
  facet normal -0 0 1
    outer loop
      vertex 2.9 1 19
      vertex 2.9 3.5 19
      vertex -2.9 1 19
    endloop
  endfacet
  facet normal 7.07067e-18 -1 -2.22045e-16
    outer loop
      vertex -2.59949 -1 -0.264342
      vertex -10 -1 19
      vertex -10 -1 -19
    endloop
  endfacet
  facet normal 7.73391e-16 -1 7.86462e-17
    outer loop
      vertex 2.55941 -1 0.525971
      vertex 2.61289 -1 -2.22045e-16
      vertex 10 -1 -19
    endloop
  endfacet
  facet normal -8.10296e-18 -1 -2.16051e-16
    outer loop
      vertex -2.49306 -1 -0.782204
      vertex -2.59949 -1 -0.264342
      vertex -10 -1 -19
    endloop
  endfacet
  facet normal 3.84307e-17 -1 -2.09997e-16
    outer loop
      vertex -2.59949 -1 0.264342
      vertex -10 -1 19
      vertex -2.59949 -1 -0.264342
    endloop
  endfacet
  facet normal 3.74983e-16 -1 -7.70607e-17
    outer loop
      vertex -2.49306 -1 0.782204
      vertex -10 -1 19
      vertex -2.59949 -1 0.264342
    endloop
  endfacet
  facet normal -2.68017e-16 -1 -3.42019e-16
    outer loop
      vertex -2.28457 -1 1.26804
      vertex -10 -1 19
      vertex -2.49306 -1 0.782204
    endloop
  endfacet
  facet normal 0 -1 -2.25401e-16
    outer loop
      vertex 10 -1 19
      vertex -10 -1 19
      vertex -2.28457 -1 1.26804
    endloop
  endfacet
  facet normal 2.42464e-16 -1 -3.88997e-16
    outer loop
      vertex -1.59937 -1 2.06621
      vertex -1.1507 -1 2.34587
      vertex 10 -1 19
    endloop
  endfacet
  facet normal 6.98347e-14 -1 -4.86064e-14
    outer loop
      vertex 10 -1 19
      vertex -2.28457 -1 1.26804
      vertex -1.98255 -1 1.70197
    endloop
  endfacet
  facet normal 1.11624e-16 -1 -3.01393e-16
    outer loop
      vertex -1.1507 -1 2.34587
      vertex -0.654928 -1 2.52948
      vertex 10 -1 19
    endloop
  endfacet
  facet normal 5.7131e-17 -1 -2.44698e-16
    outer loop
      vertex -1.59937 -1 -2.06621
      vertex -1.98255 -1 -1.70197
      vertex -10 -1 -19
    endloop
  endfacet
  facet normal 1.08501e-17 -1 -2.23861e-16
    outer loop
      vertex -2.28457 -1 -1.26804
      vertex -2.49306 -1 -0.782204
      vertex -10 -1 -19
    endloop
  endfacet
  facet normal 3.89715e-17 -1 -2.54394e-16
    outer loop
      vertex 10 -1 19
      vertex -0.654928 -1 2.52948
      vertex -0.132341 -1 2.60954
    endloop
  endfacet
  facet normal 3.246e-17 -1 -2.33264e-16
    outer loop
      vertex -1.98255 -1 -1.70197
      vertex -2.28457 -1 -1.26804
      vertex -10 -1 -19
    endloop
  endfacet
  facet normal -1.13244e-17 -1 -2.23302e-16
    outer loop
      vertex 10 -1 19
      vertex -0.132341 -1 2.60954
      vertex 0.395665 -1 2.58276
    endloop
  endfacet
  facet normal -5.1701e-17 -1 -1.99681e-16
    outer loop
      vertex 10 -1 19
      vertex 0.395665 -1 2.58276
      vertex 0.907471 -1 2.45025
    endloop
  endfacet
  facet normal -1.03006e-16 -1 -1.65257e-16
    outer loop
      vertex -1.1507 -1 -2.34587
      vertex -1.59937 -1 -2.06621
      vertex -10 -1 -19
    endloop
  endfacet
  facet normal 2.55471e-16 -1 -3.56106e-16
    outer loop
      vertex 1.8002 -1 1.89381
      vertex 10 -1 19
      vertex 1.38213 -1 2.21742
    endloop
  endfacet
  facet normal -1.74647e-16 -1 -1.4993e-16
    outer loop
      vertex 2.14457 -1 1.49266
      vertex 10 -1 19
      vertex 1.8002 -1 1.89381
    endloop
  endfacet
  facet normal -2.27443e-16 -1 -1.26241e-16
    outer loop
      vertex 2.40114 -1 1.03041
      vertex 10 -1 19
      vertex 2.14457 -1 1.49266
    endloop
  endfacet
  facet normal -8.88604e-19 -1 -2.22045e-16
    outer loop
      vertex 10 -1 -19
      vertex 10 -1 19
      vertex 2.40114 -1 1.03041
    endloop
  endfacet
  facet normal -4.07997e-16 -1 -3.80672e-16
    outer loop
      vertex 2.61289 -1 -2.22045e-16
      vertex 2.55941 -1 -0.525971
      vertex 10 -1 -19
    endloop
  endfacet
  facet normal -3.32969e-15 -1 -1.48488e-15
    outer loop
      vertex 10 -1 -19
      vertex 2.40114 -1 1.03041
      vertex 2.55941 -1 0.525971
    endloop
  endfacet
  facet normal -5.22465e-18 -1 -2.18451e-16
    outer loop
      vertex 2.55941 -1 -0.525971
      vertex 2.40114 -1 -1.03041
      vertex 10 -1 -19
    endloop
  endfacet
  facet normal -3.32631e-16 -1 8.78907e-18
    outer loop
      vertex 2.14457 -1 -1.49266
      vertex 1.8002 -1 -1.89381
      vertex -10 -1 -19
    endloop
  endfacet
  facet normal 1.19036e-16 -1 -2.8324e-16
    outer loop
      vertex -0.654928 -1 -2.52948
      vertex -1.1507 -1 -2.34587
      vertex -10 -1 -19
    endloop
  endfacet
  facet normal 0 -1 -2.21952e-16
    outer loop
      vertex 10 -1 -19
      vertex 2.14457 -1 -1.49266
      vertex -10 -1 -19
    endloop
  endfacet
  facet normal 2.21125e-16 -1 -1.22734e-16
    outer loop
      vertex 10 -1 -19
      vertex 2.40114 -1 -1.03041
      vertex 2.14457 -1 -1.49266
    endloop
  endfacet
  facet normal -2.03309e-16 -1 -8.04193e-17
    outer loop
      vertex 1.8002 -1 -1.89381
      vertex 1.38213 -1 -2.21742
      vertex -10 -1 -19
    endloop
  endfacet
  facet normal 1.60468e-16 -1 -3.27137e-16
    outer loop
      vertex 1.38213 -1 -2.21742
      vertex 0.907471 -1 -2.45025
      vertex -10 -1 -19
    endloop
  endfacet
  facet normal -1.92444e-16 -1 -9.45429e-17
    outer loop
      vertex 0.907471 -1 -2.45025
      vertex 0.395665 -1 -2.58276
      vertex -10 -1 -19
    endloop
  endfacet
  facet normal 1.13386e-17 -1 -2.23581e-16
    outer loop
      vertex 0.395665 -1 -2.58276
      vertex -0.132341 -1 -2.60954
      vertex -10 -1 -19
    endloop
  endfacet
  facet normal -3.04016e-17 -1 -1.98452e-16
    outer loop
      vertex -0.132341 -1 -2.60954
      vertex -0.654928 -1 -2.52948
      vertex -10 -1 -19
    endloop
  endfacet
  facet normal -1.0536e-15 -1 4.98784e-16
    outer loop
      vertex -1.98255 -1 1.70197
      vertex -1.59937 -1 2.06621
      vertex 10 -1 19
    endloop
  endfacet
  facet normal -8.81303e-17 -1 -1.79666e-16
    outer loop
      vertex 0.907471 -1 2.45025
      vertex 1.38213 -1 2.21742
      vertex 10 -1 19
    endloop
  endfacet
  facet normal 0 1.77636e-15 -1
    outer loop
      vertex -10 -1 -19
      vertex -10 1 -19
      vertex 10 -1 -19
    endloop
  endfacet
  facet normal 0 1.77636e-15 -1
    outer loop
      vertex 10 -1 -19
      vertex -10 1 -19
      vertex -2.9 1 -19
    endloop
  endfacet
  facet normal 0 0 -1
    outer loop
      vertex 2.9 1 -19
      vertex -2.9 1 -19
      vertex -2.9 3.5 -19
    endloop
  endfacet
  facet normal 0 1.77636e-15 -1
    outer loop
      vertex 10 -1 -19
      vertex -2.9 1 -19
      vertex 2.9 1 -19
    endloop
  endfacet
  facet normal 0 1.77636e-15 -1
    outer loop
      vertex 10 1 -19
      vertex 10 -1 -19
      vertex 2.9 1 -19
    endloop
  endfacet
  facet normal 1.63971e-15 2.73286e-16 -1
    outer loop
      vertex 10 4.21885e-15 -19
      vertex 12 1 -19
      vertex 12 -12 -19
    endloop
  endfacet
  facet normal -7.88861e-31 3.55271e-15 -1
    outer loop
      vertex 10 4.21885e-15 -19
      vertex 10 1 -19
      vertex 12 1 -19
    endloop
  endfacet
  facet normal -8.88178e-16 -0 -4.44089e-16
    outer loop
      vertex 10 -1 -19
      vertex 10 1 -19
      vertex 10 4.21885e-15 -19
    endloop
  endfacet
  facet normal 0 0 -1
    outer loop
      vertex 2.9 1 -19
      vertex -2.9 3.5 -19
      vertex 2.9 3.5 -19
    endloop
  endfacet
  facet normal 0 0 -1
    outer loop
      vertex 10 4.21885e-15 -19
      vertex 12 -12 -19
      vertex 10 -12 -19
    endloop
  endfacet
  facet normal 0 1 2.22045e-16
    outer loop
      vertex -10 1 19
      vertex -2.9 1 19
      vertex -10 1 -19
    endloop
  endfacet
  facet normal 0 1 2.22045e-16
    outer loop
      vertex -10 1 -19
      vertex -2.9 1 19
      vertex -2.9 1 -19
    endloop
  endfacet
  facet normal -1 0 0
    outer loop
      vertex -2.9 1 19
      vertex -2.9 3.5 19
      vertex -2.9 1 -19
    endloop
  endfacet
  facet normal -1 -0 0
    outer loop
      vertex -2.9 1 -19
      vertex -2.9 3.5 19
      vertex -2.9 3.5 -19
    endloop
  endfacet
  facet normal 7.73386e-16 1 2.22045e-16
    outer loop
      vertex 2.61289 3.5 7.77156e-16
      vertex 2.9 3.5 19
      vertex 2.9 3.5 -19
    endloop
  endfacet
  facet normal 5.43567e-16 1 2.22045e-16
    outer loop
      vertex -2.9 3.5 19
      vertex -2.59949 3.5 0.264342
      vertex -2.9 3.5 -19
    endloop
  endfacet
  facet normal -1.64828e-15 1 7.07336e-16
    outer loop
      vertex -2.49306 3.5 0.782204
      vertex 2.9 3.5 19
      vertex -2.28457 3.5 1.26804
    endloop
  endfacet
  facet normal -3.90697e-14 1 8.3999e-16
    outer loop
      vertex -2.59949 3.5 0.264342
      vertex -2.59949 3.5 -0.264342
      vertex -2.9 3.5 -19
    endloop
  endfacet
  facet normal -5.58429e-16 1 3.88678e-16
    outer loop
      vertex -2.28457 3.5 1.26804
      vertex 2.9 3.5 19
      vertex -1.98255 3.5 1.70197
    endloop
  endfacet
  facet normal 9.62905e-16 1 1.97881e-16
    outer loop
      vertex -2.59949 3.5 -0.264342
      vertex -2.49306 3.5 -0.782204
      vertex -2.9 3.5 -19
    endloop
  endfacet
  facet normal 1.28374e-15 1 -1.31294e-16
    outer loop
      vertex -1.98255 3.5 1.70197
      vertex 2.9 3.5 19
      vertex -1.59937 3.5 2.06621
    endloop
  endfacet
  facet normal 4.85944e-16 1 2.08535e-16
    outer loop
      vertex -2.49306 3.5 -0.782204
      vertex -2.28457 3.5 -1.26804
      vertex -2.9 3.5 -19
    endloop
  endfacet
  facet normal -1.56726e-16 1 2.51443e-16
    outer loop
      vertex -1.59937 3.5 2.06621
      vertex 2.9 3.5 19
      vertex -1.1507 3.5 2.34587
    endloop
  endfacet
  facet normal 3.08461e-16 1 2.14695e-16
    outer loop
      vertex -2.28457 3.5 -1.26804
      vertex -1.98255 3.5 -1.70197
      vertex -2.9 3.5 -19
    endloop
  endfacet
  facet normal -8.68278e-17 1 2.34442e-16
    outer loop
      vertex -1.1507 3.5 2.34587
      vertex 2.9 3.5 19
      vertex -0.654928 3.5 2.52948
    endloop
  endfacet
  facet normal -8.94219e-16 1 2.78483e-16
    outer loop
      vertex -1.98255 3.5 -1.70197
      vertex -1.59937 3.5 -2.06621
      vertex -2.9 3.5 -19
    endloop
  endfacet
  facet normal 1.24795e-16 1 2.00215e-16
    outer loop
      vertex -1.59937 3.5 -2.06621
      vertex -1.1507 3.5 -2.34587
      vertex -2.9 3.5 -19
    endloop
  endfacet
  facet normal -3.4174e-17 1 2.23077e-16
    outer loop
      vertex -0.654928 3.5 2.52948
      vertex 2.9 3.5 19
      vertex -0.132341 3.5 2.60954
    endloop
  endfacet
  facet normal 7.60479e-17 1 2.05335e-16
    outer loop
      vertex -1.1507 3.5 -2.34587
      vertex -0.654928 3.5 -2.52948
      vertex -2.9 3.5 -19
    endloop
  endfacet
  facet normal 1.08902e-17 1 2.1474e-16
    outer loop
      vertex -0.132341 3.5 2.60954
      vertex 2.9 3.5 19
      vertex 0.395665 3.5 2.58276
    endloop
  endfacet
  facet normal 0 1 2.16755e-16
    outer loop
      vertex -2.9 3.5 -19
      vertex -0.132341 3.5 -2.60954
      vertex 2.9 3.5 -19
    endloop
  endfacet
  facet normal 5.39014e-17 1 2.08179e-16
    outer loop
      vertex 0.395665 3.5 2.58276
      vertex 2.9 3.5 19
      vertex 0.907471 3.5 2.45025
    endloop
  endfacet
  facet normal -1.08902e-17 1 2.1474e-16
    outer loop
      vertex -0.132341 3.5 -2.60954
      vertex 0.395665 3.5 -2.58276
      vertex 2.9 3.5 -19
    endloop
  endfacet
  facet normal -5.39014e-17 1 2.08179e-16
    outer loop
      vertex 0.395665 3.5 -2.58276
      vertex 0.907471 3.5 -2.45025
      vertex 2.9 3.5 -19
    endloop
  endfacet
  facet normal 9.94279e-17 1 2.02698e-16
    outer loop
      vertex 0.907471 3.5 2.45025
      vertex 2.9 3.5 19
      vertex 1.38213 3.5 2.21742
    endloop
  endfacet
  facet normal -9.94279e-17 1 2.02698e-16
    outer loop
      vertex 0.907471 3.5 -2.45025
      vertex 1.38213 3.5 -2.21742
      vertex 2.9 3.5 -19
    endloop
  endfacet
  facet normal -8.39595e-16 1 2.87626e-16
    outer loop
      vertex 1.38213 3.5 2.21742
      vertex 2.9 3.5 19
      vertex 1.8002 3.5 1.89381
    endloop
  endfacet
  facet normal 8.39595e-16 1 2.87626e-16
    outer loop
      vertex 1.38213 3.5 -2.21742
      vertex 1.8002 3.5 -1.89381
      vertex 2.9 3.5 -19
    endloop
  endfacet
  facet normal 2.53203e-16 1 2.17367e-16
    outer loop
      vertex 1.8002 3.5 1.89381
      vertex 2.9 3.5 19
      vertex 2.14457 3.5 1.49266
    endloop
  endfacet
  facet normal -2.53203e-16 1 2.17367e-16
    outer loop
      vertex 1.8002 3.5 -1.89381
      vertex 2.14457 3.5 -1.49266
      vertex 2.9 3.5 -19
    endloop
  endfacet
  facet normal 3.81637e-16 1 2.11826e-16
    outer loop
      vertex 2.14457 3.5 1.49266
      vertex 2.9 3.5 19
      vertex 2.40114 3.5 1.03041
    endloop
  endfacet
  facet normal -3.81637e-16 1 2.11826e-16
    outer loop
      vertex 2.14457 3.5 -1.49266
      vertex 2.40114 3.5 -1.03041
      vertex 2.9 3.5 -19
    endloop
  endfacet
  facet normal 6.51278e-16 1 2.0434e-16
    outer loop
      vertex 2.40114 3.5 1.03041
      vertex 2.9 3.5 19
      vertex 2.55941 3.5 0.525971
    endloop
  endfacet
  facet normal -6.51278e-16 1 2.0434e-16
    outer loop
      vertex 2.40114 3.5 -1.03041
      vertex 2.55941 3.5 -0.525971
      vertex 2.9 3.5 -19
    endloop
  endfacet
  facet normal -1.801e-15 1 1.83143e-16
    outer loop
      vertex 2.55941 3.5 -0.525971
      vertex 2.61289 3.5 7.77156e-16
      vertex 2.9 3.5 -19
    endloop
  endfacet
  facet normal -5.22763e-15 1 3.12725e-16
    outer loop
      vertex 2.55941 3.5 0.525971
      vertex 2.9 3.5 19
      vertex 2.61289 3.5 7.77156e-16
    endloop
  endfacet
  facet normal 0 1 2.1939e-16
    outer loop
      vertex -2.9 3.5 19
      vertex 2.9 3.5 19
      vertex -2.49306 3.5 0.782204
    endloop
  endfacet
  facet normal -9.62905e-16 1 1.97881e-16
    outer loop
      vertex -2.9 3.5 19
      vertex -2.49306 3.5 0.782204
      vertex -2.59949 3.5 0.264342
    endloop
  endfacet
  facet normal 3.23682e-17 1 2.11289e-16
    outer loop
      vertex -0.132341 3.5 -2.60954
      vertex -2.9 3.5 -19
      vertex -0.654928 3.5 -2.52948
    endloop
  endfacet
  facet normal 1 0 0
    outer loop
      vertex 2.9 3.5 19
      vertex 2.9 1 19
      vertex 2.9 1 -19
    endloop
  endfacet
  facet normal 1 -0 0
    outer loop
      vertex 2.9 3.5 -19
      vertex 2.9 3.5 19
      vertex 2.9 1 -19
    endloop
  endfacet
  facet normal 0 1 2.22045e-16
    outer loop
      vertex 2.9 1 19
      vertex 10 1 19
      vertex 2.9 1 -19
    endloop
  endfacet
  facet normal 0 1 2.22045e-16
    outer loop
      vertex 2.9 1 -19
      vertex 10 1 19
      vertex 10 1 -19
    endloop
  endfacet
  facet normal -2.22045e-16 1 2.22045e-16
    outer loop
      vertex 10 1 19
      vertex 12 1 19
      vertex 10 1 -19
    endloop
  endfacet
  facet normal -2.22045e-16 1 2.22045e-16
    outer loop
      vertex 10 1 -19
      vertex 12 1 19
      vertex 12 1 -19
    endloop
  endfacet
  facet normal 1 6.12537e-16 1.36011e-31
    outer loop
      vertex 12 1 -19
      vertex 12 1 19
      vertex 12 -1.9 19
    endloop
  endfacet
  facet normal 1 4.60677e-16 -4.40393e-17
    outer loop
      vertex 12 -2.40051 -14.2357
      vertex 12 1 -19
      vertex 12 -1.9 -9
    endloop
  endfacet
  facet normal 1 6.12537e-16 1.36011e-31
    outer loop
      vertex 12 -1.9 -9
      vertex 12 1 -19
      vertex 12 -1.9 19
    endloop
  endfacet
  facet normal 1 4.55476e-16 1.13777e-31
    outer loop
      vertex 12 -12 19
      vertex 12 -8.1 -9
      vertex 12 -8.1 19
    endloop
  endfacet
  facet normal 1 4.55476e-16 1.06459e-31
    outer loop
      vertex 12 -12 -19
      vertex 12 -8.1 -9
      vertex 12 -12 19
    endloop
  endfacet
  facet normal 1 0 0
    outer loop
      vertex 12 -2.50694 -13.7178
      vertex 12 -2.40051 -14.2357
      vertex 12 -1.9 -9
    endloop
  endfacet
  facet normal 1 5.22379e-16 0
    outer loop
      vertex 12 -2.40051 -14.7643
      vertex 12 1 -19
      vertex 12 -2.40051 -14.2357
    endloop
  endfacet
  facet normal 1 1.72945e-16 3.52572e-16
    outer loop
      vertex 12 -5.90747 -16.9502
      vertex 12 -6.38213 -16.7174
      vertex 12 -12 -19
    endloop
  endfacet
  facet normal 1 3.48143e-16 -1.494e-16
    outer loop
      vertex 12 -2.71543 -15.768
      vertex 12 1 -19
      vertex 12 -2.50694 -15.2822
    endloop
  endfacet
  facet normal 1 2.978e-16 -2.07275e-16
    outer loop
      vertex 12 -3.01745 -16.202
      vertex 12 1 -19
      vertex 12 -2.71543 -15.768
    endloop
  endfacet
  facet normal 1 2.55188e-16 -2.68458e-16
    outer loop
      vertex 12 -3.40063 -16.5662
      vertex 12 1 -19
      vertex 12 -3.01745 -16.202
    endloop
  endfacet
  facet normal 1 2.13883e-16 -3.43143e-16
    outer loop
      vertex 12 -3.8493 -16.8459
      vertex 12 1 -19
      vertex 12 -3.40063 -16.5662
    endloop
  endfacet
  facet normal 1 1.6655e-16 -4.49697e-16
    outer loop
      vertex 12 -4.34507 -17.0295
      vertex 12 1 -19
      vertex 12 -3.8493 -16.8459
    endloop
  endfacet
  facet normal 1 3.99993e-17 7.88732e-16
    outer loop
      vertex 12 -4.86766 -17.1095
      vertex 12 -5.39566 -17.0828
      vertex 12 -12 -19
    endloop
  endfacet
  facet normal 1 2.73286e-16 -1.60174e-16
    outer loop
      vertex 12 -12 -19
      vertex 12 1 -19
      vertex 12 -4.34507 -17.0295
    endloop
  endfacet
  facet normal 1 1.268e-16 4.89729e-16
    outer loop
      vertex 12 -5.39566 -17.0828
      vertex 12 -5.90747 -16.9502
      vertex 12 -12 -19
    endloop
  endfacet
  facet normal 1 0 0
    outer loop
      vertex 12 -7.61289 -14.5
      vertex 12 -7.55941 -13.974
      vertex 12 -8.1 -9
    endloop
  endfacet
  facet normal 1 0 0
    outer loop
      vertex 12 -5.90747 -12.0498
      vertex 12 -5.39566 -11.9172
      vertex 12 -8.1 -9
    endloop
  endfacet
  facet normal 1 0 0
    outer loop
      vertex 12 -5.39566 -11.9172
      vertex 12 -4.86766 -11.8905
      vertex 12 -8.1 -9
    endloop
  endfacet
  facet normal 1 2.07355e-16 2.67881e-16
    outer loop
      vertex 12 -12 -19
      vertex 12 -6.38213 -16.7174
      vertex 12 -6.8002 -16.3938
    endloop
  endfacet
  facet normal 1 2.38849e-16 2.05045e-16
    outer loop
      vertex 12 -12 -19
      vertex 12 -6.8002 -16.3938
      vertex 12 -7.14457 -15.9927
    endloop
  endfacet
  facet normal 1 0 0
    outer loop
      vertex 12 -7.55941 -13.974
      vertex 12 -7.40114 -13.4696
      vertex 12 -8.1 -9
    endloop
  endfacet
  facet normal 1 2.72254e-16 1.51113e-16
    outer loop
      vertex 12 -12 -19
      vertex 12 -7.14457 -15.9927
      vertex 12 -7.40114 -15.5304
    endloop
  endfacet
  facet normal 1 0 0
    outer loop
      vertex 12 -7.40114 -13.4696
      vertex 12 -7.14457 -13.0073
      vertex 12 -8.1 -9
    endloop
  endfacet
  facet normal 1 3.12329e-16 9.7994e-17
    outer loop
      vertex 12 -12 -19
      vertex 12 -7.40114 -15.5304
      vertex 12 -7.55941 -15.026
    endloop
  endfacet
  facet normal 1 3.71184e-16 3.28739e-17
    outer loop
      vertex 12 -12 -19
      vertex 12 -7.61289 -14.5
      vertex 12 -8.1 -9
    endloop
  endfacet
  facet normal 1 3.66659e-16 3.72856e-17
    outer loop
      vertex 12 -12 -19
      vertex 12 -7.55941 -15.026
      vertex 12 -7.61289 -14.5
    endloop
  endfacet
  facet normal 1 0 0
    outer loop
      vertex 12 -7.14457 -13.0073
      vertex 12 -6.8002 -12.6062
      vertex 12 -8.1 -9
    endloop
  endfacet
  facet normal 1 0 0
    outer loop
      vertex 12 -6.8002 -12.6062
      vertex 12 -6.38213 -12.2826
      vertex 12 -8.1 -9
    endloop
  endfacet
  facet normal 1 0 0
    outer loop
      vertex 12 -6.38213 -12.2826
      vertex 12 -5.90747 -12.0498
      vertex 12 -8.1 -9
    endloop
  endfacet
  facet normal 1 -3.41083e-16 2.22648e-15
    outer loop
      vertex 12 -4.34507 -17.0295
      vertex 12 -4.86766 -17.1095
      vertex 12 -12 -19
    endloop
  endfacet
  facet normal 1 0 0
    outer loop
      vertex 12 -8.1 -9
      vertex 12 -4.86766 -11.8905
      vertex 12 -1.9 -9
    endloop
  endfacet
  facet normal 1 0 0
    outer loop
      vertex 12 -4.86766 -11.8905
      vertex 12 -4.34507 -11.9705
      vertex 12 -1.9 -9
    endloop
  endfacet
  facet normal 1 0 0
    outer loop
      vertex 12 -4.34507 -11.9705
      vertex 12 -3.8493 -12.1541
      vertex 12 -1.9 -9
    endloop
  endfacet
  facet normal 1 0 0
    outer loop
      vertex 12 -3.8493 -12.1541
      vertex 12 -3.40063 -12.4338
      vertex 12 -1.9 -9
    endloop
  endfacet
  facet normal 1 0 0
    outer loop
      vertex 12 -3.40063 -12.4338
      vertex 12 -3.01745 -12.798
      vertex 12 -1.9 -9
    endloop
  endfacet
  facet normal 1 0 0
    outer loop
      vertex 12 -3.01745 -12.798
      vertex 12 -2.71543 -13.232
      vertex 12 -1.9 -9
    endloop
  endfacet
  facet normal 1 0 0
    outer loop
      vertex 12 -2.71543 -13.232
      vertex 12 -2.50694 -13.7178
      vertex 12 -1.9 -9
    endloop
  endfacet
  facet normal 1 4.15915e-16 -8.54725e-17
    outer loop
      vertex 12 -2.40051 -14.7643
      vertex 12 -2.50694 -15.2822
      vertex 12 1 -19
    endloop
  endfacet
  facet normal 2.22045e-16 -1 -2.22045e-16
    outer loop
      vertex 10 -1.9 -9
      vertex 12 -1.9 -9
      vertex 12 -1.9 19
    endloop
  endfacet
  facet normal 2.22045e-16 -1 -2.22045e-16
    outer loop
      vertex 10 -1.9 19
      vertex 10 -1.9 -9
      vertex 12 -1.9 19
    endloop
  endfacet
  facet normal -1 0 0
    outer loop
      vertex 10 -4.21885e-15 19
      vertex 10 4.21885e-15 -19
      vertex 10 -1.9 19
    endloop
  endfacet
  facet normal -1 -1.4803e-16 -4.26627e-16
    outer loop
      vertex 10 -5.90747 -16.9502
      vertex 10 4.21885e-15 -19
      vertex 10 -12 -19
    endloop
  endfacet
  facet normal -1 -4.55476e-16 -1.07454e-31
    outer loop
      vertex 10 -8.1 19
      vertex 10 -12 -19
      vertex 10 -12 19
    endloop
  endfacet
  facet normal -1 -0 -0
    outer loop
      vertex 10 -4.34507 -11.9705
      vertex 10 -8.1 -9
      vertex 10 -3.8493 -12.1541
    endloop
  endfacet
  facet normal -1 0 0
    outer loop
      vertex 10 -1.9 19
      vertex 10 4.21885e-15 -19
      vertex 10 -1.9 -9
    endloop
  endfacet
  facet normal -1 0 0
    outer loop
      vertex 10 -1.9 -9
      vertex 10 4.21885e-15 -19
      vertex 10 -2.40051 -14.7643
    endloop
  endfacet
  facet normal -1 0 0
    outer loop
      vertex 10 -1.9 -9
      vertex 10 -2.40051 -14.7643
      vertex 10 -2.40051 -14.2357
    endloop
  endfacet
  facet normal -1 0 0
    outer loop
      vertex 10 -1.9 -9
      vertex 10 -2.40051 -14.2357
      vertex 10 -2.50694 -13.7178
    endloop
  endfacet
  facet normal -1 0 0
    outer loop
      vertex 10 -1.9 -9
      vertex 10 -2.50694 -13.7178
      vertex 10 -2.71543 -13.232
    endloop
  endfacet
  facet normal -1 0 0
    outer loop
      vertex 10 -1.9 -9
      vertex 10 -2.71543 -13.232
      vertex 10 -3.01745 -12.798
    endloop
  endfacet
  facet normal -1 0 0
    outer loop
      vertex 10 -1.9 -9
      vertex 10 -3.01745 -12.798
      vertex 10 -3.40063 -12.4338
    endloop
  endfacet
  facet normal -1 0 0
    outer loop
      vertex 10 -1.9 -9
      vertex 10 -3.40063 -12.4338
      vertex 10 -8.1 -9
    endloop
  endfacet
  facet normal -1 0 0
    outer loop
      vertex 10 -3.40063 -12.4338
      vertex 10 -3.8493 -12.1541
      vertex 10 -8.1 -9
    endloop
  endfacet
  facet normal -1 -0 -0
    outer loop
      vertex 10 -4.86766 -11.8905
      vertex 10 -8.1 -9
      vertex 10 -4.34507 -11.9705
    endloop
  endfacet
  facet normal -1 0 -0
    outer loop
      vertex 10 -5.39566 -11.9172
      vertex 10 -8.1 -9
      vertex 10 -4.86766 -11.8905
    endloop
  endfacet
  facet normal -1 0 -0
    outer loop
      vertex 10 -5.90747 -12.0498
      vertex 10 -8.1 -9
      vertex 10 -5.39566 -11.9172
    endloop
  endfacet
  facet normal -1 0 0
    outer loop
      vertex 10 -2.50694 -15.2822
      vertex 10 4.21885e-15 -19
      vertex 10 -2.71543 -15.768
    endloop
  endfacet
  facet normal -1 0 0
    outer loop
      vertex 10 -8.1 -9
      vertex 10 -5.90747 -12.0498
      vertex 10 -6.38213 -12.2826
    endloop
  endfacet
  facet normal -1 0 0
    outer loop
      vertex 10 -8.1 -9
      vertex 10 -6.38213 -12.2826
      vertex 10 -6.8002 -12.6062
    endloop
  endfacet
  facet normal -1 0 0
    outer loop
      vertex 10 -8.1 -9
      vertex 10 -6.8002 -12.6062
      vertex 10 -7.14457 -13.0073
    endloop
  endfacet
  facet normal -1 -2.8267e-16 -6.73944e-17
    outer loop
      vertex 10 -8.1 -9
      vertex 10 -7.14457 -13.0073
      vertex 10 -12 -19
    endloop
  endfacet
  facet normal -1 -6.20305e-16 1.94622e-16
    outer loop
      vertex 10 -7.55941 -13.974
      vertex 10 -12 -19
      vertex 10 -7.40114 -13.4696
    endloop
  endfacet
  facet normal -1 0 0
    outer loop
      vertex 10 -2.71543 -15.768
      vertex 10 4.21885e-15 -19
      vertex 10 -3.01745 -16.202
    endloop
  endfacet
  facet normal -1 0 0
    outer loop
      vertex 10 -4.86766 -17.1095
      vertex 10 4.21885e-15 -19
      vertex 10 -5.39566 -17.0828
    endloop
  endfacet
  facet normal -1 -4.52056e-16 4.59696e-17
    outer loop
      vertex 10 -7.55941 -13.974
      vertex 10 -7.61289 -14.5
      vertex 10 -12 -19
    endloop
  endfacet
  facet normal -1 0 0
    outer loop
      vertex 10 -3.40063 -16.5662
      vertex 10 4.21885e-15 -19
      vertex 10 -3.8493 -16.8459
    endloop
  endfacet
  facet normal -1 -3.66659e-16 -3.72856e-17
    outer loop
      vertex 10 -7.61289 -14.5
      vertex 10 -7.55941 -15.026
      vertex 10 -12 -19
    endloop
  endfacet
  facet normal -1 -3.12329e-16 -9.7994e-17
    outer loop
      vertex 10 -7.55941 -15.026
      vertex 10 -7.40114 -15.5304
      vertex 10 -12 -19
    endloop
  endfacet
  facet normal -1 0 0
    outer loop
      vertex 10 -3.8493 -16.8459
      vertex 10 4.21885e-15 -19
      vertex 10 -4.34507 -17.0295
    endloop
  endfacet
  facet normal -1 -2.72254e-16 -1.51113e-16
    outer loop
      vertex 10 -7.40114 -15.5304
      vertex 10 -7.14457 -15.9927
      vertex 10 -12 -19
    endloop
  endfacet
  facet normal -1 0 0
    outer loop
      vertex 10 -4.34507 -17.0295
      vertex 10 4.21885e-15 -19
      vertex 10 -4.86766 -17.1095
    endloop
  endfacet
  facet normal -1 -2.38849e-16 -2.05045e-16
    outer loop
      vertex 10 -7.14457 -15.9927
      vertex 10 -6.8002 -16.3938
      vertex 10 -12 -19
    endloop
  endfacet
  facet normal -1 -2.07355e-16 -2.67881e-16
    outer loop
      vertex 10 -6.8002 -16.3938
      vertex 10 -6.38213 -16.7174
      vertex 10 -12 -19
    endloop
  endfacet
  facet normal -1 0 0
    outer loop
      vertex 10 -5.39566 -17.0828
      vertex 10 4.21885e-15 -19
      vertex 10 -5.90747 -16.9502
    endloop
  endfacet
  facet normal -1 -1.72945e-16 -3.52572e-16
    outer loop
      vertex 10 -6.38213 -16.7174
      vertex 10 -5.90747 -16.9502
      vertex 10 -12 -19
    endloop
  endfacet
  facet normal -1 0 0
    outer loop
      vertex 10 -3.01745 -16.202
      vertex 10 4.21885e-15 -19
      vertex 10 -3.40063 -16.5662
    endloop
  endfacet
  facet normal -1 -1.1616e-15 6.44737e-16
    outer loop
      vertex 10 -7.40114 -13.4696
      vertex 10 -12 -19
      vertex 10 -7.14457 -13.0073
    endloop
  endfacet
  facet normal -1 0 0
    outer loop
      vertex 10 -2.40051 -14.7643
      vertex 10 4.21885e-15 -19
      vertex 10 -2.50694 -15.2822
    endloop
  endfacet
  facet normal -1 -4.55476e-16 -1.15584e-31
    outer loop
      vertex 10 -8.1 -9
      vertex 10 -12 -19
      vertex 10 -8.1 19
    endloop
  endfacet
  facet normal 1 0 0
    outer loop
      vertex 10 -4.21885e-15 19
      vertex 10 -1 19
      vertex 10 -1 -19
    endloop
  endfacet
  facet normal 1 -0 0
    outer loop
      vertex 10 4.21885e-15 -19
      vertex 10 -4.21885e-15 19
      vertex 10 -1 -19
    endloop
  endfacet
  facet normal 0.97953 -4.46971e-17 0.201298
    outer loop
      vertex -2.49306 -1 -0.782204
      vertex -2.49306 3.5 -0.782204
      vertex -2.59949 3.5 -0.264342
    endloop
  endfacet
  facet normal 0.97953 -4.46971e-17 0.201298
    outer loop
      vertex -2.59949 -1 -0.264342
      vertex -2.49306 -1 -0.782204
      vertex -2.59949 3.5 -0.264342
    endloop
  endfacet
  facet normal 1 0 0
    outer loop
      vertex -2.59949 -1 -0.264342
      vertex -2.59949 3.5 -0.264342
      vertex -2.59949 3.5 0.264342
    endloop
  endfacet
  facet normal 1 0 0
    outer loop
      vertex -2.59949 -1 0.264342
      vertex -2.59949 -1 -0.264342
      vertex -2.59949 3.5 0.264342
    endloop
  endfacet
  facet normal 0.918957 -9.72942e-17 0.394357
    outer loop
      vertex -2.28457 -1 -1.26804
      vertex -2.28457 3.5 -1.26804
      vertex -2.49306 3.5 -0.782204
    endloop
  endfacet
  facet normal 0.918957 -8.75648e-17 0.394357
    outer loop
      vertex -2.49306 -1 -0.782204
      vertex -2.28457 -1 -1.26804
      vertex -2.49306 3.5 -0.782204
    endloop
  endfacet
  facet normal 0.820763 -1.40941e-16 0.571268
    outer loop
      vertex -1.98255 -1 -1.70197
      vertex -1.98255 3.5 -1.70197
      vertex -2.28457 3.5 -1.26804
    endloop
  endfacet
  facet normal 0.820763 -1.40941e-16 0.571268
    outer loop
      vertex -2.28457 -1 -1.26804
      vertex -1.98255 -1 -1.70197
      vertex -2.28457 3.5 -1.26804
    endloop
  endfacet
  facet normal 0.688967 -1.43055e-16 0.724793
    outer loop
      vertex -1.59937 -1 -2.06621
      vertex -1.59937 3.5 -2.06621
      vertex -1.98255 3.5 -1.70197
    endloop
  endfacet
  facet normal 0.688967 -1.78818e-16 0.724793
    outer loop
      vertex -1.98255 -1 -1.70197
      vertex -1.59937 -1 -2.06621
      vertex -1.98255 3.5 -1.70197
    endloop
  endfacet
  facet normal 0.528965 -1.67499e-16 0.848644
    outer loop
      vertex -1.1507 -1 -2.34587
      vertex -1.1507 3.5 -2.34587
      vertex -1.59937 3.5 -2.06621
    endloop
  endfacet
  facet normal 0.528965 -1.67499e-16 0.848644
    outer loop
      vertex -1.59937 -1 -2.06621
      vertex -1.1507 -1 -2.34587
      vertex -1.59937 3.5 -2.06621
    endloop
  endfacet
  facet normal 0.347305 -1.85087e-16 0.937752
    outer loop
      vertex -0.654928 -1 -2.52948
      vertex -0.654928 3.5 -2.52948
      vertex -1.1507 3.5 -2.34587
    endloop
  endfacet
  facet normal 0.347305 -1.85087e-16 0.937752
    outer loop
      vertex -1.1507 -1 -2.34587
      vertex -0.654928 -1 -2.52948
      vertex -1.1507 3.5 -2.34587
    endloop
  endfacet
  facet normal 0.151427 -1.95097e-16 0.988468
    outer loop
      vertex -0.132341 -1 -2.60954
      vertex -0.132341 3.5 -2.60954
      vertex -0.654928 3.5 -2.52948
    endloop
  endfacet
  facet normal 0.151427 -1.95097e-16 0.988468
    outer loop
      vertex -0.654928 -1 -2.52948
      vertex -0.132341 -1 -2.60954
      vertex -0.654928 3.5 -2.52948
    endloop
  endfacet
  facet normal -0.0506484 -1.9712e-16 0.998717
    outer loop
      vertex 0.395665 -1 -2.58276
      vertex 0.395665 3.5 -2.58276
      vertex -0.132341 3.5 -2.60954
    endloop
  endfacet
  facet normal -0.0506484 -1.9712e-16 0.998717
    outer loop
      vertex -0.132341 -1 -2.60954
      vertex 0.395665 -1 -2.58276
      vertex -0.132341 3.5 -2.60954
    endloop
  endfacet
  facet normal -0.250653 -1.91072e-16 0.968077
    outer loop
      vertex 0.907471 -1 -2.45025
      vertex 0.907471 3.5 -2.45025
      vertex 0.395665 3.5 -2.58276
    endloop
  endfacet
  facet normal -0.250653 -1.91072e-16 0.968077
    outer loop
      vertex 0.395665 -1 -2.58276
      vertex 0.907471 -1 -2.45025
      vertex 0.395665 3.5 -2.58276
    endloop
  endfacet
  facet normal -0.440394 -1.77202e-16 0.897805
    outer loop
      vertex 1.38213 -1 -2.21742
      vertex 1.38213 3.5 -2.21742
      vertex 0.907471 3.5 -2.45025
    endloop
  endfacet
  facet normal -0.440394 -1.77202e-16 0.897805
    outer loop
      vertex 0.907471 -1 -2.45025
      vertex 1.38213 -1 -2.21742
      vertex 0.907471 3.5 -2.45025
    endloop
  endfacet
  facet normal -0.612106 -1.95097e-16 0.790776
    outer loop
      vertex 1.8002 -1 -1.89381
      vertex 1.8002 3.5 -1.89381
      vertex 1.38213 3.5 -2.21742
    endloop
  endfacet
  facet normal -0.612106 -1.56078e-16 0.790776
    outer loop
      vertex 1.38213 -1 -2.21742
      vertex 1.8002 -1 -1.89381
      vertex 1.38213 3.5 -2.21742
    endloop
  endfacet
  facet normal -0.758758 -1.60704e-16 0.651373
    outer loop
      vertex 2.14457 3.5 -1.49266
      vertex 1.8002 3.5 -1.89381
      vertex 2.14457 -1 -1.49266
    endloop
  endfacet
  facet normal -0.758758 -1.62712e-16 0.651373
    outer loop
      vertex 2.14457 -1 -1.49266
      vertex 1.8002 3.5 -1.89381
      vertex 1.8002 -1 -1.89381
    endloop
  endfacet
  facet normal -0.874347 -1.19732e-16 0.485301
    outer loop
      vertex 2.40114 3.5 -1.03041
      vertex 2.14457 3.5 -1.49266
      vertex 2.40114 -1 -1.03041
    endloop
  endfacet
  facet normal -0.874347 -1.21227e-16 0.485301
    outer loop
      vertex 2.40114 -1 -1.03041
      vertex 2.14457 3.5 -1.49266
      vertex 2.14457 -1 -1.49266
    endloop
  endfacet
  facet normal -0.954139 -6.64721e-17 0.299364
    outer loop
      vertex 2.55941 3.5 -0.525971
      vertex 2.40114 3.5 -1.03041
      vertex 2.55941 -1 -0.525971
    endloop
  endfacet
  facet normal -0.954139 -7.47824e-17 0.299364
    outer loop
      vertex 2.55941 -1 -0.525971
      vertex 2.40114 3.5 -1.03041
      vertex 2.40114 -1 -1.03041
    endloop
  endfacet
  facet normal -0.994869 -2.24639e-17 0.101168
    outer loop
      vertex 2.61289 3.5 7.77156e-16
      vertex 2.55941 3.5 -0.525971
      vertex 2.61289 -1 -2.22045e-16
    endloop
  endfacet
  facet normal -0.994869 -2.24645e-17 0.101168
    outer loop
      vertex 2.61289 -1 -2.22045e-16
      vertex 2.55941 3.5 -0.525971
      vertex 2.55941 -1 -0.525971
    endloop
  endfacet
  facet normal -0.994869 2.24639e-17 -0.101168
    outer loop
      vertex 2.61289 3.5 7.77156e-16
      vertex 2.61289 -1 -2.22045e-16
      vertex 2.55941 3.5 0.525971
    endloop
  endfacet
  facet normal -0.994869 2.24639e-17 -0.101168
    outer loop
      vertex 2.55941 3.5 0.525971
      vertex 2.61289 -1 -2.22045e-16
      vertex 2.55941 -1 0.525971
    endloop
  endfacet
  facet normal -0.954139 6.64721e-17 -0.299364
    outer loop
      vertex 2.55941 3.5 0.525971
      vertex 2.55941 -1 0.525971
      vertex 2.40114 3.5 1.03041
    endloop
  endfacet
  facet normal -0.954139 5.90863e-17 -0.299364
    outer loop
      vertex 2.40114 3.5 1.03041
      vertex 2.55941 -1 0.525971
      vertex 2.40114 -1 1.03041
    endloop
  endfacet
  facet normal -0.874347 9.57854e-17 -0.485301
    outer loop
      vertex 2.40114 3.5 1.03041
      vertex 2.40114 -1 1.03041
      vertex 2.14457 3.5 1.49266
    endloop
  endfacet
  facet normal -0.874347 9.57854e-17 -0.485301
    outer loop
      vertex 2.14457 3.5 1.49266
      vertex 2.40114 -1 1.03041
      vertex 2.14457 -1 1.49266
    endloop
  endfacet
  facet normal -0.758758 1.28563e-16 -0.651373
    outer loop
      vertex 2.14457 3.5 1.49266
      vertex 2.14457 -1 1.49266
      vertex 1.8002 3.5 1.89381
    endloop
  endfacet
  facet normal -0.758758 1.28563e-16 -0.651373
    outer loop
      vertex 1.8002 3.5 1.89381
      vertex 2.14457 -1 1.49266
      vertex 1.8002 -1 1.89381
    endloop
  endfacet
  facet normal -0.612106 1.56078e-16 -0.790776
    outer loop
      vertex 1.8002 3.5 1.89381
      vertex 1.8002 -1 1.89381
      vertex 1.38213 3.5 2.21742
    endloop
  endfacet
  facet normal -0.612106 1.56078e-16 -0.790776
    outer loop
      vertex 1.38213 3.5 2.21742
      vertex 1.8002 -1 1.89381
      vertex 1.38213 -1 2.21742
    endloop
  endfacet
  facet normal -0.440394 1.77202e-16 -0.897805
    outer loop
      vertex 1.38213 3.5 2.21742
      vertex 1.38213 -1 2.21742
      vertex 0.907471 3.5 2.45025
    endloop
  endfacet
  facet normal -0.440394 1.77202e-16 -0.897805
    outer loop
      vertex 0.907471 3.5 2.45025
      vertex 1.38213 -1 2.21742
      vertex 0.907471 -1 2.45025
    endloop
  endfacet
  facet normal -0.250653 1.91072e-16 -0.968077
    outer loop
      vertex 0.907471 3.5 2.45025
      vertex 0.907471 -1 2.45025
      vertex 0.395665 3.5 2.58276
    endloop
  endfacet
  facet normal -0.250653 1.91072e-16 -0.968077
    outer loop
      vertex 0.395665 3.5 2.58276
      vertex 0.907471 -1 2.45025
      vertex 0.395665 -1 2.58276
    endloop
  endfacet
  facet normal -0.0506484 1.9712e-16 -0.998717
    outer loop
      vertex 0.395665 3.5 2.58276
      vertex 0.395665 -1 2.58276
      vertex -0.132341 3.5 2.60954
    endloop
  endfacet
  facet normal -0.0506484 1.9712e-16 -0.998717
    outer loop
      vertex -0.132341 3.5 2.60954
      vertex 0.395665 -1 2.58276
      vertex -0.132341 -1 2.60954
    endloop
  endfacet
  facet normal 0.151427 1.95097e-16 -0.988468
    outer loop
      vertex -0.132341 3.5 2.60954
      vertex -0.132341 -1 2.60954
      vertex -0.654928 3.5 2.52948
    endloop
  endfacet
  facet normal 0.151427 1.95097e-16 -0.988468
    outer loop
      vertex -0.654928 3.5 2.52948
      vertex -0.132341 -1 2.60954
      vertex -0.654928 -1 2.52948
    endloop
  endfacet
  facet normal 0.347305 1.85087e-16 -0.937752
    outer loop
      vertex -0.654928 3.5 2.52948
      vertex -0.654928 -1 2.52948
      vertex -1.1507 3.5 2.34587
    endloop
  endfacet
  facet normal 0.347305 1.85087e-16 -0.937752
    outer loop
      vertex -1.1507 3.5 2.34587
      vertex -0.654928 -1 2.52948
      vertex -1.1507 -1 2.34587
    endloop
  endfacet
  facet normal 0.528965 1.67499e-16 -0.848644
    outer loop
      vertex -1.1507 3.5 2.34587
      vertex -1.1507 -1 2.34587
      vertex -1.59937 3.5 2.06621
    endloop
  endfacet
  facet normal 0.528965 1.67499e-16 -0.848644
    outer loop
      vertex -1.59937 3.5 2.06621
      vertex -1.1507 -1 2.34587
      vertex -1.59937 -1 2.06621
    endloop
  endfacet
  facet normal 0.688967 1.43055e-16 -0.724793
    outer loop
      vertex -1.59937 3.5 2.06621
      vertex -1.59937 -1 2.06621
      vertex -1.98255 3.5 1.70197
    endloop
  endfacet
  facet normal 0.688967 1.43055e-16 -0.724793
    outer loop
      vertex -1.98255 3.5 1.70197
      vertex -1.59937 -1 2.06621
      vertex -1.98255 -1 1.70197
    endloop
  endfacet
  facet normal 0.820763 1.1099e-16 -0.571268
    outer loop
      vertex -2.28457 3.5 1.26804
      vertex -1.98255 3.5 1.70197
      vertex -1.98255 -1 1.70197
    endloop
  endfacet
  facet normal 0.820763 1.12753e-16 -0.571268
    outer loop
      vertex -2.28457 -1 1.26804
      vertex -2.28457 3.5 1.26804
      vertex -1.98255 -1 1.70197
    endloop
  endfacet
  facet normal 0.918957 7.66174e-17 -0.394357
    outer loop
      vertex -2.49306 3.5 0.782204
      vertex -2.28457 3.5 1.26804
      vertex -2.28457 -1 1.26804
    endloop
  endfacet
  facet normal 0.918957 8.75648e-17 -0.394357
    outer loop
      vertex -2.49306 -1 0.782204
      vertex -2.49306 3.5 0.782204
      vertex -2.28457 -1 1.26804
    endloop
  endfacet
  facet normal 0.97953 4.46965e-17 -0.201298
    outer loop
      vertex -2.59949 3.5 0.264342
      vertex -2.49306 3.5 0.782204
      vertex -2.49306 -1 0.782204
    endloop
  endfacet
  facet normal 0.97953 4.46971e-17 -0.201298
    outer loop
      vertex -2.59949 -1 0.264342
      vertex -2.59949 3.5 0.264342
      vertex -2.49306 -1 0.782204
    endloop
  endfacet
  facet normal 0 -1 -2.33731e-16
    outer loop
      vertex 12 -12 19
      vertex 10 -12 19
      vertex 10 -12 -19
    endloop
  endfacet
  facet normal 0 -1 -2.33731e-16
    outer loop
      vertex 12 -12 -19
      vertex 12 -12 19
      vertex 10 -12 -19
    endloop
  endfacet
  facet normal 0 0 1
    outer loop
      vertex 12 -8.1 19
      vertex 10 -8.1 19
      vertex 10 -12 19
    endloop
  endfacet
  facet normal -0 0 1
    outer loop
      vertex 12 -12 19
      vertex 12 -8.1 19
      vertex 10 -12 19
    endloop
  endfacet
  facet normal -0 1 2.53765e-16
    outer loop
      vertex 12 -8.1 -9
      vertex 10 -8.1 -9
      vertex 12 -8.1 19
    endloop
  endfacet
  facet normal -0 1 2.53765e-16
    outer loop
      vertex 12 -8.1 19
      vertex 10 -8.1 -9
      vertex 10 -8.1 19
    endloop
  endfacet
  facet normal 0 -2.86509e-16 1
    outer loop
      vertex 10 -8.1 -9
      vertex 12 -8.1 -9
      vertex 12 -1.9 -9
    endloop
  endfacet
  facet normal 6.36178e-32 -2.86509e-16 1
    outer loop
      vertex 10 -1.9 -9
      vertex 10 -8.1 -9
      vertex 12 -1.9 -9
    endloop
  endfacet
  facet normal 2.22045e-16 -1 0
    outer loop
      vertex 10 -2.40051 -14.7643
      vertex 12 -2.40051 -14.7643
      vertex 12 -2.40051 -14.2357
    endloop
  endfacet
  facet normal 2.22045e-16 -1 0
    outer loop
      vertex 10 -2.40051 -14.2357
      vertex 10 -2.40051 -14.7643
      vertex 12 -2.40051 -14.2357
    endloop
  endfacet
  facet normal 2.17499e-16 -0.97953 -0.201298
    outer loop
      vertex 12 -2.40051 -14.2357
      vertex 12 -2.50694 -13.7178
      vertex 10 -2.50694 -13.7178
    endloop
  endfacet
  facet normal 2.17499e-16 -0.97953 -0.201298
    outer loop
      vertex 10 -2.40051 -14.2357
      vertex 12 -2.40051 -14.2357
      vertex 10 -2.50694 -13.7178
    endloop
  endfacet
  facet normal 2.0405e-16 -0.918957 -0.394357
    outer loop
      vertex 12 -2.50694 -13.7178
      vertex 12 -2.71543 -13.232
      vertex 10 -2.71543 -13.232
    endloop
  endfacet
  facet normal 2.0405e-16 -0.918957 -0.394357
    outer loop
      vertex 10 -2.50694 -13.7178
      vertex 12 -2.50694 -13.7178
      vertex 10 -2.71543 -13.232
    endloop
  endfacet
  facet normal 1.82248e-16 -0.820763 -0.571268
    outer loop
      vertex 12 -2.71543 -13.232
      vertex 12 -3.01745 -12.798
      vertex 10 -3.01745 -12.798
    endloop
  endfacet
  facet normal 1.82246e-16 -0.820763 -0.571268
    outer loop
      vertex 10 -2.71543 -13.232
      vertex 12 -2.71543 -13.232
      vertex 10 -3.01745 -12.798
    endloop
  endfacet
  facet normal 1.52981e-16 -0.688967 -0.724793
    outer loop
      vertex 12 -3.40063 -12.4338
      vertex 10 -3.40063 -12.4338
      vertex 12 -3.01745 -12.798
    endloop
  endfacet
  facet normal 1.52981e-16 -0.688967 -0.724793
    outer loop
      vertex 12 -3.01745 -12.798
      vertex 10 -3.40063 -12.4338
      vertex 10 -3.01745 -12.798
    endloop
  endfacet
  facet normal 1.17454e-16 -0.528965 -0.848644
    outer loop
      vertex 12 -3.8493 -12.1541
      vertex 10 -3.8493 -12.1541
      vertex 12 -3.40063 -12.4338
    endloop
  endfacet
  facet normal 1.17454e-16 -0.528965 -0.848644
    outer loop
      vertex 12 -3.40063 -12.4338
      vertex 10 -3.8493 -12.1541
      vertex 10 -3.40063 -12.4338
    endloop
  endfacet
  facet normal 1.54235e-16 -0.347305 -0.937752
    outer loop
      vertex 12 -4.34507 -11.9705
      vertex 10 -4.34507 -11.9705
      vertex 12 -3.8493 -12.1541
    endloop
  endfacet
  facet normal 7.71173e-17 -0.347305 -0.937752
    outer loop
      vertex 12 -3.8493 -12.1541
      vertex 10 -4.34507 -11.9705
      vertex 10 -3.8493 -12.1541
    endloop
  endfacet
  facet normal 6.72471e-17 -0.151427 -0.988468
    outer loop
      vertex 12 -4.86766 -11.8905
      vertex 10 -4.86766 -11.8905
      vertex 12 -4.34507 -11.9705
    endloop
  endfacet
  facet normal 6.72471e-17 -0.151427 -0.988468
    outer loop
      vertex 12 -4.34507 -11.9705
      vertex 10 -4.86766 -11.8905
      vertex 10 -4.34507 -11.9705
    endloop
  endfacet
  facet normal 0 0.0506484 -0.998717
    outer loop
      vertex 12 -5.39566 -11.9172
      vertex 10 -5.39566 -11.9172
      vertex 12 -4.86766 -11.8905
    endloop
  endfacet
  facet normal -2.24924e-17 0.0506484 -0.998717
    outer loop
      vertex 12 -4.86766 -11.8905
      vertex 10 -5.39566 -11.9172
      vertex 10 -4.86766 -11.8905
    endloop
  endfacet
  facet normal 0 0.250653 -0.968077
    outer loop
      vertex 12 -5.90747 -12.0498
      vertex 10 -5.90747 -12.0498
      vertex 12 -5.39566 -11.9172
    endloop
  endfacet
  facet normal 0 0.250653 -0.968077
    outer loop
      vertex 12 -5.39566 -11.9172
      vertex 10 -5.90747 -12.0498
      vertex 10 -5.39566 -11.9172
    endloop
  endfacet
  facet normal -1.95574e-16 0.440394 -0.897805
    outer loop
      vertex 12 -6.38213 -12.2826
      vertex 10 -6.38213 -12.2826
      vertex 12 -5.90747 -12.0498
    endloop
  endfacet
  facet normal 0 0.440394 -0.897805
    outer loop
      vertex 12 -5.90747 -12.0498
      vertex 10 -6.38213 -12.2826
      vertex 10 -5.90747 -12.0498
    endloop
  endfacet
  facet normal 0 0.612106 -0.790776
    outer loop
      vertex 12 -6.8002 -12.6062
      vertex 10 -6.8002 -12.6062
      vertex 12 -6.38213 -12.2826
    endloop
  endfacet
  facet normal -2.7183e-16 0.612106 -0.790776
    outer loop
      vertex 12 -6.38213 -12.2826
      vertex 10 -6.8002 -12.6062
      vertex 10 -6.38213 -12.2826
    endloop
  endfacet
  facet normal -3.36956e-16 0.758758 -0.651373
    outer loop
      vertex 12 -7.14457 -13.0073
      vertex 10 -7.14457 -13.0073
      vertex 12 -6.8002 -12.6062
    endloop
  endfacet
  facet normal 0 0.758758 -0.651373
    outer loop
      vertex 12 -6.8002 -12.6062
      vertex 10 -7.14457 -13.0073
      vertex 10 -6.8002 -12.6062
    endloop
  endfacet
  facet normal -3.88288e-16 0.874347 -0.485301
    outer loop
      vertex 12 -7.40114 -13.4696
      vertex 10 -7.40114 -13.4696
      vertex 12 -7.14457 -13.0073
    endloop
  endfacet
  facet normal -3.88288e-16 0.874347 -0.485301
    outer loop
      vertex 12 -7.14457 -13.0073
      vertex 10 -7.40114 -13.4696
      vertex 10 -7.14457 -13.0073
    endloop
  endfacet
  facet normal -4.23723e-16 0.954139 -0.299364
    outer loop
      vertex 12 -7.55941 -13.974
      vertex 10 -7.55941 -13.974
      vertex 12 -7.40114 -13.4696
    endloop
  endfacet
  facet normal -4.23723e-16 0.954139 -0.299364
    outer loop
      vertex 12 -7.40114 -13.4696
      vertex 10 -7.55941 -13.974
      vertex 10 -7.40114 -13.4696
    endloop
  endfacet
  facet normal -4.41811e-16 0.994869 -0.101168
    outer loop
      vertex 12 -7.61289 -14.5
      vertex 10 -7.61289 -14.5
      vertex 12 -7.55941 -13.974
    endloop
  endfacet
  facet normal -4.41811e-16 0.994869 -0.101168
    outer loop
      vertex 12 -7.55941 -13.974
      vertex 10 -7.61289 -14.5
      vertex 10 -7.55941 -13.974
    endloop
  endfacet
  facet normal -4.41811e-16 0.994869 0.101168
    outer loop
      vertex 12 -7.61289 -14.5
      vertex 12 -7.55941 -15.026
      vertex 10 -7.61289 -14.5
    endloop
  endfacet
  facet normal 0 0.994869 0.101168
    outer loop
      vertex 10 -7.61289 -14.5
      vertex 12 -7.55941 -15.026
      vertex 10 -7.55941 -15.026
    endloop
  endfacet
  facet normal -0 0.954139 0.299364
    outer loop
      vertex 12 -7.55941 -15.026
      vertex 12 -7.40114 -15.5304
      vertex 10 -7.55941 -15.026
    endloop
  endfacet
  facet normal 0 0.954139 0.299364
    outer loop
      vertex 10 -7.55941 -15.026
      vertex 12 -7.40114 -15.5304
      vertex 10 -7.40114 -15.5304
    endloop
  endfacet
  facet normal -0 0.874347 0.485301
    outer loop
      vertex 12 -7.40114 -15.5304
      vertex 12 -7.14457 -15.9927
      vertex 10 -7.40114 -15.5304
    endloop
  endfacet
  facet normal 0 0.874347 0.485301
    outer loop
      vertex 10 -7.40114 -15.5304
      vertex 12 -7.14457 -15.9927
      vertex 10 -7.14457 -15.9927
    endloop
  endfacet
  facet normal -0 0.758758 0.651373
    outer loop
      vertex 12 -7.14457 -15.9927
      vertex 12 -6.8002 -16.3938
      vertex 10 -7.14457 -15.9927
    endloop
  endfacet
  facet normal 0 0.758758 0.651373
    outer loop
      vertex 10 -7.14457 -15.9927
      vertex 12 -6.8002 -16.3938
      vertex 10 -6.8002 -16.3938
    endloop
  endfacet
  facet normal 0 0.612106 0.790776
    outer loop
      vertex 10 -6.8002 -16.3938
      vertex 12 -6.8002 -16.3938
      vertex 12 -6.38213 -16.7174
    endloop
  endfacet
  facet normal -2.7183e-16 0.612106 0.790776
    outer loop
      vertex 10 -6.38213 -16.7174
      vertex 10 -6.8002 -16.3938
      vertex 12 -6.38213 -16.7174
    endloop
  endfacet
  facet normal -1.95574e-16 0.440394 0.897805
    outer loop
      vertex 10 -6.38213 -16.7174
      vertex 12 -6.38213 -16.7174
      vertex 12 -5.90747 -16.9502
    endloop
  endfacet
  facet normal 0 0.440394 0.897805
    outer loop
      vertex 10 -5.90747 -16.9502
      vertex 10 -6.38213 -16.7174
      vertex 12 -5.90747 -16.9502
    endloop
  endfacet
  facet normal 0 0.250653 0.968077
    outer loop
      vertex 10 -5.90747 -16.9502
      vertex 12 -5.90747 -16.9502
      vertex 12 -5.39566 -17.0828
    endloop
  endfacet
  facet normal 0 0.250653 0.968077
    outer loop
      vertex 10 -5.39566 -17.0828
      vertex 10 -5.90747 -16.9502
      vertex 12 -5.39566 -17.0828
    endloop
  endfacet
  facet normal 0 0.0506484 0.998717
    outer loop
      vertex 10 -5.39566 -17.0828
      vertex 12 -5.39566 -17.0828
      vertex 12 -4.86766 -17.1095
    endloop
  endfacet
  facet normal -2.24924e-17 0.0506484 0.998717
    outer loop
      vertex 10 -4.86766 -17.1095
      vertex 10 -5.39566 -17.0828
      vertex 12 -4.86766 -17.1095
    endloop
  endfacet
  facet normal 6.72471e-17 -0.151427 0.988468
    outer loop
      vertex 10 -4.86766 -17.1095
      vertex 12 -4.86766 -17.1095
      vertex 12 -4.34507 -17.0295
    endloop
  endfacet
  facet normal 0 -0.151427 0.988468
    outer loop
      vertex 10 -4.34507 -17.0295
      vertex 10 -4.86766 -17.1095
      vertex 12 -4.34507 -17.0295
    endloop
  endfacet
  facet normal 0 -0.347305 0.937752
    outer loop
      vertex 10 -4.34507 -17.0295
      vertex 12 -4.34507 -17.0295
      vertex 12 -3.8493 -16.8459
    endloop
  endfacet
  facet normal 7.71173e-17 -0.347305 0.937752
    outer loop
      vertex 10 -3.8493 -16.8459
      vertex 10 -4.34507 -17.0295
      vertex 12 -3.8493 -16.8459
    endloop
  endfacet
  facet normal 1.17454e-16 -0.528965 0.848644
    outer loop
      vertex 10 -3.8493 -16.8459
      vertex 12 -3.8493 -16.8459
      vertex 12 -3.40063 -16.5662
    endloop
  endfacet
  facet normal 1.17454e-16 -0.528965 0.848644
    outer loop
      vertex 10 -3.40063 -16.5662
      vertex 10 -3.8493 -16.8459
      vertex 12 -3.40063 -16.5662
    endloop
  endfacet
  facet normal 1.52981e-16 -0.688967 0.724793
    outer loop
      vertex 10 -3.40063 -16.5662
      vertex 12 -3.40063 -16.5662
      vertex 12 -3.01745 -16.202
    endloop
  endfacet
  facet normal 1.52981e-16 -0.688967 0.724793
    outer loop
      vertex 10 -3.01745 -16.202
      vertex 10 -3.40063 -16.5662
      vertex 12 -3.01745 -16.202
    endloop
  endfacet
  facet normal 1.82246e-16 -0.820763 0.571268
    outer loop
      vertex 10 -3.01745 -16.202
      vertex 12 -3.01745 -16.202
      vertex 12 -2.71543 -15.768
    endloop
  endfacet
  facet normal 1.82246e-16 -0.820763 0.571268
    outer loop
      vertex 10 -2.71543 -15.768
      vertex 10 -3.01745 -16.202
      vertex 12 -2.71543 -15.768
    endloop
  endfacet
  facet normal 2.0405e-16 -0.918957 0.394357
    outer loop
      vertex 10 -2.71543 -15.768
      vertex 12 -2.71543 -15.768
      vertex 12 -2.50694 -15.2822
    endloop
  endfacet
  facet normal 2.0405e-16 -0.918957 0.394357
    outer loop
      vertex 10 -2.50694 -15.2822
      vertex 10 -2.71543 -15.768
      vertex 12 -2.50694 -15.2822
    endloop
  endfacet
  facet normal 2.17499e-16 -0.97953 0.201298
    outer loop
      vertex 10 -2.50694 -15.2822
      vertex 12 -2.50694 -15.2822
      vertex 12 -2.40051 -14.7643
    endloop
  endfacet
  facet normal 2.17499e-16 -0.97953 0.201298
    outer loop
      vertex 10 -2.40051 -14.7643
      vertex 10 -2.50694 -15.2822
      vertex 12 -2.40051 -14.7643
    endloop
  endfacet
endsolid OpenSCAD_Model
