solid OpenSCAD_Model
  facet normal -1 0 -0
    outer loop
      vertex -26 4 -12.5
      vertex -26 -2.77556e-15 -12.5
      vertex -26 4 12.5
    endloop
  endfacet
  facet normal -1 0 0
    outer loop
      vertex -26 4 12.5
      vertex -26 -2.77556e-15 -12.5
      vertex -26 2.77556e-15 12.5
    endloop
  endfacet
  facet normal 0 0 -1
    outer loop
      vertex -26 4 -12.5
      vertex 26 4 -12.5
      vertex -26 -2.77556e-15 -12.5
    endloop
  endfacet
  facet normal -0 0 -1
    outer loop
      vertex -26 -2.77556e-15 -12.5
      vertex 26 4 -12.5
      vertex 26 -2.77556e-15 -12.5
    endloop
  endfacet
  facet normal -4.13566e-17 1 -3.16948e-16
    outer loop
      vertex -7.93168 4 1.73553
      vertex -26 4 12.5
      vertex 26 4 -12.5
    endloop
  endfacet
  facet normal 0 1 -2.62213e-16
    outer loop
      vertex 8.65 4 2.33827
      vertex -26 4 12.5
      vertex 26 4 12.5
    endloop
  endfacet
  facet normal -6.53258e-19 1 -2.30926e-16
    outer loop
      vertex -26 4 -12.5
      vertex -26 4 12.5
      vertex -12.5372 4 0.923454
    endloop
  endfacet
  facet normal 8.8426e-18 1 -2.4045e-16
    outer loop
      vertex -26 4 -12.5
      vertex -12.5372 4 0.923454
      vertex -12.5372 4 -0.923454
    endloop
  endfacet
  facet normal 4.18165e-17 1 -2.78797e-16
    outer loop
      vertex -26 4 -12.5
      vertex -12.5372 4 -0.923454
      vertex -11.35 4 -2.33827
    endloop
  endfacet
  facet normal 0 1 -2.18511e-16
    outer loop
      vertex -26 4 -12.5
      vertex -11.35 4 -2.33827
      vertex 26 4 -12.5
    endloop
  endfacet
  facet normal -1.09489e-16 1 -6.20943e-16
    outer loop
      vertex -11.35 4 -2.33827
      vertex -9.53115 4 -2.65898
      vertex 26 4 -12.5
    endloop
  endfacet
  facet normal -2.37503e-18 1 -2.55017e-16
    outer loop
      vertex -7.3 4 -8.88178e-16
      vertex 26 4 -12.5
      vertex -7.93168 4 -1.73553
    endloop
  endfacet
  facet normal -5.51251e-17 1 -3.12631e-16
    outer loop
      vertex 10.4688 4 -2.65898
      vertex 26 4 -12.5
      vertex 8.65 4 -2.33827
    endloop
  endfacet
  facet normal 3.6864e-17 1 -2.09066e-16
    outer loop
      vertex -11.35 4 2.33827
      vertex -26 4 12.5
      vertex -9.53115 4 2.65898
    endloop
  endfacet
  facet normal -4.6235e-15 1 -8.00814e-15
    outer loop
      vertex -9.53115 4 2.65898
      vertex -26 4 12.5
      vertex -7.93168 4 1.73553
    endloop
  endfacet
  facet normal 1.08125e-16 1 3.93541e-17
    outer loop
      vertex -7.3 4 -8.88178e-16
      vertex -7.93168 4 1.73553
      vertex 26 4 -12.5
    endloop
  endfacet
  facet normal 1.14966e-16 1 -9.6468e-17
    outer loop
      vertex -12.5372 4 0.923454
      vertex -26 4 12.5
      vertex -11.35 4 2.33827
    endloop
  endfacet
  facet normal -3.55757e-18 1 -2.4045e-16
    outer loop
      vertex 7.46283 4 -0.923454
      vertex -26 4 12.5
      vertex 7.46283 4 0.923454
    endloop
  endfacet
  facet normal -4.97673e-17 1 -3.55645e-16
    outer loop
      vertex 8.65 4 -2.33827
      vertex -26 4 12.5
      vertex 7.46283 4 -0.923454
    endloop
  endfacet
  facet normal 3.33208e-17 1 -1.61619e-16
    outer loop
      vertex 26 4 -12.5
      vertex -26 4 12.5
      vertex 8.65 4 -2.33827
    endloop
  endfacet
  facet normal -7.71144e-17 1 -3.47334e-16
    outer loop
      vertex 12.0683 4 -1.73553
      vertex 26 4 -12.5
      vertex 10.4688 4 -2.65898
    endloop
  endfacet
  facet normal 6.61502e-17 1 -3.75157e-16
    outer loop
      vertex 8.65 4 2.33827
      vertex 26 4 12.5
      vertex 10.4688 4 2.65898
    endloop
  endfacet
  facet normal 1.28293e-17 1 -2.30926e-16
    outer loop
      vertex 26 4 -12.5
      vertex 12.0683 4 -1.73553
      vertex 26 4 12.5
    endloop
  endfacet
  facet normal 6.1024e-17 1 -2.78092e-16
    outer loop
      vertex 12.0683 4 -1.73553
      vertex 12.7 4 -8.88178e-16
      vertex 26 4 12.5
    endloop
  endfacet
  facet normal -1.49277e-16 1 -5.43323e-17
    outer loop
      vertex 12.7 4 -8.88178e-16
      vertex 12.0683 4 1.73553
      vertex 26 4 12.5
    endloop
  endfacet
  facet normal -8.17937e-17 1 -1.41671e-16
    outer loop
      vertex 12.0683 4 1.73553
      vertex 10.4688 4 2.65898
      vertex 26 4 12.5
    endloop
  endfacet
  facet normal 6.17123e-17 1 -5.17828e-17
    outer loop
      vertex 7.46283 4 0.923454
      vertex -26 4 12.5
      vertex 8.65 4 2.33827
    endloop
  endfacet
  facet normal -4.77801e-17 1 -3.98143e-16
    outer loop
      vertex -7.93168 4 -1.73553
      vertex 26 4 -12.5
      vertex -9.53115 4 -2.65898
    endloop
  endfacet
  facet normal -0 4.44089e-16 1
    outer loop
      vertex 26 4 12.5
      vertex -26 4 12.5
      vertex -26 2.77556e-15 12.5
    endloop
  endfacet
  facet normal -0 4.44089e-16 1
    outer loop
      vertex 26 2.77556e-15 12.5
      vertex 26 4 12.5
      vertex -26 2.77556e-15 12.5
    endloop
  endfacet
  facet normal 0 -3.43533e-17 7.62797e-33
    outer loop
      vertex -25.854 -2.77556e-15 -12.5
      vertex -26 -2.77556e-15 -12.5
      vertex 26 -2.77556e-15 -12.5
    endloop
  endfacet
  facet normal 0 -7.38927e-18 1.64075e-33
    outer loop
      vertex -17.854 -2.77556e-15 -12.5
      vertex -25.854 -2.77556e-15 -12.5
      vertex 26 -2.77556e-15 -12.5
    endloop
  endfacet
  facet normal 0 -1 2.22045e-16
    outer loop
      vertex -26 2.77556e-15 12.5
      vertex -26 -2.77556e-15 -12.5
      vertex -25.854 -2.77556e-15 -12.5
    endloop
  endfacet
  facet normal 0 -1 2.22045e-16
    outer loop
      vertex 17.854 -2.77556e-15 -12.5
      vertex -7.93168 -3.85364e-16 -1.73553
      vertex -9.53115 -5.90412e-16 -2.65898
    endloop
  endfacet
  facet normal 0 -1 2.22045e-16
    outer loop
      vertex -26 2.77556e-15 12.5
      vertex -25.854 -2.77556e-15 -12.5
      vertex -25.854 -9.99201e-16 -4.5
    endloop
  endfacet
  facet normal 0 -1 2.22045e-16
    outer loop
      vertex -26 2.77556e-15 12.5
      vertex -25.854 -9.99201e-16 -4.5
      vertex -17.854 -9.99201e-16 -4.5
    endloop
  endfacet
  facet normal 0 -4.97467e-17 1.1046e-32
    outer loop
      vertex 17.854 -2.77556e-15 -12.5
      vertex -17.854 -2.77556e-15 -12.5
      vertex 26 -2.77556e-15 -12.5
    endloop
  endfacet
  facet normal 0 -1 2.22045e-16
    outer loop
      vertex 8.65 5.192e-16 2.33827
      vertex 10.4688 5.90412e-16 2.65898
      vertex 26 2.77556e-15 12.5
    endloop
  endfacet
  facet normal 0 -1 2.22045e-16
    outer loop
      vertex -26 2.77556e-15 12.5
      vertex -17.854 -9.99201e-16 -4.5
      vertex -12.5372 -2.05048e-16 -0.923454
    endloop
  endfacet
  facet normal 0 -1 2.22045e-16
    outer loop
      vertex -26 2.77556e-15 12.5
      vertex -12.5372 -2.05048e-16 -0.923454
      vertex -12.5372 2.05048e-16 0.923454
    endloop
  endfacet
  facet normal 0 -1 2.22045e-16
    outer loop
      vertex -26 2.77556e-15 12.5
      vertex -12.5372 2.05048e-16 0.923454
      vertex -11.35 5.192e-16 2.33827
    endloop
  endfacet
  facet normal 0 -1 2.22045e-16
    outer loop
      vertex -26 2.77556e-15 12.5
      vertex -11.35 5.192e-16 2.33827
      vertex -9.53115 5.90412e-16 2.65898
    endloop
  endfacet
  facet normal 0 -1 2.22045e-16
    outer loop
      vertex -11.35 -5.192e-16 -2.33827
      vertex -17.854 -9.99201e-16 -4.5
      vertex -9.53115 -5.90412e-16 -2.65898
    endloop
  endfacet
  facet normal 0 -1 2.22045e-16
    outer loop
      vertex -12.5372 -2.05048e-16 -0.923454
      vertex -17.854 -9.99201e-16 -4.5
      vertex -11.35 -5.192e-16 -2.33827
    endloop
  endfacet
  facet normal 0 -1 2.22045e-16
    outer loop
      vertex 7.46283 2.05048e-16 0.923454
      vertex -26 2.77556e-15 12.5
      vertex 7.46283 -2.05048e-16 -0.923454
    endloop
  endfacet
  facet normal 0 -1 2.22045e-16
    outer loop
      vertex 8.65 5.192e-16 2.33827
      vertex -26 2.77556e-15 12.5
      vertex 7.46283 2.05048e-16 0.923454
    endloop
  endfacet
  facet normal 0 -1 2.22045e-16
    outer loop
      vertex 10.4688 5.90412e-16 2.65898
      vertex 12.0683 3.85364e-16 1.73553
      vertex 26 2.77556e-15 12.5
    endloop
  endfacet
  facet normal 0 -1 2.22045e-16
    outer loop
      vertex 26 2.77556e-15 12.5
      vertex -26 2.77556e-15 12.5
      vertex 8.65 5.192e-16 2.33827
    endloop
  endfacet
  facet normal 0 -1 2.22045e-16
    outer loop
      vertex 17.854 -9.99201e-16 -4.5
      vertex 25.854 -9.99201e-16 -4.5
      vertex 12.0683 3.85364e-16 1.73553
    endloop
  endfacet
  facet normal 0 -1 2.22045e-16
    outer loop
      vertex 7.46283 -2.05048e-16 -0.923454
      vertex -26 2.77556e-15 12.5
      vertex 8.65 -5.192e-16 -2.33827
    endloop
  endfacet
  facet normal 0 -2.22045e-16 4.93038e-32
    outer loop
      vertex 25.854 -2.77556e-15 -12.5
      vertex 17.854 -2.77556e-15 -12.5
      vertex 26 -2.77556e-15 -12.5
    endloop
  endfacet
  facet normal 0 -1 2.22045e-16
    outer loop
      vertex 25.854 -9.99201e-16 -4.5
      vertex 25.854 -2.77556e-15 -12.5
      vertex 26 -2.77556e-15 -12.5
    endloop
  endfacet
  facet normal 0 -1 2.22045e-16
    outer loop
      vertex 12.0683 3.85364e-16 1.73553
      vertex 12.7 0 0
      vertex 17.854 -9.99201e-16 -4.5
    endloop
  endfacet
  facet normal 0 -1 2.22045e-16
    outer loop
      vertex 26 2.77556e-15 12.5
      vertex 25.854 -9.99201e-16 -4.5
      vertex 26 -2.77556e-15 -12.5
    endloop
  endfacet
  facet normal 0 -1 2.22045e-16
    outer loop
      vertex 26 2.77556e-15 12.5
      vertex 12.0683 3.85364e-16 1.73553
      vertex 25.854 -9.99201e-16 -4.5
    endloop
  endfacet
  facet normal 0 -1 2.22045e-16
    outer loop
      vertex 17.854 -2.77556e-15 -12.5
      vertex -9.53115 -5.90412e-16 -2.65898
      vertex -17.854 -9.99201e-16 -4.5
    endloop
  endfacet
  facet normal 0 -1 2.22045e-16
    outer loop
      vertex -17.854 -9.99201e-16 -4.5
      vertex -17.854 -2.77556e-15 -12.5
      vertex 17.854 -2.77556e-15 -12.5
    endloop
  endfacet
  facet normal 0 -1 2.22045e-16
    outer loop
      vertex 17.854 -2.77556e-15 -12.5
      vertex -7.3 0 0
      vertex -7.93168 -3.85364e-16 -1.73553
    endloop
  endfacet
  facet normal 0 -1 2.22045e-16
    outer loop
      vertex 17.854 -2.77556e-15 -12.5
      vertex -7.93168 3.85364e-16 1.73553
      vertex -7.3 0 0
    endloop
  endfacet
  facet normal 0 -1 2.22045e-16
    outer loop
      vertex 17.854 -2.77556e-15 -12.5
      vertex -9.53115 5.90412e-16 2.65898
      vertex -7.93168 3.85364e-16 1.73553
    endloop
  endfacet
  facet normal 0 -1 2.22045e-16
    outer loop
      vertex 17.854 -2.77556e-15 -12.5
      vertex -26 2.77556e-15 12.5
      vertex -9.53115 5.90412e-16 2.65898
    endloop
  endfacet
  facet normal 0 -1 2.22045e-16
    outer loop
      vertex 17.854 -2.77556e-15 -12.5
      vertex 8.65 -5.192e-16 -2.33827
      vertex -26 2.77556e-15 12.5
    endloop
  endfacet
  facet normal 0 -1 2.22045e-16
    outer loop
      vertex 17.854 -2.77556e-15 -12.5
      vertex 10.4688 -5.90412e-16 -2.65898
      vertex 8.65 -5.192e-16 -2.33827
    endloop
  endfacet
  facet normal 0 -1 2.22045e-16
    outer loop
      vertex 17.854 -2.77556e-15 -12.5
      vertex 12.0683 -3.85364e-16 -1.73553
      vertex 10.4688 -5.90412e-16 -2.65898
    endloop
  endfacet
  facet normal 0 -1 2.22045e-16
    outer loop
      vertex 17.854 -2.77556e-15 -12.5
      vertex 12.7 0 0
      vertex 12.0683 -3.85364e-16 -1.73553
    endloop
  endfacet
  facet normal 0 -1 2.22045e-16
    outer loop
      vertex 17.854 -2.77556e-15 -12.5
      vertex 17.854 -9.99201e-16 -4.5
      vertex 12.7 0 0
    endloop
  endfacet
  facet normal 1 0 0
    outer loop
      vertex 26 -2.77556e-15 -12.5
      vertex 26 4 -12.5
      vertex 26 4 12.5
    endloop
  endfacet
  facet normal 1 0 -0
    outer loop
      vertex 26 2.77556e-15 12.5
      vertex 26 -2.77556e-15 -12.5
      vertex 26 4 12.5
    endloop
  endfacet
  facet normal 0.766045 -1.42727e-16 -0.642787
    outer loop
      vertex -11.35 4 2.33827
      vertex -11.35 5.192e-16 2.33827
      vertex -12.5372 2.05048e-16 0.923454
    endloop
  endfacet
  facet normal 0.766045 -1.42727e-16 -0.642787
    outer loop
      vertex -12.5372 4 0.923454
      vertex -11.35 4 2.33827
      vertex -12.5372 2.05048e-16 0.923454
    endloop
  endfacet
  facet normal 1 -0 0
    outer loop
      vertex -12.5372 4 0.923454
      vertex -12.5372 2.05048e-16 0.923454
      vertex -12.5372 -2.05048e-16 -0.923454
    endloop
  endfacet
  facet normal 1 0 0
    outer loop
      vertex -12.5372 4 -0.923454
      vertex -12.5372 4 0.923454
      vertex -12.5372 -2.05048e-16 -0.923454
    endloop
  endfacet
  facet normal 0.173648 -2.18671e-16 -0.984808
    outer loop
      vertex -9.53115 5.90412e-16 2.65898
      vertex -11.35 5.192e-16 2.33827
      vertex -9.53115 4 2.65898
    endloop
  endfacet
  facet normal 0.173648 -2.18671e-16 -0.984808
    outer loop
      vertex -9.53115 4 2.65898
      vertex -11.35 5.192e-16 2.33827
      vertex -11.35 4 2.33827
    endloop
  endfacet
  facet normal -0.5 -1.92296e-16 -0.866026
    outer loop
      vertex -7.93168 3.85364e-16 1.73553
      vertex -9.53115 5.90412e-16 2.65898
      vertex -7.93168 4 1.73553
    endloop
  endfacet
  facet normal -0.5 -1.92298e-16 -0.866026
    outer loop
      vertex -7.93168 4 1.73553
      vertex -9.53115 5.90412e-16 2.65898
      vertex -9.53115 4 2.65898
    endloop
  endfacet
  facet normal -0.939693 -7.59437e-17 -0.34202
    outer loop
      vertex -7.3 0 0
      vertex -7.93168 3.85364e-16 1.73553
      vertex -7.3 4 -8.88178e-16
    endloop
  endfacet
  facet normal -0.939693 -7.59478e-17 -0.34202
    outer loop
      vertex -7.3 4 -8.88178e-16
      vertex -7.93168 3.85364e-16 1.73553
      vertex -7.93168 4 1.73553
    endloop
  endfacet
  facet normal -0.939693 7.59437e-17 0.34202
    outer loop
      vertex -7.3 0 0
      vertex -7.3 4 -8.88178e-16
      vertex -7.93168 -3.85364e-16 -1.73553
    endloop
  endfacet
  facet normal -0.939693 7.59437e-17 0.34202
    outer loop
      vertex -7.93168 -3.85364e-16 -1.73553
      vertex -7.3 4 -8.88178e-16
      vertex -7.93168 4 -1.73553
    endloop
  endfacet
  facet normal -0.5 1.92298e-16 0.866026
    outer loop
      vertex -9.53115 -5.90412e-16 -2.65898
      vertex -7.93168 -3.85364e-16 -1.73553
      vertex -7.93168 4 -1.73553
    endloop
  endfacet
  facet normal -0.5 1.92296e-16 0.866026
    outer loop
      vertex -9.53115 4 -2.65898
      vertex -9.53115 -5.90412e-16 -2.65898
      vertex -7.93168 4 -1.73553
    endloop
  endfacet
  facet normal 0.173648 2.18671e-16 0.984808
    outer loop
      vertex -11.35 -5.192e-16 -2.33827
      vertex -9.53115 -5.90412e-16 -2.65898
      vertex -9.53115 4 -2.65898
    endloop
  endfacet
  facet normal 0.173648 2.18671e-16 0.984808
    outer loop
      vertex -11.35 4 -2.33827
      vertex -11.35 -5.192e-16 -2.33827
      vertex -9.53115 4 -2.65898
    endloop
  endfacet
  facet normal 0.766045 1.42723e-16 0.642787
    outer loop
      vertex -12.5372 -2.05048e-16 -0.923454
      vertex -11.35 -5.192e-16 -2.33827
      vertex -11.35 4 -2.33827
    endloop
  endfacet
  facet normal 0.766045 1.42727e-16 0.642787
    outer loop
      vertex -12.5372 4 -0.923454
      vertex -12.5372 -2.05048e-16 -0.923454
      vertex -11.35 4 -2.33827
    endloop
  endfacet
  facet normal 0.766045 -1.42727e-16 -0.642787
    outer loop
      vertex 8.65 4 2.33827
      vertex 8.65 5.192e-16 2.33827
      vertex 7.46283 2.05048e-16 0.923454
    endloop
  endfacet
  facet normal 0.766045 -1.42727e-16 -0.642787
    outer loop
      vertex 7.46283 4 0.923454
      vertex 8.65 4 2.33827
      vertex 7.46283 2.05048e-16 0.923454
    endloop
  endfacet
  facet normal 1 -0 0
    outer loop
      vertex 7.46283 4 0.923454
      vertex 7.46283 2.05048e-16 0.923454
      vertex 7.46283 -2.05048e-16 -0.923454
    endloop
  endfacet
  facet normal 1 0 0
    outer loop
      vertex 7.46283 4 -0.923454
      vertex 7.46283 4 0.923454
      vertex 7.46283 -2.05048e-16 -0.923454
    endloop
  endfacet
  facet normal 0.173648 -2.18671e-16 -0.984808
    outer loop
      vertex 10.4688 5.90412e-16 2.65898
      vertex 8.65 5.192e-16 2.33827
      vertex 10.4688 4 2.65898
    endloop
  endfacet
  facet normal 0.173648 -2.18671e-16 -0.984808
    outer loop
      vertex 10.4688 4 2.65898
      vertex 8.65 5.192e-16 2.33827
      vertex 8.65 4 2.33827
    endloop
  endfacet
  facet normal -0.5 -1.92296e-16 -0.866026
    outer loop
      vertex 12.0683 3.85364e-16 1.73553
      vertex 10.4688 5.90412e-16 2.65898
      vertex 12.0683 4 1.73553
    endloop
  endfacet
  facet normal -0.5 -1.92298e-16 -0.866026
    outer loop
      vertex 12.0683 4 1.73553
      vertex 10.4688 5.90412e-16 2.65898
      vertex 10.4688 4 2.65898
    endloop
  endfacet
  facet normal -0.939693 -7.59437e-17 -0.34202
    outer loop
      vertex 12.7 0 0
      vertex 12.0683 3.85364e-16 1.73553
      vertex 12.7 4 -8.88178e-16
    endloop
  endfacet
  facet normal -0.939693 -7.59331e-17 -0.34202
    outer loop
      vertex 12.7 4 -8.88178e-16
      vertex 12.0683 3.85364e-16 1.73553
      vertex 12.0683 4 1.73553
    endloop
  endfacet
  facet normal -0.939693 7.59437e-17 0.34202
    outer loop
      vertex 12.7 0 0
      vertex 12.7 4 -8.88178e-16
      vertex 12.0683 -3.85364e-16 -1.73553
    endloop
  endfacet
  facet normal -0.939693 7.59437e-17 0.34202
    outer loop
      vertex 12.0683 -3.85364e-16 -1.73553
      vertex 12.7 4 -8.88178e-16
      vertex 12.0683 4 -1.73553
    endloop
  endfacet
  facet normal -0.5 1.92298e-16 0.866026
    outer loop
      vertex 10.4688 -5.90412e-16 -2.65898
      vertex 12.0683 -3.85364e-16 -1.73553
      vertex 12.0683 4 -1.73553
    endloop
  endfacet
  facet normal -0.5 1.92296e-16 0.866026
    outer loop
      vertex 10.4688 4 -2.65898
      vertex 10.4688 -5.90412e-16 -2.65898
      vertex 12.0683 4 -1.73553
    endloop
  endfacet
  facet normal 0.173648 2.18671e-16 0.984808
    outer loop
      vertex 8.65 -5.192e-16 -2.33827
      vertex 10.4688 -5.90412e-16 -2.65898
      vertex 10.4688 4 -2.65898
    endloop
  endfacet
  facet normal 0.173648 2.18671e-16 0.984808
    outer loop
      vertex 8.65 4 -2.33827
      vertex 8.65 -5.192e-16 -2.33827
      vertex 10.4688 4 -2.65898
    endloop
  endfacet
  facet normal 0.766045 1.42723e-16 0.642787
    outer loop
      vertex 7.46283 -2.05048e-16 -0.923454
      vertex 8.65 -5.192e-16 -2.33827
      vertex 8.65 4 -2.33827
    endloop
  endfacet
  facet normal 0.766045 1.42727e-16 0.642787
    outer loop
      vertex 7.46283 4 -0.923454
      vertex 7.46283 -2.05048e-16 -0.923454
      vertex 8.65 4 -2.33827
    endloop
  endfacet
  facet normal -1 0 -0
    outer loop
      vertex -25.854 -2.77556e-15 -12.5
      vertex -25.854 -7 -12.5
      vertex -25.854 -9.99201e-16 -4.5
    endloop
  endfacet
  facet normal -1 0 0
    outer loop
      vertex -25.854 -6.25 -9.79904
      vertex -25.854 -7 -12.5
      vertex -25.854 -7 -10
    endloop
  endfacet
  facet normal -1 0 0
    outer loop
      vertex -25.854 -9.99201e-16 -4.5
      vertex -25.854 -7 -12.5
      vertex -25.854 -6.25 -9.79904
    endloop
  endfacet
  facet normal -1 0 0
    outer loop
      vertex -25.854 -9.99201e-16 -4.5
      vertex -25.854 -6.25 -9.79904
      vertex -25.854 -5.70096 -9.25
    endloop
  endfacet
  facet normal -1 0 0
    outer loop
      vertex -25.854 -9.99201e-16 -4.5
      vertex -25.854 -5.5 -8.5
      vertex -25.854 -5.70096 -7.75
    endloop
  endfacet
  facet normal -1 0 -0
    outer loop
      vertex -25.854 -5.70096 -7.75
      vertex -25.854 -6.25 -7.20096
      vertex -25.854 -9.99201e-16 -4.5
    endloop
  endfacet
  facet normal -1 0 -0
    outer loop
      vertex -25.854 -6.25 -7.20096
      vertex -25.854 -7 -7
      vertex -25.854 -9.99201e-16 -4.5
    endloop
  endfacet
  facet normal -1 0 -0
    outer loop
      vertex -25.854 -7 -7
      vertex -25.854 -7.75 -7.20096
      vertex -25.854 -9.99201e-16 -4.5
    endloop
  endfacet
  facet normal -1 0 -0
    outer loop
      vertex -25.854 -8.29904 -7.75
      vertex -25.854 -11 -8.5
      vertex -25.854 -7.75 -7.20096
    endloop
  endfacet
  facet normal -1 0 -0
    outer loop
      vertex -25.854 -8.5 -8.5
      vertex -25.854 -11 -8.5
      vertex -25.854 -8.29904 -7.75
    endloop
  endfacet
  facet normal -1 0 0
    outer loop
      vertex -25.854 -7.75 -7.20096
      vertex -25.854 -11 -8.5
      vertex -25.854 -10.8637 -7.46472
    endloop
  endfacet
  facet normal -1 0 -0
    outer loop
      vertex -25.854 -7.75 -7.20096
      vertex -25.854 -10.8637 -7.46472
      vertex -25.854 -9.99201e-16 -4.5
    endloop
  endfacet
  facet normal -1 0 0
    outer loop
      vertex -25.854 -9.99201e-16 -4.5
      vertex -25.854 -10.8637 -7.46472
      vertex -25.854 -10.4641 -6.5
    endloop
  endfacet
  facet normal -1 0 0
    outer loop
      vertex -25.854 -9.99201e-16 -4.5
      vertex -25.854 -10.4641 -6.5
      vertex -25.854 -9.82843 -5.67157
    endloop
  endfacet
  facet normal -1 0 0
    outer loop
      vertex -25.854 -9.99201e-16 -4.5
      vertex -25.854 -9.82843 -5.67157
      vertex -25.854 -9 -5.0359
    endloop
  endfacet
  facet normal -1 0 0
    outer loop
      vertex -25.854 -9.99201e-16 -4.5
      vertex -25.854 -9 -5.0359
      vertex -25.854 -8.03528 -4.6363
    endloop
  endfacet
  facet normal -1 0 0
    outer loop
      vertex -25.854 -9.99201e-16 -4.5
      vertex -25.854 -8.03528 -4.6363
      vertex -25.854 -7 -4.5
    endloop
  endfacet
  facet normal -1 -0 0
    outer loop
      vertex -25.854 -5.5 -8.5
      vertex -25.854 -9.99201e-16 -4.5
      vertex -25.854 -5.70096 -9.25
    endloop
  endfacet
  facet normal -0 -5.07531e-16 -1
    outer loop
      vertex -25.854 -2.77556e-15 -12.5
      vertex -17.854 -2.77556e-15 -12.5
      vertex -25.854 -7 -12.5
    endloop
  endfacet
  facet normal 3.3359e-17 -5.45655e-16 -1
    outer loop
      vertex -25.854 -7 -12.5
      vertex -17.854 -2.77556e-15 -12.5
      vertex -17.854 -3.25546 -12.5
    endloop
  endfacet
  facet normal 2.63337e-32 -4.74386e-16 -1
    outer loop
      vertex -25.854 -7 -12.5
      vertex -17.854 -3.25546 -12.5
      vertex -17.854 -10.7445 -12.5
    endloop
  endfacet
  facet normal 0 0 -1
    outer loop
      vertex -25.1876 -7.94904 -12.5
      vertex -23.5347 -8.83287 -12.5
      vertex -25.1014 -8.0718 -12.5
    endloop
  endfacet
  facet normal 0 0 -1
    outer loop
      vertex -25.854 -7 -12.5
      vertex -21.0096 -9.78094 -12.5
      vertex -22.5537 -9.3094 -12.5
    endloop
  endfacet
  facet normal 1.20272e-15 2.09516e-15 -1
    outer loop
      vertex -25.854 -7 -12.5
      vertex -17.854 -10.7445 -12.5
      vertex -21.0096 -9.78094 -12.5
    endloop
  endfacet
  facet normal 0 0 -1
    outer loop
      vertex -25.854 -7 -12.5
      vertex -22.5537 -9.3094 -12.5
      vertex -23.5347 -8.83287 -12.5
    endloop
  endfacet
  facet normal 0 0 -1
    outer loop
      vertex -25.854 -7 -12.5
      vertex -23.5347 -8.83287 -12.5
      vertex -25.1876 -7.94904 -12.5
    endloop
  endfacet
  facet normal 1 -0 0
    outer loop
      vertex -17.854 -9.99201e-16 -4.5
      vertex -17.854 -7 -4.5
      vertex -17.854 -7 -5.51221
    endloop
  endfacet
  facet normal 1 0 0
    outer loop
      vertex -17.854 -3.55 -8.5
      vertex -17.854 -9.99201e-16 -4.5
      vertex -17.854 -5.275 -5.51221
    endloop
  endfacet
  facet normal 1 0 0
    outer loop
      vertex -17.854 -5.275 -5.51221
      vertex -17.854 -9.99201e-16 -4.5
      vertex -17.854 -7 -5.51221
    endloop
  endfacet
  facet normal 1 -0 0
    outer loop
      vertex -17.854 -1.5 -8.5
      vertex -17.854 -9.99201e-16 -4.5
      vertex -17.854 -3.55 -8.5
    endloop
  endfacet
  facet normal 1 0 0
    outer loop
      vertex -17.854 -1.68741 -9.9235
      vertex -17.854 -9.99201e-16 -4.5
      vertex -17.854 -1.5 -8.5
    endloop
  endfacet
  facet normal 1 0 0
    outer loop
      vertex -17.854 -2.77556e-15 -12.5
      vertex -17.854 -9.99201e-16 -4.5
      vertex -17.854 -1.68741 -9.9235
    endloop
  endfacet
  facet normal 1 0 0
    outer loop
      vertex -17.854 -2.77556e-15 -12.5
      vertex -17.854 -1.68741 -9.9235
      vertex -17.854 -2.23686 -11.25
    endloop
  endfacet
  facet normal 1 0 0
    outer loop
      vertex -17.854 -2.77556e-15 -12.5
      vertex -17.854 -2.23686 -11.25
      vertex -17.854 -3.11091 -12.3891
    endloop
  endfacet
  facet normal 1 0 0
    outer loop
      vertex -17.854 -2.77556e-15 -12.5
      vertex -17.854 -3.11091 -12.3891
      vertex -17.854 -3.25546 -12.5
    endloop
  endfacet
  facet normal -0 5.07531e-16 1
    outer loop
      vertex -17.854 -9.99201e-16 -4.5
      vertex -25.854 -9.99201e-16 -4.5
      vertex -25.854 -7 -4.5
    endloop
  endfacet
  facet normal 2.75084e-16 1.93149e-16 1
    outer loop
      vertex -25.1014 -8.0718 -4.5
      vertex -17.854 -9.99201e-16 -4.5
      vertex -25.854 -7 -4.5
    endloop
  endfacet
  facet normal 1.48874e-16 3.0647e-16 1
    outer loop
      vertex -24.6417 -8.29512 -4.5
      vertex -17.854 -9.99201e-16 -4.5
      vertex -25.1014 -8.0718 -4.5
    endloop
  endfacet
  facet normal -1.5551e-16 5.5554e-16 1
    outer loop
      vertex -22.5537 -9.3094 -4.5
      vertex -17.854 -9.99201e-16 -4.5
      vertex -24.6417 -8.29512 -4.5
    endloop
  endfacet
  facet normal -6.04106e-17 5.07531e-16 1
    outer loop
      vertex -17.854 -7 -4.5
      vertex -17.854 -9.99201e-16 -4.5
      vertex -22.5537 -9.3094 -4.5
    endloop
  endfacet
  facet normal -4.41234e-17 4.74386e-16 1
    outer loop
      vertex -17.854 -10.7445 -4.5
      vertex -17.854 -7 -4.5
      vertex -22.5537 -9.3094 -4.5
    endloop
  endfacet
  facet normal -1 0 0
    outer loop
      vertex 17.854 -2.77556e-15 -12.5
      vertex 17.854 -3.25546 -12.5
      vertex 17.854 -3.11091 -12.3891
    endloop
  endfacet
  facet normal -1 0 0
    outer loop
      vertex 17.854 -2.77556e-15 -12.5
      vertex 17.854 -3.11091 -12.3891
      vertex 17.854 -2.23686 -11.25
    endloop
  endfacet
  facet normal -1 0 0
    outer loop
      vertex 17.854 -2.77556e-15 -12.5
      vertex 17.854 -2.23686 -11.25
      vertex 17.854 -1.68741 -9.9235
    endloop
  endfacet
  facet normal -1 0 -0
    outer loop
      vertex 17.854 -2.77556e-15 -12.5
      vertex 17.854 -1.68741 -9.9235
      vertex 17.854 -9.99201e-16 -4.5
    endloop
  endfacet
  facet normal -1 -0 0
    outer loop
      vertex 17.854 -3.55 -8.5
      vertex 17.854 -9.99201e-16 -4.5
      vertex 17.854 -1.5 -8.5
    endloop
  endfacet
  facet normal -1 0 0
    outer loop
      vertex 17.854 -9.99201e-16 -4.5
      vertex 17.854 -3.55 -8.5
      vertex 17.854 -5.275 -5.51221
    endloop
  endfacet
  facet normal -1 0 -0
    outer loop
      vertex 17.854 -5.275 -5.51221
      vertex 17.854 -7 -5.51221
      vertex 17.854 -9.99201e-16 -4.5
    endloop
  endfacet
  facet normal -1 0 0
    outer loop
      vertex 17.854 -9.99201e-16 -4.5
      vertex 17.854 -7 -5.51221
      vertex 17.854 -7 -4.5
    endloop
  endfacet
  facet normal -1 -0 0
    outer loop
      vertex 17.854 -1.5 -8.5
      vertex 17.854 -9.99201e-16 -4.5
      vertex 17.854 -1.68741 -9.9235
    endloop
  endfacet
  facet normal 0 -5.45655e-16 -1
    outer loop
      vertex 25.854 -2.77556e-15 -12.5
      vertex 17.854 -3.25546 -12.5
      vertex 17.854 -2.77556e-15 -12.5
    endloop
  endfacet
  facet normal -2.90019e-17 -4.74386e-16 -1
    outer loop
      vertex 17.854 -10.7445 -12.5
      vertex 17.854 -3.25546 -12.5
      vertex 25.854 -2.77556e-15 -12.5
    endloop
  endfacet
  facet normal 1.55141e-17 -5.07531e-16 -1
    outer loop
      vertex 17.854 -10.7445 -12.5
      vertex 25.854 -2.77556e-15 -12.5
      vertex 25.854 -7 -12.5
    endloop
  endfacet
  facet normal -3.30745e-16 2.32232e-16 -1
    outer loop
      vertex 17.854 -10.7445 -12.5
      vertex 25.854 -7 -12.5
      vertex 25.1876 -7.94904 -12.5
    endloop
  endfacet
  facet normal -3.30745e-16 2.32231e-16 -1
    outer loop
      vertex 17.854 -10.7445 -12.5
      vertex 25.1876 -7.94904 -12.5
      vertex 25.1014 -8.0718 -12.5
    endloop
  endfacet
  facet normal -1.01776e-15 2.09514e-15 -1
    outer loop
      vertex 17.854 -10.7445 -12.5
      vertex 25.1014 -8.0718 -12.5
      vertex 23.5347 -8.83287 -12.5
    endloop
  endfacet
  facet normal 0 0 -1
    outer loop
      vertex 21.0096 -9.78094 -12.5
      vertex 23.5347 -8.83287 -12.5
      vertex 22.5537 -9.3094 -12.5
    endloop
  endfacet
  facet normal -3.01569e-15 8.03218e-15 -1
    outer loop
      vertex 17.854 -10.7445 -12.5
      vertex 23.5347 -8.83287 -12.5
      vertex 21.0096 -9.78094 -12.5
    endloop
  endfacet
  facet normal 1 0 0
    outer loop
      vertex 25.854 -7 -12.5
      vertex 25.854 -2.77556e-15 -12.5
      vertex 25.854 -9.99201e-16 -4.5
    endloop
  endfacet
  facet normal 1 0 -0
    outer loop
      vertex 25.854 -5.70096 -9.25
      vertex 25.854 -7 -12.5
      vertex 25.854 -9.99201e-16 -4.5
    endloop
  endfacet
  facet normal 1 0 -0
    outer loop
      vertex 25.854 -7 -4.5
      vertex 25.854 -7 -7
      vertex 25.854 -9.99201e-16 -4.5
    endloop
  endfacet
  facet normal 1 0 0
    outer loop
      vertex 25.854 -6.25 -9.79904
      vertex 25.854 -7 -10
      vertex 25.854 -7 -12.5
    endloop
  endfacet
  facet normal 1 0 0
    outer loop
      vertex 25.854 -8.29904 -7.75
      vertex 25.854 -7.75 -7.20096
      vertex 25.854 -9 -5.0359
    endloop
  endfacet
  facet normal 1 0 0
    outer loop
      vertex 25.854 -7.75 -7.20096
      vertex 25.854 -7 -4.5
      vertex 25.854 -8.03528 -4.6363
    endloop
  endfacet
  facet normal 1 0 0
    outer loop
      vertex 25.854 -7.75 -7.20096
      vertex 25.854 -7 -7
      vertex 25.854 -7 -4.5
    endloop
  endfacet
  facet normal 1 0 -0
    outer loop
      vertex 25.854 -9 -5.0359
      vertex 25.854 -9.82843 -5.67157
      vertex 25.854 -8.5 -8.5
    endloop
  endfacet
  facet normal 1 0 0
    outer loop
      vertex 25.854 -9 -5.0359
      vertex 25.854 -8.5 -8.5
      vertex 25.854 -8.29904 -7.75
    endloop
  endfacet
  facet normal 1 0 -0
    outer loop
      vertex 25.854 -8.03528 -4.6363
      vertex 25.854 -9 -5.0359
      vertex 25.854 -7.75 -7.20096
    endloop
  endfacet
  facet normal 1 0 0
    outer loop
      vertex 25.854 -7 -7
      vertex 25.854 -6.25 -7.20096
      vertex 25.854 -9.99201e-16 -4.5
    endloop
  endfacet
  facet normal 1 0 0
    outer loop
      vertex 25.854 -6.25 -7.20096
      vertex 25.854 -5.70096 -7.75
      vertex 25.854 -9.99201e-16 -4.5
    endloop
  endfacet
  facet normal 1 0 0
    outer loop
      vertex 25.854 -5.70096 -7.75
      vertex 25.854 -5.5 -8.5
      vertex 25.854 -9.99201e-16 -4.5
    endloop
  endfacet
  facet normal 1 0 -0
    outer loop
      vertex 25.854 -5.5 -8.5
      vertex 25.854 -5.70096 -9.25
      vertex 25.854 -9.99201e-16 -4.5
    endloop
  endfacet
  facet normal 1 0 0
    outer loop
      vertex 25.854 -5.70096 -9.25
      vertex 25.854 -6.25 -9.79904
      vertex 25.854 -7 -12.5
    endloop
  endfacet
  facet normal 1 0 0
    outer loop
      vertex 25.854 -11 -8.5
      vertex 25.854 -10.4641 -6.5
      vertex 25.854 -10.8637 -7.46472
    endloop
  endfacet
  facet normal 1 0 0
    outer loop
      vertex 25.854 -11 -8.5
      vertex 25.854 -9.82843 -5.67157
      vertex 25.854 -10.4641 -6.5
    endloop
  endfacet
  facet normal 1 0 0
    outer loop
      vertex 25.854 -11 -8.5
      vertex 25.854 -8.5 -8.5
      vertex 25.854 -9.82843 -5.67157
    endloop
  endfacet
  facet normal -0 5.07531e-16 1
    outer loop
      vertex 25.854 -9.99201e-16 -4.5
      vertex 17.854 -9.99201e-16 -4.5
      vertex 17.854 -7 -4.5
    endloop
  endfacet
  facet normal 2.90019e-17 4.74386e-16 1
    outer loop
      vertex 17.854 -10.7445 -4.5
      vertex 25.854 -9.99201e-16 -4.5
      vertex 17.854 -7 -4.5
    endloop
  endfacet
  facet normal 4.85733e-17 4.59813e-16 1
    outer loop
      vertex 22.5537 -9.3094 -4.5
      vertex 25.854 -9.99201e-16 -4.5
      vertex 17.854 -10.7445 -4.5
    endloop
  endfacet
  facet normal 2.33932e-16 3.94102e-16 1
    outer loop
      vertex 24.6417 -8.29512 -4.5
      vertex 25.854 -9.99201e-16 -4.5
      vertex 22.5537 -9.3094 -4.5
    endloop
  endfacet
  facet normal -2.23949e-16 4.61019e-16 1
    outer loop
      vertex 25.1014 -8.0718 -4.5
      vertex 25.854 -9.99201e-16 -4.5
      vertex 24.6417 -8.29512 -4.5
    endloop
  endfacet
  facet normal -7.22825e-16 5.07531e-16 1
    outer loop
      vertex 25.854 -7 -4.5
      vertex 25.854 -9.99201e-16 -4.5
      vertex 25.1014 -8.0718 -4.5
    endloop
  endfacet
  facet normal -0.182765 -0.128328 0.974746
    outer loop
      vertex -25.854 -8.03528 -4.6363
      vertex -25.1014 -8.0718 -4.5
      vertex -25.854 -7 -4.5
    endloop
  endfacet
  facet normal -0.182765 -0.376238 0.908318
    outer loop
      vertex -24.6417 -8.29512 -4.5
      vertex -25.1014 -8.0718 -4.5
      vertex -25.854 -8.03528 -4.6363
    endloop
  endfacet
  facet normal -0.182765 -0.376237 0.908319
    outer loop
      vertex -22.5537 -9.3094 -4.5
      vertex -24.6417 -8.29512 -4.5
      vertex -25.854 -8.03528 -4.6363
    endloop
  endfacet
  facet normal -0.182765 -0.376237 0.908319
    outer loop
      vertex -25.854 -9 -5.0359
      vertex -22.5537 -9.3094 -4.5
      vertex -25.854 -8.03528 -4.6363
    endloop
  endfacet
  facet normal -0.182765 -0.598508 0.77999
    outer loop
      vertex -17.854 -10.8891 -4.61091
      vertex -17.854 -10.7445 -4.5
      vertex -22.5537 -9.3094 -4.5
    endloop
  endfacet
  facet normal -0.182765 -0.598508 0.77999
    outer loop
      vertex -25.854 -9 -5.0359
      vertex -17.854 -10.8891 -4.61091
      vertex -22.5537 -9.3094 -4.5
    endloop
  endfacet
  facet normal -0.182765 -0.598508 0.77999
    outer loop
      vertex -17.854 -10.8891 -4.61091
      vertex -25.854 -9 -5.0359
      vertex -25.854 -9.82843 -5.67157
    endloop
  endfacet
  facet normal -0.182765 -0.77999 0.598508
    outer loop
      vertex -17.854 -11.7631 -5.75
      vertex -17.854 -10.8891 -4.61091
      vertex -25.854 -9.82843 -5.67157
    endloop
  endfacet
  facet normal -0.182765 -0.77999 0.598508
    outer loop
      vertex -17.854 -11.7631 -5.75
      vertex -25.854 -9.82843 -5.67157
      vertex -25.854 -10.4641 -6.5
    endloop
  endfacet
  facet normal -0.182765 -0.908318 0.376238
    outer loop
      vertex -17.854 -12.3126 -7.07649
      vertex -17.854 -11.7631 -5.75
      vertex -25.854 -10.4641 -6.5
    endloop
  endfacet
  facet normal -0.182765 -0.908319 0.376237
    outer loop
      vertex -17.854 -12.3126 -7.07649
      vertex -25.854 -10.4641 -6.5
      vertex -25.854 -10.8637 -7.46472
    endloop
  endfacet
  facet normal -0.182765 -0.974746 0.128328
    outer loop
      vertex -17.854 -12.5 -8.5
      vertex -17.854 -12.3126 -7.07649
      vertex -25.854 -10.8637 -7.46472
    endloop
  endfacet
  facet normal -0.182765 -0.974746 0.128328
    outer loop
      vertex -17.854 -12.5 -8.5
      vertex -25.854 -10.8637 -7.46472
      vertex -25.854 -11 -8.5
    endloop
  endfacet
  facet normal -1 0 0
    outer loop
      vertex -25.854 -7.75 -9.79904
      vertex -25.854 -7 -10
      vertex -25.854 -7 -12.5
    endloop
  endfacet
  facet normal -1 0 0
    outer loop
      vertex -25.854 -7.75 -9.79904
      vertex -25.854 -7 -12.5
      vertex -25.854 -8.29904 -9.25
    endloop
  endfacet
  facet normal -1 0 0
    outer loop
      vertex -25.854 -7 -12.5
      vertex -25.854 -8.03528 -12.3637
      vertex -25.854 -8.29904 -9.25
    endloop
  endfacet
  facet normal -1 0 0
    outer loop
      vertex -25.854 -8.03528 -12.3637
      vertex -25.854 -9 -11.9641
      vertex -25.854 -8.29904 -9.25
    endloop
  endfacet
  facet normal -1 0 -0
    outer loop
      vertex -25.854 -9 -11.9641
      vertex -25.854 -9.82843 -11.3284
      vertex -25.854 -8.29904 -9.25
    endloop
  endfacet
  facet normal -1 0 -0
    outer loop
      vertex -25.854 -9.82843 -11.3284
      vertex -25.854 -10.4641 -10.5
      vertex -25.854 -8.29904 -9.25
    endloop
  endfacet
  facet normal -1 0 -0
    outer loop
      vertex -25.854 -10.4641 -10.5
      vertex -25.854 -10.8637 -9.53528
      vertex -25.854 -8.29904 -9.25
    endloop
  endfacet
  facet normal -1 3.76205e-16 -3.38213e-15
    outer loop
      vertex -25.854 -10.8637 -9.53528
      vertex -25.854 -11 -8.5
      vertex -25.854 -8.29904 -9.25
    endloop
  endfacet
  facet normal -1 -3.36581e-30 -4.73695e-15
    outer loop
      vertex -25.854 -11 -8.5
      vertex -25.854 -8.5 -8.5
      vertex -25.854 -8.29904 -9.25
    endloop
  endfacet
  facet normal -0.182765 -0.974746 -0.128328
    outer loop
      vertex -17.854 -12.3126 -9.9235
      vertex -17.854 -12.5 -8.5
      vertex -25.854 -11 -8.5
    endloop
  endfacet
  facet normal -0.182765 -0.974746 -0.128328
    outer loop
      vertex -25.854 -10.8637 -9.53528
      vertex -17.854 -12.3126 -9.9235
      vertex -25.854 -11 -8.5
    endloop
  endfacet
  facet normal 7.66259e-17 0.965926 0.258819
    outer loop
      vertex -19.854 -8.5 -8.5
      vertex -19.854 -8.29904 -9.25
      vertex -25.854 -8.5 -8.5
    endloop
  endfacet
  facet normal 7.54288e-17 0.965926 0.258819
    outer loop
      vertex -25.854 -8.5 -8.5
      vertex -19.854 -8.29904 -9.25
      vertex -25.854 -8.29904 -9.25
    endloop
  endfacet
  facet normal -7.66259e-17 0.965926 -0.258819
    outer loop
      vertex -19.854 -8.29904 -7.75
      vertex -19.854 -8.5 -8.5
      vertex -25.854 -8.29904 -7.75
    endloop
  endfacet
  facet normal -7.54288e-17 0.965926 -0.258819
    outer loop
      vertex -25.854 -8.29904 -7.75
      vertex -19.854 -8.5 -8.5
      vertex -25.854 -8.5 -8.5
    endloop
  endfacet
  facet normal -1.04673e-16 0.707107 -0.707107
    outer loop
      vertex -19.854 -7.75 -7.20096
      vertex -19.854 -8.29904 -7.75
      vertex -25.854 -7.75 -7.20096
    endloop
  endfacet
  facet normal -2.06074e-16 0.707107 -0.707107
    outer loop
      vertex -25.854 -7.75 -7.20096
      vertex -19.854 -8.29904 -7.75
      vertex -25.854 -8.29904 -7.75
    endloop
  endfacet
  facet normal -1.42986e-16 0.258819 -0.965926
    outer loop
      vertex -19.854 -7 -7
      vertex -19.854 -7.75 -7.20096
      vertex -25.854 -7 -7
    endloop
  endfacet
  facet normal -1.40752e-16 0.258819 -0.965926
    outer loop
      vertex -25.854 -7 -7
      vertex -19.854 -7.75 -7.20096
      vertex -25.854 -7.75 -7.20096
    endloop
  endfacet
  facet normal -1.42986e-16 -0.258819 -0.965926
    outer loop
      vertex -19.854 -7 -7
      vertex -25.854 -7 -7
      vertex -19.854 -6.25 -7.20096
    endloop
  endfacet
  facet normal -1.42986e-16 -0.258819 -0.965926
    outer loop
      vertex -19.854 -6.25 -7.20096
      vertex -25.854 -7 -7
      vertex -25.854 -6.25 -7.20096
    endloop
  endfacet
  facet normal -9.81282e-17 -0.707107 -0.707107
    outer loop
      vertex -19.854 -5.70096 -7.75
      vertex -19.854 -6.25 -7.20096
      vertex -25.854 -6.25 -7.20096
    endloop
  endfacet
  facet normal -2.09346e-16 -0.707107 -0.707107
    outer loop
      vertex -25.854 -5.70096 -7.75
      vertex -19.854 -5.70096 -7.75
      vertex -25.854 -6.25 -7.20096
    endloop
  endfacet
  facet normal -7.54288e-17 -0.965926 -0.258819
    outer loop
      vertex -19.854 -5.5 -8.5
      vertex -19.854 -5.70096 -7.75
      vertex -25.854 -5.70096 -7.75
    endloop
  endfacet
  facet normal -0 -0.965926 -0.258819
    outer loop
      vertex -25.854 -5.5 -8.5
      vertex -19.854 -5.5 -8.5
      vertex -25.854 -5.70096 -7.75
    endloop
  endfacet
  facet normal 0 -0.965926 0.258819
    outer loop
      vertex -19.854 -5.70096 -9.25
      vertex -19.854 -5.5 -8.5
      vertex -25.854 -5.5 -8.5
    endloop
  endfacet
  facet normal 7.66259e-17 -0.965926 0.258819
    outer loop
      vertex -25.854 -5.70096 -9.25
      vertex -19.854 -5.70096 -9.25
      vertex -25.854 -5.5 -8.5
    endloop
  endfacet
  facet normal 2.06074e-16 -0.707107 0.707107
    outer loop
      vertex -19.854 -6.25 -9.79904
      vertex -19.854 -5.70096 -9.25
      vertex -25.854 -5.70096 -9.25
    endloop
  endfacet
  facet normal 0 -0.707107 0.707107
    outer loop
      vertex -25.854 -6.25 -9.79904
      vertex -19.854 -6.25 -9.79904
      vertex -25.854 -5.70096 -9.25
    endloop
  endfacet
  facet normal 2.85971e-16 -0.258819 0.965926
    outer loop
      vertex -25.854 -7 -10
      vertex -19.854 -7 -10
      vertex -19.854 -6.25 -9.79904
    endloop
  endfacet
  facet normal 0 -0.258819 0.965926
    outer loop
      vertex -25.854 -6.25 -9.79904
      vertex -25.854 -7 -10
      vertex -19.854 -6.25 -9.79904
    endloop
  endfacet
  facet normal -0.182765 -0.128328 -0.974746
    outer loop
      vertex -25.854 -7 -12.5
      vertex -25.1876 -7.94904 -12.5
      vertex -25.854 -8.03528 -12.3637
    endloop
  endfacet
  facet normal -0.182765 -0.128328 -0.974746
    outer loop
      vertex -25.1876 -7.94904 -12.5
      vertex -25.1014 -8.0718 -12.5
      vertex -25.854 -8.03528 -12.3637
    endloop
  endfacet
  facet normal -0.182765 -0.376237 -0.908319
    outer loop
      vertex -25.1014 -8.0718 -12.5
      vertex -23.5347 -8.83287 -12.5
      vertex -25.854 -8.03528 -12.3637
    endloop
  endfacet
  facet normal -0.182765 -0.376237 -0.908319
    outer loop
      vertex -25.854 -8.03528 -12.3637
      vertex -23.5347 -8.83287 -12.5
      vertex -25.854 -9 -11.9641
    endloop
  endfacet
  facet normal -0.182765 -0.376238 -0.908318
    outer loop
      vertex -23.5347 -8.83287 -12.5
      vertex -22.5537 -9.3094 -12.5
      vertex -25.854 -9 -11.9641
    endloop
  endfacet
  facet normal -0.182765 -0.598508 -0.77999
    outer loop
      vertex -22.5537 -9.3094 -12.5
      vertex -21.0096 -9.78094 -12.5
      vertex -25.854 -9 -11.9641
    endloop
  endfacet
  facet normal -0.182765 -0.598508 -0.77999
    outer loop
      vertex -25.854 -9 -11.9641
      vertex -21.0096 -9.78094 -12.5
      vertex -25.854 -9.82843 -11.3284
    endloop
  endfacet
  facet normal -0.182765 -0.598508 -0.77999
    outer loop
      vertex -17.854 -10.7445 -12.5
      vertex -17.854 -10.8891 -12.3891
      vertex -21.0096 -9.78094 -12.5
    endloop
  endfacet
  facet normal -0.182765 -0.598508 -0.77999
    outer loop
      vertex -21.0096 -9.78094 -12.5
      vertex -17.854 -10.8891 -12.3891
      vertex -25.854 -9.82843 -11.3284
    endloop
  endfacet
  facet normal 1 0 0
    outer loop
      vertex -17.854 -10.7445 -4.5
      vertex -17.854 -10.8891 -4.61091
      vertex -17.854 -11.7631 -5.75
    endloop
  endfacet
  facet normal 1 0 0
    outer loop
      vertex -17.854 -12.5 -8.5
      vertex -17.854 -10.7445 -4.5
      vertex -17.854 -12.3126 -7.07649
    endloop
  endfacet
  facet normal 1 0 0
    outer loop
      vertex -17.854 -12.3126 -7.07649
      vertex -17.854 -10.7445 -4.5
      vertex -17.854 -11.7631 -5.75
    endloop
  endfacet
  facet normal 1 -4.37454e-15 1.91983e-15
    outer loop
      vertex -17.854 -12.3126 -9.9235
      vertex -17.854 -10.7445 -4.5
      vertex -17.854 -12.5 -8.5
    endloop
  endfacet
  facet normal 1 9.31361e-16 3.85782e-16
    outer loop
      vertex -17.854 -11.7631 -11.25
      vertex -17.854 -10.7445 -4.5
      vertex -17.854 -12.3126 -9.9235
    endloop
  endfacet
  facet normal 1 5.73198e-16 4.39831e-16
    outer loop
      vertex -17.854 -10.8891 -12.3891
      vertex -17.854 -10.7445 -4.5
      vertex -17.854 -11.7631 -11.25
    endloop
  endfacet
  facet normal 1 3.40762e-16 4.44089e-16
    outer loop
      vertex -17.854 -10.7445 -12.5
      vertex -17.854 -10.7445 -4.5
      vertex -17.854 -10.8891 -12.3891
    endloop
  endfacet
  facet normal 1 6.0309e-15 4.44089e-16
    outer loop
      vertex -17.854 -10.45 -8.5
      vertex -17.854 -10.7445 -4.5
      vertex -17.854 -10.7445 -12.5
    endloop
  endfacet
  facet normal 1 0 0
    outer loop
      vertex -17.854 -10.45 -8.5
      vertex -17.854 -8.725 -5.51221
      vertex -17.854 -10.7445 -4.5
    endloop
  endfacet
  facet normal 1 -0 2.49575e-15
    outer loop
      vertex -17.854 -1.5 -8.5
      vertex -17.854 -3.55 -8.5
      vertex -17.854 -1.68741 -9.9235
    endloop
  endfacet
  facet normal 1 0 0
    outer loop
      vertex -17.854 -3.25546 -12.5
      vertex -17.854 -5.275 -11.4878
      vertex -17.854 -10.7445 -12.5
    endloop
  endfacet
  facet normal 1 -0 0
    outer loop
      vertex -17.854 -5.275 -11.4878
      vertex -17.854 -8.725 -11.4878
      vertex -17.854 -10.7445 -12.5
    endloop
  endfacet
  facet normal 1 -4.62222e-16 9.22214e-16
    outer loop
      vertex -17.854 -8.725 -11.4878
      vertex -17.854 -10.45 -8.5
      vertex -17.854 -10.7445 -12.5
    endloop
  endfacet
  facet normal 1 -0 0
    outer loop
      vertex -17.854 -7 -4.5
      vertex -17.854 -10.7445 -4.5
      vertex -17.854 -7 -5.51221
    endloop
  endfacet
  facet normal 1 0 0
    outer loop
      vertex -17.854 -8.725 -5.51221
      vertex -17.854 -7 -5.51221
      vertex -17.854 -10.7445 -4.5
    endloop
  endfacet
  facet normal 1 -1.44877e-15 6.001e-16
    outer loop
      vertex -17.854 -3.55 -8.5
      vertex -17.854 -2.23686 -11.25
      vertex -17.854 -1.68741 -9.9235
    endloop
  endfacet
  facet normal 1 -1.03781e-15 7.96338e-16
    outer loop
      vertex -17.854 -3.55 -8.5
      vertex -17.854 -3.11091 -12.3891
      vertex -17.854 -2.23686 -11.25
    endloop
  endfacet
  facet normal 1 -6.45075e-16 8.40678e-16
    outer loop
      vertex -17.854 -3.55 -8.5
      vertex -17.854 -3.25546 -12.5
      vertex -17.854 -3.11091 -12.3891
    endloop
  endfacet
  facet normal 1 4.62222e-16 9.22214e-16
    outer loop
      vertex -17.854 -3.55 -8.5
      vertex -17.854 -5.275 -11.4878
      vertex -17.854 -3.25546 -12.5
    endloop
  endfacet
  facet normal 3.37697e-16 -0.866025 0.5
    outer loop
      vertex -17.854 -5.275 -11.4878
      vertex -17.854 -3.55 -8.5
      vertex -19.854 -3.55 -8.5
    endloop
  endfacet
  facet normal 3.84593e-16 -0.866025 0.5
    outer loop
      vertex -17.854 -5.275 -11.4878
      vertex -19.854 -3.55 -8.5
      vertex -19.854 -5.275 -11.4878
    endloop
  endfacet
  facet normal 4.30905e-16 -0.866025 -0.5
    outer loop
      vertex -17.854 -3.55 -8.5
      vertex -17.854 -5.275 -5.51221
      vertex -19.854 -5.275 -5.51221
    endloop
  endfacet
  facet normal 1.92296e-16 -0.866025 -0.5
    outer loop
      vertex -19.854 -3.55 -8.5
      vertex -17.854 -3.55 -8.5
      vertex -19.854 -5.275 -5.51221
    endloop
  endfacet
  facet normal -0 -5.14886e-16 -1
    outer loop
      vertex -19.854 -8.725 -5.51221
      vertex -17.854 -7 -5.51221
      vertex -17.854 -8.725 -5.51221
    endloop
  endfacet
  facet normal 1.87357e-30 -5.14886e-16 -1
    outer loop
      vertex -17.854 -5.275 -5.51221
      vertex -17.854 -7 -5.51221
      vertex -19.854 -8.725 -5.51221
    endloop
  endfacet
  facet normal 2.28655e-31 -5.14886e-16 -1
    outer loop
      vertex -17.854 -5.275 -5.51221
      vertex -19.854 -8.725 -5.51221
      vertex -19.854 -5.275 -5.51221
    endloop
  endfacet
  facet normal -4.44089e-16 -5.14886e-16 -1
    outer loop
      vertex 19.854 -8.725 -5.51221
      vertex 17.854 -8.725 -5.51221
      vertex 19.854 -5.275 -5.51221
    endloop
  endfacet
  facet normal -4.44089e-16 -5.14886e-16 -1
    outer loop
      vertex 19.854 -5.275 -5.51221
      vertex 17.854 -8.725 -5.51221
      vertex 17.854 -7 -5.51221
    endloop
  endfacet
  facet normal -4.44089e-16 -5.14886e-16 -1
    outer loop
      vertex 19.854 -5.275 -5.51221
      vertex 17.854 -7 -5.51221
      vertex 17.854 -5.275 -5.51221
    endloop
  endfacet
  facet normal -2.48766e-16 -0.866025 -0.5
    outer loop
      vertex 19.854 -3.55 -8.5
      vertex 19.854 -5.275 -5.51221
      vertex 17.854 -5.275 -5.51221
    endloop
  endfacet
  facet normal 1.38064e-17 -0.866025 -0.5
    outer loop
      vertex 17.854 -3.55 -8.5
      vertex 19.854 -3.55 -8.5
      vertex 17.854 -5.275 -5.51221
    endloop
  endfacet
  facet normal -1 0 -0
    outer loop
      vertex 17.854 -3.25546 -12.5
      vertex 17.854 -10.7445 -12.5
      vertex 17.854 -3.11091 -12.3891
    endloop
  endfacet
  facet normal -1 0 0
    outer loop
      vertex 17.854 -3.11091 -12.3891
      vertex 17.854 -10.7445 -12.5
      vertex 17.854 -10.8891 -12.3891
    endloop
  endfacet
  facet normal -1 0 0
    outer loop
      vertex 17.854 -3.11091 -12.3891
      vertex 17.854 -10.8891 -12.3891
      vertex 17.854 -11.7631 -11.25
    endloop
  endfacet
  facet normal -1 0 0
    outer loop
      vertex 17.854 -8.725 -11.4878
      vertex 17.854 -11.7631 -11.25
      vertex 17.854 -12.3126 -9.9235
    endloop
  endfacet
  facet normal -1 -1.73303e-15 2.28158e-16
    outer loop
      vertex 17.854 -10.45 -8.5
      vertex 17.854 -12.5 -8.5
      vertex 17.854 -12.3126 -7.07649
    endloop
  endfacet
  facet normal -1 -1.73303e-15 -1.00057e-15
    outer loop
      vertex 17.854 -8.725 -11.4878
      vertex 17.854 -12.5 -8.5
      vertex 17.854 -10.45 -8.5
    endloop
  endfacet
  facet normal -1 0 0
    outer loop
      vertex 17.854 -5.275 -11.4878
      vertex 17.854 -3.11091 -12.3891
      vertex 17.854 -8.725 -11.4878
    endloop
  endfacet
  facet normal -1 0 0
    outer loop
      vertex 17.854 -7 -5.51221
      vertex 17.854 -10.7445 -4.5
      vertex 17.854 -7 -4.5
    endloop
  endfacet
  facet normal -1 -0 -0
    outer loop
      vertex 17.854 -8.725 -5.51221
      vertex 17.854 -10.7445 -4.5
      vertex 17.854 -7 -5.51221
    endloop
  endfacet
  facet normal -1 1.15448e-15 2.64774e-15
    outer loop
      vertex 17.854 -8.725 -11.4878
      vertex 17.854 -12.3126 -9.9235
      vertex 17.854 -12.5 -8.5
    endloop
  endfacet
  facet normal -1 0 0
    outer loop
      vertex 17.854 -3.11091 -12.3891
      vertex 17.854 -11.7631 -11.25
      vertex 17.854 -8.725 -11.4878
    endloop
  endfacet
  facet normal -1 0 0
    outer loop
      vertex 17.854 -3.55 -8.5
      vertex 17.854 -3.11091 -12.3891
      vertex 17.854 -5.275 -11.4878
    endloop
  endfacet
  facet normal -1 1.73303e-15 1.95663e-16
    outer loop
      vertex 17.854 -3.55 -8.5
      vertex 17.854 -1.5 -8.5
      vertex 17.854 -3.11091 -12.3891
    endloop
  endfacet
  facet normal -1 -5.59965e-15 3.23296e-15
    outer loop
      vertex 17.854 -3.11091 -12.3891
      vertex 17.854 -1.5 -8.5
      vertex 17.854 -1.68741 -9.9235
    endloop
  endfacet
  facet normal -1 0 0
    outer loop
      vertex 17.854 -3.11091 -12.3891
      vertex 17.854 -1.68741 -9.9235
      vertex 17.854 -2.23686 -11.25
    endloop
  endfacet
  facet normal -1 -1.44877e-15 6.001e-16
    outer loop
      vertex 17.854 -10.45 -8.5
      vertex 17.854 -12.3126 -7.07649
      vertex 17.854 -11.7631 -5.75
    endloop
  endfacet
  facet normal -1 -1.03781e-15 7.96338e-16
    outer loop
      vertex 17.854 -10.45 -8.5
      vertex 17.854 -11.7631 -5.75
      vertex 17.854 -10.8891 -4.61091
    endloop
  endfacet
  facet normal -1 -6.45075e-16 8.40678e-16
    outer loop
      vertex 17.854 -10.45 -8.5
      vertex 17.854 -10.8891 -4.61091
      vertex 17.854 -10.7445 -4.5
    endloop
  endfacet
  facet normal -1 4.62222e-16 9.22214e-16
    outer loop
      vertex 17.854 -10.45 -8.5
      vertex 17.854 -10.7445 -4.5
      vertex 17.854 -8.725 -5.51221
    endloop
  endfacet
  facet normal 0.182765 -0.598508 -0.77999
    outer loop
      vertex 17.854 -10.7445 -12.5
      vertex 21.0096 -9.78094 -12.5
      vertex 17.854 -10.8891 -12.3891
    endloop
  endfacet
  facet normal 0.182765 -0.598508 -0.77999
    outer loop
      vertex 17.854 -10.8891 -12.3891
      vertex 21.0096 -9.78094 -12.5
      vertex 25.854 -9.82843 -11.3284
    endloop
  endfacet
  facet normal 0.182765 -0.598508 -0.77999
    outer loop
      vertex 21.0096 -9.78094 -12.5
      vertex 22.5537 -9.3094 -12.5
      vertex 25.854 -9.82843 -11.3284
    endloop
  endfacet
  facet normal 0.182765 -0.598508 -0.77999
    outer loop
      vertex 25.854 -9.82843 -11.3284
      vertex 22.5537 -9.3094 -12.5
      vertex 25.854 -9 -11.9641
    endloop
  endfacet
  facet normal 0.182765 -0.376238 -0.908318
    outer loop
      vertex 25.854 -9 -11.9641
      vertex 22.5537 -9.3094 -12.5
      vertex 23.5347 -8.83287 -12.5
    endloop
  endfacet
  facet normal 0.182765 -0.376237 -0.908319
    outer loop
      vertex 23.5347 -8.83287 -12.5
      vertex 25.1014 -8.0718 -12.5
      vertex 25.854 -9 -11.9641
    endloop
  endfacet
  facet normal 0.182765 -0.376237 -0.908319
    outer loop
      vertex 25.854 -9 -11.9641
      vertex 25.1014 -8.0718 -12.5
      vertex 25.854 -8.03528 -12.3637
    endloop
  endfacet
  facet normal 0.182765 -0.128328 -0.974746
    outer loop
      vertex 25.854 -8.03528 -12.3637
      vertex 25.1014 -8.0718 -12.5
      vertex 25.1876 -7.94904 -12.5
    endloop
  endfacet
  facet normal 0.182765 -0.128328 -0.974746
    outer loop
      vertex 25.854 -8.03528 -12.3637
      vertex 25.1876 -7.94904 -12.5
      vertex 25.854 -7 -12.5
    endloop
  endfacet
  facet normal 1 0 0
    outer loop
      vertex 25.854 -8.29904 -9.25
      vertex 25.854 -7 -12.5
      vertex 25.854 -7.75 -9.79904
    endloop
  endfacet
  facet normal 1 0 0
    outer loop
      vertex 25.854 -7.75 -9.79904
      vertex 25.854 -7 -12.5
      vertex 25.854 -7 -10
    endloop
  endfacet
  facet normal 1 1.47957e-15 5.91389e-16
    outer loop
      vertex 25.854 -11 -8.5
      vertex 25.854 -7 -12.5
      vertex 25.854 -8.29904 -9.25
    endloop
  endfacet
  facet normal 1 1.42109e-15 3.80779e-16
    outer loop
      vertex 25.854 -11 -8.5
      vertex 25.854 -8.29904 -9.25
      vertex 25.854 -8.5 -8.5
    endloop
  endfacet
  facet normal 1 -2.9291e-15 -3.81728e-15
    outer loop
      vertex 25.854 -10.8637 -9.53528
      vertex 25.854 -7 -12.5
      vertex 25.854 -11 -8.5
    endloop
  endfacet
  facet normal 1 0 0
    outer loop
      vertex 25.854 -10.4641 -10.5
      vertex 25.854 -7 -12.5
      vertex 25.854 -10.8637 -9.53528
    endloop
  endfacet
  facet normal 1 0 0
    outer loop
      vertex 25.854 -9.82843 -11.3284
      vertex 25.854 -7 -12.5
      vertex 25.854 -10.4641 -10.5
    endloop
  endfacet
  facet normal 1 0 0
    outer loop
      vertex 25.854 -9 -11.9641
      vertex 25.854 -7 -12.5
      vertex 25.854 -9.82843 -11.3284
    endloop
  endfacet
  facet normal 1 0 0
    outer loop
      vertex 25.854 -8.03528 -12.3637
      vertex 25.854 -7 -12.5
      vertex 25.854 -9 -11.9641
    endloop
  endfacet
  facet normal 2.85971e-16 -0.258819 0.965926
    outer loop
      vertex 19.854 -7 -10
      vertex 25.854 -7 -10
      vertex 25.854 -6.25 -9.79904
    endloop
  endfacet
  facet normal 2.85971e-16 -0.258819 0.965926
    outer loop
      vertex 19.854 -6.25 -9.79904
      vertex 19.854 -7 -10
      vertex 25.854 -6.25 -9.79904
    endloop
  endfacet
  facet normal 2.06074e-16 -0.707107 0.707107
    outer loop
      vertex 25.854 -6.25 -9.79904
      vertex 25.854 -5.70096 -9.25
      vertex 19.854 -5.70096 -9.25
    endloop
  endfacet
  facet normal 2.09346e-16 -0.707107 0.707107
    outer loop
      vertex 19.854 -6.25 -9.79904
      vertex 25.854 -6.25 -9.79904
      vertex 19.854 -5.70096 -9.25
    endloop
  endfacet
  facet normal 7.54288e-17 -0.965926 0.258819
    outer loop
      vertex 25.854 -5.70096 -9.25
      vertex 25.854 -5.5 -8.5
      vertex 19.854 -5.5 -8.5
    endloop
  endfacet
  facet normal 7.66259e-17 -0.965926 0.258819
    outer loop
      vertex 19.854 -5.70096 -9.25
      vertex 25.854 -5.70096 -9.25
      vertex 19.854 -5.5 -8.5
    endloop
  endfacet
  facet normal -3.95111e-17 -0.965926 -0.258819
    outer loop
      vertex 25.854 -5.5 -8.5
      vertex 25.854 -5.70096 -7.75
      vertex 19.854 -5.70096 -7.75
    endloop
  endfacet
  facet normal -7.66259e-17 -0.965926 -0.258819
    outer loop
      vertex 19.854 -5.5 -8.5
      vertex 25.854 -5.5 -8.5
      vertex 19.854 -5.70096 -7.75
    endloop
  endfacet
  facet normal -2.06074e-16 -0.707107 -0.707107
    outer loop
      vertex 25.854 -5.70096 -7.75
      vertex 25.854 -6.25 -7.20096
      vertex 19.854 -6.25 -7.20096
    endloop
  endfacet
  facet normal -1.04673e-16 -0.707107 -0.707107
    outer loop
      vertex 19.854 -5.70096 -7.75
      vertex 25.854 -5.70096 -7.75
      vertex 19.854 -6.25 -7.20096
    endloop
  endfacet
  facet normal -2.85971e-16 -0.258819 -0.965926
    outer loop
      vertex 25.854 -7 -7
      vertex 19.854 -7 -7
      vertex 25.854 -6.25 -7.20096
    endloop
  endfacet
  facet normal -2.85971e-16 -0.258819 -0.965926
    outer loop
      vertex 25.854 -6.25 -7.20096
      vertex 19.854 -7 -7
      vertex 19.854 -6.25 -7.20096
    endloop
  endfacet
  facet normal -2.85971e-16 0.258819 -0.965926
    outer loop
      vertex 25.854 -7.75 -7.20096
      vertex 19.854 -7.75 -7.20096
      vertex 25.854 -7 -7
    endloop
  endfacet
  facet normal -2.85971e-16 0.258819 -0.965926
    outer loop
      vertex 25.854 -7 -7
      vertex 19.854 -7.75 -7.20096
      vertex 19.854 -7 -7
    endloop
  endfacet
  facet normal -2.09346e-16 0.707107 -0.707107
    outer loop
      vertex 25.854 -7.75 -7.20096
      vertex 25.854 -8.29904 -7.75
      vertex 19.854 -7.75 -7.20096
    endloop
  endfacet
  facet normal -9.81347e-17 0.707107 -0.707107
    outer loop
      vertex 19.854 -7.75 -7.20096
      vertex 25.854 -8.29904 -7.75
      vertex 19.854 -8.29904 -7.75
    endloop
  endfacet
  facet normal -3.83129e-17 0.965926 -0.258819
    outer loop
      vertex 25.854 -8.29904 -7.75
      vertex 25.854 -8.5 -8.5
      vertex 19.854 -8.29904 -7.75
    endloop
  endfacet
  facet normal -7.9019e-17 0.965926 -0.258819
    outer loop
      vertex 19.854 -8.29904 -7.75
      vertex 25.854 -8.5 -8.5
      vertex 19.854 -8.5 -8.5
    endloop
  endfacet
  facet normal 0.182765 -0.974746 -0.128328
    outer loop
      vertex 25.854 -11 -8.5
      vertex 17.854 -12.3126 -9.9235
      vertex 25.854 -10.8637 -9.53528
    endloop
  endfacet
  facet normal 0.182765 -0.974746 -0.128328
    outer loop
      vertex 17.854 -12.5 -8.5
      vertex 17.854 -12.3126 -9.9235
      vertex 25.854 -11 -8.5
    endloop
  endfacet
  facet normal 0.182765 -0.974746 0.128328
    outer loop
      vertex 25.854 -10.8637 -7.46472
      vertex 17.854 -12.5 -8.5
      vertex 25.854 -11 -8.5
    endloop
  endfacet
  facet normal 0.182765 -0.974746 0.128328
    outer loop
      vertex 17.854 -12.3126 -7.07649
      vertex 17.854 -12.5 -8.5
      vertex 25.854 -10.8637 -7.46472
    endloop
  endfacet
  facet normal 0.182765 -0.908319 0.376237
    outer loop
      vertex 25.854 -10.4641 -6.5
      vertex 17.854 -12.3126 -7.07649
      vertex 25.854 -10.8637 -7.46472
    endloop
  endfacet
  facet normal 0.182765 -0.908318 0.376238
    outer loop
      vertex 17.854 -11.7631 -5.75
      vertex 17.854 -12.3126 -7.07649
      vertex 25.854 -10.4641 -6.5
    endloop
  endfacet
  facet normal 0.182765 -0.77999 0.598508
    outer loop
      vertex 25.854 -9.82843 -5.67157
      vertex 17.854 -11.7631 -5.75
      vertex 25.854 -10.4641 -6.5
    endloop
  endfacet
  facet normal 0.182765 -0.77999 0.598508
    outer loop
      vertex 17.854 -10.8891 -4.61091
      vertex 17.854 -11.7631 -5.75
      vertex 25.854 -9.82843 -5.67157
    endloop
  endfacet
  facet normal 0.182765 -0.598508 0.77999
    outer loop
      vertex 25.854 -9 -5.0359
      vertex 17.854 -10.8891 -4.61091
      vertex 25.854 -9.82843 -5.67157
    endloop
  endfacet
  facet normal 0.182765 -0.598508 0.77999
    outer loop
      vertex 17.854 -10.7445 -4.5
      vertex 17.854 -10.8891 -4.61091
      vertex 25.854 -9 -5.0359
    endloop
  endfacet
  facet normal 0.182765 -0.598508 0.77999
    outer loop
      vertex 22.5537 -9.3094 -4.5
      vertex 17.854 -10.7445 -4.5
      vertex 25.854 -9 -5.0359
    endloop
  endfacet
  facet normal 0.182765 -0.376237 0.908319
    outer loop
      vertex 24.6417 -8.29512 -4.5
      vertex 22.5537 -9.3094 -4.5
      vertex 25.854 -9 -5.0359
    endloop
  endfacet
  facet normal 0.182765 -0.376237 0.908319
    outer loop
      vertex 25.854 -8.03528 -4.6363
      vertex 24.6417 -8.29512 -4.5
      vertex 25.854 -9 -5.0359
    endloop
  endfacet
  facet normal 0.182765 -0.376238 0.908318
    outer loop
      vertex 25.1014 -8.0718 -4.5
      vertex 24.6417 -8.29512 -4.5
      vertex 25.854 -8.03528 -4.6363
    endloop
  endfacet
  facet normal 0.182765 -0.128328 0.974746
    outer loop
      vertex 25.854 -7 -4.5
      vertex 25.1014 -8.0718 -4.5
      vertex 25.854 -8.03528 -4.6363
    endloop
  endfacet
  facet normal 2.09346e-16 0.707107 0.707107
    outer loop
      vertex -19.854 -7.75 -9.79904
      vertex -25.854 -7.75 -9.79904
      vertex -19.854 -8.29904 -9.25
    endloop
  endfacet
  facet normal 2.09346e-16 0.707107 0.707107
    outer loop
      vertex -19.854 -8.29904 -9.25
      vertex -25.854 -7.75 -9.79904
      vertex -25.854 -8.29904 -9.25
    endloop
  endfacet
  facet normal -0.182765 -0.908318 -0.376238
    outer loop
      vertex -17.854 -11.7631 -11.25
      vertex -17.854 -12.3126 -9.9235
      vertex -25.854 -10.8637 -9.53528
    endloop
  endfacet
  facet normal -0.182765 -0.908319 -0.376237
    outer loop
      vertex -25.854 -10.4641 -10.5
      vertex -17.854 -11.7631 -11.25
      vertex -25.854 -10.8637 -9.53528
    endloop
  endfacet
  facet normal -0.182765 -0.77999 -0.598508
    outer loop
      vertex -17.854 -10.8891 -12.3891
      vertex -17.854 -11.7631 -11.25
      vertex -25.854 -10.4641 -10.5
    endloop
  endfacet
  facet normal -0.182765 -0.77999 -0.598508
    outer loop
      vertex -25.854 -9.82843 -11.3284
      vertex -17.854 -10.8891 -12.3891
      vertex -25.854 -10.4641 -10.5
    endloop
  endfacet
  facet normal 2.88206e-16 0.258819 0.965926
    outer loop
      vertex -19.854 -7.75 -9.79904
      vertex -19.854 -7 -10
      vertex -25.854 -7 -10
    endloop
  endfacet
  facet normal 2.85971e-16 0.258819 0.965926
    outer loop
      vertex -25.854 -7.75 -9.79904
      vertex -19.854 -7.75 -9.79904
      vertex -25.854 -7 -10
    endloop
  endfacet
  facet normal 1 -5.94066e-31 -1.18908e-15
    outer loop
      vertex -19.854 -3.55 -8.5
      vertex -19.854 -5.275 -5.51221
      vertex -19.854 -8.725 -5.51221
    endloop
  endfacet
  facet normal 1 0 0
    outer loop
      vertex -19.854 -5.70096 -7.75
      vertex -19.854 -5.5 -8.5
      vertex -19.854 -3.55 -8.5
    endloop
  endfacet
  facet normal 1 4.46234e-15 6.53992e-15
    outer loop
      vertex -19.854 -6.25 -7.20096
      vertex -19.854 -3.55 -8.5
      vertex -19.854 -8.725 -5.51221
    endloop
  endfacet
  facet normal 1 0 0
    outer loop
      vertex -19.854 -5.275 -11.4878
      vertex -19.854 -3.55 -8.5
      vertex -19.854 -8.725 -11.4878
    endloop
  endfacet
  facet normal 1 0 0
    outer loop
      vertex -19.854 -8.725 -11.4878
      vertex -19.854 -3.55 -8.5
      vertex -19.854 -6.25 -9.79904
    endloop
  endfacet
  facet normal 1 0 0
    outer loop
      vertex -19.854 -8.29904 -9.25
      vertex -19.854 -8.5 -8.5
      vertex -19.854 -10.45 -8.5
    endloop
  endfacet
  facet normal 1 0 0
    outer loop
      vertex -19.854 -8.725 -11.4878
      vertex -19.854 -6.25 -9.79904
      vertex -19.854 -7 -10
    endloop
  endfacet
  facet normal 1 1.02977e-15 -5.94539e-16
    outer loop
      vertex -19.854 -8.725 -11.4878
      vertex -19.854 -7.75 -9.79904
      vertex -19.854 -10.45 -8.5
    endloop
  endfacet
  facet normal 1 0 0
    outer loop
      vertex -19.854 -8.725 -11.4878
      vertex -19.854 -7 -10
      vertex -19.854 -7.75 -9.79904
    endloop
  endfacet
  facet normal 1 0 0
    outer loop
      vertex -19.854 -10.45 -8.5
      vertex -19.854 -8.29904 -7.75
      vertex -19.854 -8.725 -5.51221
    endloop
  endfacet
  facet normal 1 0 0
    outer loop
      vertex -19.854 -8.29904 -7.75
      vertex -19.854 -7.75 -7.20096
      vertex -19.854 -8.725 -5.51221
    endloop
  endfacet
  facet normal 1 0 -0
    outer loop
      vertex -19.854 -5.5 -8.5
      vertex -19.854 -5.70096 -9.25
      vertex -19.854 -3.55 -8.5
    endloop
  endfacet
  facet normal 1 0 0
    outer loop
      vertex -19.854 -7.75 -7.20096
      vertex -19.854 -7 -7
      vertex -19.854 -8.725 -5.51221
    endloop
  endfacet
  facet normal 1 0 0
    outer loop
      vertex -19.854 -7 -7
      vertex -19.854 -6.25 -7.20096
      vertex -19.854 -8.725 -5.51221
    endloop
  endfacet
  facet normal 1 -3.46412e-15 -9.93492e-15
    outer loop
      vertex -19.854 -6.25 -7.20096
      vertex -19.854 -5.70096 -7.75
      vertex -19.854 -3.55 -8.5
    endloop
  endfacet
  facet normal 1 0 0
    outer loop
      vertex -19.854 -6.25 -9.79904
      vertex -19.854 -3.55 -8.5
      vertex -19.854 -5.70096 -9.25
    endloop
  endfacet
  facet normal 1 -3.46412e-15 -9.93492e-15
    outer loop
      vertex -19.854 -7.75 -9.79904
      vertex -19.854 -8.29904 -9.25
      vertex -19.854 -10.45 -8.5
    endloop
  endfacet
  facet normal 1 0 0
    outer loop
      vertex -19.854 -8.5 -8.5
      vertex -19.854 -8.29904 -7.75
      vertex -19.854 -10.45 -8.5
    endloop
  endfacet
  facet normal 0 0.866025 -0.5
    outer loop
      vertex -17.854 -8.725 -5.51221
      vertex -17.854 -10.45 -8.5
      vertex -19.854 -8.725 -5.51221
    endloop
  endfacet
  facet normal 0 0.866025 -0.5
    outer loop
      vertex -19.854 -8.725 -5.51221
      vertex -17.854 -10.45 -8.5
      vertex -19.854 -10.45 -8.5
    endloop
  endfacet
  facet normal -0 0.866025 0.5
    outer loop
      vertex -17.854 -10.45 -8.5
      vertex -17.854 -8.725 -11.4878
      vertex -19.854 -10.45 -8.5
    endloop
  endfacet
  facet normal 0 0.866025 0.5
    outer loop
      vertex -19.854 -10.45 -8.5
      vertex -17.854 -8.725 -11.4878
      vertex -19.854 -8.725 -11.4878
    endloop
  endfacet
  facet normal 0 5.14886e-16 1
    outer loop
      vertex -19.854 -8.725 -11.4878
      vertex -17.854 -8.725 -11.4878
      vertex -17.854 -5.275 -11.4878
    endloop
  endfacet
  facet normal -2.28655e-31 5.14886e-16 1
    outer loop
      vertex -19.854 -5.275 -11.4878
      vertex -19.854 -8.725 -11.4878
      vertex -17.854 -5.275 -11.4878
    endloop
  endfacet
  facet normal -1 -1.02977e-15 5.94539e-16
    outer loop
      vertex 19.854 -10.45 -8.5
      vertex 19.854 -8.725 -5.51221
      vertex 19.854 -8.725 -11.4878
    endloop
  endfacet
  facet normal -1 0 -0
    outer loop
      vertex 19.854 -7 -7
      vertex 19.854 -8.725 -5.51221
      vertex 19.854 -5.275 -5.51221
    endloop
  endfacet
  facet normal -1 1.08319e-30 1.18908e-15
    outer loop
      vertex 19.854 -5.5 -8.5
      vertex 19.854 -5.275 -5.51221
      vertex 19.854 -3.55 -8.5
    endloop
  endfacet
  facet normal -1 -0 0
    outer loop
      vertex 19.854 -8.725 -11.4878
      vertex 19.854 -3.55 -8.5
      vertex 19.854 -5.275 -11.4878
    endloop
  endfacet
  facet normal -1 -0 0
    outer loop
      vertex 19.854 -7 -7
      vertex 19.854 -5.275 -5.51221
      vertex 19.854 -6.25 -7.20096
    endloop
  endfacet
  facet normal -1 0 0
    outer loop
      vertex 19.854 -6.25 -9.79904
      vertex 19.854 -5.70096 -9.25
      vertex 19.854 -3.55 -8.5
    endloop
  endfacet
  facet normal -1 0 0
    outer loop
      vertex 19.854 -5.70096 -9.25
      vertex 19.854 -5.5 -8.5
      vertex 19.854 -3.55 -8.5
    endloop
  endfacet
  facet normal -1 -4.10232e-15 2.36848e-15
    outer loop
      vertex 19.854 -6.25 -7.20096
      vertex 19.854 -5.275 -5.51221
      vertex 19.854 -5.70096 -7.75
    endloop
  endfacet
  facet normal -1 0 -0
    outer loop
      vertex 19.854 -7.75 -7.20096
      vertex 19.854 -8.725 -5.51221
      vertex 19.854 -7 -7
    endloop
  endfacet
  facet normal -1 3.46412e-15 9.28208e-16
    outer loop
      vertex 19.854 -8.29904 -9.25
      vertex 19.854 -8.725 -11.4878
      vertex 19.854 -8.5 -8.5
    endloop
  endfacet
  facet normal -1 0 -0
    outer loop
      vertex 19.854 -8.29904 -7.75
      vertex 19.854 -8.725 -5.51221
      vertex 19.854 -7.75 -7.20096
    endloop
  endfacet
  facet normal -1 0 -0
    outer loop
      vertex 19.854 -8.5 -8.5
      vertex 19.854 -8.725 -5.51221
      vertex 19.854 -8.29904 -7.75
    endloop
  endfacet
  facet normal -1 7.89492e-15 5.94539e-16
    outer loop
      vertex 19.854 -8.725 -11.4878
      vertex 19.854 -8.725 -5.51221
      vertex 19.854 -8.5 -8.5
    endloop
  endfacet
  facet normal -1 -4.10232e-15 2.36848e-15
    outer loop
      vertex 19.854 -7.75 -9.79904
      vertex 19.854 -8.725 -11.4878
      vertex 19.854 -8.29904 -9.25
    endloop
  endfacet
  facet normal -1 0 0
    outer loop
      vertex 19.854 -7 -10
      vertex 19.854 -8.725 -11.4878
      vertex 19.854 -7.75 -9.79904
    endloop
  endfacet
  facet normal -1 0 0
    outer loop
      vertex 19.854 -6.25 -9.79904
      vertex 19.854 -8.725 -11.4878
      vertex 19.854 -7 -10
    endloop
  endfacet
  facet normal -1 0 0
    outer loop
      vertex 19.854 -8.725 -11.4878
      vertex 19.854 -6.25 -9.79904
      vertex 19.854 -3.55 -8.5
    endloop
  endfacet
  facet normal -1 3.46412e-15 9.28208e-16
    outer loop
      vertex 19.854 -5.70096 -7.75
      vertex 19.854 -5.275 -5.51221
      vertex 19.854 -5.5 -8.5
    endloop
  endfacet
  facet normal -9.9123e-16 0.866025 -0.5
    outer loop
      vertex 19.854 -8.725 -5.51221
      vertex 19.854 -10.45 -8.5
      vertex 17.854 -8.725 -5.51221
    endloop
  endfacet
  facet normal -7.18176e-16 0.866025 -0.5
    outer loop
      vertex 17.854 -8.725 -5.51221
      vertex 19.854 -10.45 -8.5
      vertex 17.854 -10.45 -8.5
    endloop
  endfacet
  facet normal 5.58269e-16 -0.866025 0.5
    outer loop
      vertex 19.854 -5.275 -11.4878
      vertex 19.854 -3.55 -8.5
      vertex 17.854 -3.55 -8.5
    endloop
  endfacet
  facet normal 0 -0.866025 0.5
    outer loop
      vertex 17.854 -5.275 -11.4878
      vertex 19.854 -5.275 -11.4878
      vertex 17.854 -3.55 -8.5
    endloop
  endfacet
  facet normal 0 5.14886e-16 1
    outer loop
      vertex 17.854 -8.725 -11.4878
      vertex 19.854 -8.725 -11.4878
      vertex 19.854 -5.275 -11.4878
    endloop
  endfacet
  facet normal 0 5.14886e-16 1
    outer loop
      vertex 17.854 -5.275 -11.4878
      vertex 17.854 -8.725 -11.4878
      vertex 19.854 -5.275 -11.4878
    endloop
  endfacet
  facet normal -7.69185e-16 0.866025 0.5
    outer loop
      vertex 19.854 -10.45 -8.5
      vertex 19.854 -8.725 -11.4878
      vertex 17.854 -10.45 -8.5
    endloop
  endfacet
  facet normal 0 0.866025 0.5
    outer loop
      vertex 17.854 -10.45 -8.5
      vertex 19.854 -8.725 -11.4878
      vertex 17.854 -8.725 -11.4878
    endloop
  endfacet
  facet normal 0.182765 -0.908318 -0.376238
    outer loop
      vertex 17.854 -12.3126 -9.9235
      vertex 17.854 -11.7631 -11.25
      vertex 25.854 -10.8637 -9.53528
    endloop
  endfacet
  facet normal 0.182765 -0.908319 -0.376237
    outer loop
      vertex 25.854 -10.8637 -9.53528
      vertex 17.854 -11.7631 -11.25
      vertex 25.854 -10.4641 -10.5
    endloop
  endfacet
  facet normal 0.182765 -0.77999 -0.598508
    outer loop
      vertex 17.854 -11.7631 -11.25
      vertex 17.854 -10.8891 -12.3891
      vertex 25.854 -10.4641 -10.5
    endloop
  endfacet
  facet normal 0.182765 -0.77999 -0.598508
    outer loop
      vertex 25.854 -10.4641 -10.5
      vertex 17.854 -10.8891 -12.3891
      vertex 25.854 -9.82843 -11.3284
    endloop
  endfacet
  facet normal 7.66259e-17 0.965926 0.258819
    outer loop
      vertex 25.854 -8.5 -8.5
      vertex 25.854 -8.29904 -9.25
      vertex 19.854 -8.5 -8.5
    endloop
  endfacet
  facet normal 0 0.965926 0.258819
    outer loop
      vertex 19.854 -8.5 -8.5
      vertex 25.854 -8.29904 -9.25
      vertex 19.854 -8.29904 -9.25
    endloop
  endfacet
  facet normal -0 0.707107 0.707107
    outer loop
      vertex 25.854 -8.29904 -9.25
      vertex 25.854 -7.75 -9.79904
      vertex 19.854 -8.29904 -9.25
    endloop
  endfacet
  facet normal 2.06074e-16 0.707107 0.707107
    outer loop
      vertex 19.854 -8.29904 -9.25
      vertex 25.854 -7.75 -9.79904
      vertex 19.854 -7.75 -9.79904
    endloop
  endfacet
  facet normal 2.85971e-16 0.258819 0.965926
    outer loop
      vertex 19.854 -7.75 -9.79904
      vertex 25.854 -7.75 -9.79904
      vertex 25.854 -7 -10
    endloop
  endfacet
  facet normal 2.85971e-16 0.258819 0.965926
    outer loop
      vertex 19.854 -7 -10
      vertex 19.854 -7.75 -9.79904
      vertex 25.854 -7 -10
    endloop
  endfacet
endsolid OpenSCAD_Model
