solid OpenSCAD_Model
  facet normal -1 -0 -0
    outer loop
      vertex -50 0 0
      vertex -50 0 4
      vertex -50 18 0
    endloop
  endfacet
  facet normal -1 0 0
    outer loop
      vertex -50 18 0
      vertex -50 0 4
      vertex -50 18 4
    endloop
  endfacet
  facet normal 0 -1 0
    outer loop
      vertex -50 0 4
      vertex -50 0 0
      vertex 39 0 0
    endloop
  endfacet
  facet normal 0 -1 0
    outer loop
      vertex 39 0 4
      vertex -50 0 4
      vertex 39 0 0
    endloop
  endfacet
  facet normal 0 0 -1
    outer loop
      vertex -2.58415 9.94055 0
      vertex -50 18 0
      vertex -9 18 0
    endloop
  endfacet
  facet normal 0 0 -1
    outer loop
      vertex -4.58415 50.9406 0
      vertex -9 18 0
      vertex -9 90 0
    endloop
  endfacet
  facet normal 0 -0 -1
    outer loop
      vertex 0.106622 81.7677 0
      vertex -9 90 0
      vertex 9 90 0
    endloop
  endfacet
  facet normal 0 0 -1
    outer loop
      vertex 21.4158 9.94055 0
      vertex -9 18 0
      vertex 9 18 0
    endloop
  endfacet
  facet normal 0 0 -1
    outer loop
      vertex -4.58415 79.0594 0
      vertex 9 18 0
      vertex -9 90 0
    endloop
  endfacet
  facet normal 0 0 -1
    outer loop
      vertex -32.3934 7.23233 0
      vertex 39 0 0
      vertex -34.0225 6.29178 0
    endloop
  endfacet
  facet normal 0 -0 -1
    outer loop
      vertex -50 0 0
      vertex -50 18 0
      vertex -37.0842 9.94055 0
    endloop
  endfacet
  facet normal 0 0 -1
    outer loop
      vertex -50 0 0
      vertex -37.0842 9.94055 0
      vertex -37.0842 8.05944 0
    endloop
  endfacet
  facet normal 0 0 -1
    outer loop
      vertex -50 0 0
      vertex -37.0842 8.05944 0
      vertex -35.875 6.61843 0
    endloop
  endfacet
  facet normal 0 0 -1
    outer loop
      vertex -50 0 0
      vertex -35.875 6.61843 0
      vertex -34.0225 6.29178 0
    endloop
  endfacet
  facet normal -0 0 -1
    outer loop
      vertex -50 0 0
      vertex -34.0225 6.29178 0
      vertex 39 0 0
    endloop
  endfacet
  facet normal 0 0 -1
    outer loop
      vertex -31.75 9 0
      vertex 39 0 0
      vertex -32.3934 7.23233 0
    endloop
  endfacet
  facet normal 0 0 -1
    outer loop
      vertex -32.3934 10.7677 0
      vertex 39 0 0
      vertex -31.75 9 0
    endloop
  endfacet
  facet normal 0 0 -1
    outer loop
      vertex -1.52247 47.2918 0
      vertex 9 18 0
      vertex -3.375 47.6184 0
    endloop
  endfacet
  facet normal 0 -0 -1
    outer loop
      vertex -35.875 11.3816 0
      vertex -50 18 0
      vertex -34.0225 11.7082 0
    endloop
  endfacet
  facet normal -0 -0 -1
    outer loop
      vertex -32.3934 10.7677 0
      vertex -34.0225 11.7082 0
      vertex 39 0 0
    endloop
  endfacet
  facet normal 0 -0 -1
    outer loop
      vertex -37.0842 9.94055 0
      vertex -50 18 0
      vertex -35.875 11.3816 0
    endloop
  endfacet
  facet normal 0 0 -1
    outer loop
      vertex -4.58415 49.0594 0
      vertex -9 18 0
      vertex -4.58415 50.9406 0
    endloop
  endfacet
  facet normal 0 0 -1
    outer loop
      vertex -3.375 52.3816 0
      vertex -4.58415 50.9406 0
      vertex -9 90 0
    endloop
  endfacet
  facet normal 0 0 -1
    outer loop
      vertex 9 18 0
      vertex -9 18 0
      vertex -4.58415 49.0594 0
    endloop
  endfacet
  facet normal 0 0 -1
    outer loop
      vertex 9 18 0
      vertex -4.58415 49.0594 0
      vertex -3.375 47.6184 0
    endloop
  endfacet
  facet normal -0 -0 -1
    outer loop
      vertex -1.52247 52.7082 0
      vertex -9 90 0
      vertex 0.106622 51.7677 0
    endloop
  endfacet
  facet normal 0 0 -1
    outer loop
      vertex 9 18 0
      vertex -1.52247 47.2918 0
      vertex 0.106622 48.2323 0
    endloop
  endfacet
  facet normal 0 0 -1
    outer loop
      vertex 9 18 0
      vertex 0.106622 48.2323 0
      vertex 0.75 50 0
    endloop
  endfacet
  facet normal 0 0 -1
    outer loop
      vertex 9 18 0
      vertex 0.75 50 0
      vertex -9 90 0
    endloop
  endfacet
  facet normal 0 0 -1
    outer loop
      vertex 0.75 50 0
      vertex 0.106622 51.7677 0
      vertex -9 90 0
    endloop
  endfacet
  facet normal 0 -0 -1
    outer loop
      vertex -3.375 52.3816 0
      vertex -9 90 0
      vertex -1.52247 52.7082 0
    endloop
  endfacet
  facet normal 0 -0 -1
    outer loop
      vertex -4.58415 80.9406 0
      vertex -9 90 0
      vertex -3.375 82.3816 0
    endloop
  endfacet
  facet normal -0 0 -1
    outer loop
      vertex 0.106622 81.7677 0
      vertex 9 90 0
      vertex 0.75 80 0
    endloop
  endfacet
  facet normal 0 0 -1
    outer loop
      vertex -4.58415 80.9406 0
      vertex -4.58415 79.0594 0
      vertex -9 90 0
    endloop
  endfacet
  facet normal 0 0 -1
    outer loop
      vertex 39 18 0
      vertex 39 0 0
      vertex 26.1066 10.7677 0
    endloop
  endfacet
  facet normal 0 0 -1
    outer loop
      vertex 0.106622 78.2323 0
      vertex 0.75 80 0
      vertex 9 90 0
    endloop
  endfacet
  facet normal -0 -0 -1
    outer loop
      vertex -1.52247 82.7082 0
      vertex -9 90 0
      vertex 0.106622 81.7677 0
    endloop
  endfacet
  facet normal 0 0 -1
    outer loop
      vertex -2.58415 8.05944 0
      vertex -50 18 0
      vertex -2.58415 9.94055 0
    endloop
  endfacet
  facet normal 0 -0 -1
    outer loop
      vertex -3.375 82.3816 0
      vertex -9 90 0
      vertex -1.52247 82.7082 0
    endloop
  endfacet
  facet normal 0 0 -1
    outer loop
      vertex -1.375 11.3816 0
      vertex -2.58415 9.94055 0
      vertex -9 18 0
    endloop
  endfacet
  facet normal -0 -0 -1
    outer loop
      vertex -34.0225 11.7082 0
      vertex -50 18 0
      vertex -2.58415 8.05944 0
    endloop
  endfacet
  facet normal 0 0 -1
    outer loop
      vertex -34.0225 11.7082 0
      vertex -2.58415 8.05944 0
      vertex -1.375 6.61843 0
    endloop
  endfacet
  facet normal 0 0 -1
    outer loop
      vertex -34.0225 11.7082 0
      vertex -1.375 6.61843 0
      vertex 0.477532 6.29178 0
    endloop
  endfacet
  facet normal 0 0 -1
    outer loop
      vertex -34.0225 11.7082 0
      vertex 0.477532 6.29178 0
      vertex 39 0 0
    endloop
  endfacet
  facet normal 0 0 -1
    outer loop
      vertex 2.10662 7.23233 0
      vertex 39 0 0
      vertex 0.477532 6.29178 0
    endloop
  endfacet
  facet normal 0 0 -1
    outer loop
      vertex 2.75 9 0
      vertex 39 0 0
      vertex 2.10662 7.23233 0
    endloop
  endfacet
  facet normal 0 -0 -1
    outer loop
      vertex -1.375 11.3816 0
      vertex -9 18 0
      vertex 0.477532 11.7082 0
    endloop
  endfacet
  facet normal 0 0 -1
    outer loop
      vertex 39 0 0
      vertex 2.75 9 0
      vertex 2.10662 10.7677 0
    endloop
  endfacet
  facet normal 0 0 -1
    outer loop
      vertex 39 0 0
      vertex 2.10662 10.7677 0
      vertex -9 18 0
    endloop
  endfacet
  facet normal 0 0 -1
    outer loop
      vertex 2.10662 10.7677 0
      vertex 0.477532 11.7082 0
      vertex -9 18 0
    endloop
  endfacet
  facet normal 0 -0 -1
    outer loop
      vertex 21.4158 9.94055 0
      vertex 9 18 0
      vertex 22.625 11.3816 0
    endloop
  endfacet
  facet normal 0 0 -1
    outer loop
      vertex 21.4158 8.05944 0
      vertex -9 18 0
      vertex 21.4158 9.94055 0
    endloop
  endfacet
  facet normal 0 0 -1
    outer loop
      vertex 26.1066 7.23233 0
      vertex 39 0 0
      vertex 24.4775 6.29178 0
    endloop
  endfacet
  facet normal 0 0 -1
    outer loop
      vertex 22.625 6.61843 0
      vertex -9 18 0
      vertex 21.4158 8.05944 0
    endloop
  endfacet
  facet normal 0 0 -1
    outer loop
      vertex 39 0 0
      vertex -9 18 0
      vertex 22.625 6.61843 0
    endloop
  endfacet
  facet normal 0 0 -1
    outer loop
      vertex 39 0 0
      vertex 22.625 6.61843 0
      vertex 24.4775 6.29178 0
    endloop
  endfacet
  facet normal 0 0 -1
    outer loop
      vertex 26.75 9 0
      vertex 39 0 0
      vertex 26.1066 7.23233 0
    endloop
  endfacet
  facet normal 0 0 -1
    outer loop
      vertex 39 18 0
      vertex 24.4775 11.7082 0
      vertex 9 18 0
    endloop
  endfacet
  facet normal 0 0 -1
    outer loop
      vertex 39 0 0
      vertex 26.75 9 0
      vertex 26.1066 10.7677 0
    endloop
  endfacet
  facet normal 0 -0 -1
    outer loop
      vertex 22.625 11.3816 0
      vertex 9 18 0
      vertex 24.4775 11.7082 0
    endloop
  endfacet
  facet normal 0 0 -1
    outer loop
      vertex 39 18 0
      vertex 26.1066 10.7677 0
      vertex 24.4775 11.7082 0
    endloop
  endfacet
  facet normal 0 0 -1
    outer loop
      vertex -3.375 77.6184 0
      vertex 9 18 0
      vertex -4.58415 79.0594 0
    endloop
  endfacet
  facet normal 0 0 -1
    outer loop
      vertex 9 18 0
      vertex -3.375 77.6184 0
      vertex -1.52247 77.2918 0
    endloop
  endfacet
  facet normal 0 0 -1
    outer loop
      vertex 9 18 0
      vertex -1.52247 77.2918 0
      vertex 0.106622 78.2323 0
    endloop
  endfacet
  facet normal 0 0 -1
    outer loop
      vertex 9 18 0
      vertex 0.106622 78.2323 0
      vertex 9 90 0
    endloop
  endfacet
  facet normal 0 1 0
    outer loop
      vertex -50 18 0
      vertex -50 18 4
      vertex -9 18 0
    endloop
  endfacet
  facet normal 0 1 0
    outer loop
      vertex -9 18 0
      vertex -50 18 4
      vertex -9 18 4
    endloop
  endfacet
  facet normal 0 -0 1
    outer loop
      vertex -34.0225 6.29178 4
      vertex -50 0 4
      vertex 39 0 4
    endloop
  endfacet
  facet normal -0 -0 1
    outer loop
      vertex 22.625 6.61843 4
      vertex -9 18 4
      vertex 39 0 4
    endloop
  endfacet
  facet normal 0 -0 1
    outer loop
      vertex 0.106622 48.2323 4
      vertex -9 18 4
      vertex 9 18 4
    endloop
  endfacet
  facet normal -0 0 1
    outer loop
      vertex -34.0225 6.29178 4
      vertex -35.875 6.61843 4
      vertex -50 0 4
    endloop
  endfacet
  facet normal 0 -0 1
    outer loop
      vertex -50 18 4
      vertex -50 0 4
      vertex -37.0842 8.05944 4
    endloop
  endfacet
  facet normal 0 -0 1
    outer loop
      vertex -31.75 9 4
      vertex -32.3934 7.23233 4
      vertex 39 0 4
    endloop
  endfacet
  facet normal 0 0 1
    outer loop
      vertex -50 18 4
      vertex -37.0842 8.05944 4
      vertex -37.0842 9.94055 4
    endloop
  endfacet
  facet normal 0 0 1
    outer loop
      vertex -32.3934 10.7677 4
      vertex -31.75 9 4
      vertex 39 0 4
    endloop
  endfacet
  facet normal 0 0 1
    outer loop
      vertex -50 18 4
      vertex -37.0842 9.94055 4
      vertex -35.875 11.3816 4
    endloop
  endfacet
  facet normal -0 -0 1
    outer loop
      vertex 0.477532 6.29178 4
      vertex -34.0225 11.7082 4
      vertex 39 0 4
    endloop
  endfacet
  facet normal 0 0 1
    outer loop
      vertex -50 18 4
      vertex -35.875 11.3816 4
      vertex -34.0225 11.7082 4
    endloop
  endfacet
  facet normal 0 -0 1
    outer loop
      vertex -32.3934 7.23233 4
      vertex -34.0225 6.29178 4
      vertex 39 0 4
    endloop
  endfacet
  facet normal -0 0 1
    outer loop
      vertex -3.375 47.6184 4
      vertex -4.58415 49.0594 4
      vertex -9 18 4
    endloop
  endfacet
  facet normal 0 -0 1
    outer loop
      vertex -37.0842 8.05944 4
      vertex -50 0 4
      vertex -35.875 6.61843 4
    endloop
  endfacet
  facet normal 0 0 1
    outer loop
      vertex -34.0225 11.7082 4
      vertex -32.3934 10.7677 4
      vertex 39 0 4
    endloop
  endfacet
  facet normal 0 0 1
    outer loop
      vertex -1.52247 52.7082 4
      vertex 0.106622 51.7677 4
      vertex 9 90 4
    endloop
  endfacet
  facet normal 0 0 1
    outer loop
      vertex -4.58415 50.9406 4
      vertex -3.375 52.3816 4
      vertex 9 90 4
    endloop
  endfacet
  facet normal 0 0 1
    outer loop
      vertex -3.375 82.3816 4
      vertex -1.52247 82.7082 4
      vertex 9 90 4
    endloop
  endfacet
  facet normal 0 0 1
    outer loop
      vertex -2.58415 8.05944 4
      vertex -2.58415 9.94055 4
      vertex -50 18 4
    endloop
  endfacet
  facet normal 0 0 1
    outer loop
      vertex 9 90 4
      vertex -3.375 52.3816 4
      vertex -1.52247 52.7082 4
    endloop
  endfacet
  facet normal 0 0 1
    outer loop
      vertex 0.106622 48.2323 4
      vertex -1.52247 47.2918 4
      vertex -9 18 4
    endloop
  endfacet
  facet normal 0 0 1
    outer loop
      vertex 9 90 4
      vertex 0.75 50 4
      vertex 9 18 4
    endloop
  endfacet
  facet normal 0 0 1
    outer loop
      vertex 9 90 4
      vertex 0.106622 51.7677 4
      vertex 0.75 50 4
    endloop
  endfacet
  facet normal -0 0 1
    outer loop
      vertex -1.52247 47.2918 4
      vertex -3.375 47.6184 4
      vertex -9 18 4
    endloop
  endfacet
  facet normal 0 -0 1
    outer loop
      vertex 0.75 50 4
      vertex 0.106622 48.2323 4
      vertex 9 18 4
    endloop
  endfacet
  facet normal -0 0 1
    outer loop
      vertex -4.58415 80.9406 4
      vertex -9 90 4
      vertex -4.58415 79.0594 4
    endloop
  endfacet
  facet normal -0 0 1
    outer loop
      vertex -3.375 82.3816 4
      vertex -9 90 4
      vertex -4.58415 80.9406 4
    endloop
  endfacet
  facet normal 0 0 1
    outer loop
      vertex -1.52247 82.7082 4
      vertex 0.106622 81.7677 4
      vertex 9 90 4
    endloop
  endfacet
  facet normal 0 0 1
    outer loop
      vertex 9 90 4
      vertex -9 90 4
      vertex -3.375 82.3816 4
    endloop
  endfacet
  facet normal 0 0 1
    outer loop
      vertex 9 90 4
      vertex 0.106622 81.7677 4
      vertex 0.75 80 4
    endloop
  endfacet
  facet normal 0 0 1
    outer loop
      vertex 9 90 4
      vertex 0.106622 78.2323 4
      vertex -4.58415 50.9406 4
    endloop
  endfacet
  facet normal 0 0 1
    outer loop
      vertex 22.625 6.61843 4
      vertex 21.4158 8.05944 4
      vertex -9 18 4
    endloop
  endfacet
  facet normal 0 0 1
    outer loop
      vertex -50 18 4
      vertex -34.0225 11.7082 4
      vertex -2.58415 8.05944 4
    endloop
  endfacet
  facet normal 0 -0 1
    outer loop
      vertex 2.10662 7.23233 4
      vertex 0.477532 6.29178 4
      vertex 39 0 4
    endloop
  endfacet
  facet normal 0 -0 1
    outer loop
      vertex -9 18 4
      vertex -50 18 4
      vertex -2.58415 9.94055 4
    endloop
  endfacet
  facet normal 0 -0 1
    outer loop
      vertex 2.75 9 4
      vertex 2.10662 7.23233 4
      vertex 39 0 4
    endloop
  endfacet
  facet normal 0 0 1
    outer loop
      vertex -9 18 4
      vertex -2.58415 9.94055 4
      vertex -1.375 11.3816 4
    endloop
  endfacet
  facet normal 0 0 1
    outer loop
      vertex -9 18 4
      vertex 0.477532 11.7082 4
      vertex 39 0 4
    endloop
  endfacet
  facet normal 0 0 1
    outer loop
      vertex -9 18 4
      vertex -1.375 11.3816 4
      vertex 0.477532 11.7082 4
    endloop
  endfacet
  facet normal 0 0 1
    outer loop
      vertex 0.477532 11.7082 4
      vertex 2.10662 10.7677 4
      vertex 39 0 4
    endloop
  endfacet
  facet normal 0 0 1
    outer loop
      vertex 2.10662 10.7677 4
      vertex 2.75 9 4
      vertex 39 0 4
    endloop
  endfacet
  facet normal 0 -0 1
    outer loop
      vertex 26.75 9 4
      vertex 26.1066 7.23233 4
      vertex 39 0 4
    endloop
  endfacet
  facet normal -0 -0 1
    outer loop
      vertex -1.375 6.61843 4
      vertex -34.0225 11.7082 4
      vertex 0.477532 6.29178 4
    endloop
  endfacet
  facet normal -0 -0 1
    outer loop
      vertex -2.58415 8.05944 4
      vertex -34.0225 11.7082 4
      vertex -1.375 6.61843 4
    endloop
  endfacet
  facet normal 0 -0 1
    outer loop
      vertex 9 18 4
      vertex -9 18 4
      vertex 21.4158 8.05944 4
    endloop
  endfacet
  facet normal 0 0 1
    outer loop
      vertex 26.1066 10.7677 4
      vertex 26.75 9 4
      vertex 39 0 4
    endloop
  endfacet
  facet normal 0 0 1
    outer loop
      vertex 9 18 4
      vertex 21.4158 8.05944 4
      vertex 21.4158 9.94055 4
    endloop
  endfacet
  facet normal 0 0 1
    outer loop
      vertex 39 18 4
      vertex 9 18 4
      vertex 22.625 11.3816 4
    endloop
  endfacet
  facet normal 0 0 1
    outer loop
      vertex 39 18 4
      vertex 22.625 11.3816 4
      vertex 24.4775 11.7082 4
    endloop
  endfacet
  facet normal 0 0 1
    outer loop
      vertex 39 18 4
      vertex 26.1066 10.7677 4
      vertex 39 0 4
    endloop
  endfacet
  facet normal 0 0 1
    outer loop
      vertex 39 18 4
      vertex 24.4775 11.7082 4
      vertex 26.1066 10.7677 4
    endloop
  endfacet
  facet normal 0 -0 1
    outer loop
      vertex 26.1066 7.23233 4
      vertex 24.4775 6.29178 4
      vertex 39 0 4
    endloop
  endfacet
  facet normal -0 -0 1
    outer loop
      vertex 24.4775 6.29178 4
      vertex 22.625 6.61843 4
      vertex 39 0 4
    endloop
  endfacet
  facet normal 0 0 1
    outer loop
      vertex 21.4158 9.94055 4
      vertex 22.625 11.3816 4
      vertex 9 18 4
    endloop
  endfacet
  facet normal 0 -0 1
    outer loop
      vertex 0.75 80 4
      vertex 0.106622 78.2323 4
      vertex 9 90 4
    endloop
  endfacet
  facet normal 0 -0 1
    outer loop
      vertex -1.52247 77.2918 4
      vertex -4.58415 50.9406 4
      vertex 0.106622 78.2323 4
    endloop
  endfacet
  facet normal 0 -0 1
    outer loop
      vertex -3.375 77.6184 4
      vertex -4.58415 50.9406 4
      vertex -1.52247 77.2918 4
    endloop
  endfacet
  facet normal 0 -0 1
    outer loop
      vertex -4.58415 79.0594 4
      vertex -4.58415 50.9406 4
      vertex -3.375 77.6184 4
    endloop
  endfacet
  facet normal 0 0 1
    outer loop
      vertex -9 90 4
      vertex -4.58415 50.9406 4
      vertex -4.58415 79.0594 4
    endloop
  endfacet
  facet normal 0 0 1
    outer loop
      vertex -9 90 4
      vertex -4.58415 49.0594 4
      vertex -4.58415 50.9406 4
    endloop
  endfacet
  facet normal 0 -0 1
    outer loop
      vertex -9 90 4
      vertex -9 18 4
      vertex -4.58415 49.0594 4
    endloop
  endfacet
  facet normal 1 0 -0
    outer loop
      vertex 39 0 4
      vertex 39 0 0
      vertex 39 18 0
    endloop
  endfacet
  facet normal 1 0 0
    outer loop
      vertex 39 18 4
      vertex 39 0 4
      vertex 39 18 0
    endloop
  endfacet
  facet normal 0 1 0
    outer loop
      vertex 9 18 0
      vertex 9 18 4
      vertex 39 18 0
    endloop
  endfacet
  facet normal 0 1 0
    outer loop
      vertex 39 18 0
      vertex 9 18 4
      vertex 39 18 4
    endloop
  endfacet
  facet normal 1 0 -0
    outer loop
      vertex 9 18 4
      vertex 9 18 0
      vertex 9 90 0
    endloop
  endfacet
  facet normal 1 0 0
    outer loop
      vertex 9 90 4
      vertex 9 18 4
      vertex 9 90 0
    endloop
  endfacet
  facet normal 0 1 0
    outer loop
      vertex -9 90 0
      vertex -9 90 4
      vertex 9 90 0
    endloop
  endfacet
  facet normal 0 1 0
    outer loop
      vertex 9 90 0
      vertex -9 90 4
      vertex 9 90 4
    endloop
  endfacet
  facet normal -1 -0 -0
    outer loop
      vertex -9 18 0
      vertex -9 18 4
      vertex -9 90 0
    endloop
  endfacet
  facet normal -1 0 0
    outer loop
      vertex -9 90 0
      vertex -9 18 4
      vertex -9 90 4
    endloop
  endfacet
  facet normal 0.766044 -0.642788 0
    outer loop
      vertex -35.875 11.3816 0
      vertex -35.875 11.3816 4
      vertex -37.0842 9.94055 4
    endloop
  endfacet
  facet normal 0.766044 -0.642788 0
    outer loop
      vertex -37.0842 9.94055 0
      vertex -35.875 11.3816 0
      vertex -37.0842 9.94055 4
    endloop
  endfacet
  facet normal 1 0 0
    outer loop
      vertex -37.0842 9.94055 0
      vertex -37.0842 9.94055 4
      vertex -37.0842 8.05944 4
    endloop
  endfacet
  facet normal 1 0 0
    outer loop
      vertex -37.0842 8.05944 0
      vertex -37.0842 9.94055 0
      vertex -37.0842 8.05944 4
    endloop
  endfacet
  facet normal 0.173648 -0.984808 0
    outer loop
      vertex -34.0225 11.7082 0
      vertex -34.0225 11.7082 4
      vertex -35.875 11.3816 4
    endloop
  endfacet
  facet normal 0.173648 -0.984808 0
    outer loop
      vertex -35.875 11.3816 0
      vertex -34.0225 11.7082 0
      vertex -35.875 11.3816 4
    endloop
  endfacet
  facet normal -0.5 -0.866026 -0
    outer loop
      vertex -32.3934 10.7677 0
      vertex -32.3934 10.7677 4
      vertex -34.0225 11.7082 4
    endloop
  endfacet
  facet normal -0.5 -0.866026 -0
    outer loop
      vertex -34.0225 11.7082 0
      vertex -32.3934 10.7677 0
      vertex -34.0225 11.7082 4
    endloop
  endfacet
  facet normal -0.939693 -0.34202 0
    outer loop
      vertex -31.75 9 4
      vertex -32.3934 10.7677 4
      vertex -31.75 9 0
    endloop
  endfacet
  facet normal -0.939693 -0.34202 0
    outer loop
      vertex -31.75 9 0
      vertex -32.3934 10.7677 4
      vertex -32.3934 10.7677 0
    endloop
  endfacet
  facet normal -0.939693 0.34202 0
    outer loop
      vertex -31.75 9 4
      vertex -31.75 9 0
      vertex -32.3934 7.23233 4
    endloop
  endfacet
  facet normal -0.939693 0.34202 0
    outer loop
      vertex -32.3934 7.23233 4
      vertex -31.75 9 0
      vertex -32.3934 7.23233 0
    endloop
  endfacet
  facet normal -0.5 0.866026 0
    outer loop
      vertex -32.3934 7.23233 4
      vertex -32.3934 7.23233 0
      vertex -34.0225 6.29178 4
    endloop
  endfacet
  facet normal -0.5 0.866026 0
    outer loop
      vertex -34.0225 6.29178 4
      vertex -32.3934 7.23233 0
      vertex -34.0225 6.29178 0
    endloop
  endfacet
  facet normal 0.173648 0.984808 -0
    outer loop
      vertex -34.0225 6.29178 4
      vertex -34.0225 6.29178 0
      vertex -35.875 6.61843 4
    endloop
  endfacet
  facet normal 0.173648 0.984808 -0
    outer loop
      vertex -35.875 6.61843 4
      vertex -34.0225 6.29178 0
      vertex -35.875 6.61843 0
    endloop
  endfacet
  facet normal 0.766044 0.642788 0
    outer loop
      vertex -37.0842 8.05944 4
      vertex -35.875 6.61843 4
      vertex -35.875 6.61843 0
    endloop
  endfacet
  facet normal 0.766044 0.642788 0
    outer loop
      vertex -37.0842 8.05944 0
      vertex -37.0842 8.05944 4
      vertex -35.875 6.61843 0
    endloop
  endfacet
  facet normal 0.766044 -0.642788 0
    outer loop
      vertex -3.375 52.3816 0
      vertex -3.375 52.3816 4
      vertex -4.58415 50.9406 4
    endloop
  endfacet
  facet normal 0.766044 -0.642788 0
    outer loop
      vertex -4.58415 50.9406 0
      vertex -3.375 52.3816 0
      vertex -4.58415 50.9406 4
    endloop
  endfacet
  facet normal 1 0 0
    outer loop
      vertex -4.58415 50.9406 0
      vertex -4.58415 50.9406 4
      vertex -4.58415 49.0594 4
    endloop
  endfacet
  facet normal 1 0 0
    outer loop
      vertex -4.58415 49.0594 0
      vertex -4.58415 50.9406 0
      vertex -4.58415 49.0594 4
    endloop
  endfacet
  facet normal 0.173648 -0.984808 0
    outer loop
      vertex -1.52247 52.7082 0
      vertex -1.52247 52.7082 4
      vertex -3.375 52.3816 4
    endloop
  endfacet
  facet normal 0.173648 -0.984808 0
    outer loop
      vertex -3.375 52.3816 0
      vertex -1.52247 52.7082 0
      vertex -3.375 52.3816 4
    endloop
  endfacet
  facet normal -0.5 -0.866026 -0
    outer loop
      vertex 0.106622 51.7677 0
      vertex 0.106622 51.7677 4
      vertex -1.52247 52.7082 4
    endloop
  endfacet
  facet normal -0.5 -0.866026 -0
    outer loop
      vertex -1.52247 52.7082 0
      vertex 0.106622 51.7677 0
      vertex -1.52247 52.7082 4
    endloop
  endfacet
  facet normal -0.939693 -0.34202 0
    outer loop
      vertex 0.75 50 4
      vertex 0.106622 51.7677 4
      vertex 0.75 50 0
    endloop
  endfacet
  facet normal -0.939693 -0.34202 0
    outer loop
      vertex 0.75 50 0
      vertex 0.106622 51.7677 4
      vertex 0.106622 51.7677 0
    endloop
  endfacet
  facet normal -0.939693 0.34202 0
    outer loop
      vertex 0.75 50 4
      vertex 0.75 50 0
      vertex 0.106622 48.2323 4
    endloop
  endfacet
  facet normal -0.939693 0.34202 0
    outer loop
      vertex 0.106622 48.2323 4
      vertex 0.75 50 0
      vertex 0.106622 48.2323 0
    endloop
  endfacet
  facet normal -0.5 0.866026 0
    outer loop
      vertex 0.106622 48.2323 4
      vertex 0.106622 48.2323 0
      vertex -1.52247 47.2918 4
    endloop
  endfacet
  facet normal -0.5 0.866026 0
    outer loop
      vertex -1.52247 47.2918 4
      vertex 0.106622 48.2323 0
      vertex -1.52247 47.2918 0
    endloop
  endfacet
  facet normal 0.173648 0.984808 -0
    outer loop
      vertex -1.52247 47.2918 4
      vertex -1.52247 47.2918 0
      vertex -3.375 47.6184 4
    endloop
  endfacet
  facet normal 0.173648 0.984808 -0
    outer loop
      vertex -3.375 47.6184 4
      vertex -1.52247 47.2918 0
      vertex -3.375 47.6184 0
    endloop
  endfacet
  facet normal 0.766044 0.642788 0
    outer loop
      vertex -4.58415 49.0594 4
      vertex -3.375 47.6184 4
      vertex -3.375 47.6184 0
    endloop
  endfacet
  facet normal 0.766044 0.642788 0
    outer loop
      vertex -4.58415 49.0594 0
      vertex -4.58415 49.0594 4
      vertex -3.375 47.6184 0
    endloop
  endfacet
  facet normal 1 0 0
    outer loop
      vertex -4.58415 80.9406 0
      vertex -4.58415 80.9406 4
      vertex -4.58415 79.0594 4
    endloop
  endfacet
  facet normal 1 0 0
    outer loop
      vertex -4.58415 79.0594 0
      vertex -4.58415 80.9406 0
      vertex -4.58415 79.0594 4
    endloop
  endfacet
  facet normal 0.766044 -0.642788 0
    outer loop
      vertex -3.375 82.3816 0
      vertex -3.375 82.3816 4
      vertex -4.58415 80.9406 4
    endloop
  endfacet
  facet normal 0.766044 -0.642788 0
    outer loop
      vertex -4.58415 80.9406 0
      vertex -3.375 82.3816 0
      vertex -4.58415 80.9406 4
    endloop
  endfacet
  facet normal 0.173648 -0.984808 0
    outer loop
      vertex -1.52247 82.7082 0
      vertex -1.52247 82.7082 4
      vertex -3.375 82.3816 4
    endloop
  endfacet
  facet normal 0.173648 -0.984808 0
    outer loop
      vertex -3.375 82.3816 0
      vertex -1.52247 82.7082 0
      vertex -3.375 82.3816 4
    endloop
  endfacet
  facet normal -0.5 -0.866026 -0
    outer loop
      vertex 0.106622 81.7677 0
      vertex 0.106622 81.7677 4
      vertex -1.52247 82.7082 4
    endloop
  endfacet
  facet normal -0.5 -0.866026 -0
    outer loop
      vertex -1.52247 82.7082 0
      vertex 0.106622 81.7677 0
      vertex -1.52247 82.7082 4
    endloop
  endfacet
  facet normal -0.939693 -0.34202 0
    outer loop
      vertex 0.75 80 4
      vertex 0.106622 81.7677 4
      vertex 0.75 80 0
    endloop
  endfacet
  facet normal -0.939693 -0.34202 0
    outer loop
      vertex 0.75 80 0
      vertex 0.106622 81.7677 4
      vertex 0.106622 81.7677 0
    endloop
  endfacet
  facet normal -0.939693 0.34202 0
    outer loop
      vertex 0.75 80 4
      vertex 0.75 80 0
      vertex 0.106622 78.2323 4
    endloop
  endfacet
  facet normal -0.939693 0.34202 0
    outer loop
      vertex 0.106622 78.2323 4
      vertex 0.75 80 0
      vertex 0.106622 78.2323 0
    endloop
  endfacet
  facet normal -0.5 0.866026 0
    outer loop
      vertex 0.106622 78.2323 4
      vertex 0.106622 78.2323 0
      vertex -1.52247 77.2918 4
    endloop
  endfacet
  facet normal -0.5 0.866026 0
    outer loop
      vertex -1.52247 77.2918 4
      vertex 0.106622 78.2323 0
      vertex -1.52247 77.2918 0
    endloop
  endfacet
  facet normal 0.173648 0.984808 -0
    outer loop
      vertex -1.52247 77.2918 4
      vertex -1.52247 77.2918 0
      vertex -3.375 77.6184 4
    endloop
  endfacet
  facet normal 0.173648 0.984808 -0
    outer loop
      vertex -3.375 77.6184 4
      vertex -1.52247 77.2918 0
      vertex -3.375 77.6184 0
    endloop
  endfacet
  facet normal 0.766044 0.642788 0
    outer loop
      vertex -4.58415 79.0594 4
      vertex -3.375 77.6184 4
      vertex -3.375 77.6184 0
    endloop
  endfacet
  facet normal 0.766044 0.642788 0
    outer loop
      vertex -4.58415 79.0594 0
      vertex -4.58415 79.0594 4
      vertex -3.375 77.6184 0
    endloop
  endfacet
  facet normal 0.766044 -0.642788 0
    outer loop
      vertex -1.375 11.3816 0
      vertex -1.375 11.3816 4
      vertex -2.58415 9.94055 4
    endloop
  endfacet
  facet normal 0.766044 -0.642788 0
    outer loop
      vertex -2.58415 9.94055 0
      vertex -1.375 11.3816 0
      vertex -2.58415 9.94055 4
    endloop
  endfacet
  facet normal 1 0 0
    outer loop
      vertex -2.58415 9.94055 0
      vertex -2.58415 9.94055 4
      vertex -2.58415 8.05944 4
    endloop
  endfacet
  facet normal 1 0 0
    outer loop
      vertex -2.58415 8.05944 0
      vertex -2.58415 9.94055 0
      vertex -2.58415 8.05944 4
    endloop
  endfacet
  facet normal 0.173648 -0.984808 0
    outer loop
      vertex 0.477532 11.7082 0
      vertex 0.477532 11.7082 4
      vertex -1.375 11.3816 4
    endloop
  endfacet
  facet normal 0.173648 -0.984808 0
    outer loop
      vertex -1.375 11.3816 0
      vertex 0.477532 11.7082 0
      vertex -1.375 11.3816 4
    endloop
  endfacet
  facet normal -0.5 -0.866026 -0
    outer loop
      vertex 2.10662 10.7677 0
      vertex 2.10662 10.7677 4
      vertex 0.477532 11.7082 4
    endloop
  endfacet
  facet normal -0.5 -0.866026 -0
    outer loop
      vertex 0.477532 11.7082 0
      vertex 2.10662 10.7677 0
      vertex 0.477532 11.7082 4
    endloop
  endfacet
  facet normal -0.939693 -0.34202 0
    outer loop
      vertex 2.75 9 4
      vertex 2.10662 10.7677 4
      vertex 2.75 9 0
    endloop
  endfacet
  facet normal -0.939693 -0.34202 0
    outer loop
      vertex 2.75 9 0
      vertex 2.10662 10.7677 4
      vertex 2.10662 10.7677 0
    endloop
  endfacet
  facet normal -0.939693 0.34202 0
    outer loop
      vertex 2.75 9 4
      vertex 2.75 9 0
      vertex 2.10662 7.23233 4
    endloop
  endfacet
  facet normal -0.939693 0.34202 0
    outer loop
      vertex 2.10662 7.23233 4
      vertex 2.75 9 0
      vertex 2.10662 7.23233 0
    endloop
  endfacet
  facet normal -0.5 0.866026 0
    outer loop
      vertex 2.10662 7.23233 4
      vertex 2.10662 7.23233 0
      vertex 0.477532 6.29178 4
    endloop
  endfacet
  facet normal -0.5 0.866026 0
    outer loop
      vertex 0.477532 6.29178 4
      vertex 2.10662 7.23233 0
      vertex 0.477532 6.29178 0
    endloop
  endfacet
  facet normal 0.173648 0.984808 -0
    outer loop
      vertex 0.477532 6.29178 4
      vertex 0.477532 6.29178 0
      vertex -1.375 6.61843 4
    endloop
  endfacet
  facet normal 0.173648 0.984808 -0
    outer loop
      vertex -1.375 6.61843 4
      vertex 0.477532 6.29178 0
      vertex -1.375 6.61843 0
    endloop
  endfacet
  facet normal 0.766044 0.642788 0
    outer loop
      vertex -2.58415 8.05944 4
      vertex -1.375 6.61843 4
      vertex -1.375 6.61843 0
    endloop
  endfacet
  facet normal 0.766044 0.642788 0
    outer loop
      vertex -2.58415 8.05944 0
      vertex -2.58415 8.05944 4
      vertex -1.375 6.61843 0
    endloop
  endfacet
  facet normal 0.766044 -0.642788 0
    outer loop
      vertex 22.625 11.3816 0
      vertex 22.625 11.3816 4
      vertex 21.4158 9.94055 4
    endloop
  endfacet
  facet normal 0.766044 -0.642788 0
    outer loop
      vertex 21.4158 9.94055 0
      vertex 22.625 11.3816 0
      vertex 21.4158 9.94055 4
    endloop
  endfacet
  facet normal 1 0 0
    outer loop
      vertex 21.4158 9.94055 0
      vertex 21.4158 9.94055 4
      vertex 21.4158 8.05944 4
    endloop
  endfacet
  facet normal 1 0 0
    outer loop
      vertex 21.4158 8.05944 0
      vertex 21.4158 9.94055 0
      vertex 21.4158 8.05944 4
    endloop
  endfacet
  facet normal 0.173648 -0.984808 0
    outer loop
      vertex 24.4775 11.7082 0
      vertex 24.4775 11.7082 4
      vertex 22.625 11.3816 4
    endloop
  endfacet
  facet normal 0.173648 -0.984808 0
    outer loop
      vertex 22.625 11.3816 0
      vertex 24.4775 11.7082 0
      vertex 22.625 11.3816 4
    endloop
  endfacet
  facet normal -0.5 -0.866026 -0
    outer loop
      vertex 26.1066 10.7677 0
      vertex 26.1066 10.7677 4
      vertex 24.4775 11.7082 4
    endloop
  endfacet
  facet normal -0.5 -0.866026 -0
    outer loop
      vertex 24.4775 11.7082 0
      vertex 26.1066 10.7677 0
      vertex 24.4775 11.7082 4
    endloop
  endfacet
  facet normal -0.939693 -0.34202 0
    outer loop
      vertex 26.75 9 4
      vertex 26.1066 10.7677 4
      vertex 26.75 9 0
    endloop
  endfacet
  facet normal -0.939693 -0.34202 0
    outer loop
      vertex 26.75 9 0
      vertex 26.1066 10.7677 4
      vertex 26.1066 10.7677 0
    endloop
  endfacet
  facet normal -0.939693 0.34202 0
    outer loop
      vertex 26.75 9 4
      vertex 26.75 9 0
      vertex 26.1066 7.23233 4
    endloop
  endfacet
  facet normal -0.939693 0.34202 0
    outer loop
      vertex 26.1066 7.23233 4
      vertex 26.75 9 0
      vertex 26.1066 7.23233 0
    endloop
  endfacet
  facet normal -0.5 0.866026 0
    outer loop
      vertex 26.1066 7.23233 4
      vertex 26.1066 7.23233 0
      vertex 24.4775 6.29178 4
    endloop
  endfacet
  facet normal -0.5 0.866026 0
    outer loop
      vertex 24.4775 6.29178 4
      vertex 26.1066 7.23233 0
      vertex 24.4775 6.29178 0
    endloop
  endfacet
  facet normal 0.173648 0.984808 -0
    outer loop
      vertex 24.4775 6.29178 4
      vertex 24.4775 6.29178 0
      vertex 22.625 6.61843 4
    endloop
  endfacet
  facet normal 0.173648 0.984808 -0
    outer loop
      vertex 22.625 6.61843 4
      vertex 24.4775 6.29178 0
      vertex 22.625 6.61843 0
    endloop
  endfacet
  facet normal 0.766044 0.642788 0
    outer loop
      vertex 21.4158 8.05944 4
      vertex 22.625 6.61843 4
      vertex 22.625 6.61843 0
    endloop
  endfacet
  facet normal 0.766044 0.642788 0
    outer loop
      vertex 21.4158 8.05944 0
      vertex 21.4158 8.05944 4
      vertex 22.625 6.61843 0
    endloop
  endfacet
endsolid OpenSCAD_Model
