solid PARTassembly
   facet normal 0.0000 0.0000 -1.0000
      outer loop
         vertex -3.0000 -8.0000 -50.0000
         vertex -3.0000 -9.7000 -50.0000
         vertex -3.0402 -9.8500 -50.0000
      endloop
   endfacet
   facet normal 0.0000 0.0000 -1.0000
      outer loop
         vertex -3.0000 -8.0000 -50.0000
         vertex -3.0402 -9.8500 -50.0000
         vertex -3.1500 -9.9598 -50.0000
      endloop
   endfacet
   facet normal 0.0000 0.0000 -1.0000
      outer loop
         vertex -3.0000 -8.0000 -50.0000
         vertex -3.1500 -9.9598 -50.0000
         vertex -3.3000 -10.0000 -50.0000
      endloop
   endfacet
   facet normal 0.0000 0.0000 -1.0000
      outer loop
         vertex -3.0000 -8.0000 -50.0000
         vertex -3.3000 -10.0000 -50.0000
         vertex -6.0000 -8.0000 -50.0000
      endloop
   endfacet
   facet normal 0.0000 0.0000 -1.0000
      outer loop
         vertex -9.8500 -3.0402 -50.0000
         vertex -9.7000 -3.0000 -50.0000
         vertex -9.5000 -9.8660 -50.0000
      endloop
   endfacet
   facet normal 0.0000 0.0000 -1.0000
      outer loop
         vertex -9.5000 -9.8660 -50.0000
         vertex -9.7000 -3.0000 -50.0000
         vertex -8.0000 -3.0000 -50.0000
      endloop
   endfacet
   facet normal 0.0000 0.0000 -1.0000
      outer loop
         vertex -9.5000 -9.8660 -50.0000
         vertex -8.0000 -3.0000 -50.0000
         vertex -9.0000 -10.0000 -50.0000
      endloop
   endfacet
   facet normal 0.0000 0.0000 -1.0000
      outer loop
         vertex -9.0000 -10.0000 -50.0000
         vertex -8.0000 -3.0000 -50.0000
         vertex -8.0000 -6.0000 -50.0000
      endloop
   endfacet
   facet normal 0.0000 0.0000 -1.0000
      outer loop
         vertex -9.0000 -10.0000 -50.0000
         vertex -8.0000 -6.0000 -50.0000
         vertex -6.0000 -8.0000 -50.0000
      endloop
   endfacet
   facet normal 0.0000 0.0000 -1.0000
      outer loop
         vertex -6.0000 -8.0000 -50.0000
         vertex -8.0000 -6.0000 -50.0000
         vertex -7.0607 -6.0000 -50.0000
      endloop
   endfacet
   facet normal 0.0000 0.0000 -1.0000
      outer loop
         vertex -6.0000 -8.0000 -50.0000
         vertex -7.0607 -6.0000 -50.0000
         vertex -6.0000 -7.0607 -50.0000
      endloop
   endfacet
   facet normal 0.0000 0.0000 -1.0000
      outer loop
         vertex -6.0000 -7.0607 -50.0000
         vertex -7.0607 -6.0000 -50.0000
         vertex -4.0000 -2.9393 -50.0000
      endloop
   endfacet
   facet normal 0.0000 0.0000 -1.0000
      outer loop
         vertex -6.0000 -7.0607 -50.0000
         vertex -4.0000 -2.9393 -50.0000
         vertex -2.9393 -4.0000 -50.0000
      endloop
   endfacet
   facet normal 0.0000 0.0000 -1.0000
      outer loop
         vertex -2.9393 -4.0000 -50.0000
         vertex -4.0000 -2.9393 -50.0000
         vertex -3.7000 -0.0000 -50.0000
      endloop
   endfacet
   facet normal 0.0000 0.0000 -1.0000
      outer loop
         vertex -2.9393 -4.0000 -50.0000
         vertex -3.7000 -0.0000 -50.0000
         vertex -2.9394 4.0000 -50.0000
      endloop
   endfacet
   facet normal 0.0000 0.0000 -1.0000
      outer loop
         vertex -2.9394 4.0000 -50.0000
         vertex -3.7000 -0.0000 -50.0000
         vertex -4.0000 0.5196 -50.0000
      endloop
   endfacet
   facet normal 0.0000 0.0000 -1.0000
      outer loop
         vertex -2.9394 4.0000 -50.0000
         vertex -4.0000 0.5196 -50.0000
         vertex -4.0000 2.9393 -50.0000
      endloop
   endfacet
   facet normal 0.0000 0.0000 -1.0000
      outer loop
         vertex -9.8660 -9.5000 -50.0000
         vertex -10.0000 -9.0000 -50.0000
         vertex -9.9598 -3.1500 -50.0000
      endloop
   endfacet
   facet normal 0.0000 0.0000 -1.0000
      outer loop
         vertex -9.8660 -9.5000 -50.0000
         vertex -9.9598 -3.1500 -50.0000
         vertex -9.8500 -3.0402 -50.0000
      endloop
   endfacet
   facet normal 0.0000 0.0000 -1.0000
      outer loop
         vertex -9.8660 -9.5000 -50.0000
         vertex -9.8500 -3.0402 -50.0000
         vertex -9.5000 -9.8660 -50.0000
      endloop
   endfacet
   facet normal 0.0000 0.0000 -1.0000
      outer loop
         vertex -2.9394 4.0000 -50.0000
         vertex -4.0000 2.9393 -50.0000
         vertex -6.0000 7.0606 -50.0000
      endloop
   endfacet
   facet normal 0.0000 0.0000 -1.0000
      outer loop
         vertex -6.0000 7.0606 -50.0000
         vertex -4.0000 2.9393 -50.0000
         vertex -7.0607 6.0000 -50.0000
      endloop
   endfacet
   facet normal 0.0000 0.0000 -1.0000
      outer loop
         vertex -6.0000 7.0606 -50.0000
         vertex -7.0607 6.0000 -50.0000
         vertex -6.0000 8.0000 -50.0000
      endloop
   endfacet
   facet normal 0.0000 0.0000 -1.0000
      outer loop
         vertex -6.0000 8.0000 -50.0000
         vertex -7.0607 6.0000 -50.0000
         vertex -8.0000 6.0000 -50.0000
      endloop
   endfacet
   facet normal 0.0000 0.0000 -1.0000
      outer loop
         vertex -6.0000 8.0000 -50.0000
         vertex -8.0000 6.0000 -50.0000
         vertex -9.0000 10.0000 -50.0000
      endloop
   endfacet
   facet normal 0.0000 0.0000 -1.0000
      outer loop
         vertex -9.0000 10.0000 -50.0000
         vertex -8.0000 6.0000 -50.0000
         vertex -8.0000 3.0000 -50.0000
      endloop
   endfacet
   facet normal 0.0000 0.0000 -1.0000
      outer loop
         vertex -9.0000 10.0000 -50.0000
         vertex -8.0000 3.0000 -50.0000
         vertex -9.5000 9.8660 -50.0000
      endloop
   endfacet
   facet normal 0.0000 0.0000 -1.0000
      outer loop
         vertex -9.5000 9.8660 -50.0000
         vertex -8.0000 3.0000 -50.0000
         vertex -9.7000 3.0000 -50.0000
      endloop
   endfacet
   facet normal 0.0000 0.0000 -1.0000
      outer loop
         vertex -9.5000 9.8660 -50.0000
         vertex -9.7000 3.0000 -50.0000
         vertex -9.8500 3.0402 -50.0000
      endloop
   endfacet
   facet normal 0.0000 0.0000 -1.0000
      outer loop
         vertex 6.0000 -7.0607 -50.0000
         vertex 2.9393 -4.0000 -50.0000
         vertex 4.0000 -2.9393 -50.0000
      endloop
   endfacet
   facet normal 0.0000 0.0000 -1.0000
      outer loop
         vertex 4.0000 -2.9393 -50.0000
         vertex 2.9393 -4.0000 -50.0000
         vertex 2.9393 4.0000 -50.0000
      endloop
   endfacet
   facet normal 0.0000 0.0000 -1.0000
      outer loop
         vertex 4.0000 -2.9393 -50.0000
         vertex 2.9393 4.0000 -50.0000
         vertex 3.7000 0.0000 -50.0000
      endloop
   endfacet
   facet normal 0.0000 0.0000 -1.0000
      outer loop
         vertex 3.7000 0.0000 -50.0000
         vertex 2.9393 4.0000 -50.0000
         vertex 4.0000 2.9393 -50.0000
      endloop
   endfacet
   facet normal 0.0000 0.0000 -1.0000
      outer loop
         vertex 3.7000 0.0000 -50.0000
         vertex 4.0000 2.9393 -50.0000
         vertex 4.0000 0.5196 -50.0000
      endloop
   endfacet
   facet normal 0.0000 0.0000 -1.0000
      outer loop
         vertex 8.0000 3.0000 -50.0000
         vertex 8.0000 6.0000 -50.0000
         vertex 9.0000 10.0000 -50.0000
      endloop
   endfacet
   facet normal 0.0000 0.0000 -1.0000
      outer loop
         vertex 9.0000 10.0000 -50.0000
         vertex 8.0000 6.0000 -50.0000
         vertex 7.0607 6.0000 -50.0000
      endloop
   endfacet
   facet normal 0.0000 0.0000 -1.0000
      outer loop
         vertex 9.0000 10.0000 -50.0000
         vertex 7.0607 6.0000 -50.0000
         vertex 6.0000 7.0607 -50.0000
      endloop
   endfacet
   facet normal 0.0000 0.0000 -1.0000
      outer loop
         vertex 6.0000 7.0607 -50.0000
         vertex 7.0607 6.0000 -50.0000
         vertex 4.0000 2.9393 -50.0000
      endloop
   endfacet
   facet normal 0.0000 0.0000 -1.0000
      outer loop
         vertex 6.0000 7.0607 -50.0000
         vertex 4.0000 2.9393 -50.0000
         vertex 2.9393 4.0000 -50.0000
      endloop
   endfacet
   facet normal 0.0000 0.0000 -1.0000
      outer loop
         vertex 9.9598 3.1500 -50.0000
         vertex 9.8500 3.0402 -50.0000
         vertex 9.8660 9.5000 -50.0000
      endloop
   endfacet
   facet normal 0.0000 0.0000 -1.0000
      outer loop
         vertex 9.9598 3.1500 -50.0000
         vertex 9.8660 9.5000 -50.0000
         vertex 10.0000 9.0000 -50.0000
      endloop
   endfacet
   facet normal 0.0000 0.0000 -1.0000
      outer loop
         vertex 9.9598 3.1500 -50.0000
         vertex 10.0000 9.0000 -50.0000
         vertex 10.0000 3.3000 -50.0000
      endloop
   endfacet
   facet normal 0.0000 0.0000 -1.0000
      outer loop
         vertex 9.7000 3.0000 -50.0000
         vertex 8.0000 3.0000 -50.0000
         vertex 9.0000 10.0000 -50.0000
      endloop
   endfacet
   facet normal 0.0000 0.0000 -1.0000
      outer loop
         vertex 9.7000 3.0000 -50.0000
         vertex 9.0000 10.0000 -50.0000
         vertex 9.5000 9.8660 -50.0000
      endloop
   endfacet
   facet normal 0.0000 0.0000 -1.0000
      outer loop
         vertex 9.7000 3.0000 -50.0000
         vertex 9.5000 9.8660 -50.0000
         vertex 9.8660 9.5000 -50.0000
      endloop
   endfacet
   facet normal 0.0000 0.0000 -1.0000
      outer loop
         vertex 9.7000 3.0000 -50.0000
         vertex 9.8660 9.5000 -50.0000
         vertex 9.8500 3.0402 -50.0000
      endloop
   endfacet
   facet normal 0.0000 0.0000 -1.0000
      outer loop
         vertex 6.0000 8.0000 -50.0000
         vertex 3.0000 8.0000 -50.0000
         vertex 3.0402 9.8500 -50.0000
      endloop
   endfacet
   facet normal 0.0000 0.0000 -1.0000
      outer loop
         vertex 6.0000 8.0000 -50.0000
         vertex 3.0402 9.8500 -50.0000
         vertex 3.1500 9.9598 -50.0000
      endloop
   endfacet
   facet normal 0.0000 0.0000 -1.0000
      outer loop
         vertex 6.0000 8.0000 -50.0000
         vertex 3.1500 9.9598 -50.0000
         vertex 3.3000 10.0000 -50.0000
      endloop
   endfacet
   facet normal 0.0000 0.0000 -1.0000
      outer loop
         vertex 6.0000 8.0000 -50.0000
         vertex 3.3000 10.0000 -50.0000
         vertex 9.0000 10.0000 -50.0000
      endloop
   endfacet
   facet normal 0.0000 0.0000 -1.0000
      outer loop
         vertex 6.0000 8.0000 -50.0000
         vertex 9.0000 10.0000 -50.0000
         vertex 6.0000 7.0607 -50.0000
      endloop
   endfacet
   facet normal 0.0000 0.0000 -1.0000
      outer loop
         vertex -3.0000 8.0000 -50.0000
         vertex -6.0000 8.0000 -50.0000
         vertex -3.3000 10.0000 -50.0000
      endloop
   endfacet
   facet normal 0.0000 0.0000 -1.0000
      outer loop
         vertex -3.0000 8.0000 -50.0000
         vertex -3.3000 10.0000 -50.0000
         vertex -3.1500 9.9598 -50.0000
      endloop
   endfacet
   facet normal 0.0000 0.0000 -1.0000
      outer loop
         vertex -3.0000 8.0000 -50.0000
         vertex -3.1500 9.9598 -50.0000
         vertex -3.0402 9.8500 -50.0000
      endloop
   endfacet
   facet normal 0.0000 0.0000 -1.0000
      outer loop
         vertex -3.0000 8.0000 -50.0000
         vertex -3.0402 9.8500 -50.0000
         vertex -3.0000 9.7000 -50.0000
      endloop
   endfacet
   facet normal 0.0000 0.0000 -1.0000
      outer loop
         vertex -9.8660 9.5000 -50.0000
         vertex -9.5000 9.8660 -50.0000
         vertex -9.8500 3.0402 -50.0000
      endloop
   endfacet
   facet normal 0.0000 0.0000 -1.0000
      outer loop
         vertex -9.8660 9.5000 -50.0000
         vertex -9.8500 3.0402 -50.0000
         vertex -9.9598 3.1500 -50.0000
      endloop
   endfacet
   facet normal 0.0000 0.0000 -1.0000
      outer loop
         vertex -9.8660 9.5000 -50.0000
         vertex -9.9598 3.1500 -50.0000
         vertex -10.0000 3.3000 -50.0000
      endloop
   endfacet
   facet normal 0.0000 0.0000 -1.0000
      outer loop
         vertex -9.8660 9.5000 -50.0000
         vertex -10.0000 3.3000 -50.0000
         vertex -10.0000 9.0000 -50.0000
      endloop
   endfacet
   facet normal 0.0000 0.0000 -1.0000
      outer loop
         vertex 1.0500 -1.8187 -50.0000
         vertex 1.8187 -1.0500 -50.0000
         vertex 2.9393 -4.0000 -50.0000
      endloop
   endfacet
   facet normal 0.0000 0.0000 -1.0000
      outer loop
         vertex 2.9393 -4.0000 -50.0000
         vertex 1.8187 -1.0500 -50.0000
         vertex 2.1000 0.0000 -50.0000
      endloop
   endfacet
   facet normal 0.0000 0.0000 -1.0000
      outer loop
         vertex 2.9393 -4.0000 -50.0000
         vertex 2.1000 0.0000 -50.0000
         vertex 2.9393 4.0000 -50.0000
      endloop
   endfacet
   facet normal 0.0000 0.0000 -1.0000
      outer loop
         vertex 2.9393 4.0000 -50.0000
         vertex 2.1000 0.0000 -50.0000
         vertex 1.8187 1.0500 -50.0000
      endloop
   endfacet
   facet normal 0.0000 0.0000 -1.0000
      outer loop
         vertex 2.9393 4.0000 -50.0000
         vertex 1.8187 1.0500 -50.0000
         vertex 1.0500 1.8187 -50.0000
      endloop
   endfacet
   facet normal 0.0000 0.0000 -1.0000
      outer loop
         vertex -1.8187 -1.0500 -50.0000
         vertex -1.0500 -1.8187 -50.0000
         vertex -0.5196 -4.0000 -50.0000
      endloop
   endfacet
   facet normal 0.0000 0.0000 -1.0000
      outer loop
         vertex -0.5196 -4.0000 -50.0000
         vertex -1.0500 -1.8187 -50.0000
         vertex 0.0000 -2.1000 -50.0000
      endloop
   endfacet
   facet normal 0.0000 0.0000 -1.0000
      outer loop
         vertex -0.5196 -4.0000 -50.0000
         vertex 0.0000 -2.1000 -50.0000
         vertex 0.0000 -3.7000 -50.0000
      endloop
   endfacet
   facet normal 0.0000 0.0000 -1.0000
      outer loop
         vertex 0.0000 -3.7000 -50.0000
         vertex 0.0000 -2.1000 -50.0000
         vertex 1.0500 -1.8187 -50.0000
      endloop
   endfacet
   facet normal 0.0000 0.0000 -1.0000
      outer loop
         vertex 0.0000 -3.7000 -50.0000
         vertex 1.0500 -1.8187 -50.0000
         vertex 0.5196 -4.0000 -50.0000
      endloop
   endfacet
   facet normal 0.0000 0.0000 -1.0000
      outer loop
         vertex 0.5196 -4.0000 -50.0000
         vertex 1.0500 -1.8187 -50.0000
         vertex 2.9393 -4.0000 -50.0000
      endloop
   endfacet
   facet normal 0.0000 0.0000 -1.0000
      outer loop
         vertex 0.0000 2.1000 -50.0000
         vertex -1.0500 1.8187 -50.0000
         vertex -0.5196 4.0000 -50.0000
      endloop
   endfacet
   facet normal 0.0000 0.0000 -1.0000
      outer loop
         vertex -0.5196 4.0000 -50.0000
         vertex -1.0500 1.8187 -50.0000
         vertex -1.8187 1.0500 -50.0000
      endloop
   endfacet
   facet normal 0.0000 0.0000 -1.0000
      outer loop
         vertex -0.5196 4.0000 -50.0000
         vertex -1.8187 1.0500 -50.0000
         vertex -2.9394 4.0000 -50.0000
      endloop
   endfacet
   facet normal 0.0000 0.0000 -1.0000
      outer loop
         vertex -2.9394 4.0000 -50.0000
         vertex -1.8187 1.0500 -50.0000
         vertex -2.1000 -0.0000 -50.0000
      endloop
   endfacet
   facet normal 0.0000 0.0000 -1.0000
      outer loop
         vertex -2.9394 4.0000 -50.0000
         vertex -2.1000 -0.0000 -50.0000
         vertex -2.9393 -4.0000 -50.0000
      endloop
   endfacet
   facet normal 0.0000 0.0000 -1.0000
      outer loop
         vertex -2.9393 -4.0000 -50.0000
         vertex -2.1000 -0.0000 -50.0000
         vertex -1.8187 -1.0500 -50.0000
      endloop
   endfacet
   facet normal 0.0000 0.0000 -1.0000
      outer loop
         vertex -2.9393 -4.0000 -50.0000
         vertex -1.8187 -1.0500 -50.0000
         vertex -0.5196 -4.0000 -50.0000
      endloop
   endfacet
   facet normal 0.0000 0.0000 -1.0000
      outer loop
         vertex 9.0000 -10.0000 -50.0000
         vertex 3.3000 -10.0000 -50.0000
         vertex 6.0000 -8.0000 -50.0000
      endloop
   endfacet
   facet normal 0.0000 0.0000 -1.0000
      outer loop
         vertex 9.0000 -10.0000 -50.0000
         vertex 6.0000 -8.0000 -50.0000
         vertex 7.0606 -6.0000 -50.0000
      endloop
   endfacet
   facet normal 0.0000 0.0000 -1.0000
      outer loop
         vertex 9.0000 -10.0000 -50.0000
         vertex 7.0606 -6.0000 -50.0000
         vertex 8.0000 -6.0000 -50.0000
      endloop
   endfacet
   facet normal 0.0000 0.0000 -1.0000
      outer loop
         vertex 9.0000 -10.0000 -50.0000
         vertex 8.0000 -6.0000 -50.0000
         vertex 9.7000 -3.0000 -50.0000
      endloop
   endfacet
   facet normal 0.0000 0.0000 -1.0000
      outer loop
         vertex 9.0000 -10.0000 -50.0000
         vertex 9.7000 -3.0000 -50.0000
         vertex 9.5000 -9.8660 -50.0000
      endloop
   endfacet
   facet normal 0.0000 0.0000 -1.0000
      outer loop
         vertex 6.0000 -8.0000 -50.0000
         vertex 3.3000 -10.0000 -50.0000
         vertex 3.1500 -9.9598 -50.0000
      endloop
   endfacet
   facet normal 0.0000 0.0000 -1.0000
      outer loop
         vertex 6.0000 -8.0000 -50.0000
         vertex 3.1500 -9.9598 -50.0000
         vertex 3.0402 -9.8500 -50.0000
      endloop
   endfacet
   facet normal 0.0000 0.0000 -1.0000
      outer loop
         vertex 6.0000 -8.0000 -50.0000
         vertex 3.0402 -9.8500 -50.0000
         vertex 3.0000 -9.7000 -50.0000
      endloop
   endfacet
   facet normal 0.0000 0.0000 -1.0000
      outer loop
         vertex 6.0000 -8.0000 -50.0000
         vertex 3.0000 -9.7000 -50.0000
         vertex 3.0000 -8.0000 -50.0000
      endloop
   endfacet
   facet normal 0.0000 0.0000 -1.0000
      outer loop
         vertex 9.7000 -3.0000 -50.0000
         vertex 9.8500 -3.0402 -50.0000
         vertex 9.8660 -9.5000 -50.0000
      endloop
   endfacet
   facet normal 0.0000 0.0000 -1.0000
      outer loop
         vertex 9.8660 -9.5000 -50.0000
         vertex 9.8500 -3.0402 -50.0000
         vertex 9.9598 -3.1500 -50.0000
      endloop
   endfacet
   facet normal 0.0000 0.0000 -1.0000
      outer loop
         vertex 9.8660 -9.5000 -50.0000
         vertex 9.9598 -3.1500 -50.0000
         vertex 10.0000 -9.0000 -50.0000
      endloop
   endfacet
   facet normal 0.0000 0.0000 -1.0000
      outer loop
         vertex 10.0000 -9.0000 -50.0000
         vertex 9.9598 -3.1500 -50.0000
         vertex 10.0000 -3.3000 -50.0000
      endloop
   endfacet
   facet normal 0.0000 0.0000 -1.0000
      outer loop
         vertex 6.0000 -7.0607 -50.0000
         vertex 4.0000 -2.9393 -50.0000
         vertex 7.0606 -6.0000 -50.0000
      endloop
   endfacet
   facet normal 0.0000 0.0000 -1.0000
      outer loop
         vertex 6.0000 -7.0607 -50.0000
         vertex 7.0606 -6.0000 -50.0000
         vertex 6.0000 -8.0000 -50.0000
      endloop
   endfacet
   facet normal 0.0000 0.0000 -1.0000
      outer loop
         vertex -0.5196 4.0000 -50.0000
         vertex -0.0000 3.7000 -50.0000
         vertex 0.0000 2.1000 -50.0000
      endloop
   endfacet
   facet normal 0.0000 0.0000 -1.0000
      outer loop
         vertex 0.0000 2.1000 -50.0000
         vertex -0.0000 3.7000 -50.0000
         vertex 0.5196 4.0000 -50.0000
      endloop
   endfacet
   facet normal 0.0000 0.0000 -1.0000
      outer loop
         vertex 0.0000 2.1000 -50.0000
         vertex 0.5196 4.0000 -50.0000
         vertex 1.0500 1.8187 -50.0000
      endloop
   endfacet
   facet normal 0.0000 0.0000 -1.0000
      outer loop
         vertex 1.0500 1.8187 -50.0000
         vertex 0.5196 4.0000 -50.0000
         vertex 2.9393 4.0000 -50.0000
      endloop
   endfacet
   facet normal 0.0000 0.0000 -1.0000
      outer loop
         vertex 4.0000 -2.9393 -50.0000
         vertex 3.7000 0.0000 -50.0000
         vertex 4.0000 -0.5196 -50.0000
      endloop
   endfacet
   facet normal 0.0000 0.0000 -1.0000
      outer loop
         vertex 9.7000 -3.0000 -50.0000
         vertex 8.0000 -6.0000 -50.0000
         vertex 8.0000 -3.0000 -50.0000
      endloop
   endfacet
   facet normal 0.0000 0.0000 -1.0000
      outer loop
         vertex 9.5000 -9.8660 -50.0000
         vertex 9.7000 -3.0000 -50.0000
         vertex 9.8660 -9.5000 -50.0000
      endloop
   endfacet
   facet normal 0.0000 0.0000 -1.0000
      outer loop
         vertex -6.0000 8.0000 -50.0000
         vertex -9.0000 10.0000 -50.0000
         vertex -3.3000 10.0000 -50.0000
      endloop
   endfacet
   facet normal 0.0000 0.0000 -1.0000
      outer loop
         vertex 3.0402 9.8500 -50.0000
         vertex 3.0000 8.0000 -50.0000
         vertex 3.0000 9.7000 -50.0000
      endloop
   endfacet
   facet normal 0.0000 0.0000 -1.0000
      outer loop
         vertex -3.7000 -0.0000 -50.0000
         vertex -4.0000 -2.9393 -50.0000
         vertex -4.0000 -0.5196 -50.0000
      endloop
   endfacet
   facet normal 0.0000 0.0000 -1.0000
      outer loop
         vertex -9.9598 -3.1500 -50.0000
         vertex -10.0000 -9.0000 -50.0000
         vertex -10.0000 -3.3000 -50.0000
      endloop
   endfacet
   facet normal 0.0000 0.0000 -1.0000
      outer loop
         vertex -9.0000 -10.0000 -50.0000
         vertex -6.0000 -8.0000 -50.0000
         vertex -3.3000 -10.0000 -50.0000
      endloop
   endfacet
   facet normal 0.0000 0.0000 1.0000
      outer loop
         vertex -3.0000 8.0000 0.0000
         vertex -3.0000 9.7000 0.0000
         vertex -3.0402 9.8500 0.0000
      endloop
   endfacet
   facet normal 0.0000 0.0000 1.0000
      outer loop
         vertex -3.0000 8.0000 0.0000
         vertex -3.0402 9.8500 0.0000
         vertex -3.1500 9.9598 0.0000
      endloop
   endfacet
   facet normal 0.0000 0.0000 1.0000
      outer loop
         vertex -3.0000 8.0000 0.0000
         vertex -3.1500 9.9598 0.0000
         vertex -3.3000 10.0000 0.0000
      endloop
   endfacet
   facet normal 0.0000 0.0000 1.0000
      outer loop
         vertex -3.0000 8.0000 0.0000
         vertex -3.3000 10.0000 0.0000
         vertex -6.0000 8.0000 0.0000
      endloop
   endfacet
   facet normal 0.0000 0.0000 1.0000
      outer loop
         vertex -9.8500 3.0402 0.0000
         vertex -9.7000 3.0000 0.0000
         vertex -9.5000 9.8660 0.0000
      endloop
   endfacet
   facet normal 0.0000 0.0000 1.0000
      outer loop
         vertex -9.5000 9.8660 0.0000
         vertex -9.7000 3.0000 0.0000
         vertex -8.0000 3.0000 0.0000
      endloop
   endfacet
   facet normal 0.0000 0.0000 1.0000
      outer loop
         vertex -9.5000 9.8660 0.0000
         vertex -8.0000 3.0000 0.0000
         vertex -9.0000 10.0000 0.0000
      endloop
   endfacet
   facet normal 0.0000 0.0000 1.0000
      outer loop
         vertex -9.0000 10.0000 0.0000
         vertex -8.0000 3.0000 0.0000
         vertex -8.0000 6.0000 0.0000
      endloop
   endfacet
   facet normal 0.0000 0.0000 1.0000
      outer loop
         vertex -9.0000 10.0000 0.0000
         vertex -8.0000 6.0000 0.0000
         vertex -6.0000 8.0000 0.0000
      endloop
   endfacet
   facet normal 0.0000 0.0000 1.0000
      outer loop
         vertex -6.0000 8.0000 0.0000
         vertex -8.0000 6.0000 0.0000
         vertex -7.0607 6.0000 0.0000
      endloop
   endfacet
   facet normal 0.0000 0.0000 1.0000
      outer loop
         vertex -6.0000 8.0000 0.0000
         vertex -7.0607 6.0000 0.0000
         vertex -6.0000 7.0606 0.0000
      endloop
   endfacet
   facet normal 0.0000 0.0000 1.0000
      outer loop
         vertex -6.0000 7.0606 0.0000
         vertex -7.0607 6.0000 0.0000
         vertex -4.0000 2.9393 0.0000
      endloop
   endfacet
   facet normal 0.0000 0.0000 1.0000
      outer loop
         vertex -6.0000 7.0606 0.0000
         vertex -4.0000 2.9393 0.0000
         vertex -2.9394 4.0000 0.0000
      endloop
   endfacet
   facet normal 0.0000 0.0000 1.0000
      outer loop
         vertex -2.9394 4.0000 0.0000
         vertex -4.0000 2.9393 0.0000
         vertex -3.7000 -0.0000 0.0000
      endloop
   endfacet
   facet normal 0.0000 0.0000 1.0000
      outer loop
         vertex -2.9394 4.0000 0.0000
         vertex -3.7000 -0.0000 0.0000
         vertex -2.9393 -4.0000 0.0000
      endloop
   endfacet
   facet normal 0.0000 0.0000 1.0000
      outer loop
         vertex -2.9393 -4.0000 0.0000
         vertex -3.7000 -0.0000 0.0000
         vertex -4.0000 -0.5196 0.0000
      endloop
   endfacet
   facet normal 0.0000 0.0000 1.0000
      outer loop
         vertex -2.9393 -4.0000 0.0000
         vertex -4.0000 -0.5196 0.0000
         vertex -4.0000 -2.9393 0.0000
      endloop
   endfacet
   facet normal 0.0000 0.0000 1.0000
      outer loop
         vertex -9.8660 9.5000 0.0000
         vertex -10.0000 9.0000 0.0000
         vertex -9.9598 3.1500 0.0000
      endloop
   endfacet
   facet normal 0.0000 0.0000 1.0000
      outer loop
         vertex -9.8660 9.5000 0.0000
         vertex -9.9598 3.1500 0.0000
         vertex -9.8500 3.0402 0.0000
      endloop
   endfacet
   facet normal 0.0000 0.0000 1.0000
      outer loop
         vertex -9.8660 9.5000 0.0000
         vertex -9.8500 3.0402 0.0000
         vertex -9.5000 9.8660 0.0000
      endloop
   endfacet
   facet normal 0.0000 0.0000 1.0000
      outer loop
         vertex 9.0000 10.0000 0.0000
         vertex 3.3000 10.0000 0.0000
         vertex 6.0000 8.0000 0.0000
      endloop
   endfacet
   facet normal 0.0000 0.0000 1.0000
      outer loop
         vertex 9.0000 10.0000 0.0000
         vertex 6.0000 8.0000 0.0000
         vertex 7.0607 6.0000 0.0000
      endloop
   endfacet
   facet normal 0.0000 0.0000 1.0000
      outer loop
         vertex 9.0000 10.0000 0.0000
         vertex 7.0607 6.0000 0.0000
         vertex 8.0000 6.0000 0.0000
      endloop
   endfacet
   facet normal 0.0000 0.0000 1.0000
      outer loop
         vertex 9.0000 10.0000 0.0000
         vertex 8.0000 6.0000 0.0000
         vertex 9.7000 3.0000 0.0000
      endloop
   endfacet
   facet normal 0.0000 0.0000 1.0000
      outer loop
         vertex 9.0000 10.0000 0.0000
         vertex 9.7000 3.0000 0.0000
         vertex 9.5000 9.8660 0.0000
      endloop
   endfacet
   facet normal 0.0000 0.0000 1.0000
      outer loop
         vertex 6.0000 8.0000 0.0000
         vertex 3.3000 10.0000 0.0000
         vertex 3.1500 9.9598 0.0000
      endloop
   endfacet
   facet normal 0.0000 0.0000 1.0000
      outer loop
         vertex 6.0000 8.0000 0.0000
         vertex 3.1500 9.9598 0.0000
         vertex 3.0402 9.8500 0.0000
      endloop
   endfacet
   facet normal 0.0000 0.0000 1.0000
      outer loop
         vertex 6.0000 8.0000 0.0000
         vertex 3.0402 9.8500 0.0000
         vertex 3.0000 9.7000 0.0000
      endloop
   endfacet
   facet normal 0.0000 0.0000 1.0000
      outer loop
         vertex 6.0000 8.0000 0.0000
         vertex 3.0000 9.7000 0.0000
         vertex 3.0000 8.0000 0.0000
      endloop
   endfacet
   facet normal 0.0000 0.0000 1.0000
      outer loop
         vertex 9.7000 3.0000 0.0000
         vertex 9.8500 3.0402 0.0000
         vertex 9.8660 9.5000 0.0000
      endloop
   endfacet
   facet normal 0.0000 0.0000 1.0000
      outer loop
         vertex 9.8660 9.5000 0.0000
         vertex 9.8500 3.0402 0.0000
         vertex 9.9598 3.1500 0.0000
      endloop
   endfacet
   facet normal 0.0000 0.0000 1.0000
      outer loop
         vertex 9.8660 9.5000 0.0000
         vertex 9.9598 3.1500 0.0000
         vertex 10.0000 9.0000 0.0000
      endloop
   endfacet
   facet normal 0.0000 0.0000 1.0000
      outer loop
         vertex 10.0000 9.0000 0.0000
         vertex 9.9598 3.1500 0.0000
         vertex 10.0000 3.3000 0.0000
      endloop
   endfacet
   facet normal 0.0000 0.0000 1.0000
      outer loop
         vertex 4.0000 -2.9393 0.0000
         vertex 3.7000 0.0000 0.0000
         vertex 2.9393 4.0000 0.0000
      endloop
   endfacet
   facet normal 0.0000 0.0000 1.0000
      outer loop
         vertex 2.9393 4.0000 0.0000
         vertex 3.7000 0.0000 0.0000
         vertex 4.0000 2.9393 0.0000
      endloop
   endfacet
   facet normal 0.0000 0.0000 1.0000
      outer loop
         vertex 2.9393 4.0000 0.0000
         vertex 4.0000 2.9393 0.0000
         vertex 6.0000 7.0607 0.0000
      endloop
   endfacet
   facet normal 0.0000 0.0000 1.0000
      outer loop
         vertex 6.0000 7.0607 0.0000
         vertex 4.0000 2.9393 0.0000
         vertex 7.0607 6.0000 0.0000
      endloop
   endfacet
   facet normal 0.0000 0.0000 1.0000
      outer loop
         vertex 6.0000 7.0607 0.0000
         vertex 7.0607 6.0000 0.0000
         vertex 6.0000 8.0000 0.0000
      endloop
   endfacet
   facet normal 0.0000 0.0000 1.0000
      outer loop
         vertex 2.9393 -4.0000 0.0000
         vertex 6.0000 -7.0607 0.0000
         vertex 4.0000 -2.9393 0.0000
      endloop
   endfacet
   facet normal 0.0000 0.0000 1.0000
      outer loop
         vertex 2.9393 -4.0000 0.0000
         vertex 4.0000 -2.9393 0.0000
         vertex 2.9393 4.0000 0.0000
      endloop
   endfacet
   facet normal 0.0000 0.0000 1.0000
      outer loop
         vertex 2.9393 -4.0000 0.0000
         vertex 2.9393 4.0000 0.0000
         vertex 2.1000 0.0000 0.0000
      endloop
   endfacet
   facet normal 0.0000 0.0000 1.0000
      outer loop
         vertex 2.9393 -4.0000 0.0000
         vertex 2.1000 0.0000 0.0000
         vertex 1.8187 -1.0500 0.0000
      endloop
   endfacet
   facet normal 0.0000 0.0000 1.0000
      outer loop
         vertex 2.9393 -4.0000 0.0000
         vertex 1.8187 -1.0500 0.0000
         vertex 1.0500 -1.8187 0.0000
      endloop
   endfacet
   facet normal 0.0000 0.0000 1.0000
      outer loop
         vertex 2.9393 -4.0000 0.0000
         vertex 1.0500 -1.8187 0.0000
         vertex 0.5196 -4.0000 0.0000
      endloop
   endfacet
   facet normal 0.0000 0.0000 1.0000
      outer loop
         vertex 0.5196 -4.0000 0.0000
         vertex 1.0500 -1.8187 0.0000
         vertex 0.0000 -3.7000 0.0000
      endloop
   endfacet
   facet normal 0.0000 0.0000 1.0000
      outer loop
         vertex 0.0000 -3.7000 0.0000
         vertex 1.0500 -1.8187 0.0000
         vertex 0.0000 -2.1000 0.0000
      endloop
   endfacet
   facet normal 0.0000 0.0000 1.0000
      outer loop
         vertex 0.0000 -3.7000 0.0000
         vertex 0.0000 -2.1000 0.0000
         vertex -0.5196 -4.0000 0.0000
      endloop
   endfacet
   facet normal 0.0000 0.0000 1.0000
      outer loop
         vertex -0.5196 -4.0000 0.0000
         vertex 0.0000 -2.1000 0.0000
         vertex -1.0500 -1.8187 0.0000
      endloop
   endfacet
   facet normal 0.0000 0.0000 1.0000
      outer loop
         vertex -0.5196 -4.0000 0.0000
         vertex -1.0500 -1.8187 0.0000
         vertex -1.8187 -1.0500 0.0000
      endloop
   endfacet
   facet normal 0.0000 0.0000 1.0000
      outer loop
         vertex -0.5196 -4.0000 0.0000
         vertex -1.8187 -1.0500 0.0000
         vertex -2.9393 -4.0000 0.0000
      endloop
   endfacet
   facet normal 0.0000 0.0000 1.0000
      outer loop
         vertex -2.9393 -4.0000 0.0000
         vertex -1.8187 -1.0500 0.0000
         vertex -2.1000 -0.0000 0.0000
      endloop
   endfacet
   facet normal 0.0000 0.0000 1.0000
      outer loop
         vertex -2.9393 -4.0000 0.0000
         vertex -2.1000 -0.0000 0.0000
         vertex -2.9394 4.0000 0.0000
      endloop
   endfacet
   facet normal 0.0000 0.0000 1.0000
      outer loop
         vertex -2.9394 4.0000 0.0000
         vertex -2.1000 -0.0000 0.0000
         vertex -1.8187 1.0500 0.0000
      endloop
   endfacet
   facet normal 0.0000 0.0000 1.0000
      outer loop
         vertex -2.9394 4.0000 0.0000
         vertex -1.8187 1.0500 0.0000
         vertex -0.5196 4.0000 0.0000
      endloop
   endfacet
   facet normal 0.0000 0.0000 1.0000
      outer loop
         vertex -0.5196 4.0000 0.0000
         vertex -1.8187 1.0500 0.0000
         vertex -1.0500 1.8187 0.0000
      endloop
   endfacet
   facet normal 0.0000 0.0000 1.0000
      outer loop
         vertex -0.5196 4.0000 0.0000
         vertex -1.0500 1.8187 0.0000
         vertex 0.0000 2.1000 0.0000
      endloop
   endfacet
   facet normal 0.0000 0.0000 1.0000
      outer loop
         vertex 3.1500 -9.9598 0.0000
         vertex 3.3000 -10.0000 0.0000
         vertex 6.0000 -8.0000 0.0000
      endloop
   endfacet
   facet normal 0.0000 0.0000 1.0000
      outer loop
         vertex 6.0000 -8.0000 0.0000
         vertex 3.3000 -10.0000 0.0000
         vertex 9.0000 -10.0000 0.0000
      endloop
   endfacet
   facet normal 0.0000 0.0000 1.0000
      outer loop
         vertex 6.0000 -8.0000 0.0000
         vertex 9.0000 -10.0000 0.0000
         vertex 6.0000 -7.0607 0.0000
      endloop
   endfacet
   facet normal 0.0000 0.0000 1.0000
      outer loop
         vertex 6.0000 -7.0607 0.0000
         vertex 9.0000 -10.0000 0.0000
         vertex 7.0606 -6.0000 0.0000
      endloop
   endfacet
   facet normal 0.0000 0.0000 1.0000
      outer loop
         vertex 6.0000 -7.0607 0.0000
         vertex 7.0606 -6.0000 0.0000
         vertex 4.0000 -2.9393 0.0000
      endloop
   endfacet
   facet normal 0.0000 0.0000 1.0000
      outer loop
         vertex -0.0000 3.7000 0.0000
         vertex 0.0000 2.1000 0.0000
         vertex 0.5196 4.0000 0.0000
      endloop
   endfacet
   facet normal 0.0000 0.0000 1.0000
      outer loop
         vertex 0.5196 4.0000 0.0000
         vertex 0.0000 2.1000 0.0000
         vertex 1.0500 1.8187 0.0000
      endloop
   endfacet
   facet normal 0.0000 0.0000 1.0000
      outer loop
         vertex 0.5196 4.0000 0.0000
         vertex 1.0500 1.8187 0.0000
         vertex 2.9393 4.0000 0.0000
      endloop
   endfacet
   facet normal 0.0000 0.0000 1.0000
      outer loop
         vertex 2.9393 4.0000 0.0000
         vertex 1.0500 1.8187 0.0000
         vertex 1.8187 1.0500 0.0000
      endloop
   endfacet
   facet normal 0.0000 0.0000 1.0000
      outer loop
         vertex 2.9393 4.0000 0.0000
         vertex 1.8187 1.0500 0.0000
         vertex 2.1000 0.0000 0.0000
      endloop
   endfacet
   facet normal 0.0000 0.0000 1.0000
      outer loop
         vertex -2.9393 -4.0000 0.0000
         vertex -4.0000 -2.9393 0.0000
         vertex -6.0000 -7.0607 0.0000
      endloop
   endfacet
   facet normal 0.0000 0.0000 1.0000
      outer loop
         vertex -6.0000 -7.0607 0.0000
         vertex -4.0000 -2.9393 0.0000
         vertex -7.0607 -6.0000 0.0000
      endloop
   endfacet
   facet normal 0.0000 0.0000 1.0000
      outer loop
         vertex -6.0000 -7.0607 0.0000
         vertex -7.0607 -6.0000 0.0000
         vertex -6.0000 -8.0000 0.0000
      endloop
   endfacet
   facet normal 0.0000 0.0000 1.0000
      outer loop
         vertex -6.0000 -8.0000 0.0000
         vertex -7.0607 -6.0000 0.0000
         vertex -8.0000 -6.0000 0.0000
      endloop
   endfacet
   facet normal 0.0000 0.0000 1.0000
      outer loop
         vertex -6.0000 -8.0000 0.0000
         vertex -8.0000 -6.0000 0.0000
         vertex -9.0000 -10.0000 0.0000
      endloop
   endfacet
   facet normal 0.0000 0.0000 1.0000
      outer loop
         vertex -9.0000 -10.0000 0.0000
         vertex -8.0000 -6.0000 0.0000
         vertex -8.0000 -3.0000 0.0000
      endloop
   endfacet
   facet normal 0.0000 0.0000 1.0000
      outer loop
         vertex -9.0000 -10.0000 0.0000
         vertex -8.0000 -3.0000 0.0000
         vertex -9.5000 -9.8660 0.0000
      endloop
   endfacet
   facet normal 0.0000 0.0000 1.0000
      outer loop
         vertex -9.5000 -9.8660 0.0000
         vertex -8.0000 -3.0000 0.0000
         vertex -9.7000 -3.0000 0.0000
      endloop
   endfacet
   facet normal 0.0000 0.0000 1.0000
      outer loop
         vertex -9.5000 -9.8660 0.0000
         vertex -9.7000 -3.0000 0.0000
         vertex -9.8500 -3.0402 0.0000
      endloop
   endfacet
   facet normal 0.0000 0.0000 1.0000
      outer loop
         vertex 9.9598 -3.1500 0.0000
         vertex 9.8500 -3.0402 0.0000
         vertex 9.8660 -9.5000 0.0000
      endloop
   endfacet
   facet normal 0.0000 0.0000 1.0000
      outer loop
         vertex 9.9598 -3.1500 0.0000
         vertex 9.8660 -9.5000 0.0000
         vertex 10.0000 -9.0000 0.0000
      endloop
   endfacet
   facet normal 0.0000 0.0000 1.0000
      outer loop
         vertex 9.9598 -3.1500 0.0000
         vertex 10.0000 -9.0000 0.0000
         vertex 10.0000 -3.3000 0.0000
      endloop
   endfacet
   facet normal 0.0000 0.0000 1.0000
      outer loop
         vertex 9.7000 -3.0000 0.0000
         vertex 8.0000 -3.0000 0.0000
         vertex 9.0000 -10.0000 0.0000
      endloop
   endfacet
   facet normal 0.0000 0.0000 1.0000
      outer loop
         vertex 9.7000 -3.0000 0.0000
         vertex 9.0000 -10.0000 0.0000
         vertex 9.5000 -9.8660 0.0000
      endloop
   endfacet
   facet normal 0.0000 0.0000 1.0000
      outer loop
         vertex 9.7000 -3.0000 0.0000
         vertex 9.5000 -9.8660 0.0000
         vertex 9.8660 -9.5000 0.0000
      endloop
   endfacet
   facet normal 0.0000 0.0000 1.0000
      outer loop
         vertex 9.7000 -3.0000 0.0000
         vertex 9.8660 -9.5000 0.0000
         vertex 9.8500 -3.0402 0.0000
      endloop
   endfacet
   facet normal 0.0000 0.0000 1.0000
      outer loop
         vertex 8.0000 -6.0000 0.0000
         vertex 7.0606 -6.0000 0.0000
         vertex 9.0000 -10.0000 0.0000
      endloop
   endfacet
   facet normal 0.0000 0.0000 1.0000
      outer loop
         vertex 8.0000 -6.0000 0.0000
         vertex 9.0000 -10.0000 0.0000
         vertex 8.0000 -3.0000 0.0000
      endloop
   endfacet
   facet normal 0.0000 0.0000 1.0000
      outer loop
         vertex 3.0402 -9.8500 0.0000
         vertex 3.1500 -9.9598 0.0000
         vertex 6.0000 -8.0000 0.0000
      endloop
   endfacet
   facet normal 0.0000 0.0000 1.0000
      outer loop
         vertex 3.0402 -9.8500 0.0000
         vertex 6.0000 -8.0000 0.0000
         vertex 3.0000 -8.0000 0.0000
      endloop
   endfacet
   facet normal 0.0000 0.0000 1.0000
      outer loop
         vertex 3.0402 -9.8500 0.0000
         vertex 3.0000 -8.0000 0.0000
         vertex 3.0000 -9.7000 0.0000
      endloop
   endfacet
   facet normal 0.0000 0.0000 1.0000
      outer loop
         vertex -3.0000 -8.0000 0.0000
         vertex -6.0000 -8.0000 0.0000
         vertex -3.3000 -10.0000 0.0000
      endloop
   endfacet
   facet normal 0.0000 0.0000 1.0000
      outer loop
         vertex -3.0000 -8.0000 0.0000
         vertex -3.3000 -10.0000 0.0000
         vertex -3.1500 -9.9598 0.0000
      endloop
   endfacet
   facet normal 0.0000 0.0000 1.0000
      outer loop
         vertex -3.0000 -8.0000 0.0000
         vertex -3.1500 -9.9598 0.0000
         vertex -3.0402 -9.8500 0.0000
      endloop
   endfacet
   facet normal 0.0000 0.0000 1.0000
      outer loop
         vertex -3.0000 -8.0000 0.0000
         vertex -3.0402 -9.8500 0.0000
         vertex -3.0000 -9.7000 0.0000
      endloop
   endfacet
   facet normal 0.0000 0.0000 1.0000
      outer loop
         vertex -9.8660 -9.5000 0.0000
         vertex -9.5000 -9.8660 0.0000
         vertex -9.8500 -3.0402 0.0000
      endloop
   endfacet
   facet normal 0.0000 0.0000 1.0000
      outer loop
         vertex -9.8660 -9.5000 0.0000
         vertex -9.8500 -3.0402 0.0000
         vertex -9.9598 -3.1500 0.0000
      endloop
   endfacet
   facet normal 0.0000 0.0000 1.0000
      outer loop
         vertex -9.8660 -9.5000 0.0000
         vertex -9.9598 -3.1500 0.0000
         vertex -10.0000 -3.3000 0.0000
      endloop
   endfacet
   facet normal 0.0000 0.0000 1.0000
      outer loop
         vertex -9.8660 -9.5000 0.0000
         vertex -10.0000 -3.3000 0.0000
         vertex -10.0000 -9.0000 0.0000
      endloop
   endfacet
   facet normal 0.0000 0.0000 1.0000
      outer loop
         vertex -6.0000 -8.0000 0.0000
         vertex -9.0000 -10.0000 0.0000
         vertex -3.3000 -10.0000 0.0000
      endloop
   endfacet
   facet normal 0.0000 0.0000 1.0000
      outer loop
         vertex -0.5196 4.0000 0.0000
         vertex 0.0000 2.1000 0.0000
         vertex -0.0000 3.7000 0.0000
      endloop
   endfacet
   facet normal 0.0000 0.0000 1.0000
      outer loop
         vertex 4.0000 -0.5196 0.0000
         vertex 3.7000 0.0000 0.0000
         vertex 4.0000 -2.9393 0.0000
      endloop
   endfacet
   facet normal 0.0000 0.0000 1.0000
      outer loop
         vertex -3.7000 -0.0000 0.0000
         vertex -4.0000 2.9393 0.0000
         vertex -4.0000 0.5196 0.0000
      endloop
   endfacet
   facet normal 0.0000 0.0000 1.0000
      outer loop
         vertex 4.0000 2.9393 0.0000
         vertex 3.7000 0.0000 0.0000
         vertex 4.0000 0.5196 0.0000
      endloop
   endfacet
   facet normal 0.0000 0.0000 1.0000
      outer loop
         vertex 9.7000 3.0000 0.0000
         vertex 8.0000 6.0000 0.0000
         vertex 8.0000 3.0000 0.0000
      endloop
   endfacet
   facet normal 0.0000 0.0000 1.0000
      outer loop
         vertex 9.5000 9.8660 0.0000
         vertex 9.7000 3.0000 0.0000
         vertex 9.8660 9.5000 0.0000
      endloop
   endfacet
   facet normal 0.0000 0.0000 1.0000
      outer loop
         vertex -9.9598 3.1500 0.0000
         vertex -10.0000 9.0000 0.0000
         vertex -10.0000 3.3000 0.0000
      endloop
   endfacet
   facet normal 0.0000 0.0000 1.0000
      outer loop
         vertex -9.0000 10.0000 0.0000
         vertex -6.0000 8.0000 0.0000
         vertex -3.3000 10.0000 0.0000
      endloop
   endfacet
   facet normal 0.9071 0.4210 0.0000
      outer loop
         vertex -3.0000 9.7000 -50.0000
         vertex -3.0402 9.8500 -50.0000
         vertex -3.0402 9.8500 0.0000
      endloop
   endfacet
   facet normal 0.9405 0.3399 0.0000
      outer loop
         vertex -3.0000 9.7000 -50.0000
         vertex -3.0402 9.8500 0.0000
         vertex -3.0000 9.7000 0.0000
      endloop
   endfacet
   facet normal 1.0000 0.0000 0.0000
      outer loop
         vertex -6.0000 7.0606 -50.0000
         vertex -6.0000 8.0000 -50.0000
         vertex -6.0000 8.0000 0.0000
      endloop
   endfacet
   facet normal 1.0000 0.0000 0.0000
      outer loop
         vertex -6.0000 7.0606 -50.0000
         vertex -6.0000 8.0000 0.0000
         vertex -6.0000 7.0606 0.0000
      endloop
   endfacet
   facet normal 1.0000 0.0000 0.0000
      outer loop
         vertex -6.0000 -8.0000 0.0000
         vertex -6.0000 -8.0000 -50.0000
         vertex -6.0000 -7.0607 -50.0000
      endloop
   endfacet
   facet normal 1.0000 0.0000 0.0000
      outer loop
         vertex -6.0000 -8.0000 0.0000
         vertex -6.0000 -7.0607 -50.0000
         vertex -6.0000 -7.0607 0.0000
      endloop
   endfacet
   facet normal -0.9071 -0.4210 0.0000
      outer loop
         vertex -10.0000 3.3000 -50.0000
         vertex -9.9598 3.1500 -50.0000
         vertex -9.9598 3.1500 0.0000
      endloop
   endfacet
   facet normal -0.9405 -0.3399 0.0000
      outer loop
         vertex -10.0000 3.3000 -50.0000
         vertex -9.9598 3.1500 0.0000
         vertex -10.0000 3.3000 0.0000
      endloop
   endfacet
   facet normal -0.3399 -0.9405 0.0000
      outer loop
         vertex -9.8500 3.0402 -50.0000
         vertex -9.7000 3.0000 -50.0000
         vertex -9.7000 3.0000 0.0000
      endloop
   endfacet
   facet normal -0.4210 -0.9071 0.0000
      outer loop
         vertex -9.8500 3.0402 -50.0000
         vertex -9.7000 3.0000 0.0000
         vertex -9.8500 3.0402 0.0000
      endloop
   endfacet
   facet normal -0.7071 -0.7071 0.0000
      outer loop
         vertex -4.0000 2.9393 0.0000
         vertex -7.0607 6.0000 0.0000
         vertex -7.0607 6.0000 -50.0000
      endloop
   endfacet
   facet normal -0.7071 -0.7071 0.0000
      outer loop
         vertex -4.0000 2.9393 0.0000
         vertex -7.0607 6.0000 -50.0000
         vertex -4.0000 2.9393 -50.0000
      endloop
   endfacet
   facet normal -0.4210 0.9071 0.0000
      outer loop
         vertex -9.0000 10.0000 -50.0000
         vertex -9.5000 9.8660 -50.0000
         vertex -9.5000 9.8660 0.0000
      endloop
   endfacet
   facet normal -0.3399 0.9405 0.0000
      outer loop
         vertex -9.0000 10.0000 -50.0000
         vertex -9.5000 9.8660 0.0000
         vertex -9.0000 10.0000 0.0000
      endloop
   endfacet
   facet normal -0.7672 0.6414 0.0000
      outer loop
         vertex -9.5000 9.8660 -50.0000
         vertex -9.8660 9.5000 -50.0000
         vertex -9.8660 9.5000 0.0000
      endloop
   endfacet
   facet normal -0.6414 0.7672 0.0000
      outer loop
         vertex -9.5000 9.8660 -50.0000
         vertex -9.8660 9.5000 0.0000
         vertex -9.5000 9.8660 0.0000
      endloop
   endfacet
   facet normal 0.0000 1.0000 0.0000
      outer loop
         vertex -3.3000 10.0000 -50.0000
         vertex -9.0000 10.0000 -50.0000
         vertex -9.0000 10.0000 0.0000
      endloop
   endfacet
   facet normal 0.0000 1.0000 0.0000
      outer loop
         vertex -3.3000 10.0000 -50.0000
         vertex -9.0000 10.0000 0.0000
         vertex -3.3000 10.0000 0.0000
      endloop
   endfacet
   facet normal -0.9405 0.3399 0.0000
      outer loop
         vertex -9.8660 9.5000 -50.0000
         vertex -10.0000 9.0000 -50.0000
         vertex -10.0000 9.0000 0.0000
      endloop
   endfacet
   facet normal -0.9071 0.4210 0.0000
      outer loop
         vertex -9.8660 9.5000 -50.0000
         vertex -10.0000 9.0000 0.0000
         vertex -9.8660 9.5000 0.0000
      endloop
   endfacet
   facet normal -1.0000 0.0000 0.0000
      outer loop
         vertex -10.0000 9.0000 -50.0000
         vertex -10.0000 3.3000 -50.0000
         vertex -10.0000 3.3000 0.0000
      endloop
   endfacet
   facet normal -1.0000 0.0000 0.0000
      outer loop
         vertex -10.0000 9.0000 -50.0000
         vertex -10.0000 3.3000 0.0000
         vertex -10.0000 9.0000 0.0000
      endloop
   endfacet
   facet normal 1.0000 0.0000 0.0000
      outer loop
         vertex -8.0000 3.0000 -50.0000
         vertex -8.0000 6.0000 -50.0000
         vertex -8.0000 6.0000 0.0000
      endloop
   endfacet
   facet normal 1.0000 0.0000 0.0000
      outer loop
         vertex -8.0000 3.0000 -50.0000
         vertex -8.0000 6.0000 0.0000
         vertex -8.0000 3.0000 0.0000
      endloop
   endfacet
   facet normal 0.0000 -1.0000 0.0000
      outer loop
         vertex -9.7000 3.0000 -50.0000
         vertex -8.0000 3.0000 -50.0000
         vertex -8.0000 3.0000 0.0000
      endloop
   endfacet
   facet normal 0.0000 -1.0000 0.0000
      outer loop
         vertex -9.7000 3.0000 -50.0000
         vertex -8.0000 3.0000 0.0000
         vertex -9.7000 3.0000 0.0000
      endloop
   endfacet
   facet normal -0.6414 -0.7672 0.0000
      outer loop
         vertex -9.9598 3.1500 -50.0000
         vertex -9.8500 3.0402 -50.0000
         vertex -9.8500 3.0402 0.0000
      endloop
   endfacet
   facet normal -0.7672 -0.6414 0.0000
      outer loop
         vertex -9.9598 3.1500 -50.0000
         vertex -9.8500 3.0402 0.0000
         vertex -9.9598 3.1500 0.0000
      endloop
   endfacet
   facet normal 0.0000 -1.0000 0.0000
      outer loop
         vertex -8.0000 6.0000 -50.0000
         vertex -7.0607 6.0000 -50.0000
         vertex -7.0607 6.0000 0.0000
      endloop
   endfacet
   facet normal 0.0000 -1.0000 0.0000
      outer loop
         vertex -8.0000 6.0000 -50.0000
         vertex -7.0607 6.0000 0.0000
         vertex -8.0000 6.0000 0.0000
      endloop
   endfacet
   facet normal 0.0000 1.0000 0.0000
      outer loop
         vertex -8.0000 -6.0000 0.0000
         vertex -7.0607 -6.0000 0.0000
         vertex -7.0607 -6.0000 -50.0000
      endloop
   endfacet
   facet normal 0.0000 1.0000 0.0000
      outer loop
         vertex -8.0000 -6.0000 0.0000
         vertex -7.0607 -6.0000 -50.0000
         vertex -8.0000 -6.0000 -50.0000
      endloop
   endfacet
   facet normal 1.0000 0.0000 0.0000
      outer loop
         vertex -8.0000 -6.0000 -50.0000
         vertex -8.0000 -3.0000 -50.0000
         vertex -8.0000 -3.0000 0.0000
      endloop
   endfacet
   facet normal 1.0000 0.0000 0.0000
      outer loop
         vertex -8.0000 -6.0000 -50.0000
         vertex -8.0000 -3.0000 0.0000
         vertex -8.0000 -6.0000 0.0000
      endloop
   endfacet
   facet normal 0.0000 1.0000 0.0000
      outer loop
         vertex -9.7000 -3.0000 0.0000
         vertex -8.0000 -3.0000 0.0000
         vertex -8.0000 -3.0000 -50.0000
      endloop
   endfacet
   facet normal 0.0000 1.0000 0.0000
      outer loop
         vertex -9.7000 -3.0000 0.0000
         vertex -8.0000 -3.0000 -50.0000
         vertex -9.7000 -3.0000 -50.0000
      endloop
   endfacet
   facet normal -0.7071 0.7071 0.0000
      outer loop
         vertex -4.0000 -2.9393 -50.0000
         vertex -7.0607 -6.0000 -50.0000
         vertex -7.0607 -6.0000 0.0000
      endloop
   endfacet
   facet normal -0.7071 0.7071 0.0000
      outer loop
         vertex -4.0000 -2.9393 -50.0000
         vertex -7.0607 -6.0000 0.0000
         vertex -4.0000 -2.9393 0.0000
      endloop
   endfacet
   facet normal -0.6414 -0.7672 0.0000
      outer loop
         vertex -9.8660 -9.5000 -50.0000
         vertex -9.5000 -9.8660 -50.0000
         vertex -9.5000 -9.8660 0.0000
      endloop
   endfacet
   facet normal -0.7672 -0.6414 0.0000
      outer loop
         vertex -9.8660 -9.5000 -50.0000
         vertex -9.5000 -9.8660 0.0000
         vertex -9.8660 -9.5000 0.0000
      endloop
   endfacet
   facet normal -0.9071 -0.4210 0.0000
      outer loop
         vertex -10.0000 -9.0000 -50.0000
         vertex -9.8660 -9.5000 -50.0000
         vertex -9.8660 -9.5000 0.0000
      endloop
   endfacet
   facet normal -0.9405 -0.3399 0.0000
      outer loop
         vertex -10.0000 -9.0000 -50.0000
         vertex -9.8660 -9.5000 0.0000
         vertex -10.0000 -9.0000 0.0000
      endloop
   endfacet
   facet normal -0.3399 -0.9405 0.0000
      outer loop
         vertex -9.5000 -9.8660 -50.0000
         vertex -9.0000 -10.0000 -50.0000
         vertex -9.0000 -10.0000 0.0000
      endloop
   endfacet
   facet normal -0.4210 -0.9071 0.0000
      outer loop
         vertex -9.5000 -9.8660 -50.0000
         vertex -9.0000 -10.0000 0.0000
         vertex -9.5000 -9.8660 0.0000
      endloop
   endfacet
   facet normal -1.0000 0.0000 0.0000
      outer loop
         vertex -10.0000 -9.0000 0.0000
         vertex -10.0000 -3.3000 0.0000
         vertex -10.0000 -3.3000 -50.0000
      endloop
   endfacet
   facet normal -1.0000 0.0000 0.0000
      outer loop
         vertex -10.0000 -9.0000 0.0000
         vertex -10.0000 -3.3000 -50.0000
         vertex -10.0000 -9.0000 -50.0000
      endloop
   endfacet
   facet normal -0.9405 0.3399 0.0000
      outer loop
         vertex -9.9598 -3.1500 -50.0000
         vertex -10.0000 -3.3000 -50.0000
         vertex -10.0000 -3.3000 0.0000
      endloop
   endfacet
   facet normal -0.9071 0.4210 0.0000
      outer loop
         vertex -9.9598 -3.1500 -50.0000
         vertex -10.0000 -3.3000 0.0000
         vertex -9.9598 -3.1500 0.0000
      endloop
   endfacet
   facet normal -0.4210 0.9071 0.0000
      outer loop
         vertex -9.7000 -3.0000 -50.0000
         vertex -9.8500 -3.0402 -50.0000
         vertex -9.8500 -3.0402 0.0000
      endloop
   endfacet
   facet normal -0.3399 0.9405 0.0000
      outer loop
         vertex -9.7000 -3.0000 -50.0000
         vertex -9.8500 -3.0402 0.0000
         vertex -9.7000 -3.0000 0.0000
      endloop
   endfacet
   facet normal -0.7672 0.6414 0.0000
      outer loop
         vertex -9.8500 -3.0402 -50.0000
         vertex -9.9598 -3.1500 -50.0000
         vertex -9.9598 -3.1500 0.0000
      endloop
   endfacet
   facet normal -0.6414 0.7672 0.0000
      outer loop
         vertex -9.8500 -3.0402 -50.0000
         vertex -9.9598 -3.1500 0.0000
         vertex -9.8500 -3.0402 0.0000
      endloop
   endfacet
   facet normal -0.8660 -0.5000 0.0000
      outer loop
         vertex -4.0000 0.5196 -50.0000
         vertex -3.7000 -0.0000 -50.0000
         vertex -3.7000 -0.0000 0.0000
      endloop
   endfacet
   facet normal -0.8660 -0.5000 0.0000
      outer loop
         vertex -4.0000 0.5196 -50.0000
         vertex -3.7000 -0.0000 0.0000
         vertex -4.0000 0.5196 0.0000
      endloop
   endfacet
   facet normal 0.7071 0.7071 0.0000
      outer loop
         vertex -2.9394 4.0000 -50.0000
         vertex -6.0000 7.0606 -50.0000
         vertex -6.0000 7.0606 0.0000
      endloop
   endfacet
   facet normal 0.7071 0.7071 0.0000
      outer loop
         vertex -2.9394 4.0000 -50.0000
         vertex -6.0000 7.0606 0.0000
         vertex -2.9394 4.0000 0.0000
      endloop
   endfacet
   facet normal -0.5000 -0.8660 0.0000
      outer loop
         vertex 0.0000 -3.7000 -50.0000
         vertex 0.5196 -4.0000 -50.0000
         vertex 0.5196 -4.0000 0.0000
      endloop
   endfacet
   facet normal -0.5000 -0.8660 0.0000
      outer loop
         vertex 0.0000 -3.7000 -50.0000
         vertex 0.5196 -4.0000 0.0000
         vertex 0.0000 -3.7000 0.0000
      endloop
   endfacet
   facet normal 0.9391 -0.3437 0.0000
      outer loop
         vertex -2.1000 -0.0000 -50.0000
         vertex -1.8187 1.0500 -50.0000
         vertex -1.8187 1.0500 0.0000
      endloop
   endfacet
   facet normal 0.9851 -0.1719 0.0000
      outer loop
         vertex -2.1000 -0.0000 -50.0000
         vertex -1.8187 1.0500 0.0000
         vertex -2.1000 -0.0000 0.0000
      endloop
   endfacet
   facet normal 0.7672 -0.6414 0.0000
      outer loop
         vertex -1.0500 1.8187 0.0000
         vertex -1.8187 1.0500 0.0000
         vertex -1.8187 1.0500 -50.0000
      endloop
   endfacet
   facet normal 0.6414 -0.7672 0.0000
      outer loop
         vertex -1.0500 1.8187 0.0000
         vertex -1.8187 1.0500 -50.0000
         vertex -1.0500 1.8187 -50.0000
      endloop
   endfacet
   facet normal 0.1719 -0.9851 0.0000
      outer loop
         vertex -1.0500 1.8187 -50.0000
         vertex 0.0000 2.1000 -50.0000
         vertex 0.0000 2.1000 0.0000
      endloop
   endfacet
   facet normal 0.3437 -0.9391 0.0000
      outer loop
         vertex -1.0500 1.8187 -50.0000
         vertex 0.0000 2.1000 0.0000
         vertex -1.0500 1.8187 0.0000
      endloop
   endfacet
   facet normal -1.0000 0.0000 0.0000
      outer loop
         vertex -4.0000 2.9393 -50.0000
         vertex -4.0000 0.5196 -50.0000
         vertex -4.0000 0.5196 0.0000
      endloop
   endfacet
   facet normal -1.0000 0.0000 0.0000
      outer loop
         vertex -4.0000 2.9393 -50.0000
         vertex -4.0000 0.5196 0.0000
         vertex -4.0000 2.9393 0.0000
      endloop
   endfacet
   facet normal 0.0000 -1.0000 0.0000
      outer loop
         vertex 0.5196 -4.0000 -50.0000
         vertex 2.9393 -4.0000 -50.0000
         vertex 2.9393 -4.0000 0.0000
      endloop
   endfacet
   facet normal 0.0000 -1.0000 0.0000
      outer loop
         vertex 0.5196 -4.0000 -50.0000
         vertex 2.9393 -4.0000 0.0000
         vertex 0.5196 -4.0000 0.0000
      endloop
   endfacet
   facet normal 0.1719 0.9851 0.0000
      outer loop
         vertex -1.0500 -1.8187 0.0000
         vertex 0.0000 -2.1000 0.0000
         vertex 0.0000 -2.1000 -50.0000
      endloop
   endfacet
   facet normal 0.3437 0.9391 0.0000
      outer loop
         vertex -1.0500 -1.8187 0.0000
         vertex 0.0000 -2.1000 -50.0000
         vertex -1.0500 -1.8187 -50.0000
      endloop
   endfacet
   facet normal 0.7672 0.6414 0.0000
      outer loop
         vertex -1.8187 -1.0500 -50.0000
         vertex -1.8187 -1.0500 0.0000
         vertex -1.0500 -1.8187 0.0000
      endloop
   endfacet
   facet normal 0.6414 0.7672 0.0000
      outer loop
         vertex -1.8187 -1.0500 -50.0000
         vertex -1.0500 -1.8187 0.0000
         vertex -1.0500 -1.8187 -50.0000
      endloop
   endfacet
   facet normal 0.9851 0.1719 0.0000
      outer loop
         vertex -1.8187 -1.0500 -50.0000
         vertex -2.1000 -0.0000 -50.0000
         vertex -2.1000 -0.0000 0.0000
      endloop
   endfacet
   facet normal 0.9391 0.3437 0.0000
      outer loop
         vertex -1.8187 -1.0500 -50.0000
         vertex -2.1000 -0.0000 0.0000
         vertex -1.8187 -1.0500 0.0000
      endloop
   endfacet
   facet normal -0.1719 0.9851 0.0000
      outer loop
         vertex 1.0500 -1.8187 -50.0000
         vertex 0.0000 -2.1000 -50.0000
         vertex 0.0000 -2.1000 0.0000
      endloop
   endfacet
   facet normal -0.3437 0.9391 0.0000
      outer loop
         vertex 1.0500 -1.8187 -50.0000
         vertex 0.0000 -2.1000 0.0000
         vertex 1.0500 -1.8187 0.0000
      endloop
   endfacet
   facet normal 0.0000 -1.0000 0.0000
      outer loop
         vertex -2.9393 -4.0000 -50.0000
         vertex -0.5196 -4.0000 -50.0000
         vertex -0.5196 -4.0000 0.0000
      endloop
   endfacet
   facet normal 0.0000 -1.0000 0.0000
      outer loop
         vertex -2.9393 -4.0000 -50.0000
         vertex -0.5196 -4.0000 0.0000
         vertex -2.9393 -4.0000 0.0000
      endloop
   endfacet
   facet normal 0.5000 -0.8660 0.0000
      outer loop
         vertex -0.5196 -4.0000 -50.0000
         vertex 0.0000 -3.7000 -50.0000
         vertex 0.0000 -3.7000 0.0000
      endloop
   endfacet
   facet normal 0.5000 -0.8660 0.0000
      outer loop
         vertex -0.5196 -4.0000 -50.0000
         vertex 0.0000 -3.7000 0.0000
         vertex -0.5196 -4.0000 0.0000
      endloop
   endfacet
   facet normal 1.0000 0.0000 0.0000
      outer loop
         vertex -3.0000 8.0000 -50.0000
         vertex -3.0000 9.7000 -50.0000
         vertex -3.0000 9.7000 0.0000
      endloop
   endfacet
   facet normal 1.0000 0.0000 0.0000
      outer loop
         vertex -3.0000 8.0000 -50.0000
         vertex -3.0000 9.7000 0.0000
         vertex -3.0000 8.0000 0.0000
      endloop
   endfacet
   facet normal 0.3399 0.9405 0.0000
      outer loop
         vertex -3.1500 9.9598 -50.0000
         vertex -3.3000 10.0000 -50.0000
         vertex -3.3000 10.0000 0.0000
      endloop
   endfacet
   facet normal 0.4210 0.9071 0.0000
      outer loop
         vertex -3.1500 9.9598 -50.0000
         vertex -3.3000 10.0000 0.0000
         vertex -3.1500 9.9598 0.0000
      endloop
   endfacet
   facet normal 0.0000 -1.0000 0.0000
      outer loop
         vertex -6.0000 8.0000 -50.0000
         vertex -3.0000 8.0000 -50.0000
         vertex -3.0000 8.0000 0.0000
      endloop
   endfacet
   facet normal 0.0000 -1.0000 0.0000
      outer loop
         vertex -6.0000 8.0000 -50.0000
         vertex -3.0000 8.0000 0.0000
         vertex -6.0000 8.0000 0.0000
      endloop
   endfacet
   facet normal 0.6414 0.7672 0.0000
      outer loop
         vertex -3.0402 9.8500 -50.0000
         vertex -3.1500 9.9598 -50.0000
         vertex -3.1500 9.9598 0.0000
      endloop
   endfacet
   facet normal 0.7672 0.6414 0.0000
      outer loop
         vertex -3.0402 9.8500 -50.0000
         vertex -3.1500 9.9598 0.0000
         vertex -3.0402 9.8500 0.0000
      endloop
   endfacet
   facet normal 0.0000 1.0000 0.0000
      outer loop
         vertex -0.5196 4.0000 -50.0000
         vertex -2.9394 4.0000 -50.0000
         vertex -2.9394 4.0000 0.0000
      endloop
   endfacet
   facet normal 0.0000 1.0000 0.0000
      outer loop
         vertex -0.5196 4.0000 -50.0000
         vertex -2.9394 4.0000 0.0000
         vertex -0.5196 4.0000 0.0000
      endloop
   endfacet
   facet normal -1.0000 0.0000 0.0000
      outer loop
         vertex -4.0000 -0.5196 -50.0000
         vertex -4.0000 -2.9393 -50.0000
         vertex -4.0000 -2.9393 0.0000
      endloop
   endfacet
   facet normal -1.0000 0.0000 0.0000
      outer loop
         vertex -4.0000 -0.5196 -50.0000
         vertex -4.0000 -2.9393 0.0000
         vertex -4.0000 -0.5196 0.0000
      endloop
   endfacet
   facet normal 1.0000 0.0000 0.0000
      outer loop
         vertex -3.0000 -9.7000 -50.0000
         vertex -3.0000 -8.0000 -50.0000
         vertex -3.0000 -8.0000 0.0000
      endloop
   endfacet
   facet normal 1.0000 0.0000 0.0000
      outer loop
         vertex -3.0000 -9.7000 -50.0000
         vertex -3.0000 -8.0000 0.0000
         vertex -3.0000 -9.7000 0.0000
      endloop
   endfacet
   facet normal 0.0000 1.0000 0.0000
      outer loop
         vertex -6.0000 -8.0000 0.0000
         vertex -3.0000 -8.0000 0.0000
         vertex -3.0000 -8.0000 -50.0000
      endloop
   endfacet
   facet normal 0.0000 1.0000 0.0000
      outer loop
         vertex -6.0000 -8.0000 0.0000
         vertex -3.0000 -8.0000 -50.0000
         vertex -6.0000 -8.0000 -50.0000
      endloop
   endfacet
   facet normal 0.4210 -0.9071 0.0000
      outer loop
         vertex -3.3000 -10.0000 -50.0000
         vertex -3.1500 -9.9598 -50.0000
         vertex -3.1500 -9.9598 0.0000
      endloop
   endfacet
   facet normal 0.3399 -0.9405 0.0000
      outer loop
         vertex -3.3000 -10.0000 -50.0000
         vertex -3.1500 -9.9598 0.0000
         vertex -3.3000 -10.0000 0.0000
      endloop
   endfacet
   facet normal 0.0000 -1.0000 0.0000
      outer loop
         vertex -9.0000 -10.0000 -50.0000
         vertex -3.3000 -10.0000 -50.0000
         vertex -3.3000 -10.0000 0.0000
      endloop
   endfacet
   facet normal 0.0000 -1.0000 0.0000
      outer loop
         vertex -9.0000 -10.0000 -50.0000
         vertex -3.3000 -10.0000 0.0000
         vertex -9.0000 -10.0000 0.0000
      endloop
   endfacet
   facet normal 0.7672 -0.6414 0.0000
      outer loop
         vertex -3.1500 -9.9598 -50.0000
         vertex -3.0402 -9.8500 -50.0000
         vertex -3.0402 -9.8500 0.0000
      endloop
   endfacet
   facet normal 0.6414 -0.7672 0.0000
      outer loop
         vertex -3.1500 -9.9598 -50.0000
         vertex -3.0402 -9.8500 0.0000
         vertex -3.1500 -9.9598 0.0000
      endloop
   endfacet
   facet normal 0.9405 -0.3399 0.0000
      outer loop
         vertex -3.0000 -9.7000 -50.0000
         vertex -3.0000 -9.7000 0.0000
         vertex -3.0402 -9.8500 0.0000
      endloop
   endfacet
   facet normal 0.9071 -0.4210 0.0000
      outer loop
         vertex -3.0000 -9.7000 -50.0000
         vertex -3.0402 -9.8500 0.0000
         vertex -3.0402 -9.8500 -50.0000
      endloop
   endfacet
   facet normal -0.8660 0.5000 0.0000
      outer loop
         vertex -3.7000 -0.0000 -50.0000
         vertex -4.0000 -0.5196 -50.0000
         vertex -4.0000 -0.5196 0.0000
      endloop
   endfacet
   facet normal -0.8660 0.5000 0.0000
      outer loop
         vertex -3.7000 -0.0000 -50.0000
         vertex -4.0000 -0.5196 0.0000
         vertex -3.7000 -0.0000 0.0000
      endloop
   endfacet
   facet normal 0.7071 -0.7071 0.0000
      outer loop
         vertex -6.0000 -7.0607 -50.0000
         vertex -2.9393 -4.0000 -50.0000
         vertex -2.9393 -4.0000 0.0000
      endloop
   endfacet
   facet normal 0.7071 -0.7071 0.0000
      outer loop
         vertex -6.0000 -7.0607 -50.0000
         vertex -2.9393 -4.0000 0.0000
         vertex -6.0000 -7.0607 0.0000
      endloop
   endfacet
   facet normal -1.0000 0.0000 0.0000
      outer loop
         vertex 6.0000 8.0000 -50.0000
         vertex 6.0000 7.0607 -50.0000
         vertex 6.0000 7.0607 0.0000
      endloop
   endfacet
   facet normal -1.0000 0.0000 0.0000
      outer loop
         vertex 6.0000 8.0000 -50.0000
         vertex 6.0000 7.0607 0.0000
         vertex 6.0000 8.0000 0.0000
      endloop
   endfacet
   facet normal -1.0000 0.0000 0.0000
      outer loop
         vertex 6.0000 -8.0000 -50.0000
         vertex 6.0000 -8.0000 0.0000
         vertex 6.0000 -7.0607 0.0000
      endloop
   endfacet
   facet normal -1.0000 0.0000 0.0000
      outer loop
         vertex 6.0000 -8.0000 -50.0000
         vertex 6.0000 -7.0607 0.0000
         vertex 6.0000 -7.0607 -50.0000
      endloop
   endfacet
   facet normal 0.9405 -0.3399 0.0000
      outer loop
         vertex 9.9598 3.1500 -50.0000
         vertex 10.0000 3.3000 -50.0000
         vertex 10.0000 3.3000 0.0000
      endloop
   endfacet
   facet normal 0.9071 -0.4210 0.0000
      outer loop
         vertex 9.9598 3.1500 -50.0000
         vertex 10.0000 3.3000 0.0000
         vertex 9.9598 3.1500 0.0000
      endloop
   endfacet
   facet normal 0.4210 -0.9071 0.0000
      outer loop
         vertex 9.7000 3.0000 -50.0000
         vertex 9.8500 3.0402 -50.0000
         vertex 9.8500 3.0402 0.0000
      endloop
   endfacet
   facet normal 0.3399 -0.9405 0.0000
      outer loop
         vertex 9.7000 3.0000 -50.0000
         vertex 9.8500 3.0402 0.0000
         vertex 9.7000 3.0000 0.0000
      endloop
   endfacet
   facet normal 0.7071 -0.7071 0.0000
      outer loop
         vertex 4.0000 2.9393 -50.0000
         vertex 7.0607 6.0000 -50.0000
         vertex 7.0607 6.0000 0.0000
      endloop
   endfacet
   facet normal 0.7071 -0.7071 0.0000
      outer loop
         vertex 4.0000 2.9393 -50.0000
         vertex 7.0607 6.0000 0.0000
         vertex 4.0000 2.9393 0.0000
      endloop
   endfacet
   facet normal 0.3399 0.9405 0.0000
      outer loop
         vertex 9.5000 9.8660 -50.0000
         vertex 9.0000 10.0000 -50.0000
         vertex 9.0000 10.0000 0.0000
      endloop
   endfacet
   facet normal 0.4210 0.9071 0.0000
      outer loop
         vertex 9.5000 9.8660 -50.0000
         vertex 9.0000 10.0000 0.0000
         vertex 9.5000 9.8660 0.0000
      endloop
   endfacet
   facet normal 0.6414 0.7672 0.0000
      outer loop
         vertex 9.8660 9.5000 -50.0000
         vertex 9.5000 9.8660 -50.0000
         vertex 9.5000 9.8660 0.0000
      endloop
   endfacet
   facet normal 0.7672 0.6414 0.0000
      outer loop
         vertex 9.8660 9.5000 -50.0000
         vertex 9.5000 9.8660 0.0000
         vertex 9.8660 9.5000 0.0000
      endloop
   endfacet
   facet normal 0.9071 0.4210 0.0000
      outer loop
         vertex 10.0000 9.0000 -50.0000
         vertex 9.8660 9.5000 -50.0000
         vertex 9.8660 9.5000 0.0000
      endloop
   endfacet
   facet normal 0.9405 0.3399 0.0000
      outer loop
         vertex 10.0000 9.0000 -50.0000
         vertex 9.8660 9.5000 0.0000
         vertex 10.0000 9.0000 0.0000
      endloop
   endfacet
   facet normal 1.0000 0.0000 0.0000
      outer loop
         vertex 10.0000 3.3000 -50.0000
         vertex 10.0000 9.0000 -50.0000
         vertex 10.0000 9.0000 0.0000
      endloop
   endfacet
   facet normal 1.0000 0.0000 0.0000
      outer loop
         vertex 10.0000 3.3000 -50.0000
         vertex 10.0000 9.0000 0.0000
         vertex 10.0000 3.3000 0.0000
      endloop
   endfacet
   facet normal -1.0000 0.0000 0.0000
      outer loop
         vertex 8.0000 6.0000 -50.0000
         vertex 8.0000 3.0000 -50.0000
         vertex 8.0000 3.0000 0.0000
      endloop
   endfacet
   facet normal -1.0000 0.0000 0.0000
      outer loop
         vertex 8.0000 6.0000 -50.0000
         vertex 8.0000 3.0000 0.0000
         vertex 8.0000 6.0000 0.0000
      endloop
   endfacet
   facet normal 0.0000 -1.0000 0.0000
      outer loop
         vertex 8.0000 3.0000 -50.0000
         vertex 9.7000 3.0000 -50.0000
         vertex 9.7000 3.0000 0.0000
      endloop
   endfacet
   facet normal 0.0000 -1.0000 0.0000
      outer loop
         vertex 8.0000 3.0000 -50.0000
         vertex 9.7000 3.0000 0.0000
         vertex 8.0000 3.0000 0.0000
      endloop
   endfacet
   facet normal 0.7672 -0.6414 0.0000
      outer loop
         vertex 9.8500 3.0402 -50.0000
         vertex 9.9598 3.1500 -50.0000
         vertex 9.9598 3.1500 0.0000
      endloop
   endfacet
   facet normal 0.6414 -0.7672 0.0000
      outer loop
         vertex 9.8500 3.0402 -50.0000
         vertex 9.9598 3.1500 0.0000
         vertex 9.8500 3.0402 0.0000
      endloop
   endfacet
   facet normal 0.0000 -1.0000 0.0000
      outer loop
         vertex 7.0607 6.0000 -50.0000
         vertex 8.0000 6.0000 -50.0000
         vertex 8.0000 6.0000 0.0000
      endloop
   endfacet
   facet normal 0.0000 -1.0000 0.0000
      outer loop
         vertex 7.0607 6.0000 -50.0000
         vertex 8.0000 6.0000 0.0000
         vertex 7.0607 6.0000 0.0000
      endloop
   endfacet
   facet normal 0.0000 1.0000 0.0000
      outer loop
         vertex 8.0000 -6.0000 -50.0000
         vertex 7.0606 -6.0000 -50.0000
         vertex 7.0606 -6.0000 0.0000
      endloop
   endfacet
   facet normal 0.0000 1.0000 0.0000
      outer loop
         vertex 8.0000 -6.0000 -50.0000
         vertex 7.0606 -6.0000 0.0000
         vertex 8.0000 -6.0000 0.0000
      endloop
   endfacet
   facet normal 0.0000 -1.0000 0.0000
      outer loop
         vertex 3.3000 -10.0000 -50.0000
         vertex 9.0000 -10.0000 -50.0000
         vertex 9.0000 -10.0000 0.0000
      endloop
   endfacet
   facet normal 0.0000 -1.0000 0.0000
      outer loop
         vertex 3.3000 -10.0000 -50.0000
         vertex 9.0000 -10.0000 0.0000
         vertex 3.3000 -10.0000 0.0000
      endloop
   endfacet
   facet normal -1.0000 0.0000 0.0000
      outer loop
         vertex 8.0000 -3.0000 -50.0000
         vertex 8.0000 -6.0000 -50.0000
         vertex 8.0000 -6.0000 0.0000
      endloop
   endfacet
   facet normal -1.0000 0.0000 0.0000
      outer loop
         vertex 8.0000 -3.0000 -50.0000
         vertex 8.0000 -6.0000 0.0000
         vertex 8.0000 -3.0000 0.0000
      endloop
   endfacet
   facet normal 0.0000 1.0000 0.0000
      outer loop
         vertex 8.0000 -3.0000 0.0000
         vertex 9.7000 -3.0000 0.0000
         vertex 9.7000 -3.0000 -50.0000
      endloop
   endfacet
   facet normal 0.0000 1.0000 0.0000
      outer loop
         vertex 8.0000 -3.0000 0.0000
         vertex 9.7000 -3.0000 -50.0000
         vertex 8.0000 -3.0000 -50.0000
      endloop
   endfacet
   facet normal 0.7672 -0.6414 0.0000
      outer loop
         vertex 9.5000 -9.8660 -50.0000
         vertex 9.8660 -9.5000 -50.0000
         vertex 9.8660 -9.5000 0.0000
      endloop
   endfacet
   facet normal 0.6414 -0.7672 0.0000
      outer loop
         vertex 9.5000 -9.8660 -50.0000
         vertex 9.8660 -9.5000 0.0000
         vertex 9.5000 -9.8660 0.0000
      endloop
   endfacet
   facet normal 0.9405 -0.3399 0.0000
      outer loop
         vertex 9.8660 -9.5000 -50.0000
         vertex 10.0000 -9.0000 -50.0000
         vertex 10.0000 -9.0000 0.0000
      endloop
   endfacet
   facet normal 0.9071 -0.4210 0.0000
      outer loop
         vertex 9.8660 -9.5000 -50.0000
         vertex 10.0000 -9.0000 0.0000
         vertex 9.8660 -9.5000 0.0000
      endloop
   endfacet
   facet normal 0.4210 -0.9071 0.0000
      outer loop
         vertex 9.0000 -10.0000 -50.0000
         vertex 9.5000 -9.8660 -50.0000
         vertex 9.5000 -9.8660 0.0000
      endloop
   endfacet
   facet normal 0.3399 -0.9405 0.0000
      outer loop
         vertex 9.0000 -10.0000 -50.0000
         vertex 9.5000 -9.8660 0.0000
         vertex 9.0000 -10.0000 0.0000
      endloop
   endfacet
   facet normal 1.0000 0.0000 0.0000
      outer loop
         vertex 10.0000 -9.0000 -50.0000
         vertex 10.0000 -3.3000 -50.0000
         vertex 10.0000 -3.3000 0.0000
      endloop
   endfacet
   facet normal 1.0000 0.0000 0.0000
      outer loop
         vertex 10.0000 -9.0000 -50.0000
         vertex 10.0000 -3.3000 0.0000
         vertex 10.0000 -9.0000 0.0000
      endloop
   endfacet
   facet normal 0.9071 0.4210 0.0000
      outer loop
         vertex 10.0000 -3.3000 -50.0000
         vertex 9.9598 -3.1500 -50.0000
         vertex 9.9598 -3.1500 0.0000
      endloop
   endfacet
   facet normal 0.9405 0.3399 0.0000
      outer loop
         vertex 10.0000 -3.3000 -50.0000
         vertex 9.9598 -3.1500 0.0000
         vertex 10.0000 -3.3000 0.0000
      endloop
   endfacet
   facet normal 0.3399 0.9405 0.0000
      outer loop
         vertex 9.8500 -3.0402 -50.0000
         vertex 9.7000 -3.0000 -50.0000
         vertex 9.7000 -3.0000 0.0000
      endloop
   endfacet
   facet normal 0.4210 0.9071 0.0000
      outer loop
         vertex 9.8500 -3.0402 -50.0000
         vertex 9.7000 -3.0000 0.0000
         vertex 9.8500 -3.0402 0.0000
      endloop
   endfacet
   facet normal 0.6414 0.7672 0.0000
      outer loop
         vertex 9.9598 -3.1500 -50.0000
         vertex 9.8500 -3.0402 -50.0000
         vertex 9.8500 -3.0402 0.0000
      endloop
   endfacet
   facet normal 0.7672 0.6414 0.0000
      outer loop
         vertex 9.9598 -3.1500 -50.0000
         vertex 9.8500 -3.0402 0.0000
         vertex 9.9598 -3.1500 0.0000
      endloop
   endfacet
   facet normal 0.8660 0.5000 0.0000
      outer loop
         vertex 4.0000 -0.5196 0.0000
         vertex 4.0000 -0.5196 -50.0000
         vertex 3.7000 0.0000 -50.0000
      endloop
   endfacet
   facet normal 0.8660 0.5000 0.0000
      outer loop
         vertex 4.0000 -0.5196 0.0000
         vertex 3.7000 0.0000 -50.0000
         vertex 3.7000 0.0000 0.0000
      endloop
   endfacet
   facet normal 0.5000 0.8660 0.0000
      outer loop
         vertex -0.0000 3.7000 -50.0000
         vertex -0.5196 4.0000 -50.0000
         vertex -0.5196 4.0000 0.0000
      endloop
   endfacet
   facet normal 0.5000 0.8660 0.0000
      outer loop
         vertex -0.0000 3.7000 -50.0000
         vertex -0.5196 4.0000 0.0000
         vertex -0.0000 3.7000 0.0000
      endloop
   endfacet
   facet normal 0.7071 0.7071 0.0000
      outer loop
         vertex 4.0000 -2.9393 0.0000
         vertex 7.0606 -6.0000 0.0000
         vertex 7.0606 -6.0000 -50.0000
      endloop
   endfacet
   facet normal 0.7071 0.7071 0.0000
      outer loop
         vertex 4.0000 -2.9393 0.0000
         vertex 7.0606 -6.0000 -50.0000
         vertex 4.0000 -2.9393 -50.0000
      endloop
   endfacet
   facet normal -0.9391 0.3437 0.0000
      outer loop
         vertex 2.1000 0.0000 -50.0000
         vertex 1.8187 -1.0500 -50.0000
         vertex 1.8187 -1.0500 0.0000
      endloop
   endfacet
   facet normal -0.9851 0.1719 0.0000
      outer loop
         vertex 2.1000 0.0000 -50.0000
         vertex 1.8187 -1.0500 0.0000
         vertex 2.1000 0.0000 0.0000
      endloop
   endfacet
   facet normal -0.6414 0.7672 0.0000
      outer loop
         vertex 1.0500 -1.8187 -50.0000
         vertex 1.0500 -1.8187 0.0000
         vertex 1.8187 -1.0500 0.0000
      endloop
   endfacet
   facet normal -0.7672 0.6414 0.0000
      outer loop
         vertex 1.0500 -1.8187 -50.0000
         vertex 1.8187 -1.0500 0.0000
         vertex 1.8187 -1.0500 -50.0000
      endloop
   endfacet
   facet normal 1.0000 0.0000 0.0000
      outer loop
         vertex 4.0000 -2.9393 -50.0000
         vertex 4.0000 -0.5196 -50.0000
         vertex 4.0000 -0.5196 0.0000
      endloop
   endfacet
   facet normal 1.0000 0.0000 0.0000
      outer loop
         vertex 4.0000 -2.9393 -50.0000
         vertex 4.0000 -0.5196 0.0000
         vertex 4.0000 -2.9393 0.0000
      endloop
   endfacet
   facet normal -0.3437 -0.9391 0.0000
      outer loop
         vertex 1.0500 1.8187 -50.0000
         vertex 1.0500 1.8187 0.0000
         vertex 0.0000 2.1000 0.0000
      endloop
   endfacet
   facet normal -0.1719 -0.9851 0.0000
      outer loop
         vertex 1.0500 1.8187 -50.0000
         vertex 0.0000 2.1000 0.0000
         vertex 0.0000 2.1000 -50.0000
      endloop
   endfacet
   facet normal -0.6414 -0.7672 0.0000
      outer loop
         vertex 1.0500 1.8187 0.0000
         vertex 1.0500 1.8187 -50.0000
         vertex 1.8187 1.0500 -50.0000
      endloop
   endfacet
   facet normal -0.7672 -0.6414 0.0000
      outer loop
         vertex 1.0500 1.8187 0.0000
         vertex 1.8187 1.0500 -50.0000
         vertex 1.8187 1.0500 0.0000
      endloop
   endfacet
   facet normal -0.9391 -0.3437 0.0000
      outer loop
         vertex 2.1000 0.0000 0.0000
         vertex 1.8187 1.0500 0.0000
         vertex 1.8187 1.0500 -50.0000
      endloop
   endfacet
   facet normal -0.9851 -0.1719 0.0000
      outer loop
         vertex 2.1000 0.0000 0.0000
         vertex 1.8187 1.0500 -50.0000
         vertex 2.1000 0.0000 -50.0000
      endloop
   endfacet
   facet normal 0.0000 1.0000 0.0000
      outer loop
         vertex 2.9393 4.0000 -50.0000
         vertex 0.5196 4.0000 -50.0000
         vertex 0.5196 4.0000 0.0000
      endloop
   endfacet
   facet normal 0.0000 1.0000 0.0000
      outer loop
         vertex 2.9393 4.0000 -50.0000
         vertex 0.5196 4.0000 0.0000
         vertex 2.9393 4.0000 0.0000
      endloop
   endfacet
   facet normal -0.5000 0.8660 0.0000
      outer loop
         vertex 0.5196 4.0000 -50.0000
         vertex -0.0000 3.7000 -50.0000
         vertex -0.0000 3.7000 0.0000
      endloop
   endfacet
   facet normal -0.5000 0.8660 0.0000
      outer loop
         vertex 0.5196 4.0000 -50.0000
         vertex -0.0000 3.7000 0.0000
         vertex 0.5196 4.0000 0.0000
      endloop
   endfacet
   facet normal 0.0000 1.0000 0.0000
      outer loop
         vertex 6.0000 -8.0000 -50.0000
         vertex 3.0000 -8.0000 -50.0000
         vertex 3.0000 -8.0000 0.0000
      endloop
   endfacet
   facet normal 0.0000 1.0000 0.0000
      outer loop
         vertex 6.0000 -8.0000 -50.0000
         vertex 3.0000 -8.0000 0.0000
         vertex 6.0000 -8.0000 0.0000
      endloop
   endfacet
   facet normal -1.0000 0.0000 0.0000
      outer loop
         vertex 3.0000 -8.0000 -50.0000
         vertex 3.0000 -9.7000 -50.0000
         vertex 3.0000 -9.7000 0.0000
      endloop
   endfacet
   facet normal -1.0000 0.0000 0.0000
      outer loop
         vertex 3.0000 -8.0000 -50.0000
         vertex 3.0000 -9.7000 0.0000
         vertex 3.0000 -8.0000 0.0000
      endloop
   endfacet
   facet normal -0.6414 -0.7672 0.0000
      outer loop
         vertex 3.0402 -9.8500 -50.0000
         vertex 3.1500 -9.9598 -50.0000
         vertex 3.1500 -9.9598 0.0000
      endloop
   endfacet
   facet normal -0.7672 -0.6414 0.0000
      outer loop
         vertex 3.0402 -9.8500 -50.0000
         vertex 3.1500 -9.9598 0.0000
         vertex 3.0402 -9.8500 0.0000
      endloop
   endfacet
   facet normal -0.3399 -0.9405 0.0000
      outer loop
         vertex 3.1500 -9.9598 -50.0000
         vertex 3.3000 -10.0000 -50.0000
         vertex 3.3000 -10.0000 0.0000
      endloop
   endfacet
   facet normal -0.4210 -0.9071 0.0000
      outer loop
         vertex 3.1500 -9.9598 -50.0000
         vertex 3.3000 -10.0000 0.0000
         vertex 3.1500 -9.9598 0.0000
      endloop
   endfacet
   facet normal -0.9071 -0.4210 0.0000
      outer loop
         vertex 3.0000 -9.7000 -50.0000
         vertex 3.0402 -9.8500 -50.0000
         vertex 3.0402 -9.8500 0.0000
      endloop
   endfacet
   facet normal -0.9405 -0.3399 0.0000
      outer loop
         vertex 3.0000 -9.7000 -50.0000
         vertex 3.0402 -9.8500 0.0000
         vertex 3.0000 -9.7000 0.0000
      endloop
   endfacet
   facet normal -0.7071 -0.7071 0.0000
      outer loop
         vertex 2.9393 -4.0000 -50.0000
         vertex 6.0000 -7.0607 -50.0000
         vertex 6.0000 -7.0607 0.0000
      endloop
   endfacet
   facet normal -0.7071 -0.7071 0.0000
      outer loop
         vertex 2.9393 -4.0000 -50.0000
         vertex 6.0000 -7.0607 0.0000
         vertex 2.9393 -4.0000 0.0000
      endloop
   endfacet
   facet normal 1.0000 0.0000 0.0000
      outer loop
         vertex 4.0000 0.5196 -50.0000
         vertex 4.0000 2.9393 -50.0000
         vertex 4.0000 2.9393 0.0000
      endloop
   endfacet
   facet normal 1.0000 0.0000 0.0000
      outer loop
         vertex 4.0000 0.5196 -50.0000
         vertex 4.0000 2.9393 0.0000
         vertex 4.0000 0.5196 0.0000
      endloop
   endfacet
   facet normal -1.0000 0.0000 0.0000
      outer loop
         vertex 3.0000 9.7000 -50.0000
         vertex 3.0000 8.0000 -50.0000
         vertex 3.0000 8.0000 0.0000
      endloop
   endfacet
   facet normal -1.0000 0.0000 0.0000
      outer loop
         vertex 3.0000 9.7000 -50.0000
         vertex 3.0000 8.0000 0.0000
         vertex 3.0000 9.7000 0.0000
      endloop
   endfacet
   facet normal 0.0000 -1.0000 0.0000
      outer loop
         vertex 6.0000 8.0000 0.0000
         vertex 3.0000 8.0000 0.0000
         vertex 3.0000 8.0000 -50.0000
      endloop
   endfacet
   facet normal 0.0000 -1.0000 0.0000
      outer loop
         vertex 6.0000 8.0000 0.0000
         vertex 3.0000 8.0000 -50.0000
         vertex 6.0000 8.0000 -50.0000
      endloop
   endfacet
   facet normal -0.4210 0.9071 0.0000
      outer loop
         vertex 3.3000 10.0000 -50.0000
         vertex 3.1500 9.9598 -50.0000
         vertex 3.1500 9.9598 0.0000
      endloop
   endfacet
   facet normal -0.3399 0.9405 0.0000
      outer loop
         vertex 3.3000 10.0000 -50.0000
         vertex 3.1500 9.9598 0.0000
         vertex 3.3000 10.0000 0.0000
      endloop
   endfacet
   facet normal 0.0000 1.0000 0.0000
      outer loop
         vertex 9.0000 10.0000 -50.0000
         vertex 3.3000 10.0000 -50.0000
         vertex 3.3000 10.0000 0.0000
      endloop
   endfacet
   facet normal 0.0000 1.0000 0.0000
      outer loop
         vertex 9.0000 10.0000 -50.0000
         vertex 3.3000 10.0000 0.0000
         vertex 9.0000 10.0000 0.0000
      endloop
   endfacet
   facet normal -0.7672 0.6414 0.0000
      outer loop
         vertex 3.1500 9.9598 -50.0000
         vertex 3.0402 9.8500 -50.0000
         vertex 3.0402 9.8500 0.0000
      endloop
   endfacet
   facet normal -0.6414 0.7672 0.0000
      outer loop
         vertex 3.1500 9.9598 -50.0000
         vertex 3.0402 9.8500 0.0000
         vertex 3.1500 9.9598 0.0000
      endloop
   endfacet
   facet normal -0.9405 0.3399 0.0000
      outer loop
         vertex 3.0402 9.8500 -50.0000
         vertex 3.0000 9.7000 -50.0000
         vertex 3.0000 9.7000 0.0000
      endloop
   endfacet
   facet normal -0.9071 0.4210 0.0000
      outer loop
         vertex 3.0402 9.8500 -50.0000
         vertex 3.0000 9.7000 0.0000
         vertex 3.0402 9.8500 0.0000
      endloop
   endfacet
   facet normal 0.8660 -0.5000 0.0000
      outer loop
         vertex 3.7000 0.0000 -50.0000
         vertex 4.0000 0.5196 -50.0000
         vertex 4.0000 0.5196 0.0000
      endloop
   endfacet
   facet normal 0.8660 -0.5000 0.0000
      outer loop
         vertex 3.7000 0.0000 -50.0000
         vertex 4.0000 0.5196 0.0000
         vertex 3.7000 0.0000 0.0000
      endloop
   endfacet
   facet normal -0.7071 0.7071 0.0000
      outer loop
         vertex 6.0000 7.0607 -50.0000
         vertex 2.9393 4.0000 -50.0000
         vertex 2.9393 4.0000 0.0000
      endloop
   endfacet
   facet normal -0.7071 0.7071 0.0000
      outer loop
         vertex 6.0000 7.0607 -50.0000
         vertex 2.9393 4.0000 0.0000
         vertex 6.0000 7.0607 0.0000
      endloop
   endfacet
endsolid
